<svg width="414" height="414" viewBox="0 0 414 414" fill="none" xmlns="http://www.w3.org/2000/svg">
<path d="M74.8369 326.213C55.2084 329.345 53.7238 338.697 74.8369 349.29C95.9501 359.883 369.176 362.897 367.934 342.876C366.692 322.856 160.531 312.538 74.8369 326.213Z" fill="#A2B4A4"/>
<path d="M59.8571 110.798C26.5243 161.045 100.475 252.674 237.856 239.21C375.237 225.745 381.389 134.58 335.927 117.338C290.465 100.096 283.796 143.354 267.273 140.992C250.749 138.63 114.303 28.7245 59.8571 110.798Z" fill="#B6DEB9"/>
<path d="M99.5039 126.135H92.3707C91.9691 126.135 91.6445 125.81 91.6445 125.409V84.7916C91.6445 84.39 91.9699 84.0654 92.3707 84.0654H99.5039C99.9055 84.0654 100.23 84.3908 100.23 84.7916V125.409C100.231 125.81 99.9055 126.135 99.5039 126.135Z" fill="#1E261E"/>
<path d="M99.7167 150.747H92.1579C91.8739 150.747 91.6445 150.517 91.6445 150.234V130.226C91.6445 129.942 91.8747 129.713 92.1579 129.713H99.7167C100.001 129.713 100.23 129.943 100.23 130.226V150.234C100.231 150.517 100.001 150.747 99.7167 150.747Z" fill="#1E261E"/>
<path d="M255.205 330.907H106.163C99.4275 330.907 93.9668 325.447 93.9668 318.711V53.7609C93.9668 47.0251 99.4275 41.5645 106.163 41.5645H255.205C261.941 41.5645 267.401 47.0251 267.401 53.7609V318.711C267.401 325.447 261.941 330.907 255.205 330.907Z" fill="url(#paint0_linear_909_2731)"/>
<path d="M252.376 57.0195H108.993V315.453H252.376V57.0195Z" fill="#EAEEED"/>
<path d="M271.51 357.599C310.472 357.599 342.057 354.42 342.057 350.498C342.057 346.577 310.472 343.397 271.51 343.397C232.548 343.397 200.963 346.577 200.963 350.498C200.963 354.42 232.548 357.599 271.51 357.599Z" fill="#BCBEC0"/>
<path d="M298.938 242.454C287.797 235.29 284.352 240.803 284.352 240.803L268.432 248.083L252.512 240.803C252.512 240.803 249.069 235.29 237.926 242.454C226.785 249.619 206.058 271.369 207.849 281.604C209.64 291.839 221.923 292.862 224.481 289.28C227.04 285.698 230.878 274.183 242.393 271.113C242.393 271.113 240.09 305.656 241.369 307.447C242.648 309.238 257.369 319.986 268.432 319.986C279.495 319.986 294.216 309.239 295.495 307.447C296.775 305.656 294.472 271.113 294.472 271.113C305.986 274.183 309.825 285.698 312.383 289.28C314.942 292.862 327.224 291.839 329.015 281.604C330.806 271.369 310.08 249.619 298.938 242.454Z" fill="#539FB4"/>
<path d="M286.924 335.963C285.744 336.673 272.206 298.89 272.206 298.89L255.593 303.034C255.593 303.034 207.927 310.078 202.752 314.188C197.577 318.297 196.898 328.503 200.921 335.091C204.945 341.68 273.419 356.791 273.419 356.791C273.419 356.791 276.948 375.352 285.592 371.295C294.235 367.238 288.972 355.989 288.839 351.471C288.708 346.953 288.104 335.253 286.924 335.963Z" fill="#C82521"/>
<path d="M285.857 356.483C285.2 352.961 284.374 347.129 284.741 342.115C284.943 339.354 284.463 336.79 283.957 335.199L281.883 334.633C269.136 344.914 273.419 356.79 273.419 356.79L273.44 356.894C273.564 357.508 274.31 361.039 275.794 364.519C279.655 354.177 285.857 356.483 285.857 356.483Z" fill="#204F5C"/>
<path d="M285.593 371.294C294.236 367.237 288.972 355.988 288.84 351.47C288.716 347.21 288.171 336.571 287.12 335.964L286.962 335.952C286.95 335.957 286.937 335.955 286.924 335.963C286.889 335.983 286.852 335.974 286.811 335.941L283.957 335.2C284.463 336.791 284.943 339.354 284.741 342.116C284.374 347.129 285.2 352.962 285.857 356.484C285.857 356.484 279.655 354.178 275.794 364.52C277.726 369.05 280.907 373.494 285.593 371.294Z" fill="#6EB9CF"/>
<path d="M257.069 336.824C257.433 337.013 261.945 334.634 261.945 335.2C265.629 324.09 269.393 298.888 269.393 298.888L286.237 301.965C286.237 301.965 334.254 305.956 339.681 309.726C345.107 313.497 346.436 323.639 342.84 330.47C339.245 337.302 271.874 356.748 271.874 356.748C271.874 356.748 269.535 375.497 260.651 371.999C251.766 368.502 256.302 356.94 256.145 352.423C255.989 347.905 255.846 336.191 257.069 336.824Z" fill="#C82521"/>
<path d="M259.441 357.235C259.872 353.678 260.325 347.805 259.638 342.825C259.261 340.083 259.576 337.493 259.98 335.874L262.013 335.176C275.39 344.623 271.872 356.748 271.872 356.748L271.858 356.853C271.774 357.473 271.254 361.044 269.995 364.612C265.484 354.538 259.441 357.235 259.441 357.235Z" fill="#286373"/>
<path d="M260.65 372C251.765 368.502 256.301 356.94 256.144 352.423C255.997 348.164 255.862 337.511 256.872 336.838L257.03 336.816C257.043 336.82 257.054 336.818 257.068 336.825C257.103 336.843 257.141 336.831 257.179 336.796L259.98 335.874C259.576 337.494 259.261 340.083 259.639 342.825C260.324 347.806 259.871 353.679 259.442 357.235C259.442 357.235 265.483 354.538 269.996 364.613C268.357 369.258 265.466 373.896 260.65 372Z" fill="#7ACEE6"/>
<path d="M284.18 240.804L276.139 237.797V229.715L268.347 233.804L260.554 229.715V237.797L252.513 240.804C252.513 240.804 259.124 250.637 268.26 250.76V250.766C268.289 250.766 268.318 250.763 268.347 250.763C268.376 250.763 268.404 250.766 268.433 250.766V250.76C277.569 250.637 284.18 240.804 284.18 240.804Z" fill="#A46C35"/>
<path d="M268.346 233.804L260.554 229.715V237.797L256.713 239.234C257.71 239.921 258.904 240.371 260.099 240.52C262.761 240.852 265.418 240.024 267.945 239.124C270.714 238.137 273.446 237.046 276.139 235.864V229.715L268.346 233.804Z" fill="#BCBEC0"/>
<mask id="mask0_909_2731" style="mask-type:luminance" maskUnits="userSpaceOnUse" x="283" y="206" width="15" height="16">
<path d="M286.517 211.501C287.397 209.596 288.897 207.887 290.879 207.202C292.862 206.516 295.333 207.074 296.504 208.815C297.865 210.839 297.13 213.61 295.919 215.728C295.002 217.328 293.818 218.807 292.289 219.838C290.76 220.869 288.859 221.418 287.042 221.109C285.444 220.836 283.857 219.715 283.624 218.111L286.517 211.501Z" fill="white"/>
</mask>
<g mask="url(#mask0_909_2731)">
<path d="M286.517 211.501C287.397 209.596 288.897 207.887 290.879 207.202C292.862 206.516 295.333 207.074 296.504 208.815C297.865 210.839 297.13 213.61 295.919 215.728C295.002 217.328 293.818 218.807 292.289 219.838C290.76 220.869 288.859 221.418 287.042 221.109C285.444 220.836 283.857 219.715 283.624 218.111L286.517 211.501Z" fill="#A46C35"/>
</g>
<mask id="mask1_909_2731" style="mask-type:luminance" maskUnits="userSpaceOnUse" x="283" y="206" width="15" height="16">
<path d="M286.517 211.501C287.397 209.596 288.897 207.887 290.879 207.202C292.862 206.516 295.333 207.074 296.504 208.815C297.865 210.839 297.13 213.61 295.919 215.728C295.002 217.328 293.818 218.807 292.289 219.838C290.76 220.869 288.859 221.418 287.042 221.109C285.444 220.836 283.857 219.715 283.624 218.111L286.517 211.501Z" fill="white"/>
</mask>
<g mask="url(#mask1_909_2731)">
<path d="M282.117 216.058C283.462 214.375 284.991 212.824 286.811 211.576C287.628 211.031 288.525 210.559 289.469 210.209C289.803 210.086 290.142 209.975 290.488 209.886C291.331 209.671 292.202 209.567 293.085 209.622C295.296 209.714 297.563 210.8 298.626 212.7C297.19 211.089 295.062 210.481 293.071 210.523C292.278 210.543 291.5 210.686 290.744 210.918C290.849 211.496 290.9 212.085 290.877 212.682C290.837 214.894 289.805 217.186 287.93 218.294C289.507 216.82 290.065 214.678 289.976 212.689C289.953 212.21 289.883 211.736 289.779 211.271C288.968 211.609 288.189 212.04 287.457 212.538C285.758 213.675 284.241 215.136 282.802 216.647C281.386 218.18 280.081 219.83 279.001 221.671C279.67 219.642 280.77 217.741 282.117 216.058Z" fill="#1C0F12"/>
</g>
<path d="M290.014 187.395V195.363C289.869 196.233 287.116 219.557 283.349 225.931C279.582 232.306 272.199 236.095 268.067 236.095V187.395L290.014 187.395Z" fill="#A46C35"/>
<mask id="mask2_909_2731" style="mask-type:luminance" maskUnits="userSpaceOnUse" x="283" y="206" width="15" height="16">
<path d="M286.517 211.501C287.397 209.596 288.897 207.887 290.879 207.202C292.862 206.516 295.333 207.074 296.504 208.815C297.865 210.839 297.13 213.61 295.919 215.728C295.002 217.328 293.818 218.807 292.289 219.838C290.76 220.869 288.859 221.418 287.042 221.109C285.444 220.836 283.857 219.715 283.624 218.111L286.517 211.501Z" fill="white"/>
</mask>
<g mask="url(#mask2_909_2731)">
<path d="M286.517 211.501C287.397 209.596 288.897 207.887 290.879 207.202C292.862 206.516 295.333 207.074 296.504 208.815C297.865 210.839 297.13 213.61 295.919 215.728C295.002 217.328 293.818 218.807 292.289 219.838C290.76 220.869 288.859 221.418 287.042 221.109C285.444 220.836 283.857 219.715 283.624 218.111L286.517 211.501Z" fill="#A46C35"/>
</g>
<mask id="mask3_909_2731" style="mask-type:luminance" maskUnits="userSpaceOnUse" x="283" y="206" width="15" height="16">
<path d="M286.517 211.501C287.397 209.596 288.897 207.887 290.879 207.202C292.862 206.516 295.333 207.074 296.504 208.815C297.865 210.839 297.13 213.61 295.919 215.728C295.002 217.328 293.818 218.807 292.289 219.838C290.76 220.869 288.859 221.418 287.042 221.109C285.444 220.836 283.857 219.715 283.624 218.111L286.517 211.501Z" fill="white"/>
</mask>
<g mask="url(#mask3_909_2731)">
<path d="M282.117 216.058C283.462 214.375 284.991 212.824 286.811 211.576C287.628 211.031 288.525 210.559 289.469 210.209C289.803 210.086 290.142 209.975 290.488 209.886C291.331 209.671 292.202 209.567 293.085 209.622C295.296 209.714 297.563 210.8 298.626 212.7C297.19 211.089 295.062 210.481 293.071 210.523C292.278 210.543 291.5 210.686 290.744 210.918C290.849 211.496 290.9 212.085 290.877 212.682C290.837 214.894 289.805 217.186 287.93 218.294C289.507 216.82 290.065 214.678 289.976 212.689C289.953 212.21 289.883 211.736 289.779 211.271C288.968 211.609 288.189 212.04 287.457 212.538C285.758 213.675 284.241 215.136 282.802 216.647C281.386 218.18 280.081 219.83 279.001 221.671C279.67 219.642 280.77 217.741 282.117 216.058Z" fill="#1C0F12"/>
</g>
<mask id="mask4_909_2731" style="mask-type:luminance" maskUnits="userSpaceOnUse" x="238" y="206" width="15" height="16">
<path d="M249.619 211.501C248.739 209.596 247.239 207.887 245.257 207.202C243.274 206.516 240.803 207.074 239.632 208.815C238.271 210.839 239.005 213.61 240.217 215.728C241.133 217.328 242.317 218.807 243.847 219.838C245.376 220.869 247.276 221.418 249.094 221.109C250.692 220.836 252.279 219.715 252.512 218.111L249.619 211.501Z" fill="white"/>
</mask>
<g mask="url(#mask4_909_2731)">
<path d="M249.619 211.501C248.739 209.596 247.239 207.887 245.257 207.202C243.274 206.516 240.803 207.074 239.632 208.815C238.271 210.839 239.005 213.61 240.217 215.728C241.133 217.328 242.317 218.807 243.847 219.838C245.376 220.869 247.276 221.418 249.094 221.109C250.692 220.836 252.279 219.715 252.512 218.111L249.619 211.501Z" fill="#A46C35"/>
</g>
<mask id="mask5_909_2731" style="mask-type:luminance" maskUnits="userSpaceOnUse" x="238" y="206" width="15" height="16">
<path d="M249.619 211.501C248.739 209.596 247.239 207.887 245.257 207.202C243.274 206.516 240.803 207.074 239.632 208.815C238.271 210.839 239.005 213.61 240.217 215.728C241.133 217.328 242.317 218.807 243.847 219.838C245.376 220.869 247.276 221.418 249.094 221.109C250.692 220.836 252.279 219.715 252.512 218.111L249.619 211.501Z" fill="white"/>
</mask>
<g mask="url(#mask5_909_2731)">
<path d="M254.018 216.058C252.673 214.375 251.144 212.824 249.324 211.576C248.507 211.031 247.61 210.559 246.666 210.209C246.332 210.086 245.993 209.975 245.647 209.886C244.804 209.671 243.933 209.567 243.05 209.622C240.839 209.714 238.572 210.8 237.509 212.7C238.945 211.089 241.073 210.481 243.064 210.523C243.857 210.543 244.635 210.686 245.391 210.918C245.286 211.496 245.235 212.085 245.258 212.682C245.298 214.894 246.33 217.186 248.205 218.294C246.628 216.82 246.07 214.678 246.159 212.689C246.182 212.21 246.252 211.736 246.356 211.271C247.167 211.609 247.946 212.04 248.679 212.538C250.377 213.675 251.894 215.136 253.333 216.647C254.749 218.18 256.054 219.83 257.134 221.671C256.465 219.642 255.365 217.741 254.018 216.058Z" fill="#1C0F12"/>
</g>
<path d="M296.065 178.917C294.761 177.418 292.816 176.617 290.87 176.215L244.966 181.638C243.406 182.647 241.828 183.67 240.56 185.026C239.291 186.384 238.342 188.131 238.31 189.988C238.276 191.975 239.271 194.01 238.614 195.886C238.301 196.777 237.63 197.731 238.073 198.566C238.398 199.179 239.226 199.374 239.895 199.19C240.564 199.006 241.111 198.536 241.634 198.079C241.193 198.813 240.744 199.568 240.594 200.41C240.443 201.252 240.653 202.215 241.33 202.737C242.007 203.261 243.177 203.107 243.518 202.323C243.371 206.636 244.995 210.985 247.933 214.146C248.363 214.608 248.913 215.08 249.539 215.003C250.527 214.879 250.816 213.59 250.785 212.594C250.608 206.904 248.034 201.245 249.256 195.685C249.463 194.748 249.789 193.809 250.412 193.079C251.637 191.645 253.692 191.318 255.567 191.122C263.108 190.331 270.709 190.119 278.283 190.486C279.983 190.569 281.713 190.687 283.305 191.289C283.592 191.398 283.885 191.53 284.075 191.77C284.384 192.158 284.346 192.708 284.295 193.201C283.457 201.219 283.256 209.303 283.695 217.352C283.719 217.804 283.787 218.328 284.175 218.561C284.71 218.883 285.365 218.396 285.752 217.905C286.535 216.913 287.093 215.75 287.401 214.525C287.542 214.936 287.959 215.276 288.371 215.153C288.608 215.083 288.782 214.884 288.932 214.688C291.022 211.97 291.214 208.292 291.32 204.865C291.248 206.159 291.397 207.466 291.756 208.711C293.505 207.326 294.3 205.045 294.593 202.833C294.887 200.622 294.765 198.368 295.106 196.163C295.566 193.195 296.846 190.414 297.492 187.481C298.141 184.548 298.037 181.184 296.065 178.917Z" fill="black"/>
<path d="M288.626 174.789C287.885 173.168 286.25 171.898 284.53 170.826C281.729 169.081 278.564 167.696 275.197 166.743C271.83 165.791 268.177 165.235 265.323 163.541C265.187 163.46 265.042 163.373 264.872 163.368C264.489 163.355 264.301 163.724 264.25 164.022C264.076 165.043 264.222 166.095 264.655 167.068C264.256 166.628 263.57 166.309 262.931 166.054C260.645 165.144 258.337 164.268 256.01 163.424C254.391 162.837 252.707 162.256 250.924 162.227C250.835 163.063 250.964 163.911 251.28 164.713C250.963 164.262 250.533 163.859 249.994 163.564C249.807 163.461 249.585 163.367 249.36 163.399C249.06 163.442 248.887 163.685 248.763 163.904C247.267 166.562 246.922 169.608 247.797 172.432C245.676 171.373 243.556 170.316 241.435 169.258C239.565 172.119 239.669 175.716 241.704 178.507C240.984 178.564 240.237 178.322 239.78 177.883C239.88 179.462 240.002 181.105 240.982 182.488C241.961 183.87 244.072 184.9 245.997 184.423L290.87 178.021C291.046 176.904 289.111 175.849 288.626 174.789Z" fill="black"/>
<path d="M268.068 187.396H246.122V195.363C246.267 196.233 249.019 219.558 252.787 225.931C256.553 232.306 263.936 236.095 268.068 236.095C272.2 236.095 279.583 232.306 283.35 225.931C287.116 219.557 289.869 196.232 290.014 195.363V187.396H268.068Z" fill="#A46C35"/>
<path d="M258.065 216.456C261.252 216.456 263.835 213.873 263.835 210.686C263.835 207.5 261.252 204.917 258.065 204.917C254.879 204.917 252.296 207.5 252.296 210.686C252.296 213.873 254.879 216.456 258.065 216.456Z" fill="black"/>
<mask id="mask6_909_2731" style="mask-type:luminance" maskUnits="userSpaceOnUse" x="252" y="205" width="13" height="13">
<path d="M258.354 217.235C261.541 217.235 264.124 214.652 264.124 211.466C264.124 208.279 261.541 205.696 258.354 205.696C255.168 205.696 252.585 208.279 252.585 211.466C252.585 214.652 255.168 217.235 258.354 217.235Z" fill="white"/>
</mask>
<g mask="url(#mask6_909_2731)">
<path d="M258.354 217.235C261.541 217.235 264.124 214.652 264.124 211.466C264.124 208.279 261.541 205.696 258.354 205.696C255.168 205.696 252.585 208.279 252.585 211.466C252.585 214.652 255.168 217.235 258.354 217.235Z" fill="#EFEFEF"/>
</g>
<mask id="mask7_909_2731" style="mask-type:luminance" maskUnits="userSpaceOnUse" x="252" y="205" width="13" height="13">
<path d="M258.354 217.235C261.541 217.235 264.124 214.652 264.124 211.466C264.124 208.279 261.541 205.696 258.354 205.696C255.168 205.696 252.585 208.279 252.585 211.466C252.585 214.652 255.168 217.235 258.354 217.235Z" fill="white"/>
</mask>
<g mask="url(#mask7_909_2731)">
<path d="M258.596 217.14C261.418 217.14 263.707 214.852 263.707 212.029C263.707 209.206 261.418 206.918 258.596 206.918C255.773 206.918 253.484 209.206 253.484 212.029C253.484 214.852 255.773 217.14 258.596 217.14Z" fill="black"/>
</g>
<path d="M278.457 216.456C281.643 216.456 284.227 213.873 284.227 210.686C284.227 207.5 281.643 204.917 278.457 204.917C275.271 204.917 272.688 207.5 272.688 210.686C272.688 213.873 275.271 216.456 278.457 216.456Z" fill="black"/>
<mask id="mask8_909_2731" style="mask-type:luminance" maskUnits="userSpaceOnUse" x="272" y="205" width="12" height="13">
<path d="M278.168 217.235C281.354 217.235 283.937 214.652 283.937 211.466C283.937 208.279 281.354 205.696 278.168 205.696C274.982 205.696 272.398 208.279 272.398 211.466C272.398 214.652 274.982 217.235 278.168 217.235Z" fill="white"/>
</mask>
<g mask="url(#mask8_909_2731)">
<path d="M278.168 217.235C281.354 217.235 283.937 214.652 283.937 211.466C283.937 208.279 281.354 205.696 278.168 205.696C274.982 205.696 272.398 208.279 272.398 211.466C272.398 214.652 274.982 217.235 278.168 217.235Z" fill="#EFEFEF"/>
</g>
<mask id="mask9_909_2731" style="mask-type:luminance" maskUnits="userSpaceOnUse" x="272" y="205" width="12" height="13">
<path d="M278.168 217.235C281.354 217.235 283.937 214.652 283.937 211.466C283.937 208.279 281.354 205.696 278.168 205.696C274.982 205.696 272.398 208.279 272.398 211.466C272.398 214.652 274.982 217.235 278.168 217.235Z" fill="white"/>
</mask>
<g mask="url(#mask9_909_2731)">
<path d="M277.927 217.14C280.75 217.14 283.038 214.852 283.038 212.029C283.038 209.206 280.75 206.918 277.927 206.918C275.104 206.918 272.815 209.206 272.815 212.029C272.815 214.852 275.104 217.14 277.927 217.14Z" fill="black"/>
</g>
<path d="M268.599 206.919C269.932 207.067 271.284 218.607 270.494 219.08C269.704 219.554 266.703 219.87 266.23 219.08C265.756 218.29 267.178 206.76 268.599 206.919Z" fill="#C82521"/>
<path d="M265.18 223.869C266.834 224.161 268.438 224.157 269.995 223.813C271.555 223.48 273.017 222.82 274.403 221.871C273.44 223.27 271.835 224.195 270.158 224.563C268.478 224.921 266.636 224.743 265.18 223.869Z" fill="black"/>
<path d="M263.29 197.706C263.225 197.417 263.034 197.175 262.837 196.952C261.987 195.989 260.93 195.208 259.759 194.678C259.49 194.557 259.206 194.446 258.913 194.461C258.619 194.476 258.314 194.647 258.229 194.928C258.186 195.071 258.225 195.231 258.311 195.351C256.489 194.441 254.168 194.694 252.48 195.858C251.49 196.54 250.647 197.664 250.83 198.852L252.233 197.175C251.719 197.769 251.297 198.443 250.988 199.165C250.902 199.364 250.826 199.592 250.911 199.789C251.101 200.236 251.772 200.048 252.182 199.789C253.28 199.096 254.374 198.379 255.577 197.891C256.78 197.402 258.118 197.151 259.387 197.428C260.386 197.646 261.291 198.177 262.271 198.47C262.509 198.542 262.779 198.596 262.999 198.48C263.26 198.341 263.356 197.995 263.29 197.706Z" fill="black"/>
<path d="M273.173 203.155C273.157 202.859 273.274 202.572 273.4 202.305C273.953 201.144 274.753 200.103 275.732 199.27C275.956 199.08 276.2 198.895 276.485 198.828C276.772 198.761 277.112 198.842 277.271 199.088C277.352 199.213 277.358 199.377 277.309 199.516C278.81 198.139 281.111 197.743 283.055 198.396C284.194 198.779 285.314 199.626 285.467 200.819L283.655 199.594C284.313 200.023 284.904 200.555 285.401 201.163C285.537 201.33 285.674 201.528 285.646 201.742C285.586 202.223 284.89 202.228 284.424 202.092C283.177 201.729 281.928 201.341 280.636 201.204C279.345 201.066 277.99 201.194 276.846 201.81C275.946 202.295 275.224 203.054 274.362 203.607C274.153 203.742 273.91 203.868 273.666 203.818C273.378 203.757 273.19 203.451 273.173 203.155Z" fill="black"/>
<path d="M290.125 182.977C288.788 182.098 287.087 182.051 285.487 182.046C272.532 182.006 256.739 183.287 243.896 184.978L245.196 204.308C247.657 201.597 248.317 197.661 249.985 194.436C255.717 193.939 261.241 191.321 265.254 187.198C263.983 188.585 261.693 191.923 260.112 192.941C263.562 193.952 268.342 190.968 271.048 188.6C271.361 192.186 273.838 195.498 277.191 196.809C276.795 195.289 277.097 193.602 277.996 192.314C278.291 195.501 280.904 197.89 283.153 200.167C285.972 203.019 288.542 206.324 289.477 210.224C290.239 205.766 291.002 201.306 291.764 196.847C292.197 194.313 292.632 191.763 292.623 189.192C292.616 186.864 292.072 184.257 290.125 182.977Z" fill="black"/>
<path d="M212.967 271.113C207.017 272.964 202.476 282.371 206.058 288.768C209.64 295.166 214.758 300.027 222.69 295.421C230.622 290.815 234.889 286.094 234.204 281.092C233.521 276.09 224.482 267.53 212.967 271.113Z" fill="#286373"/>
<path d="M328.823 273.593C334.773 275.445 339.314 284.851 335.732 291.249C332.15 297.646 327.033 302.507 319.1 297.902C311.168 293.295 306.901 288.574 307.586 283.572C308.27 278.57 317.309 270.011 328.823 273.593Z" fill="#286373"/>
<path d="M212.903 293.31C212.903 293.31 210.024 276.614 227.68 278.341L251.092 299.718C251.092 299.718 256.274 288.271 259.536 288.967C262.799 289.663 266.213 293.31 266.425 294.653C266.637 295.996 256.417 317.135 253.715 315.7C251.013 314.265 214.246 295.229 212.903 293.31Z" fill="#A46C35"/>
<path d="M293.112 315.705H249.98C248.334 315.705 246.999 314.371 246.999 312.725V257.615C246.999 255.969 248.334 254.634 249.98 254.634H293.112C294.758 254.634 296.093 255.969 296.093 257.615V312.725C296.093 314.371 294.758 315.705 293.112 315.705Z" fill="url(#paint1_linear_909_2731)"/>
<path d="M302.663 294.689C302.663 294.689 302.663 289.018 296.46 287.423C290.257 285.829 279.341 288.487 279.04 293.626C279.04 293.626 277.144 293.803 276.967 295.575C276.79 297.347 280.511 298.41 280.511 298.41C280.511 298.41 276.778 297.701 276.961 300.182C277.144 302.663 282.637 303.372 282.637 303.372C282.637 303.372 279.872 302.308 279.04 304.612C278.208 306.915 290.215 308.287 292.629 309.904C295.042 311.522 298.409 312.539 303.726 309.904C309.042 307.27 332.788 299.295 331.547 289.903C330.307 280.511 315.244 281.492 313.295 283.748C311.346 286.006 302.663 294.689 302.663 294.689Z" fill="#A46C35"/>
<mask id="mask10_909_2731" style="mask-type:luminance" maskUnits="userSpaceOnUse" x="276" y="282" width="56" height="30">
<path d="M302.663 294.689C302.663 294.689 302.663 289.018 296.46 287.423C290.257 285.829 279.341 288.487 279.04 293.626C279.04 293.626 277.144 293.803 276.967 295.575C276.79 297.347 280.511 298.41 280.511 298.41C280.511 298.41 276.778 297.701 276.961 300.182C277.144 302.663 282.637 303.372 282.637 303.372C282.637 303.372 279.872 302.308 279.04 304.612C278.208 306.915 290.215 308.287 292.629 309.904C295.042 311.522 298.409 312.539 303.726 309.904C309.042 307.27 332.788 299.295 331.547 289.903C330.307 280.511 315.244 281.492 313.295 283.748C311.346 286.006 302.663 294.689 302.663 294.689Z" fill="white"/>
</mask>
<g mask="url(#mask10_909_2731)">
<path d="M276.955 294.344C279.29 293.268 281.839 292.681 284.405 292.447C285.69 292.343 286.983 292.321 288.267 292.416C288.91 292.456 289.55 292.535 290.185 292.634C290.503 292.683 290.817 292.754 291.132 292.814C291.284 292.846 291.454 292.866 291.611 292.943C291.756 293.01 291.924 293.161 291.874 293.333C291.877 293.159 291.709 293.083 291.571 293.052C291.428 293.013 291.273 293.021 291.11 293.017C290.79 293.014 290.472 293.001 290.153 293.01C289.517 293.001 288.884 293.005 288.251 293.015C286.987 293.043 285.727 293.097 284.471 293.212C281.955 293.418 279.472 293.845 276.955 294.344Z" fill="black"/>
</g>
<mask id="mask11_909_2731" style="mask-type:luminance" maskUnits="userSpaceOnUse" x="276" y="282" width="56" height="30">
<path d="M302.663 294.689C302.663 294.689 302.663 289.018 296.46 287.423C290.257 285.829 279.341 288.487 279.04 293.626C279.04 293.626 277.144 293.803 276.967 295.575C276.79 297.347 280.511 298.41 280.511 298.41C280.511 298.41 276.778 297.701 276.961 300.182C277.144 302.663 282.637 303.372 282.637 303.372C282.637 303.372 279.872 302.308 279.04 304.612C278.208 306.915 290.215 308.287 292.629 309.904C295.042 311.522 298.409 312.539 303.726 309.904C309.042 307.27 332.788 299.295 331.547 289.903C330.307 280.511 315.244 281.492 313.295 283.748C311.346 286.006 302.663 294.689 302.663 294.689Z" fill="white"/>
</mask>
<g mask="url(#mask11_909_2731)">
<path d="M276.946 298.545C278.15 298.155 279.421 297.986 280.68 297.91C281.942 297.828 283.205 297.85 284.464 297.913C285.721 297.992 286.976 298.112 288.22 298.309C289.454 298.521 290.728 298.701 291.885 299.205C291.291 299.067 290.647 299.065 290.027 299.023L288.156 298.904L284.421 298.679C283.177 298.601 281.934 298.547 280.691 298.507C279.446 298.483 278.202 298.447 276.946 298.545Z" fill="black"/>
</g>
<mask id="mask12_909_2731" style="mask-type:luminance" maskUnits="userSpaceOnUse" x="276" y="282" width="56" height="30">
<path d="M302.663 294.689C302.663 294.689 302.663 289.018 296.46 287.423C290.257 285.829 279.341 288.487 279.04 293.626C279.04 293.626 277.144 293.803 276.967 295.575C276.79 297.347 280.511 298.41 280.511 298.41C280.511 298.41 276.778 297.701 276.961 300.182C277.144 302.663 282.637 303.372 282.637 303.372C282.637 303.372 279.872 302.308 279.04 304.612C278.208 306.915 290.215 308.287 292.629 309.904C295.042 311.522 298.409 312.539 303.726 309.904C309.042 307.27 332.788 299.295 331.547 289.903C330.307 280.511 315.244 281.492 313.295 283.748C311.346 286.006 302.663 294.689 302.663 294.689Z" fill="white"/>
</mask>
<g mask="url(#mask12_909_2731)">
<path d="M302.216 287.095C302.713 288.259 302.994 289.509 303.183 290.756C303.378 292.006 303.469 293.266 303.518 294.525C303.553 295.785 303.544 297.045 303.46 298.302C303.36 299.55 303.293 300.834 302.895 302.032C302.979 301.427 302.923 300.787 302.91 300.165L302.861 298.29L302.752 294.55C302.718 293.305 302.66 292.062 302.59 290.819C302.502 289.579 302.426 288.338 302.216 287.095Z" fill="black"/>
</g>
<mask id="mask13_909_2731" style="mask-type:luminance" maskUnits="userSpaceOnUse" x="276" y="282" width="56" height="30">
<path d="M302.663 294.689C302.663 294.689 302.663 289.018 296.46 287.423C290.257 285.829 279.341 288.487 279.04 293.626C279.04 293.626 277.144 293.803 276.967 295.575C276.79 297.347 280.511 298.41 280.511 298.41C280.511 298.41 276.778 297.701 276.961 300.182C277.144 302.663 282.637 303.372 282.637 303.372C282.637 303.372 279.872 302.308 279.04 304.612C278.208 306.915 290.215 308.287 292.629 309.904C295.042 311.522 298.409 312.539 303.726 309.904C309.042 307.27 332.788 299.295 331.547 289.903C330.307 280.511 315.244 281.492 313.295 283.748C311.346 286.006 302.663 294.689 302.663 294.689Z" fill="white"/>
</mask>
<g mask="url(#mask13_909_2731)">
<path d="M277.637 302.997C278.841 302.606 280.112 302.437 281.37 302.361C282.632 302.279 283.896 302.301 285.154 302.364C286.412 302.443 287.666 302.564 288.911 302.76C290.144 302.972 291.418 303.152 292.575 303.657C291.981 303.518 291.338 303.517 290.717 303.474L288.846 303.355L285.111 303.13C283.867 303.052 282.625 302.998 281.381 302.958C280.136 302.934 278.893 302.898 277.637 302.997Z" fill="black"/>
</g>
<path d="M326.237 315.078C325.979 314.983 325.727 315.182 325.484 315.29C325.082 315.472 324.71 315.771 324.287 315.862C322.787 316.182 321.279 316.477 319.775 316.787C319.912 316.733 320.058 316.692 320.137 316.57C320.26 316.379 320.289 316.061 320.385 315.818C320.399 315.781 320.537 315.91 320.552 315.876C320.633 315.697 320.682 315.467 320.78 315.302C320.821 315.233 320.973 315.325 321.026 315.276C321.131 315.179 321.161 314.965 321.308 314.928C321.536 314.873 321.831 314.932 322.094 314.956C322.11 314.957 322.189 315.065 322.144 314.966C322.083 314.835 321.947 314.563 321.81 314.327C321.651 314.052 321.365 313.59 321.298 313.503C321.203 313.379 321.25 313.506 321.255 313.556C321.264 313.642 321.336 313.834 321.299 313.84C321.032 313.882 320.685 313.811 320.469 313.953C320.193 314.136 320.013 314.458 319.834 314.761C319.722 314.948 319.705 315.252 319.583 315.414C319.397 315.657 319.189 315.867 318.935 316.026C318.786 316.124 318.462 316.032 318.314 316.141C318.019 316.357 317.669 316.545 317.768 317.136C317.775 317.181 317.764 317.209 317.744 317.226C317.723 317.231 317.702 317.235 317.681 317.24C317.612 317.231 317.501 317.183 317.316 317.068C317.131 316.953 317.038 316.933 317.389 317.306C316.662 317.472 315.936 317.647 315.215 317.837C311.369 318.861 307.573 320.066 303.789 321.296C301.445 322.048 274.888 333.508 240.234 322.43C238.603 321.908 237.038 321.148 235.375 320.693C233.819 320.252 232.24 319.843 230.641 319.534C230.663 319.506 230.69 319.474 230.7 319.461C230.793 319.336 230.689 319.42 230.644 319.442C230.615 319.457 230.574 319.485 230.532 319.512C230.478 319.501 230.423 319.489 230.368 319.479C230.308 319.27 230.286 319.014 230.146 318.891C229.936 318.709 229.619 318.653 229.32 318.583C229.135 318.539 228.859 318.612 228.696 318.547C228.45 318.448 228.235 318.313 228.061 318.124C227.955 318.012 228.004 317.692 227.893 317.584C227.669 317.364 227.476 317.089 226.951 317.305C226.828 317.356 226.787 317.289 226.983 316.868C227.121 316.574 227.1 316.493 226.025 318.008C225.97 318.144 225.894 318.291 225.903 318.312C225.924 318.36 225.982 318.351 226.034 318.353C226.16 318.358 226.277 318.377 226.425 318.353C226.525 318.337 226.719 318.188 226.783 318.225C226.914 318.305 226.98 318.476 227.079 318.6L227.404 318.991C227.426 319.019 227.446 319.051 227.465 319.083C226.659 319.015 225.848 318.981 225.033 318.999C224.2 319.026 223.386 318.926 222.579 318.414C222.016 318.07 221.326 317.987 220.757 319.821C221.097 319.979 221.316 320.152 221.539 320.174C222.039 320.228 222.544 320.187 223.048 320.21C224.287 320.231 225.525 320.319 226.774 320.389C227.61 320.459 228.484 320.338 229.313 320.504C229.388 320.517 229.462 320.536 229.538 320.55C229.542 320.584 229.546 320.621 229.551 320.655C229.553 320.669 229.472 320.776 229.552 320.703C229.582 320.675 229.635 320.623 229.68 320.579C231.287 320.886 232.86 321.355 234.436 321.789C236.272 322.318 238.1 322.876 239.92 323.472C241.69 324.055 243.429 324.734 245.228 325.245C247.399 325.86 249.628 326.316 251.835 326.819C252.162 326.892 252.435 327.164 252.762 327.239C254.477 327.628 256.208 327.933 257.913 328.33C258.618 328.496 259.27 328.848 259.967 329.041C261.337 329.422 262.747 329.686 264.079 330.19C265.812 330.852 267.483 331.661 269.093 332.552C268.415 332.841 267.74 333.14 267.073 333.46C266.107 333.917 265.091 334.249 263.93 334.181C263.116 334.133 262.302 334.368 262.277 336.35C262.751 336.333 263.087 336.386 263.372 336.297C264.007 336.097 264.622 335.833 265.239 335.581C266.755 334.959 268.286 334.376 269.794 333.731C270.811 333.299 271.777 332.723 272.817 332.357C274.986 331.598 277.196 330.958 279.391 330.275L286.53 328.079C288.85 327.387 291.196 326.782 293.493 326.022C296.266 325.102 299 324.049 301.77 323.102C302.18 322.96 302.65 323.018 303.061 322.882C305.215 322.164 307.357 321.396 309.525 320.717C310.42 320.433 311.371 320.345 312.273 320.089C314.052 319.582 315.8 318.952 317.601 318.531C317.908 318.46 318.215 318.396 318.522 318.328C318.544 318.339 318.573 318.357 318.58 318.355C318.605 318.347 318.617 318.328 318.627 318.305C321.077 317.764 323.548 317.313 326.012 316.844C326.177 316.812 326.395 316.895 326.502 316.757C326.646 316.573 326.824 316.216 326.773 315.948C326.716 315.632 326.419 315.146 326.237 315.078Z" fill="#BCBEC0"/>
<line x1="121.716" y1="79.7998" x2="193.752" y2="79.7998" stroke="#696969" stroke-width="6"/>
<line x1="201.204" y1="79.7998" x2="245.916" y2="79.7998" stroke="#696969" stroke-width="6"/>
<line x1="201.204" y1="123.684" x2="245.916" y2="123.684" stroke="#696969" stroke-width="6"/>
<path d="M121.716 162.288H193.752" stroke="#696969" stroke-width="6" stroke-linecap="round"/>
<path d="M121.716 255.852H193.752" stroke="#696969" stroke-width="6" stroke-linecap="round"/>
<path d="M121.716 92.7363H193.752" stroke="#696969" stroke-width="6" stroke-linecap="round"/>
<line x1="201.204" y1="92.2197" x2="245.916" y2="92.2197" stroke="#696969" stroke-width="6"/>
<line x1="201.204" y1="136.104" x2="245.916" y2="136.104" stroke="#696969" stroke-width="6"/>
<path d="M121.716 175.536H193.752" stroke="#696969" stroke-width="6" stroke-linecap="round"/>
<path d="M121.716 269.928H193.752" stroke="#696969" stroke-width="6" stroke-linecap="round"/>
<path d="M121.716 103.5H193.752" stroke="#696969" stroke-width="6" stroke-linecap="round"/>
<line x1="201.204" y1="102.156" x2="245.916" y2="102.156" stroke="#696969" stroke-width="6"/>
<line x1="201.204" y1="146.04" x2="245.916" y2="146.04" stroke="#696969" stroke-width="6"/>
<path d="M121.716 186.3H193.752" stroke="#696969" stroke-width="6" stroke-linecap="round"/>
<path d="M121.716 280.692H193.752" stroke="#696969" stroke-width="6" stroke-linecap="round"/>
<path d="M121.716 115.092H193.752" stroke="#696969" stroke-width="6" stroke-linecap="round"/>
<path d="M121.716 115.092H193.752" stroke="#696969" stroke-width="6" stroke-linecap="round"/>
<line x1="201.204" y1="112.92" x2="245.916" y2="112.92" stroke="#696969" stroke-width="6"/>
<line x1="201.204" y1="156.804" x2="245.916" y2="156.804" stroke="#696969" stroke-width="6"/>
<path d="M121.716 198.72H193.752" stroke="#696969" stroke-width="6" stroke-linecap="round"/>
<path d="M121.716 292.284H193.752" stroke="#696969" stroke-width="6" stroke-linecap="round"/>
<path d="M121.716 125.856H193.752" stroke="#696969" stroke-width="6" stroke-linecap="round"/>
<path d="M121.716 241.776H193.752" stroke="#696969" stroke-width="6" stroke-linecap="round"/>
<path d="M121.716 303.048H193.752" stroke="#696969" stroke-width="6" stroke-linecap="round"/>
<defs>
<linearGradient id="paint0_linear_909_2731" x1="184.278" y1="102.221" x2="177.418" y2="262.577" gradientUnits="userSpaceOnUse">
<stop stop-color="#3D403D"/>
<stop offset="1" stop-color="#1E261E"/>
</linearGradient>
<linearGradient id="paint1_linear_909_2731" x1="272.31" y1="267.294" x2="270.851" y2="301.412" gradientUnits="userSpaceOnUse">
<stop stop-color="#3D403D"/>
<stop offset="1" stop-color="#1E261E"/>
</linearGradient>
</defs>
</svg>
