<svg width="58" height="50" viewBox="0 0 68 68" fill="none" xmlns="http://www.w3.org/2000/svg">
<path d="M33.6008 62.7008C41.0513 62.7008 47.0912 49.8514 47.0912 34.0008C47.0912 18.1502 41.0513 5.30078 33.6008 5.30078C26.1502 5.30078 20.1104 18.1502 20.1104 34.0008C20.1104 49.8514 26.1502 62.7008 33.6008 62.7008Z" stroke="black" stroke-width="4.2" stroke-linecap="round" stroke-linejoin="round"/>
<path d="M40.3458 22.3164C54.0728 30.2404 62.1816 41.8968 58.4562 48.3494C54.7308 54.802 40.5824 53.6078 26.8554 45.6824C13.1284 37.757 5.02097 26.1034 8.74637 19.6494C10.236 17.0692 13.3916 15.7126 17.5202 15.5194C23.718 15.2282 32.1082 17.5592 40.3458 22.3164Z" stroke="black" stroke-width="4.2" stroke-linecap="round" stroke-linejoin="round"/>
<path d="M28.6026 30.1514H38.5986M27.0402 34H40.161M30.718 37.8486H36.4832M40.3458 45.683C26.6188 53.6084 12.4718 54.8026 8.74637 48.35C5.02097 41.8974 13.1284 30.2424 26.8554 22.317C34.7822 17.739 42.849 15.408 48.9684 15.4976C53.4456 15.562 56.8812 16.9228 58.4562 19.65C62.1802 26.1026 54.0742 37.7576 40.3458 45.683Z" stroke="black" stroke-width="4.2" stroke-linecap="round" stroke-linejoin="round"/>
</svg>
