<svg width="100" height="100" viewBox="0 0 150 150" fill="none" xmlns="http://www.w3.org/2000/svg">
<ellipse cx="75" cy="74.6842" rx="65" ry="65.6842" fill="#D9D9D9"/>
<path d="M75.0008 130.521C89.4141 130.521 101.098 105.664 101.098 75.0003C101.098 44.337 89.4141 19.4795 75.0008 19.4795C60.5876 19.4795 48.9033 44.337 48.9033 75.0003C48.9033 105.664 60.5876 130.521 75.0008 130.521Z" stroke="black" stroke-width="4.2" stroke-linecap="round" stroke-linejoin="round"/>
<path d="M88.0496 52.3981C114.605 67.7273 130.291 90.2768 123.085 102.76C115.878 115.242 88.5073 112.932 61.9521 97.6002C35.3969 82.2683 19.7129 59.7241 26.9198 47.2387C29.8014 42.2473 35.906 39.6229 43.8929 39.2491C55.8827 38.6858 72.1137 43.1952 88.0496 52.3981Z" stroke="black" stroke-width="4.2" stroke-linecap="round" stroke-linejoin="round"/>
<path d="M64.5 87.5005V62.5005L84.5 87.5005V62.5005M88.0496 97.6013C61.4944 112.933 34.1266 115.243 26.9198 102.761C19.7129 90.278 35.3969 67.7311 61.9521 52.3993C77.2866 43.543 92.8921 39.0336 104.73 39.207C113.391 39.3315 120.038 41.964 123.085 47.2399C130.289 59.7226 114.607 82.2695 88.0496 97.6013Z" stroke="black" stroke-width="4.2" stroke-linecap="round" stroke-linejoin="round"/>
</svg>
