<svg width="58" height="50" viewBox="0 0 70 70" fill="none" xmlns="http://www.w3.org/2000/svg">
<path d="M35.279 69.2818C54.4495 69.2818 70.0082 53.8852 70.0082 34.9143C70.0082 18.5898 58.5129 4.94591 43.0931 1.44043L42.8152 1.30296L42.7805 1.37169C40.3495 0.856182 37.849 0.546875 35.279 0.546875C16.1085 0.546875 0.549805 15.9435 0.549805 34.9143C0.549805 53.8852 16.1085 69.2818 35.279 69.2818ZM35.279 62.4083C33.9593 62.4083 32.709 62.2708 31.4588 62.099L45.3158 38.3511L54.7621 54.5038C49.5674 59.5663 42.5699 62.4052 35.279 62.4083ZM63.0624 34.9143C63.0624 41.2723 60.8397 47.1148 57.1584 51.7887L43.2667 28.0408H62.1247C62.7151 30.2403 63.0624 32.543 63.0624 34.9143ZM61.0134 24.6041H33.2647L42.6763 8.45139C51.0113 10.7196 57.7835 16.7683 61.0134 24.6041ZM35.279 7.42036C36.564 7.42036 37.849 7.52347 39.0992 7.6953L29.2709 24.6041L25.277 31.4776L15.8307 15.3249C21.0084 10.2581 27.9972 7.41762 35.279 7.42036ZM7.49565 34.9143C7.49565 28.5563 9.71831 22.7139 13.3996 18.0399L23.2627 34.9143L27.2566 41.7878H8.39861C7.84294 39.5883 7.49565 37.2857 7.49565 34.9143ZM29.2709 45.2246H37.2586L27.847 61.3773C23.75 60.243 19.9687 58.1984 16.791 55.3992C13.6133 52.6001 11.123 49.1202 9.50994 45.2246H29.2709Z" fill="black"/>
</svg>
