<svg width="734" height="850" viewBox="0 0 734 869" fill="none" xmlns="http://www.w3.org/2000/svg">
<path d="M317.103 772.64C179.283 848.533 -1 869 -1 869V0H643.71C643.71 0 712.732 87.12 731.738 166.76C750.745 246.4 643.71 353.76 643.71 413.16C643.71 472.56 692.226 555.28 614.2 661.32C536.175 767.36 436.529 706.877 317.103 772.64Z" fill="#E9E6DA" fill-opacity="0.4"/>
<path d="M288.604 646.459C325.926 618.817 329.67 573.304 323.241 533.258C322.169 526.574 322.177 519.426 317.747 513.869C313.314 508.314 304.145 505.059 297.478 508.505C291.947 511.365 290.114 517.383 287.439 522.463C283.881 529.223 278.071 535.068 270.893 539.113C266.175 541.77 260.174 543.67 254.974 541.781C247.84 539.185 246.082 531.262 245.326 524.584C243.922 512.14 242.514 499.698 241.109 487.257C240.355 480.581 239.556 473.767 236.375 467.648C233.192 461.53 227.134 456.121 219.516 454.998C211.896 453.875 203.181 458.344 202.403 465.012C202.078 467.787 203.065 470.551 203.182 473.339C203.3 476.128 202.164 479.326 199.188 480.369C196.175 481.426 192.833 479.809 190.271 478.063C181.426 472.037 174.931 463.841 168.796 455.661C162.663 447.482 156.653 439.084 148.479 432.381C140.305 425.678 129.521 420.747 118.309 421.192C107.095 421.637 95.9288 428.585 94.24 438.214C92.5464 447.87 100.099 456.846 107.98 463.844C119.675 474.226 133.105 483.136 147.712 490.201C150.346 491.477 153.2 492.855 154.436 495.243C156.661 499.542 152.276 504.394 147.328 506.31C141.725 508.479 135.369 508.519 129.374 509.669C123.378 510.818 117.08 513.694 115.375 518.814C113.008 525.916 120.522 532.476 127.632 536.577C141.87 544.793 157.731 550.875 174.304 554.478C180.246 555.767 186.461 556.81 191.494 559.85C196.527 562.891 200.034 568.639 197.811 573.585C195.585 578.537 188.607 580.674 182.494 580.25C176.385 579.828 170.679 577.511 164.74 576.169C153.627 573.654 139.89 575.508 133.992 584.037C130.116 589.644 130.592 596.932 133.617 602.939C136.64 608.947 141.904 613.886 147.402 618.384C166.622 634.109 190.239 646.049 215.942 651.229C241.642 656.407 264.874 656.37 288.604 646.459Z" fill="#82B378"/>
<path d="M292.805 676.196C289.189 660.426 282.854 641.986 273.47 622.335C264.128 602.664 251.803 581.83 238.037 560.419C234.573 555.077 231.15 549.8 227.778 544.598C224.397 539.412 221.043 534.268 217.401 529.413C210.163 519.67 202.34 510.777 194.606 502.534C186.874 494.284 179.184 486.698 171.935 479.65C164.664 472.612 157.743 466.161 151.144 460.512C137.979 449.169 126.121 441.115 117.715 435.871C113.518 433.237 110.184 431.285 107.902 429.988C106.807 429.373 105.947 428.89 105.298 428.526C104.706 428.204 104.398 428.047 104.383 428.065C104.367 428.083 104.65 428.276 105.214 428.632C105.842 429.021 106.678 429.537 107.739 430.194C109.964 431.558 113.244 433.571 117.386 436.261C125.676 441.619 137.393 449.75 150.426 461.138C156.963 466.809 163.822 473.279 171.042 480.336C178.248 487.41 185.892 495.008 193.579 503.255C201.265 511.498 209.035 520.375 216.215 530.071C219.829 534.906 223.147 540.006 226.531 545.206C229.9 550.406 233.32 555.682 236.781 561.022C250.534 582.417 262.865 603.183 272.247 622.771C281.668 642.337 288.079 660.677 291.807 676.369" fill="#E0E0E0"/>
<path d="M216.986 529.402C217.084 529.406 217.227 528.369 217.404 526.489C217.591 524.609 217.756 521.883 217.904 518.511C218.206 511.771 218.249 502.451 218.254 492.176C218.257 481.895 218.457 472.602 218.878 465.885C219.077 462.526 219.27 459.808 219.432 457.931C219.581 456.053 219.617 455.007 219.519 454.996C219.421 454.987 219.196 456.011 218.876 457.879C218.543 459.744 218.193 462.46 217.867 465.822C217.184 472.548 216.821 481.878 216.819 492.168C216.845 502.309 216.869 511.482 216.888 518.491C216.874 521.657 216.858 524.326 216.847 526.468C216.842 528.351 216.885 529.398 216.986 529.402Z" fill="#E0E0E0"/>
<path d="M114.981 522.222C114.989 522.307 116.429 522.322 119.023 522.278C121.614 522.248 125.363 522.185 129.997 522.236C139.266 522.273 152.066 522.709 166.163 523.72C180.263 524.753 192.976 526.153 202.137 527.394C206.726 527.986 210.421 528.55 212.979 528.928C215.536 529.313 216.96 529.488 216.984 529.404C217.005 529.319 215.618 528.986 213.089 528.451C210.56 527.929 206.88 527.23 202.3 526.522C193.156 525.055 180.418 523.512 166.275 522.474C152.136 521.461 139.28 521.163 129.986 521.353C125.338 521.416 121.581 521.612 118.991 521.793C116.404 521.989 114.977 522.135 114.981 522.222Z" fill="#E0E0E0"/>
<path d="M272.051 620.866C272.099 620.88 272.289 620.499 272.612 619.76C272.973 618.88 273.415 617.805 273.95 616.505C275.097 613.675 276.632 609.542 278.451 604.414C282.097 594.16 286.612 579.861 291.346 564.025C296.084 548.182 300.437 533.866 303.828 523.563C305.494 518.552 306.866 514.431 307.885 511.368C308.319 510.039 308.676 508.944 308.968 508.043C309.199 507.28 309.301 506.873 309.253 506.858C309.204 506.847 309.015 507.227 308.692 507.966C308.33 508.846 307.888 509.918 307.353 511.218C306.206 514.048 304.671 518.182 302.852 523.309C299.207 533.563 294.691 547.862 289.956 563.705C285.221 579.544 280.866 593.857 277.476 604.163C275.806 609.171 274.437 613.295 273.418 616.357C272.985 617.686 272.628 618.783 272.335 619.681C272.102 620.446 272.003 620.853 272.051 620.866Z" fill="#E0E0E0"/>
<path d="M134.647 595.893C134.639 595.936 135.113 596.055 136.022 596.243C137.099 596.45 138.418 596.703 140.018 597.012C143.704 597.688 148.681 598.6 154.735 599.709C167.161 601.988 184.28 605.304 203.193 608.991C222.11 612.681 239.282 615.866 251.768 617.925C258.01 618.956 263.07 619.747 266.579 620.232C268.201 620.446 269.538 620.624 270.624 620.77C271.551 620.879 272.044 620.915 272.052 620.873C272.06 620.831 271.585 620.712 270.677 620.522C269.604 620.317 268.283 620.065 266.682 619.756C262.996 619.08 258.021 618.17 251.968 617.06C239.543 614.782 222.42 611.464 203.503 607.775C184.592 604.087 167.421 600.903 154.936 598.844C148.694 597.812 143.634 597.021 140.123 596.537C138.501 596.322 137.166 596.141 136.077 595.998C135.146 595.887 134.656 595.851 134.647 595.893Z" fill="#E0E0E0"/>
<path d="M250.407 342.073C249.204 342.073 248.048 341.493 247.491 340.502L240.524 328.069C240.083 327.286 240.099 326.373 240.562 325.603C241.025 324.832 241.883 324.291 242.881 324.142C245.495 323.751 247.894 322.345 249.459 320.286C250.901 318.391 251.405 316.194 250.843 314.257C250.285 312.326 248.637 310.57 246.318 309.435C243.835 308.221 240.89 307.869 238.427 308.502C233.397 309.789 229.795 314.837 230.563 319.525C230.81 321.04 229.581 322.44 227.814 322.653C226.015 322.864 224.412 321.81 224.164 320.295C222.958 312.927 228.525 305.254 236.58 303.193C240.757 302.125 245.479 302.645 249.522 304.626C253.367 306.507 256.134 309.532 257.116 312.925C258.107 316.348 257.291 320.134 254.873 323.312C253.126 325.609 250.708 327.41 247.946 328.525L253.319 338.106C254.09 339.485 253.414 341.141 251.804 341.802C251.352 341.985 250.877 342.073 250.407 342.073Z" fill="#E0E0E0"/>
<path d="M257.345 345.649C258.011 346.763 257.496 348.128 256.198 348.698C254.898 349.269 253.306 348.829 252.641 347.715C251.975 346.601 252.49 345.236 253.788 344.666C255.086 344.095 256.68 344.535 257.345 345.649Z" fill="#E0E0E0"/>
<path d="M162.091 300.421C161.251 300.421 160.444 300.017 160.055 299.324L155.19 290.641C154.883 290.096 154.892 289.458 155.215 288.92C155.538 288.381 156.138 288.002 156.835 287.899C158.66 287.626 160.336 286.644 161.429 285.205C162.435 283.882 162.788 282.347 162.396 280.995C162.008 279.646 160.855 278.419 159.236 277.627C157.502 276.779 155.445 276.534 153.724 276.974C150.212 277.874 147.697 281.398 148.232 284.672C148.406 285.73 147.546 286.708 146.312 286.856C145.055 287.004 143.937 286.267 143.763 285.211C142.92 280.065 146.808 274.706 152.434 273.267C155.35 272.52 158.648 272.884 161.472 274.267C164.157 275.581 166.09 277.693 166.777 280.062C167.469 282.452 166.899 285.096 165.21 287.315C163.99 288.92 162.302 290.177 160.372 290.955L164.124 297.648C164.664 298.61 164.19 299.766 163.066 300.229C162.751 300.361 162.419 300.421 162.091 300.421Z" fill="#F5F5F5"/>
<path d="M166.941 302.918C167.406 303.696 167.047 304.649 166.14 305.047C165.232 305.445 164.12 305.138 163.655 304.36C163.191 303.582 163.549 302.629 164.457 302.231C165.363 301.833 166.475 302.141 166.941 302.918Z" fill="#F5F5F5"/>
<path d="M563.035 305.102C563.395 305.754 563.313 306.551 562.749 307.149L555.674 314.633C555.231 315.104 554.553 315.37 553.847 315.349C553.14 315.33 552.487 315.027 552.078 314.531C551.01 313.234 549.257 312.355 547.272 312.124C545.447 311.91 543.678 312.293 542.42 313.176C541.165 314.055 540.363 315.472 540.22 317.065C540.067 318.772 540.687 320.47 541.889 321.613C544.34 323.95 549.133 324.391 552.356 322.574C553.398 321.988 554.796 322.236 555.482 323.128C556.174 324.039 555.877 325.22 554.836 325.807C549.769 328.662 542.457 327.94 538.533 324.198C536.498 322.258 535.47 319.547 535.721 316.768C535.957 314.125 537.358 311.724 539.564 310.179C541.788 308.62 544.82 307.931 547.883 308.289C550.097 308.548 552.146 309.318 553.791 310.48L559.243 304.711C560.029 303.882 561.449 303.754 562.417 304.427C562.688 304.619 562.896 304.849 563.035 305.102Z" fill="#F5F5F5"/>
<path d="M563.597 300.279C564.219 299.586 565.377 299.457 566.185 299.988C566.994 300.521 567.145 301.514 566.525 302.207C565.903 302.9 564.744 303.029 563.936 302.498C563.126 301.966 562.975 300.972 563.597 300.279Z" fill="#F5F5F5"/>
<path d="M539.477 125.441C539.837 126.092 539.755 126.89 539.191 127.488L532.116 134.972C531.673 135.443 530.995 135.709 530.289 135.688C529.582 135.669 528.928 135.366 528.52 134.87C527.452 133.573 525.7 132.694 523.714 132.462C521.889 132.249 520.12 132.632 518.861 133.515C517.607 134.393 516.805 135.811 516.662 137.404C516.509 139.111 517.129 140.809 518.331 141.952C520.782 144.289 525.575 144.73 528.798 142.913C529.839 142.327 531.239 142.575 531.923 143.467C532.616 144.377 532.319 145.559 531.278 146.146C526.211 149.001 518.898 148.279 514.973 144.537C512.939 142.597 511.91 139.886 512.163 137.107C512.399 134.464 513.8 132.063 516.006 130.518C518.23 128.96 521.262 128.27 524.325 128.628C526.539 128.887 528.588 129.657 530.233 130.819L535.685 125.05C536.471 124.221 537.891 124.093 538.859 124.766C539.13 124.956 539.337 125.188 539.477 125.441Z" fill="#F5F5F5"/>
<path d="M540.036 120.618C540.658 119.925 541.816 119.796 542.624 120.327C543.433 120.86 543.584 121.853 542.964 122.546C542.342 123.239 541.183 123.368 540.375 122.837C539.567 122.304 539.414 121.311 540.036 120.618Z" fill="#F5F5F5"/>
<path d="M361.086 153.059C362.179 153.059 363.227 153.585 363.733 154.484L370.056 165.767C370.454 166.476 370.441 167.305 370.022 168.005C369.602 168.706 368.823 169.196 367.918 169.331C365.545 169.687 363.37 170.962 361.949 172.831C360.641 174.551 360.183 176.544 360.693 178.303C361.199 180.055 362.695 181.65 364.8 182.68C367.052 183.782 369.725 184.101 371.961 183.527C376.526 182.359 379.795 177.778 379.097 173.522C378.872 172.148 379.989 170.877 381.593 170.684C383.225 170.492 384.679 171.45 384.904 172.823C386 179.509 380.947 186.473 373.637 188.343C369.848 189.313 365.561 188.841 361.893 187.043C358.403 185.335 355.893 182.591 355.001 179.512C354.101 176.406 354.842 172.971 357.035 170.086C358.62 168.001 360.816 166.366 363.323 165.355L358.446 156.659C357.746 155.407 358.361 153.906 359.822 153.305C360.228 153.138 360.66 153.059 361.086 153.059Z" fill="#E0E0E0"/>
<path d="M354.788 149.815C354.184 148.804 354.65 147.566 355.829 147.048C357.009 146.53 358.453 146.93 359.057 147.94C359.661 148.951 359.195 150.19 358.016 150.707C356.838 151.225 355.392 150.826 354.788 149.815Z" fill="#E0E0E0"/>
<path d="M579.07 375.901C580.162 375.901 581.21 376.428 581.716 377.328L588.039 388.611C588.437 389.32 588.425 390.149 588.005 390.849C587.586 391.549 586.807 392.04 585.902 392.175C583.529 392.531 581.353 393.806 579.932 395.675C578.625 397.395 578.167 399.388 578.676 401.146C579.182 402.898 580.678 404.493 582.783 405.523C585.036 406.625 587.708 406.944 589.945 406.37C594.51 405.202 597.778 400.621 597.081 396.367C596.856 394.992 597.972 393.721 599.576 393.528C601.209 393.337 602.663 394.292 602.888 395.667C603.984 402.354 598.93 409.317 591.621 411.188C587.832 412.157 583.545 411.685 579.876 409.887C576.386 408.18 573.876 405.435 572.984 402.356C572.085 399.251 572.825 395.816 575.019 392.932C576.603 390.846 578.8 389.212 581.306 388.201L576.431 379.504C575.731 378.252 576.346 376.751 577.805 376.151C578.212 375.983 578.644 375.901 579.07 375.901Z" fill="#E0E0E0"/>
<path d="M572.771 372.658C572.167 371.647 572.633 370.409 573.813 369.891C574.992 369.373 576.438 369.772 577.041 370.783C577.645 371.794 577.179 373.032 575.999 373.55C574.822 374.068 573.375 373.669 572.771 372.658Z" fill="#E0E0E0"/>
<path d="M622.933 448.813C622.933 448.813 610.579 440.671 592.562 466.286C574.544 491.9 567.28 506.864 567.28 506.864C567.28 506.864 562.639 512.178 558.479 508.265C554.319 504.352 549.066 493.65 541.324 495.046C533.297 496.493 530.078 503.86 530.658 515.012C531.238 526.164 531.462 550.636 531.471 552.848C531.481 555.02 529.773 558.115 526.44 555.839C523.108 553.563 504.552 533.088 493.744 541.217C482.937 549.345 490.506 580.184 491.258 583.568C492.01 586.954 491.135 588.325 489.224 589.035C487.315 589.744 481.834 582.358 476.278 576.72C470.721 571.082 463.127 565.38 457.349 570.517C451.573 575.654 447.981 598.227 470.092 636.6L481.695 653.806L504.981 654.121C554.862 652.193 576.19 638.602 578.65 631.784C581.11 624.968 571.617 622.02 563.174 620.571C554.732 619.122 544.54 618.574 544.342 616.798C544.144 615.023 545.125 613.702 548.946 612.632C552.767 611.562 587.929 602.357 591.018 590.32C594.106 578.282 564.228 574.238 560.293 572.836C556.358 571.434 558.696 568.658 560.92 567.616C563.185 566.556 588.297 554.91 599.969 549.961C611.643 545.012 617.617 539.04 615.22 532.315C612.908 525.831 599.439 527.054 593.433 525.82C587.426 524.586 590.614 518.537 590.614 518.537C590.614 518.537 602.396 505.86 619.867 479.97C637.34 454.079 622.668 448.664 622.668 448.664" fill="#82B378"/>
<path d="M606.75 471.729C606.75 471.729 606.648 471.924 606.416 472.287C606.167 472.67 605.82 473.205 605.372 473.895C604.424 475.323 603.053 477.392 601.295 480.044C597.749 485.381 592.551 493.073 586.088 502.557C573.169 521.528 555.066 547.606 534.966 576.351C514.86 605.106 496.687 631.148 483.657 650.061C477.165 659.507 471.906 667.159 468.254 672.473C466.444 675.101 465.035 677.149 464.061 678.563C463.587 679.239 463.219 679.763 462.954 680.139C462.702 680.493 462.556 680.665 462.556 680.665C462.556 680.665 462.659 680.471 462.89 680.107C463.139 679.724 463.486 679.19 463.934 678.5C464.881 677.071 466.253 675.003 468.011 672.351C471.557 667.014 476.754 659.324 483.218 649.84C496.137 630.869 514.241 604.788 534.349 576.033C554.449 547.288 572.619 521.249 585.649 502.336C592.141 492.89 597.4 485.238 601.054 479.924C602.863 477.297 604.274 475.248 605.248 473.833C605.722 473.156 606.09 472.633 606.355 472.256C606.604 471.903 606.75 471.729 606.75 471.729Z" fill="#82B378"/>
<path d="M547.969 510.268C548.017 510.259 548.182 510.751 548.44 511.648C548.701 512.544 549.036 513.85 549.431 515.466C550.215 518.699 551.163 523.188 552.108 528.159C553.017 533.063 553.84 537.498 554.468 540.89C554.762 542.418 555.011 543.706 555.211 544.743C555.391 545.652 555.468 546.16 555.42 546.168C555.371 546.178 555.201 545.688 554.936 544.791C554.677 543.893 554.341 542.587 553.967 540.968C553.22 537.727 552.339 533.229 551.398 528.259C550.448 523.363 549.588 518.935 548.931 515.548C548.628 514.021 548.37 512.733 548.165 511.697C547.993 510.786 547.921 510.277 547.969 510.268Z" fill="#E0E0E0"/>
<path d="M557.516 546.652C557.474 546.485 568.187 544.4 581.438 541.994C594.695 539.588 605.472 537.773 605.512 537.939C605.554 538.106 594.844 540.191 581.588 542.597C568.336 545.003 557.556 546.819 557.516 546.652Z" fill="#E0E0E0"/>
<path d="M524.319 589.607C524.324 589.564 524.935 589.58 526.031 589.644C527.274 589.724 528.827 589.823 530.671 589.942C534.589 590.188 539.999 590.509 545.984 590.676C551.972 590.854 557.396 590.854 561.323 590.826C563.173 590.815 564.73 590.805 565.977 590.797C567.076 590.796 567.685 590.815 567.688 590.858C567.69 590.9 567.085 590.962 565.988 591.038C564.891 591.112 563.301 591.196 561.336 591.263C557.406 591.402 551.965 591.472 545.96 591.293C539.957 591.126 534.536 590.735 530.625 590.377C528.669 590.191 527.09 590.026 526 589.883C524.912 589.746 524.313 589.65 524.319 589.607Z" fill="#E0E0E0"/>
<path d="M507.236 558.329C507.281 558.309 507.568 558.725 508.049 559.493C508.585 560.384 509.246 561.477 510.025 562.768C511.666 565.546 513.886 569.401 516.3 573.676C518.715 577.952 520.863 581.839 522.387 584.665C523.084 585.99 523.675 587.113 524.157 588.026C524.561 588.826 524.763 589.277 524.718 589.296C524.673 589.314 524.387 588.899 523.905 588.132C523.367 587.241 522.708 586.147 521.929 584.857C520.288 582.079 518.066 578.224 515.652 573.946C513.239 569.671 511.091 565.785 509.567 562.959C508.87 561.636 508.279 560.512 507.796 559.599C507.393 558.798 507.191 558.348 507.236 558.329Z" fill="#E0E0E0"/>
<path d="M472.307 593.061C472.352 593.042 472.714 593.578 473.331 594.56C473.996 595.652 474.853 597.059 475.883 598.749C478.009 602.299 480.901 607.221 484.055 612.675C487.211 618.131 490.031 623.085 492.039 626.684C492.986 628.409 493.773 629.846 494.385 630.96C494.925 631.976 495.202 632.547 495.157 632.566C495.112 632.585 494.75 632.049 494.133 631.067C493.47 629.977 492.611 628.568 491.582 626.878C489.456 623.328 486.563 618.405 483.409 612.949C480.255 607.495 477.435 602.542 475.426 598.943C474.48 597.218 473.693 595.781 473.08 594.667C472.54 593.651 472.262 593.079 472.307 593.061Z" fill="#E0E0E0"/>
<path d="M494.921 631.492C494.924 631.449 495.697 631.452 497.09 631.492C498.612 631.543 500.596 631.608 502.989 631.688C507.968 631.847 514.849 632.047 522.449 632.083C530.053 632.128 536.937 632.014 541.918 631.902C544.31 631.85 546.296 631.806 547.818 631.773C549.213 631.747 549.984 631.754 549.987 631.795C549.991 631.838 549.223 631.912 547.833 632.013C546.443 632.112 544.428 632.229 541.937 632.338C536.956 632.562 530.061 632.745 522.444 632.7C514.831 632.664 507.941 632.395 502.963 632.123C500.474 631.981 498.461 631.849 497.073 631.732C495.684 631.617 494.918 631.533 494.921 631.492Z" fill="#E0E0E0"/>
<path d="M536.009 566.966L511.537 466.915C511.537 466.915 497.191 418.696 447.803 402.08L444.395 401.182C444.323 401.16 439.71 399.95 439.637 399.928C437.653 399.265 429.543 397.06 427.413 396.491C360.82 376.705 343.153 381.854 273.758 402.151C273.758 402.151 242.931 409.259 227.989 443.73C213.049 478.199 184.445 532.109 184.445 532.109L253.676 553.063L266.945 536.167V598.55V651.76H349.1H457.354L452.1 598.55L451.184 533.009" fill="#E8505B"/>
<path d="M342.203 408.297C342.24 408.334 341.674 408.781 340.615 409.561C340.091 409.959 339.434 410.426 338.618 410.911C337.81 411.402 336.916 412.006 335.835 412.544C333.738 413.715 331.088 414.903 328.04 416.015C324.971 417.078 321.489 418.034 317.739 418.681C313.979 419.293 310.333 419.531 307.021 419.537C303.709 419.491 300.732 419.245 298.275 418.838C297.036 418.688 295.945 418.417 294.979 418.223C294.01 418.037 293.196 417.816 292.535 417.617C291.211 417.237 290.49 417.005 290.509 416.957C290.559 416.814 293.479 417.691 298.371 418.337C300.814 418.676 303.756 418.866 307.021 418.876C310.286 418.833 313.873 418.579 317.578 417.978C321.274 417.34 324.708 416.417 327.749 415.402C330.77 414.34 333.412 413.213 335.525 412.112C339.775 409.936 342.094 408.179 342.203 408.297Z" fill="#FAFAFA"/>
<g opacity="0.3">
<path d="M266.945 580.165L282.557 595.616H297.898V612.436L456.578 643.888L455.285 630.787L305.998 586.85H280.981L268.919 578.591L266.945 580.165Z" fill="black"/>
</g>
<path d="M313.673 566.404L300.437 564.304C300.437 564.304 269.066 534.892 263.183 534.472C258.341 534.126 231.652 534.349 222.358 534.439C220.585 534.457 219.165 535.692 219.165 537.211C219.165 538.7 220.537 539.925 222.274 539.982L253.805 541.031L253.955 543.207L222.379 543.566C219.163 543.778 217.103 548.143 227.395 548.929L253.805 549.734V551.141L227.026 554.35C225.673 554.513 222.112 555.105 222.08 556.276C222.08 556.276 220.46 559.153 228.089 559.97C230.709 560.251 253.955 559.588 253.955 559.588L253.058 561.38L228.991 565.83C227.238 566.154 226.074 567.583 226.324 569.104C226.577 570.655 228.208 571.761 230.027 571.616L255.745 569.571L280.979 586.849H314.724L313.673 566.404Z" fill="#FFBE9D"/>
<path d="M536.01 566.967L458.997 579.949L451.185 533.01" fill="#E8505B"/>
<path d="M448.742 568.759L305.998 564.807L306.022 607.096L400.726 623.219L467.225 632.317C508.555 632.317 541.614 599.804 535.212 564.807L535.037 564.847L448.742 568.759Z" fill="#E8505B"/>
<path d="M488.04 567.981C488.04 568.014 487.404 568.052 486.191 568.091C484.878 568.123 483.109 568.167 480.885 568.221C476.167 568.294 469.528 568.397 461.368 568.524C444.888 568.729 422.116 568.969 396.963 568.764C371.8 568.55 349.029 567.772 332.578 566.817C324.353 566.346 317.702 565.891 313.114 565.495C310.9 565.301 309.141 565.147 307.834 565.033C306.628 564.915 305.996 564.838 306.001 564.805C306.004 564.772 306.642 564.785 307.855 564.84C309.165 564.91 310.931 565.004 313.151 565.123C317.747 565.404 324.403 565.756 332.626 566.14C349.077 566.919 371.827 567.59 396.976 567.804C422.115 568.007 444.88 567.877 461.362 567.845C469.523 567.846 476.164 567.846 480.882 567.848C483.107 567.868 484.876 567.886 486.189 567.899C487.402 567.921 488.04 567.948 488.04 567.981Z" fill="#263238"/>
<path d="M306.005 565.19C306.023 565.19 306.042 565.447 306.059 565.941C306.072 566.478 306.09 567.205 306.112 568.132C306.137 570.099 306.17 572.907 306.212 576.468C306.251 583.703 306.307 593.981 306.373 606.355L306.096 606.062C322.216 609.026 341.539 612.692 362.339 616.434C390.861 621.604 416.817 625.688 435.691 628.188C445.13 629.429 452.783 630.341 458.078 630.94C460.684 631.234 462.728 631.464 464.176 631.628C464.836 631.711 465.358 631.776 465.76 631.825C466.117 631.873 466.299 631.904 466.297 631.916C466.295 631.929 466.111 631.922 465.751 631.897C465.347 631.865 464.822 631.824 464.157 631.77C462.706 631.638 460.654 631.452 458.039 631.215C452.73 630.7 445.059 629.865 435.605 628.686C416.695 626.313 390.7 622.307 362.17 617.134C341.363 613.39 322.051 609.681 305.952 606.646L305.674 606.593L305.675 606.352C305.732 593.979 305.778 583.7 305.81 576.465C305.851 572.905 305.881 570.096 305.904 568.13C305.925 567.203 305.942 566.475 305.955 565.938C305.969 565.445 305.987 565.19 306.005 565.19Z" fill="#263238"/>
<path d="M293.816 449.527C293.758 449.522 293.798 448.786 293.919 447.464C294.017 446.141 294.173 444.226 294.232 441.859C294.39 437.129 294.14 430.565 292.736 423.443C291.272 416.355 289.423 409.897 286.553 405.882C285.149 403.866 283.518 402.537 282.288 401.764C281.04 401.004 280.24 400.723 280.277 400.655C280.288 400.632 280.492 400.69 280.873 400.824C281.263 400.942 281.798 401.188 282.472 401.534C283.789 402.253 285.544 403.575 287.053 405.614C288.581 407.637 289.878 410.301 290.906 413.332C291.937 416.357 292.861 419.738 293.56 423.326C294.976 430.504 295.132 437.129 294.822 441.879C294.685 444.258 294.439 446.174 294.242 447.493C294.022 448.81 293.874 449.534 293.816 449.527Z" fill="#263238"/>
<path d="M450.792 412.357C451.023 412.357 451.21 440.469 451.21 475.14C451.21 509.823 451.022 537.929 450.792 537.929C450.562 537.929 450.374 509.823 450.374 475.14C450.374 440.471 450.56 412.357 450.792 412.357Z" fill="#263238"/>
<path d="M500.054 553.577C500.052 553.712 497.624 553.646 493.765 554.055C491.835 554.249 489.558 554.622 487.075 555.172C484.602 555.756 481.927 556.534 479.224 557.568C476.533 558.626 474.084 559.835 471.941 561.042C469.819 562.278 467.989 563.497 466.546 564.612C463.64 566.826 462.095 568.432 461.976 568.344C461.931 568.312 462.288 567.892 462.974 567.157C463.648 566.412 464.727 565.405 466.146 564.237C467.557 563.059 469.376 561.781 471.507 560.493C473.661 559.236 476.141 557.988 478.879 556.912C481.628 555.86 484.358 555.088 486.882 554.53C489.416 554.008 491.738 553.68 493.7 553.549C495.661 553.406 497.255 553.376 498.352 553.435C499.451 553.479 500.055 553.527 500.054 553.577Z" fill="#263238"/>
<g opacity="0.3">
<path d="M295.151 559.436C319.209 547.124 334.221 526.732 348.897 506.274C363.572 485.816 377.233 464.337 397.581 447.827C406.925 440.245 417.851 433.849 421.304 423.225L384.736 448.134L282.86 548.557L295.151 559.436Z" fill="black"/>
</g>
<path d="M229.108 505.55C229.135 505.823 223.36 505.633 216.78 507.554C213.504 508.515 210.689 509.74 208.654 510.628C206.623 511.529 205.365 512.093 205.301 512.003C205.245 511.923 206.395 511.205 208.367 510.185C210.34 509.176 213.157 507.86 216.512 506.873C219.868 505.893 223.074 505.522 225.377 505.43C227.686 505.343 229.108 505.466 229.108 505.55Z" fill="#263238"/>
<path d="M229.108 505.55C229.135 505.823 223.36 505.633 216.78 507.554C213.504 508.515 210.689 509.74 208.654 510.628C206.623 511.529 205.365 512.093 205.301 512.003C205.245 511.923 206.395 511.205 208.367 510.185C210.34 509.176 213.157 507.86 216.512 506.873C219.868 505.893 223.074 505.522 225.377 505.43C227.686 505.343 229.108 505.466 229.108 505.55Z" fill="#263238"/>
<path d="M450.179 550.559C450.105 550.685 448.439 549.303 444.627 548.368C440.858 547.364 434.929 547.382 428.202 549.251C421.389 550.973 414.326 555.11 405.592 558.22C401.233 559.728 396.282 560.9 391.071 560.6C385.854 560.374 380.747 558.677 375.896 556.606C371.021 554.522 366.488 552.174 361.875 550.336C357.276 548.48 352.528 547.33 347.889 546.951C338.592 546.195 330.135 548.038 323.825 550.681C317.407 553.259 313.112 556.666 310.424 559.119C309.773 559.747 309.192 560.311 308.679 560.807C308.232 561.318 307.847 561.757 307.52 562.129C307.226 562.455 306.987 562.72 306.793 562.936C306.624 563.116 306.532 563.204 306.521 563.198C306.508 563.191 306.577 563.089 306.722 562.894C306.899 562.667 307.116 562.389 307.382 562.045C307.692 561.659 308.057 561.203 308.483 560.674C308.983 560.162 309.548 559.581 310.181 558.932C312.815 556.403 317.099 552.895 323.566 550.225C326.751 548.832 330.479 547.704 334.596 546.965C338.709 546.228 343.244 545.908 347.965 546.293C352.684 546.658 357.562 547.826 362.219 549.697C366.888 551.547 371.439 553.898 376.269 555.961C381.078 558.015 386.071 559.669 391.121 559.896C396.162 560.196 400.992 559.077 405.305 557.604C413.938 554.574 421.092 550.455 428.026 548.765C434.859 546.932 440.912 546.992 444.721 548.098C446.638 548.605 448.011 549.258 448.894 549.741C449.287 549.982 449.607 550.178 449.866 550.336C450.081 550.475 450.187 550.55 450.179 550.559Z" fill="#FAFAFA"/>
<path d="M519.974 499.626C519.941 499.717 518.981 499.22 517.082 499.158C515.197 499.062 512.442 499.635 509.53 501.14C506.564 502.565 503.699 505.151 499.651 507.098C497.641 508.054 495.2 508.762 492.621 508.613C490.045 508.489 487.565 507.615 485.22 506.595C482.861 505.575 480.674 504.437 478.409 503.664C476.154 502.868 473.865 502.349 471.649 502.046C469.433 501.733 467.288 501.666 465.292 501.749C463.295 501.813 461.442 502.048 459.782 502.37C456.453 503.001 453.896 503.951 452.196 504.692C450.487 505.427 449.608 505.945 449.559 505.883C449.543 505.863 449.752 505.721 450.167 505.47C450.581 505.219 451.192 504.842 452.042 504.447C453.712 503.622 456.273 502.582 459.647 501.875C461.33 501.515 463.214 501.247 465.255 501.155C467.293 501.045 469.489 501.09 471.764 501.393C474.038 501.685 476.395 502.205 478.719 503.016C481.062 503.806 483.274 504.954 485.596 505.956C487.907 506.962 490.277 507.789 492.669 507.912C495.059 508.059 497.332 507.422 499.285 506.517C503.21 504.678 506.148 502.118 509.236 500.701C512.257 499.213 515.154 498.691 517.105 498.88C518.082 498.95 518.813 499.155 519.285 499.316C519.751 499.498 519.987 499.604 519.974 499.626Z" fill="#FAFAFA"/>
<path d="M449.305 480.774C449.297 480.798 448.92 480.741 448.213 480.612C447.857 480.552 447.425 480.452 446.906 480.377C446.368 480.317 445.767 480.248 445.102 480.172C442.385 479.906 438.367 480.048 433.65 481.176C428.932 482.31 423.605 484.431 417.991 487.228C412.382 490.016 406.358 493.441 399.342 495.915C395.844 497.145 392.261 498.08 388.684 498.416C385.117 498.777 381.59 498.552 378.402 497.811C375.209 497.076 372.363 495.946 369.76 494.851C367.157 493.747 364.777 492.663 362.555 491.77C358.139 489.932 354.269 489.041 351.535 488.913C350.171 488.892 349.107 488.891 348.392 488.995C347.674 489.059 347.292 489.079 347.285 489.056C347.279 489.031 347.652 488.962 348.368 488.852C349.083 488.7 350.157 488.655 351.55 488.634C354.334 488.676 358.321 489.516 362.802 491.31C365.059 492.18 367.462 493.241 370.064 494.317C372.667 495.384 375.487 496.477 378.599 497.174C381.704 497.876 385.113 498.08 388.586 497.719C392.066 497.383 395.576 496.466 399.024 495.252C405.943 492.813 411.943 489.43 417.607 486.655C423.271 483.876 428.688 481.774 433.494 480.687C438.303 479.605 442.401 479.54 445.14 479.895C445.81 479.996 446.414 480.087 446.954 480.168C447.475 480.265 447.904 480.39 448.256 480.471C448.952 480.647 449.313 480.751 449.305 480.774Z" fill="#FAFAFA"/>
<path d="M499.067 438.402C499.091 438.446 498.481 438.752 497.348 439.258C496.215 439.762 494.563 440.475 492.466 441.262C490.369 442.044 487.816 442.906 484.852 443.522C481.903 444.154 478.484 444.439 474.984 444.097C471.484 443.782 468.246 443.146 465.279 442.801C462.32 442.435 459.619 442.403 457.394 442.679C452.88 443.199 450.682 444.969 450.608 444.825C450.59 444.805 450.714 444.697 450.97 444.505C451.22 444.308 451.625 444.055 452.172 443.76C453.266 443.177 455.014 442.512 457.301 442.177C459.581 441.828 462.365 441.81 465.378 442.146C468.393 442.46 471.64 443.075 475.066 443.383C481.956 444.085 488.059 442.199 492.237 440.792C494.346 440.072 496.032 439.43 497.206 439.004C498.384 438.579 499.043 438.357 499.067 438.402Z" fill="#FAFAFA"/>
<path d="M291.304 461.338C291.266 461.429 290.361 460.815 288.459 460.751C286.574 460.664 283.825 461.332 281.096 463.091C279.703 463.933 278.26 464.978 276.539 465.941C274.826 466.919 272.731 467.654 270.454 468.032C265.862 468.786 260.683 468.054 255.721 466.525C250.743 464.985 246.281 463.022 242.018 461.736C239.894 461.079 237.826 460.585 235.859 460.293C233.887 460.014 232.018 459.93 230.325 460.006C226.926 460.152 224.272 460.969 222.626 461.772C220.965 462.569 220.197 463.221 220.139 463.161C220.12 463.144 220.303 462.978 220.676 462.678C221.042 462.375 221.633 461.966 222.463 461.531C224.095 460.634 226.801 459.715 230.288 459.501C232.026 459.39 233.943 459.447 235.97 459.707C237.994 459.98 240.114 460.466 242.275 461.115C246.615 462.386 251.1 464.336 256.004 465.851C260.881 467.355 265.91 468.073 270.316 467.384C272.506 467.036 274.497 466.364 276.17 465.441C277.855 464.529 279.322 463.507 280.762 462.677C283.595 460.93 286.526 460.291 288.483 460.476C289.466 460.543 290.197 460.776 290.652 460.977C291.108 461.173 291.316 461.324 291.304 461.338Z" fill="#FAFAFA"/>
<path d="M381.824 566.826C381.845 566.808 382.02 566.939 382.34 567.206C382.672 567.464 383.095 567.896 383.606 568.479C384.583 569.656 385.785 571.578 386.233 574.185C386.672 576.751 386.325 580.082 384.098 583.055C381.964 586.023 378.321 588.369 376.279 591.777C375.297 593.483 375.051 595.373 375.479 597.139C375.874 598.907 376.713 600.536 377.564 602.057C379.321 605.066 380.943 607.983 380.882 610.683C380.834 613.378 379.258 615.326 377.876 616.177C377.177 616.618 376.533 616.808 376.1 616.906C375.659 616.98 375.424 616.992 375.421 616.97C375.387 616.889 376.391 616.848 377.675 615.957C378.92 615.093 380.322 613.202 380.291 610.686C380.278 608.146 378.684 605.365 376.872 602.346C375.991 600.815 375.107 599.147 374.674 597.27C374.203 595.403 374.466 593.291 375.527 591.463C376.589 589.639 378.112 588.161 379.55 586.784C380.993 585.404 382.401 584.1 383.45 582.698C385.595 579.906 385.999 576.737 385.648 574.251C385.29 571.73 384.212 569.834 383.338 568.636C382.43 567.439 381.76 566.877 381.824 566.826Z" fill="#FAFAFA"/>
<path d="M449.181 627.294C449.162 627.312 448.956 627.159 448.579 626.845C448.22 626.52 447.733 625.984 447.336 625.189C446.482 623.616 446.377 620.932 447.743 618.078C448.407 616.657 449.469 615.185 450.865 613.854C452.231 612.493 453.851 611.185 455.477 609.77C457.1 608.36 458.743 606.818 459.942 604.961C461.146 603.11 461.825 600.946 462.092 598.694C462.624 594.159 461.673 589.804 461.404 585.803C461.067 581.813 461.47 578.069 462.961 575.251C464.39 572.422 466.535 570.581 468.245 569.708C469.096 569.259 469.818 569.008 470.316 568.869C470.819 568.744 471.084 568.69 471.092 568.713C471.127 568.792 470.032 568.997 468.423 569.941C466.816 570.859 464.819 572.685 463.505 575.448C462.135 578.195 461.798 581.81 462.172 585.757C462.475 589.705 463.468 594.089 462.924 598.767C462.65 601.089 461.938 603.356 460.659 605.302C459.385 607.251 457.675 608.824 456.023 610.236C452.694 613.025 449.572 615.474 448.288 618.274C446.904 621.001 446.916 623.556 447.639 625.086C448.321 626.646 449.278 627.232 449.181 627.294Z" fill="#FAFAFA"/>
<path d="M457.435 645.563C457.435 645.563 456.879 645.979 455.645 646.533C454.423 647.095 452.461 647.748 449.813 647.96C447.177 648.195 443.883 647.952 440.274 647.041C436.641 646.168 432.787 644.493 428.725 642.466C424.642 640.478 420.257 638.101 415.053 636.603C409.856 635.106 403.834 634.975 397.808 636.099C391.753 637.179 385.702 639.312 379.466 641.536C373.225 643.745 366.735 646.175 359.62 647.409C356.075 648.037 352.448 648.231 348.923 647.924C345.388 647.639 342.002 646.691 338.941 645.39C332.79 642.755 327.886 638.94 322.875 635.836C320.371 634.277 317.863 632.826 315.234 631.74C314.575 631.471 313.923 631.204 313.275 630.938C312.616 630.694 311.935 630.51 311.273 630.295C309.96 629.833 308.596 629.576 307.274 629.271C301.937 628.154 296.726 628.185 292.116 628.745C287.497 629.329 283.422 630.448 280.075 631.825C279.223 632.145 278.458 632.549 277.689 632.885C276.914 633.216 276.209 633.589 275.55 633.976C274.886 634.354 274.237 634.697 273.643 635.053C273.072 635.438 272.529 635.803 272.013 636.151C270.949 636.812 270.153 637.543 269.407 638.125C268.647 638.698 268.086 639.25 267.635 639.698C267.196 640.115 266.847 640.445 266.58 640.699C266.339 640.922 266.209 641.034 266.198 641.025C266.187 641.018 266.293 640.892 266.513 640.653C266.765 640.388 267.093 640.04 267.506 639.603C267.94 639.137 268.485 638.567 269.23 637.973C269.963 637.371 270.75 636.618 271.806 635.935C272.319 635.577 272.86 635.199 273.427 634.803C274.02 634.434 274.669 634.078 275.333 633.688C275.99 633.29 276.699 632.905 277.475 632.56C278.246 632.211 279.016 631.793 279.871 631.461C283.239 630.033 287.349 628.867 292.028 628.241C296.698 627.641 301.989 627.579 307.43 628.69C308.779 628.993 310.171 629.251 311.513 629.715C312.189 629.931 312.885 630.117 313.558 630.364C314.222 630.631 314.89 630.902 315.562 631.173C318.25 632.273 320.799 633.737 323.328 635.3C328.384 638.415 333.287 642.196 339.303 644.758C342.298 646.025 345.571 646.938 349.01 647.212C352.437 647.508 355.974 647.322 359.456 646.704C366.446 645.493 372.904 643.088 379.149 640.886C385.394 638.671 391.495 636.531 397.649 635.451C403.771 634.325 409.961 634.478 415.27 636.038C420.575 637.594 424.964 640.016 429.021 642.027C433.061 644.079 436.835 645.758 440.407 646.656C443.955 647.591 447.189 647.869 449.785 647.68C452.391 647.514 454.338 646.916 455.569 646.401C456.813 645.897 457.404 645.522 457.435 645.563Z" fill="#FAFAFA"/>
<path d="M368.036 415.822C385.965 416.581 401.391 405.054 402.964 389.727C403.898 380.634 404.634 372.87 404.634 372.87C404.634 372.87 432.012 372.278 435.824 349.315C439.637 326.353 442.978 273.023 442.978 273.023C413.648 258.128 377.211 258.005 347.745 272.701L343.371 274.882L336.322 385.661C335.314 401.511 349.54 415.04 368.036 415.822Z" fill="#FFBE9D"/>
<path d="M408.423 333.443C408.436 333.193 410.78 333.051 414.563 333.022C415.543 333.04 416.33 332.937 416.468 332.499C416.717 332.017 416.478 331.091 416.136 330.048C415.501 327.849 414.86 325.62 414.187 323.287C411.537 313.668 409.851 305.779 410.422 305.663C410.991 305.548 413.6 313.251 416.25 322.87C416.867 325.214 417.455 327.452 418.037 329.664C418.247 330.661 418.75 331.855 418.045 333.167C417.673 333.822 416.838 334.233 416.179 334.304C415.514 334.399 414.968 334.339 414.502 334.306C410.734 334.005 408.412 333.694 408.423 333.443Z" fill="#263238"/>
<path d="M404.728 372.545C404.728 372.545 387.591 371.842 371.036 360.134C371.036 360.134 376.8 377.605 403.888 378.511L404.728 372.545Z" fill="#EB996E"/>
<path d="M442.655 278.87C442.655 278.87 425.777 284.914 404.973 274.749C391.321 268.079 375.145 264.371 371.382 266.621C367.619 268.87 366.059 281.232 351.92 284.193C351.92 284.193 351.353 307.895 340.402 306.532C329.453 305.167 338.688 268.853 338.688 268.853L366.333 258.857L396.017 255.489L423.482 260.143L444.577 266.183L442.655 278.87Z" fill="#263238"/>
<path d="M343.074 299.075C342.642 298.855 325.344 292.35 323.551 308.141C321.758 323.93 340.622 322.217 340.704 321.766C340.789 321.316 343.074 299.075 343.074 299.075Z" fill="#FFBE9D"/>
<path d="M335.756 315.311C335.681 315.253 335.414 315.477 334.847 315.645C334.294 315.807 333.369 315.876 332.443 315.488C330.566 314.712 329.228 311.927 329.463 309.075C329.578 307.633 330.084 306.294 330.807 305.212C331.502 304.103 332.464 303.37 333.46 303.301C334.457 303.19 335.094 303.75 335.268 304.213C335.464 304.674 335.311 304.98 335.406 305.015C335.453 305.059 335.832 304.783 335.758 304.119C335.718 303.8 335.544 303.409 335.146 303.07C334.738 302.726 334.106 302.513 333.417 302.52C331.987 302.486 330.581 303.5 329.787 304.688C328.915 305.877 328.306 307.378 328.175 308.996C327.931 312.188 329.493 315.322 332.082 316.205C333.345 316.602 334.465 316.358 335.064 316.032C335.681 315.691 335.818 315.346 335.756 315.311Z" fill="#EB996E"/>
<path d="M364.153 269.156C360.389 272.594 356.566 276.073 351.893 278.562C347.22 281.05 341.519 282.477 336.159 281.418C330.799 280.359 326.06 276.381 325.841 271.67C325.623 266.958 330.995 262.362 336.368 263.372C332.72 263.428 329.672 259.887 330.808 256.916C331.946 253.945 336.85 252.642 339.749 254.54C335.081 253.791 334.557 247.44 338.275 244.91C341.993 242.38 347.444 242.932 351.843 244.463C356.244 245.991 360.286 248.362 364.928 249.218C372.208 250.561 379.68 247.962 386.119 244.756C392.557 241.55 398.678 237.627 405.856 235.928C414.666 233.841 424.185 235.366 432.613 238.397C439.609 240.913 446.234 244.558 450.785 249.761C455.335 254.965 457.581 261.881 455.557 268.149C453.531 274.417 446.727 279.621 439.141 279.646C439.141 279.646 422.085 281.118 408.206 272.288C394.328 263.457 365.064 264.625 365.064 264.625L364.153 269.156Z" fill="#263238"/>
<path d="M338.484 250.772C338.448 250.822 338.813 251.071 339.546 251.502C340.269 251.948 341.389 252.525 342.859 253.239C345.808 254.638 350.288 256.401 356.141 257.766C361.982 259.118 369.242 259.983 377.275 259.489C385.346 259.033 393.812 256.805 402.627 254.956C411.415 253.101 420.152 252.178 427.689 253.769C435.22 255.261 441.166 259.174 443.78 263.596C446.431 268.064 446.115 272.426 445.17 275.055C444.211 277.756 442.871 278.951 443.044 279.052C443.096 279.089 443.425 278.807 444.011 278.22C444.529 277.599 445.313 276.657 445.896 275.264C447.114 272.562 447.709 267.941 445.027 263.064C442.363 258.201 436.053 253.915 428.125 252.258C420.153 250.49 411.058 251.439 402.166 253.315C393.239 255.19 384.934 257.418 377.128 257.938C369.334 258.503 362.241 257.785 356.48 256.609C344.897 254.193 338.667 250.436 338.484 250.772Z" fill="#455A64"/>
<path d="M330.215 275.172C330.007 275.262 330.608 276.807 332.596 278.764C334.54 280.705 338.075 282.958 342.672 283.812C347.271 284.662 351.576 283.861 354.283 282.782C357.038 281.703 358.328 280.508 358.183 280.352C358.01 280.134 356.469 280.943 353.787 281.665C351.134 282.396 347.216 282.921 343.09 282.159C338.967 281.392 335.652 279.526 333.587 277.921C331.492 276.318 330.478 275.036 330.215 275.172Z" fill="#455A64"/>
<path d="M335.958 267.369C335.489 267.558 336.902 270.427 340.47 272.526C344.021 274.648 347.651 274.769 347.691 274.326C347.801 273.845 344.73 273.03 341.59 271.138C338.418 269.288 336.445 267.113 335.958 267.369Z" fill="#455A64"/>
<path d="M451.704 289.398C451.948 289.449 452.469 288.67 452.606 287.256C452.752 285.862 452.389 283.813 450.976 281.951C449.562 280.09 447.522 278.974 445.976 278.524C444.411 278.058 443.371 278.151 443.326 278.363C443.167 278.819 446.954 279.722 449.323 282.872C451.723 286.003 451.153 289.337 451.704 289.398Z" fill="#263238"/>
<path d="M461.252 266.758C460.709 266.562 458.676 270.745 453.861 274.191C449.119 277.713 443.977 278.761 444.115 279.252C444.093 279.692 449.914 279.328 455.138 275.477C460.407 271.677 461.761 266.809 461.252 266.758Z" fill="#455A64"/>
<path d="M433.323 308.015C433.115 309.884 431.099 311.275 428.819 311.126C426.542 310.978 424.858 309.345 425.065 307.477C425.272 305.608 427.289 304.214 429.566 304.362C431.846 304.511 433.53 306.146 433.323 308.015Z" fill="#263238"/>
<path d="M436.587 307.704C436.007 308.106 433.193 305.783 428.769 305.298C424.359 304.759 420.814 306.346 420.406 305.828C420.202 305.597 420.846 304.825 422.395 304.101C423.92 303.378 426.424 302.79 429.178 303.108C431.932 303.429 434.115 304.558 435.313 305.597C436.535 306.645 436.87 307.526 436.587 307.704Z" fill="#263238"/>
<path d="M393.073 303.222C392.868 305.091 390.85 306.483 388.569 306.334C386.293 306.185 384.61 304.553 384.816 302.683C385.023 300.814 387.04 299.42 389.317 299.568C391.598 299.719 393.281 301.353 393.073 303.222Z" fill="#263238"/>
<path d="M395.954 303.123C395.374 303.525 392.557 301.202 388.135 300.717C383.724 300.178 380.179 301.766 379.771 301.247C379.567 301.016 380.208 300.244 381.76 299.52C383.285 298.797 385.789 298.209 388.541 298.527C391.295 298.848 393.479 299.977 394.676 301.016C395.897 302.062 396.235 302.945 395.954 303.123Z" fill="#263238"/>
<path d="M394.248 292.693C393.376 293.36 390.061 291.288 385.583 290.929C381.116 290.473 377.367 291.901 376.677 291.091C376.356 290.704 376.952 289.725 378.598 288.79C380.211 287.86 382.949 287.082 386.024 287.363C389.1 287.643 391.586 288.897 392.934 290.097C394.316 291.307 394.658 292.374 394.248 292.693Z" fill="#263238"/>
<path d="M436.304 298.982C436.497 299.431 435.735 300.185 434.125 300.782C432.531 301.381 430.074 301.737 427.429 301.383C424.783 301.025 422.572 300.04 421.27 299.051C419.951 298.058 419.496 297.141 419.842 296.765C420.608 295.987 423.899 297.327 428.08 297.84C432.24 298.451 435.852 298.04 436.304 298.982Z" fill="#263238"/>
<path d="M405.032 339.752C405.493 339.776 405.817 340.488 405.758 341.345C405.697 342.202 405.274 342.875 404.813 342.852C404.352 342.828 404.027 342.115 404.088 341.258C404.148 340.402 404.572 339.728 405.032 339.752Z" fill="#263238"/>
<path d="M339.798 327.771C339.841 327.783 339.774 328.14 339.396 328.698C339.025 329.248 338.281 329.989 337.061 330.52C335.871 331.051 334.105 331.32 332.373 330.758C330.665 330.229 329.04 328.973 328.346 327.242C327.67 325.505 328.044 323.684 328.915 322.339C329.786 320.961 331.169 320.094 332.392 319.638C333.631 319.174 334.73 319.073 335.468 319.083C336.211 319.094 336.608 319.194 336.602 319.236C336.618 319.376 334.918 319.136 332.646 320.096C331.539 320.577 330.335 321.403 329.595 322.65C328.847 323.874 328.547 325.502 329.138 327.012C329.738 328.513 331.156 329.645 332.646 330.14C334.148 330.664 335.689 330.487 336.811 330.061C339.128 329.167 339.671 327.676 339.798 327.771Z" fill="#455A64"/>
<path d="M357.58 422.094C357.58 422.094 366.545 411.238 372.178 405.141C379.002 397.751 383.073 391.383 383.073 387.933C383.073 384.483 383.073 369.644 383.073 369.644C383.073 369.644 391.57 367.918 392.783 376.2C393.998 384.481 392.783 386.551 392.783 386.551C392.783 386.551 428.463 365.955 430.881 367.45C435.131 370.075 427.07 375.574 427.07 375.574L405.324 392.417L417.706 389.058C420.718 388.241 423.941 389.63 424.955 392.182C425.789 394.279 424.886 396.593 422.744 397.846L415.415 403.29L419.103 402.02C421.834 401.079 424.953 402.083 426.274 404.329C427.335 406.132 426.967 408.307 425.353 409.782L418.675 415.883L421.804 414.457C423.821 413.537 426.33 414.218 427.351 415.965C428.206 417.427 427.744 419.201 426.244 420.219L386.306 447.286L357.58 422.094Z" fill="#FFBE9D"/>
<path d="M386.31 447.284C386.31 447.284 386.141 447.158 385.811 446.883C385.461 446.584 384.977 446.172 384.349 445.637C383.036 444.503 381.132 442.861 378.675 440.742C373.689 436.411 366.462 430.132 357.391 422.254L357.235 422.119L357.364 421.964C359.977 418.793 362.818 415.393 365.899 411.801C367.442 410.006 369.042 408.163 370.725 406.29C372.425 404.422 374.165 402.53 375.81 400.488C377.459 398.455 379.058 396.313 380.43 394.013C381.757 391.699 383.019 389.256 382.709 386.536C382.701 381.108 382.694 375.466 382.686 369.644V369.37L382.983 369.322C385.151 368.972 387.478 369.189 389.433 370.233C390.397 370.766 391.156 371.522 391.773 372.344C392.311 373.203 392.726 374.119 392.944 375.07C393.378 376.976 393.529 378.849 393.669 380.785C393.727 381.749 393.748 382.722 393.699 383.702C393.624 384.698 393.6 385.635 393.148 386.709L392.557 386.264C398.065 383.098 403.778 379.893 409.678 376.695C412.63 375.099 415.628 373.505 418.692 371.949C421.771 370.41 424.854 368.835 428.216 367.574C428.661 367.417 429.109 367.264 429.591 367.149C429.834 367.092 430.081 367.04 430.369 367.022C430.507 367.01 430.676 367.018 430.858 367.051C431.116 367.127 431.211 367.222 431.296 367.289C432.169 367.789 432.654 368.826 432.506 369.709C432.201 371.498 430.883 372.801 429.643 373.997C428.348 375.192 426.868 376.17 425.539 377.244C424.175 378.301 422.819 379.352 421.467 380.397C416.063 384.578 410.766 388.679 405.601 392.676L405.206 392.086C407.647 391.425 410.063 390.771 412.456 390.123C413.652 389.8 414.842 389.477 416.026 389.157C416.626 388.998 417.191 388.832 417.815 388.683C418.448 388.526 419.112 388.465 419.766 388.497C422.415 388.567 424.801 390.256 425.438 392.397C426.145 394.533 425.058 396.929 422.963 398.117L422.997 398.094C420.505 399.941 418.059 401.752 415.662 403.529L415.281 402.994C416.488 402.58 417.685 402.169 418.872 401.762C420.116 401.321 421.541 401.235 422.827 401.544C425.435 402.135 427.313 404.319 427.226 406.541C427.212 407.641 426.77 408.721 426.005 409.576C425.198 410.4 424.39 411.071 423.595 411.814C422.002 413.263 420.444 414.683 418.919 416.072L418.53 415.635C419.663 415.125 420.781 414.62 421.887 414.121C423.105 413.627 424.56 413.675 425.719 414.192C426.895 414.692 427.729 415.672 427.993 416.735C428.256 417.806 427.935 418.945 427.168 419.775C426.787 420.203 426.283 420.508 425.851 420.803C425.402 421.104 424.959 421.404 424.517 421.702C423.635 422.297 422.766 422.882 421.909 423.459C420.196 424.612 418.536 425.731 416.93 426.812C410.517 431.119 404.971 434.841 400.421 437.898C395.909 440.914 392.385 443.27 389.962 444.89C388.786 445.668 387.878 446.27 387.24 446.693C386.623 447.098 386.31 447.284 386.31 447.284C386.31 447.284 386.626 447.043 387.24 446.613C387.878 446.171 388.784 445.543 389.959 444.729C392.366 443.075 395.867 440.67 400.349 437.592C404.849 434.514 410.333 430.762 416.676 426.423C418.263 425.341 419.904 424.221 421.596 423.067C422.443 422.49 423.302 421.904 424.173 421.309C424.609 421.012 425.049 420.713 425.491 420.411C425.942 420.102 426.381 419.832 426.699 419.467C427.358 418.746 427.629 417.763 427.398 416.844C427.165 415.93 426.447 415.09 425.435 414.665C424.437 414.226 423.19 414.189 422.152 414.616C421.059 415.113 419.952 415.617 418.834 416.127L417.116 416.909L418.445 415.69C419.965 414.296 421.517 412.872 423.103 411.418C423.874 410.692 424.745 409.952 425.459 409.218C426.133 408.459 426.519 407.505 426.529 406.534C426.598 404.573 424.935 402.654 422.635 402.138C421.496 401.872 420.264 401.945 419.145 402.341C417.959 402.75 416.764 403.165 415.559 403.581L413.509 404.29L415.18 403.047C417.574 401.264 420.013 399.449 422.5 397.597L422.518 397.583L422.534 397.573C424.368 396.528 425.311 394.432 424.689 392.568C424.127 390.699 422.042 389.228 419.729 389.17C418.583 389.081 417.477 389.494 416.267 389.804C415.085 390.126 413.894 390.45 412.699 390.775C410.308 391.425 407.891 392.082 405.452 392.746L403.673 393.229L405.058 392.156C410.224 388.151 415.52 384.044 420.926 379.854C422.277 378.808 423.635 377.754 424.999 376.698C426.346 375.61 427.801 374.645 429.032 373.505C430.233 372.373 431.449 371.067 431.674 369.636C431.765 368.939 431.475 368.26 430.768 367.842C430.671 367.635 430.25 367.751 429.818 367.835C429.394 367.937 428.965 368.081 428.539 368.231C425.277 369.452 422.177 371.031 419.118 372.56C416.063 374.111 413.07 375.7 410.121 377.293C404.229 380.482 398.515 383.682 393.012 386.837L391.99 387.423L392.42 386.391C392.74 385.627 392.838 384.591 392.89 383.667C392.938 382.716 392.92 381.762 392.864 380.813C392.734 378.929 392.573 376.998 392.166 375.207C391.962 374.309 391.577 373.466 391.091 372.681C390.532 371.94 389.862 371.266 389.006 370.79C387.295 369.859 385.1 369.649 383.16 369.96L383.457 369.638C383.449 375.461 383.441 381.101 383.435 386.529C383.425 387.213 383.459 387.865 383.387 388.585C383.282 389.278 383.11 389.953 382.864 390.597C382.389 391.892 381.744 393.107 381.054 394.277C379.651 396.612 378.029 398.766 376.36 400.81C374.7 402.856 372.926 404.77 371.231 406.618C369.544 408.48 367.937 410.315 366.386 412.102C363.29 415.678 360.428 419.066 357.798 422.22L357.77 421.929C366.709 429.842 373.832 436.148 378.746 440.498C381.179 442.667 383.065 444.346 384.365 445.506C384.989 446.068 385.469 446.5 385.818 446.814C386.144 447.116 386.31 447.284 386.31 447.284Z" fill="#EB996E"/>
<path d="M386.31 447.283L276.826 571.18C260.208 589.986 230.257 596.867 205.375 586.658C187.184 579.195 173.844 563.524 185.006 531.262L289.885 469.754L353.633 417.019L386.31 447.283Z" fill="#E8505B"/>
<path d="M205.373 586.659C205.373 586.659 205.781 586.823 206.554 587.175C207.346 587.534 208.489 588.053 209.98 588.73C213.11 589.841 217.828 591.506 224.292 592.019C227.507 592.231 231.12 592.33 235.016 591.852C236.978 591.713 238.974 591.293 241.064 590.937C242.102 590.735 243.139 590.443 244.206 590.194C245.279 589.957 246.344 589.643 247.416 589.29C251.735 587.975 256.209 586.175 260.575 583.751C264.953 581.349 269.258 578.349 272.917 574.508C280.39 566.93 288.113 558.279 296.459 549.047C304.787 539.798 313.581 529.846 322.835 519.376C341.309 498.409 361.505 475.286 382.611 450.953C383.736 449.656 384.857 448.361 385.974 447.072L386.003 447.529C374.802 437.15 363.867 427.019 353.333 417.259L353.894 417.291C331.575 433.082 310.92 448.156 292.192 461.582C273.484 475.026 256.71 486.826 242.533 496.445C228.361 506.07 216.833 513.558 208.807 518.587C204.817 521.129 201.663 523.008 199.556 524.311C198.51 524.946 197.709 525.432 197.148 525.771C196.603 526.096 196.315 526.25 196.315 526.25C196.315 526.25 196.576 526.063 197.104 525.72C197.656 525.369 198.443 524.866 199.471 524.209C201.549 522.872 204.676 520.961 208.638 518.39C216.61 513.302 228.083 505.76 242.205 496.09C256.333 486.426 273.063 474.589 291.736 461.114C310.428 447.658 331.062 432.558 353.375 416.75L353.672 416.539L353.935 416.783C364.473 426.54 375.412 436.667 386.618 447.043L386.855 447.262L386.647 447.501C385.531 448.79 384.409 450.084 383.284 451.382C362.178 475.716 341.961 498.83 323.452 519.775C314.179 530.237 305.364 540.177 297.01 549.412C288.635 558.633 280.892 567.26 273.367 574.841C269.66 578.706 265.286 581.732 260.864 584.136C256.45 586.567 251.933 588.363 247.575 589.67C246.494 590.021 245.419 590.333 244.336 590.567C243.259 590.815 242.215 591.103 241.167 591.302C239.057 591.651 237.046 592.063 235.066 592.193C231.137 592.655 227.498 592.535 224.262 592.299C217.757 591.74 213.03 590.021 209.911 588.865C208.404 588.174 207.279 587.607 206.514 587.242C205.751 586.865 205.373 586.659 205.373 586.659Z" fill="#263238"/>
<path d="M288.384 554.383C288.318 554.463 287.15 553.499 284.556 552.502C281.989 551.481 277.84 550.773 272.785 551.229C270.26 551.44 267.524 551.93 264.667 552.681C261.81 553.422 258.836 554.469 255.691 555.532C252.545 556.598 249.22 557.718 245.634 558.544C242.057 559.362 238.165 559.851 234.208 559.498C230.253 559.147 226.557 558.085 223.148 556.871C219.727 555.654 216.553 554.273 213.483 553.079C207.393 550.648 201.47 549.07 196.391 549.316C191.313 549.512 187.465 551.185 185.342 552.755C183.171 554.335 182.519 555.638 182.422 555.576C182.397 555.563 182.583 555.265 182.964 554.701C183.393 554.17 184.036 553.367 185.127 552.546C187.233 550.872 191.147 549.075 196.358 548.811C201.585 548.491 207.654 550.065 213.799 552.478C216.899 553.664 220.072 555.03 223.459 556.223C226.839 557.416 230.46 558.448 234.293 558.788C238.122 559.129 241.903 558.662 245.423 557.868C248.952 557.065 252.259 555.968 255.41 554.919C258.562 553.872 261.556 552.842 264.469 552.113C267.373 551.378 270.157 550.91 272.73 550.726C277.88 550.326 282.119 551.13 284.691 552.25C287.293 553.345 288.384 554.383 288.384 554.383Z" fill="#FAFAFA"/>
<path d="M327.076 512.838C326.956 512.813 327.725 512.005 327.494 510.382C327.251 508.829 325.768 506.523 322.662 505.343C321.131 504.73 319.317 504.339 317.344 503.953C315.378 503.569 313.212 503.116 311.125 502.244C306.907 500.564 303.019 497.662 299.411 494.377C295.799 491.081 292.579 487.793 289.147 485.267C285.751 482.712 282.139 480.996 278.852 480.226C275.577 479.423 272.752 479.457 270.888 479.761C269.01 480.052 268.033 480.447 268.002 480.377C267.991 480.355 268.227 480.25 268.695 480.069C269.161 479.893 269.873 479.662 270.826 479.487C272.712 479.09 275.624 478.974 279.009 479.737C282.403 480.461 286.168 482.192 289.648 484.765C293.17 487.31 296.432 490.614 300.019 493.882C303.597 497.141 307.389 499.988 311.456 501.645C315.475 503.353 319.749 503.483 322.916 504.884C326.178 506.202 327.661 508.688 327.817 510.349C327.894 511.2 327.698 511.86 327.48 512.261C327.263 512.664 327.092 512.848 327.076 512.838Z" fill="#FAFAFA"/>
<path d="M420.413 170.804C420.39 170.804 420.371 170.804 420.35 170.804C419.02 170.775 417.969 169.826 418.001 168.686L418.547 150.298C418.568 149.65 418.939 149.048 419.553 148.671C420.169 148.294 420.953 148.183 421.671 148.376C425.551 149.408 429.945 148.937 433.722 147.084C437.232 145.364 439.719 142.64 440.546 139.611C441.371 136.598 440.564 133.192 438.332 130.265C435.936 127.121 432.313 124.96 428.391 124.336C420.496 123.077 411.847 127.59 409.097 134.387C408.662 135.464 407.283 136.036 406.032 135.661C404.773 135.288 404.108 134.11 404.544 133.032C408.042 124.385 419.135 118.661 429.27 120.271C434.481 121.1 439.256 123.918 442.369 128.003C445.316 131.871 446.362 136.445 445.238 140.552C444.107 144.692 440.783 148.38 436.116 150.669C432.136 152.621 427.594 153.388 423.292 152.897L422.82 168.789C422.788 169.914 421.716 170.804 420.413 170.804Z" fill="#263238"/>
<path d="M424.148 179.889C424.148 181.558 422.57 182.911 420.622 182.911C418.675 182.911 417.097 181.558 417.097 179.889C417.097 178.22 418.675 176.867 420.622 176.867C422.57 176.867 424.148 178.22 424.148 179.889Z" fill="#263238"/>
<path d="M156.674 382.788C153.057 382.788 149.485 381.892 146.621 380.05C143.245 377.881 141.002 374.43 140.467 370.582C139.961 366.934 141.104 363.352 143.605 360.757C146.128 358.139 150.025 356.511 154.296 356.292C157.704 356.11 161.046 356.833 163.816 358.297L170.17 347.975C170.79 346.966 172.249 346.579 173.427 347.112C174.603 347.645 175.054 348.895 174.434 349.904L166.752 362.384C166.4 362.957 165.754 363.355 165.009 363.46C164.269 363.567 163.505 363.365 162.958 362.917C160.811 361.166 157.766 360.253 154.583 360.418C151.643 360.569 148.995 361.653 147.322 363.391C145.656 365.121 144.902 367.564 145.252 370.097C145.632 372.828 147.184 375.252 149.511 376.748C154.14 379.724 161.708 379.157 166.035 375.512C166.983 374.711 168.508 374.723 169.443 375.537C170.375 376.351 170.363 377.659 169.413 378.458C166.027 381.311 161.313 382.788 156.674 382.788Z" fill="#263238"/>
<path d="M174.167 340.183C174.83 339.035 176.452 338.567 177.79 339.135C179.129 339.703 179.675 341.093 179.013 342.24C178.349 343.388 176.728 343.856 175.39 343.289C174.051 342.72 173.503 341.329 174.167 340.183Z" fill="#263238"/>
<path d="M643.118 348.022C642.37 348.022 641.634 347.726 641.162 347.166L631.516 335.732C631.074 335.207 630.944 334.535 631.164 333.917C631.386 333.299 631.931 332.804 632.641 332.581C635.424 331.709 637.73 329.767 638.967 327.255C640.114 324.929 640.155 322.414 639.08 320.357C638.009 318.311 635.787 316.647 632.982 315.795C629.961 314.877 626.736 314.994 624.141 316.118C618.975 318.356 616.211 324.422 618.105 329.364C618.522 330.448 617.832 331.615 616.568 331.971C615.306 332.328 613.941 331.738 613.526 330.654C610.884 323.766 614.672 315.592 621.965 312.433C625.732 310.8 630.333 310.609 634.592 311.902C638.633 313.129 641.871 315.596 643.477 318.67C645.097 321.769 645.07 325.485 643.405 328.864C642.075 331.565 639.846 333.809 637.089 335.289L645.067 344.747C645.846 345.671 645.603 346.963 644.525 347.631C644.101 347.895 643.606 348.022 643.118 348.022Z" fill="#263238"/>
<path d="M651.444 351.268C652.35 352.286 652.12 353.741 650.933 354.517C649.745 355.294 648.048 355.097 647.142 354.079C646.236 353.062 646.466 351.607 647.653 350.83C648.842 350.054 650.539 350.251 651.444 351.268Z" fill="#263238"/>
</svg>
