<svg width="58" height="43" viewBox="0 0 66 65" fill="none" xmlns="http://www.w3.org/2000/svg">
<path d="M49.2177 21.6947C49.2177 23.1245 48.6437 24.4957 47.6221 25.5067C46.6005 26.5177 45.2148 27.0857 43.77 27.0857C42.3252 27.0857 40.9395 26.5177 39.9179 25.5067C38.8962 24.4957 38.3223 23.1245 38.3223 21.6947C38.3223 20.2649 38.8962 18.8937 39.9179 17.8827C40.9395 16.8717 42.3252 16.3037 43.77 16.3037C45.2148 16.3037 46.6005 16.8717 47.6221 17.8827C48.6437 18.8937 49.2177 20.2649 49.2177 21.6947Z" fill="black"/>
<path fill-rule="evenodd" clip-rule="evenodd" d="M32.72 3.49977H33.0305C39.3199 3.49977 44.2474 3.49977 48.0934 4.01191C52.0267 4.53483 55.1319 5.6292 57.5698 8.03896C60.0076 10.4514 61.1108 13.5243 61.6392 17.4193C62.1567 21.2226 62.1567 26.0987 62.1567 32.3226V32.5598C62.1567 37.7055 62.1567 41.9158 61.8734 45.3445C61.5902 48.7947 61.01 51.6708 59.708 54.0644C59.1378 55.1174 58.425 56.0671 57.5698 56.9135C55.1319 59.326 52.0267 60.4176 48.0907 60.9406C44.2474 61.4527 39.3199 61.4527 33.0305 61.4527H32.72C26.4306 61.4527 21.5031 61.4527 17.657 60.9406C13.7238 60.4176 10.6186 59.3233 8.18073 56.9135C6.02071 54.776 4.90393 52.1155 4.31285 48.8109C3.72722 45.5682 3.62099 41.5331 3.5992 36.5249C3.59557 35.249 3.59375 33.8995 3.59375 32.4762V32.3199C3.59375 26.096 3.59375 21.2199 4.11128 17.4139C4.63971 13.5216 5.7456 10.4487 8.18073 8.03627C10.6186 5.62381 13.7238 4.53214 17.6598 4.00921C21.5031 3.49707 26.4306 3.49707 32.72 3.49707M18.2018 8.0147C14.7207 8.47833 12.6206 9.36245 11.0707 10.8962C9.51814 12.4326 8.62744 14.5081 8.15894 17.9557C7.68499 21.4598 7.67954 26.0637 7.67954 32.4735V34.7485L10.4061 32.3873C11.6021 31.3513 13.1513 30.8039 14.7399 30.8559C16.3285 30.908 17.8377 31.5556 18.9618 32.6676L30.6471 44.2313C31.5539 45.1284 32.7514 45.6803 34.0289 45.7898C35.3064 45.8992 36.582 45.5592 37.6311 44.8297L38.4428 44.2636C39.9564 43.2111 41.7861 42.698 43.6327 42.8082C45.4792 42.9183 47.2334 43.6453 48.6083 44.8701L56.3168 51.7355C57.0958 50.1236 57.5561 48.0049 57.8013 45.0156C58.0682 41.7676 58.0709 37.719 58.0709 32.4735C58.0709 26.0637 58.0655 21.4598 57.5915 17.9557C57.123 14.5081 56.2296 12.4299 54.6797 10.8935C53.1271 9.35975 51.0298 8.47833 47.5459 8.0147C44.0049 7.54569 39.3526 7.5403 32.8752 7.5403C26.3979 7.5403 21.7428 7.54569 18.2018 8.0147Z" fill="black"/>
</svg>
