<svg width="58" height="50" viewBox="0 0 66 66" fill="none" xmlns="http://www.w3.org/2000/svg">
<path d="M11 52.25C9.4875 52.25 8.19317 51.7119 7.117 50.6358C6.04083 49.5596 5.50183 48.2643 5.5 46.75V19.25C5.5 17.7375 6.039 16.4432 7.117 15.367C8.195 14.2908 9.48933 13.7518 11 13.75H55C56.5125 13.75 57.8078 14.289 58.8858 15.367C59.9638 16.445 60.5018 17.7393 60.5 19.25V46.75C60.5 48.2625 59.9619 49.5578 58.8858 50.6358C57.8096 51.7138 56.5143 52.2518 55 52.25H11ZM22 44H44V38.5H22V44ZM13.75 35.75H19.25V30.25H13.75V35.75ZM22 35.75H27.5V30.25H22V35.75ZM30.25 35.75H35.75V30.25H30.25V35.75ZM38.5 35.75H44V30.25H38.5V35.75ZM46.75 35.75H52.25V30.25H46.75V35.75ZM13.75 27.5H19.25V22H13.75V27.5ZM22 27.5H27.5V22H22V27.5ZM30.25 27.5H35.75V22H30.25V27.5ZM38.5 27.5H44V22H38.5V27.5ZM46.75 27.5H52.25V22H46.75V27.5Z" fill="black"/>
</svg>
