<svg width="139" height="182" viewBox="0 0 139 182" fill="none" xmlns="http://www.w3.org/2000/svg">
<path d="M126.081 55.3926C120.822 51.4449 114.193 48.9814 107.443 48.8405C100.767 48.6503 94.3037 50.2884 88.8877 54.1107C86.3283 55.8482 84.3407 57.6181 81.8876 59.1756C77.9884 61.7219 73.3405 62.6333 68.4917 62.3587C62.9765 62.2554 58.7381 58.7414 54.0058 56.198C50.2923 54.1284 45.9738 52.5918 41.6619 52.0792C24.1797 50.0888 10.3158 58.3571 3.80125 74.1547C1.51666 79.7315 0.327888 85.4849 0.0371185 91.3905C-0.257648 100.055 1.23937 108.678 3.24232 117.073C5.35662 125.742 8.17569 134.238 11.7068 142.459C12.9069 145.231 14.2684 148.013 15.7369 150.654C20.721 159.703 26.806 168.258 35.2758 174.636C40.6293 178.595 47.1139 181.667 53.9478 181.992C57.5545 182.109 61.1669 180.897 64.1853 179.106C66.6639 177.681 69.1233 175.737 71.609 174.392C73.5838 173.316 75.5996 172.6 77.7918 172.442C80.0217 172.3 82.2928 172.57 84.4032 173.267C89.1173 174.804 92.7152 178.685 97.6876 179.968C104.514 181.904 111.87 178.838 116.637 174.161C118.917 171.985 120.766 169.442 122.258 166.715C124.631 162.341 126.081 157.528 126.672 152.646C123.418 158.588 119.87 164.475 114.597 168.908C111.612 171.423 107.817 173.507 103.931 173.866C100.514 174.135 97.7833 173.372 94.4685 172.009C92.6953 171.3 90.7516 170.49 88.7005 169.866C84.5835 168.618 80.2114 168.078 75.9181 168.453C71.6881 168.876 67.6417 170.672 63.8856 172.193C59.9095 173.797 56.3518 174.811 52.2534 173.566C37.367 169.408 27.9904 151.405 22.8886 138.183C18.477 126.114 15.0278 113.589 13.4496 100.873C13.11 97.8427 12.8947 94.787 12.9231 91.7448C13.0084 87.1599 13.73 82.426 15.09 78.1169C18.0681 68.4789 24.6752 61.615 35.1535 60.1922C43.6376 58.9963 49.0071 60.3227 56.6391 63.9303C59.9088 65.4281 64.341 66.9606 69.0354 67.134C73.2652 67.2903 77.7 66.9062 81.7459 65.5064C85.6548 64.2058 89.2217 61.8716 92.676 60.0771C97.2319 57.6538 102.157 56.736 107.29 56.6031C116.177 56.3306 124.791 60.7467 130.302 67.5237C135.04 73.2794 137.418 80.5743 138.426 87.9616C140.671 76.0601 136.286 62.8453 126.081 55.3926Z" fill="#B74444"/>
<path d="M67.2062 47.4565C78.9243 47.4723 90.5606 41.5015 96.6978 31.8556C90.5644 38.9645 81.0701 43.2118 71.6769 43.097C72.9048 29.0968 77.4966 17.191 90.4825 9.36099C94.5149 6.97532 98.6823 4.73044 103.186 3.36753C103.359 3.31838 103.548 3.26779 103.739 3.21865C104.524 5.92749 104.689 8.79408 104.567 11.618C104.385 15.0084 103.649 18.3765 102.492 21.5971C105.404 16.1661 107.082 9.9948 106.655 3.82849C106.591 2.96459 106.486 2.08916 106.297 1.23591C106.272 1.09191 105.998 0.184638 105.958 0.0167851L104.785 0.000144617C99.1678 -0.0264812 90.5971 3.62901 85.7504 6.39654C71.6726 14.5145 65.523 28.9295 66.6813 45.0095C66.7624 46.1392 67.2062 47.4565 67.2062 47.4565Z" fill="#95C14F"/>
<g clip-path="url(#clip0_1204_929)">
<path d="M35.9141 112.508V149.582H47.7574H59.6007V130.334C59.6007 114.794 59.4843 110.53 59.0183 108.028C58.7076 106.329 58.3193 104.66 58.2028 104.321C58.1252 103.981 59.6396 106.205 61.6199 109.264C63.7168 112.477 70.9781 122.178 78.8219 132.219L92.3738 149.582H104.139H115.905V112.508V75.4338H104.256H92.6068V89.8617C92.6068 103.455 92.9174 108.8 94.0047 114.022C94.16 114.825 93.5387 114.145 91.7137 111.395C89.3062 107.812 85.4619 102.868 70.551 84.2388L63.6391 75.5883L49.7766 75.4956L35.9141 75.4338V112.508Z" fill="#B74444"/>
</g>
<g filter="url(#filter0_d_1204_929)">
<ellipse cx="96.9217" cy="130.332" rx="26.9305" ry="26.1851" fill="#B74444"/>
<path d="M122.525 130.332C122.525 144.026 111.098 155.19 96.9217 155.19C82.7458 155.19 71.318 144.026 71.318 130.332C71.318 116.638 82.7458 105.474 96.9217 105.474C111.098 105.474 122.525 116.638 122.525 130.332Z" stroke="white" stroke-width="2.65361"/>
</g>
<ellipse cx="104.776" cy="120.288" rx="3.11696" ry="2.98917" fill="white"/>
<defs>
<filter id="filter0_d_1204_929" x="66.7252" y="100.881" width="60.3933" height="58.9021" filterUnits="userSpaceOnUse" color-interpolation-filters="sRGB">
<feFlood flood-opacity="0" result="BackgroundImageFix"/>
<feColorMatrix in="SourceAlpha" type="matrix" values="0 0 0 0 0 0 0 0 0 0 0 0 0 0 0 0 0 0 127 0" result="hardAlpha"/>
<feMorphology radius="0.816495" operator="dilate" in="SourceAlpha" result="effect1_dropShadow_1204_929"/>
<feOffset/>
<feGaussianBlur stdDeviation="1.22474"/>
<feComposite in2="hardAlpha" operator="out"/>
<feColorMatrix type="matrix" values="0 0 0 0 0 0 0 0 0 0 0 0 0 0 0 0 0 0 0.25 0"/>
<feBlend mode="normal" in2="BackgroundImageFix" result="effect1_dropShadow_1204_929"/>
<feBlend mode="normal" in="SourceGraphic" in2="effect1_dropShadow_1204_929" result="shape"/>
</filter>
<clipPath id="clip0_1204_929">
<rect width="79.9911" height="74.1478" fill="white" transform="translate(35.9141 75.4341)"/>
</clipPath>
</defs>
</svg>
