<svg width="309" height="176" viewBox="0 0 309 176" fill="none" xmlns="http://www.w3.org/2000/svg">
<path d="M28.9466 175.604C28.9466 175.604 -2.30918 161.405 12.1459 113.155C19.084 89.9968 40.0347 89.4437 65.2091 62.9309C80.743 46.5711 70.7494 -3.42899 147.262 0.186326C242.674 4.69475 267.616 78.8146 268.028 82.1883C269.457 93.9019 275.516 101.068 282.13 107.794C284.146 109.844 286.213 111.851 288.215 113.935C288.461 114.189 288.706 114.447 288.949 114.704C291.456 117.359 293.841 120.157 295.87 123.331C302.592 133.846 305.421 148.488 295.936 175.747L28.9466 175.604Z" fill="#031837" style="mix-blend-mode:overlay"/>
<path d="M134.219 66.4326H94.108V175.114H134.219V66.4326Z" fill="#B6D1F8"/>
<path d="M27.1884 105.848C31.5099 95.9741 48.3933 101.78 48.3933 101.78C48.3933 101.78 57.4971 121.545 60.8628 122.485C64.2286 123.425 56.3792 104.067 56.3792 104.067C63.1203 104.415 78.8394 115.087 78.8394 115.087C78.8394 115.087 74.6339 135.934 78.1276 136.017C81.6214 136.1 80.9097 117.368 80.9097 117.368C87.0527 120.256 91.9355 128.654 91.9355 128.654C97.6154 141.992 80.1954 148.597 80.1954 148.597C80.1954 148.597 78.8938 155.853 82.1483 164.884C82.1483 164.884 82.9341 166.58 83.5755 169.357L81.8222 169.096C81.7491 168.604 81.6591 168.126 81.5495 167.664C81.5499 167.661 81.5492 167.658 81.5473 167.656C81.5457 167.649 81.544 167.642 81.5424 167.636C81.4627 167.347 81.3476 166.936 81.2025 166.434C81.2023 166.433 81.2022 166.432 81.2019 166.432C81.2021 166.431 81.201 166.431 81.2011 166.43C80.822 165.301 80.5756 164.473 80.4301 163.879C80.4296 163.877 80.4293 163.875 80.4292 163.874C79.3153 160.343 77.6429 155.709 76.2351 154.58C76.2351 154.58 76.4698 154.336 76.7304 153.832C76.5724 154.07 76.4078 154.319 76.2351 154.58C72.2748 160.563 57.1098 159.396 49.0056 156.434C40.9014 153.472 44.8973 151.658 49.9697 148.503C55.0421 145.347 64.3234 147.763 67.3338 146.678C70.3443 145.593 66.4954 143.485 60.8581 143.083C55.2208 142.68 51.6028 147.838 42.4717 147.352C33.3408 146.866 29.0074 128.909 29.0074 128.909C34.9361 131.765 46.5944 129.998 47.3428 127.919C48.0913 125.839 31.5536 123.591 29.0773 122.564C26.601 121.538 22.8667 115.721 27.1884 105.848Z" fill="#DFEBFD"/>
<path d="M245.015 49.2626C240.575 39.1181 223.228 45.083 223.228 45.083C223.228 45.083 213.875 65.3903 210.416 66.3565C206.958 67.3227 215.023 47.4328 215.023 47.4328C208.097 47.7905 191.947 58.7552 191.947 58.7552C191.947 58.7552 196.267 80.1746 192.678 80.2598C189.088 80.3451 189.82 61.0989 189.82 61.0989C183.508 64.0667 178.491 72.6951 178.491 72.6951C172.656 86.3988 190.554 93.1849 190.554 93.1849C190.554 93.1849 191.891 100.64 188.547 109.919C188.547 109.919 187.74 111.661 187.081 114.515L188.882 114.247C188.957 113.742 189.05 113.251 189.162 112.775C189.162 112.772 189.163 112.769 189.165 112.767C189.166 112.76 189.168 112.753 189.17 112.746C189.251 112.449 189.37 112.027 189.519 111.511L189.519 111.509L189.52 111.507C189.91 110.348 190.163 109.496 190.312 108.887C190.313 108.885 190.313 108.881 190.313 108.881C191.458 105.253 193.176 100.493 194.623 99.3321C194.623 99.3321 194.381 99.0813 194.114 98.5634C194.276 98.8086 194.445 99.0641 194.623 99.3321C198.692 105.479 214.273 104.281 222.599 101.237C230.926 98.1943 226.821 96.3301 221.609 93.088C216.397 89.846 206.861 92.328 203.768 91.2135C200.675 90.0989 204.63 87.933 210.422 87.5193C216.214 87.1056 219.931 92.4047 229.313 91.9058C238.694 91.4069 243.146 72.9565 243.146 72.9565C237.055 75.8915 225.077 74.0761 224.308 71.9393C223.539 69.8026 240.53 67.493 243.075 66.438C245.619 65.3827 249.455 59.407 245.015 49.2626Z" fill="#82B378"/>
<path d="M42.4957 157.3C42.4957 157.3 19.592 158.252 14.5557 169.71C14.5557 169.71 13.6284 172.298 17.2537 172.722C20.879 173.145 31.8833 159.441 42.4957 158.172V157.3Z" fill="#82B378"/>
<path d="M42.4958 156.366C42.4958 156.366 29.9086 145.034 20.3062 149.013C10.7038 152.993 27.0265 153.289 31.8984 154.117C36.7704 154.945 42.4958 157.3 42.4958 157.3V156.366Z" fill="#82B378"/>
<path d="M42.1713 159.067C42.1713 159.067 30.7001 162.947 32.6464 169.15C34.5929 175.353 42.1713 159.067 42.1713 159.067Z" fill="#82B378"/>
<path d="M133.28 171.516C133.036 173.619 131.391 175.217 129.466 175.221L49.4506 175.402C43.8761 174.754 39.899 169.2 40.6126 163.061L41.1133 158.753C41.8713 152.233 47.3355 147.461 53.2559 148.149L130.763 167.529C132.415 167.942 133.497 169.655 133.28 171.516Z" fill="#F99746"/>
<path d="M54.6719 161.039L54.0251 166.603C54.0052 166.773 53.8494 166.897 53.6787 166.877L53.5724 166.865C53.4018 166.845 53.2785 166.689 53.2982 166.518L53.945 160.954C53.9648 160.783 54.1207 160.66 54.2914 160.68L54.3977 160.692C54.5684 160.712 54.6918 160.868 54.6719 161.039Z" fill="#ED7D2B"/>
<path d="M59.6412 166.575L58.9944 172.139C58.9746 172.309 58.8187 172.433 58.648 172.413L58.5417 172.401C58.3711 172.381 58.2476 172.225 58.2675 172.054L58.9143 166.49C58.9342 166.32 59.0899 166.196 59.2607 166.216L59.3669 166.228C59.5376 166.248 59.661 166.404 59.6412 166.575Z" fill="#ED7D2B"/>
<path d="M75.3727 161.039L74.7259 166.603C74.7061 166.773 74.5503 166.897 74.3795 166.877L74.2733 166.865C74.1027 166.845 73.9792 166.689 73.999 166.518L74.6459 160.954C74.6657 160.783 74.8215 160.66 74.9922 160.68L75.0985 160.692C75.2692 160.712 75.3925 160.868 75.3727 161.039Z" fill="#ED7D2B"/>
<path d="M77.5373 166.79L76.8905 172.354C76.8707 172.525 76.7148 172.649 76.5441 172.629L76.4378 172.616C76.2672 172.597 76.1437 172.441 76.1636 172.27L76.8104 166.706C76.8302 166.535 76.9861 166.412 77.1568 166.432L77.263 166.444C77.4337 166.464 77.5571 166.62 77.5373 166.79Z" fill="#ED7D2B"/>
<path d="M82.2287 159.428L81.582 164.992C81.5621 165.163 81.4063 165.286 81.2356 165.266L81.1294 165.254C80.9587 165.234 80.8353 165.079 80.8551 164.908L81.5019 159.344C81.5218 159.173 81.6776 159.05 81.8483 159.069L81.9546 159.082C82.1252 159.102 82.2486 159.258 82.2287 159.428Z" fill="#ED7D2B"/>
<path d="M91.2178 161.522L90.8076 165.051C90.7915 165.189 90.6653 165.289 90.5272 165.273L90.3026 165.247C90.1645 165.231 90.0646 165.105 90.0807 164.967L90.4909 161.438C90.507 161.299 90.6332 161.2 90.7712 161.216L90.9957 161.242C91.1339 161.258 91.2338 161.384 91.2178 161.522Z" fill="#ED7D2B"/>
<path d="M92.3532 166.674L91.9429 170.203C91.9268 170.342 91.8007 170.441 91.6626 170.425L91.4381 170.399C91.3 170.383 91.2001 170.257 91.2162 170.119L91.6264 166.59C91.6425 166.452 91.7687 166.352 91.9067 166.368L92.1312 166.394C92.2694 166.41 92.3693 166.536 92.3532 166.674Z" fill="#ED7D2B"/>
<path d="M96.6402 161.33L96.1739 165.342C96.1569 165.488 96.0228 165.594 95.8762 165.577L95.6827 165.555C95.536 165.538 95.43 165.404 95.447 165.257L95.9133 161.245C95.9304 161.099 96.0644 160.993 96.2111 161.01L96.4044 161.032C96.5512 161.049 96.6573 161.183 96.6402 161.33Z" fill="#ED7D2B"/>
<path d="M101.784 165.906L101.317 169.918C101.3 170.064 101.166 170.17 101.02 170.153L100.826 170.131C100.679 170.114 100.573 169.98 100.59 169.833L101.057 165.822C101.074 165.675 101.208 165.569 101.355 165.586L101.548 165.608C101.695 165.625 101.801 165.759 101.784 165.906Z" fill="#ED7D2B"/>
<path d="M105.799 163.941L105.333 167.953C105.316 168.099 105.182 168.206 105.035 168.189L104.842 168.166C104.695 168.149 104.589 168.015 104.606 167.868L105.072 163.857C105.089 163.71 105.223 163.604 105.37 163.621L105.563 163.643C105.71 163.66 105.816 163.794 105.799 163.941Z" fill="#ED7D2B"/>
<path d="M107.4 169.344L106.933 173.356C106.916 173.503 106.782 173.609 106.635 173.592L106.442 173.569C106.295 173.552 106.189 173.418 106.206 173.272L106.673 169.26C106.69 169.113 106.824 169.007 106.97 169.024L107.164 169.047C107.311 169.064 107.417 169.198 107.4 169.344Z" fill="#ED7D2B"/>
<path d="M103.464 171.578L103.248 173.435C103.235 173.539 103.141 173.614 103.037 173.602L102.687 173.561C102.584 173.549 102.509 173.454 102.521 173.351L102.737 171.493C102.749 171.389 102.843 171.314 102.947 171.326L103.297 171.367C103.401 171.379 103.475 171.474 103.464 171.578Z" fill="#ED7D2B"/>
<path d="M100.174 162.563L99.9578 164.421C99.9457 164.524 99.8511 164.599 99.7474 164.587L99.3976 164.546C99.294 164.534 99.2189 164.44 99.231 164.336L99.447 162.478C99.4591 162.375 99.5537 162.3 99.6574 162.312L100.007 162.353C100.111 162.365 100.186 162.459 100.174 162.563Z" fill="#ED7D2B"/>
<path d="M97.5918 168.866L97.1255 172.878C97.1085 173.024 96.9744 173.13 96.8277 173.113L96.6344 173.091C96.4877 173.074 96.3816 172.94 96.3986 172.793L96.865 168.781C96.882 168.635 97.016 168.529 97.1626 168.546L97.3561 168.568C97.5028 168.585 97.609 168.719 97.5918 168.866Z" fill="#ED7D2B"/>
<path d="M87.2472 169.108L86.837 172.637C86.8209 172.775 86.6948 172.875 86.5567 172.859L86.3322 172.833C86.194 172.817 86.0941 172.691 86.1102 172.553L86.5205 169.024C86.5366 168.885 86.6627 168.786 86.8008 168.801L87.0253 168.828C87.1635 168.844 87.2633 168.97 87.2472 169.108Z" fill="#ED7D2B"/>
<path d="M51.0332 164.293L50.1289 172.073C50.1057 172.273 49.9231 172.418 49.7232 172.394C49.5233 172.371 49.3789 172.189 49.4021 171.989L50.3065 164.208C50.3298 164.009 50.5124 163.864 50.7121 163.887C50.912 163.91 51.0566 164.093 51.0332 164.293Z" fill="#ED7D2B"/>
<path d="M58.8354 154.671L58.4224 158.224C58.4062 158.363 58.279 158.464 58.1398 158.448L57.9193 158.422C57.7801 158.406 57.6795 158.279 57.6955 158.14L58.1085 154.587C58.1247 154.447 58.2519 154.347 58.3912 154.363L58.6116 154.389C58.7509 154.405 58.8516 154.532 58.8354 154.671Z" fill="#ED7D2B"/>
<path d="M67.4647 154.671L67.0517 158.224C67.0355 158.363 66.9084 158.464 66.7691 158.448L66.5486 158.422C66.4094 158.406 66.3087 158.279 66.3248 158.14L66.7378 154.587C66.754 154.447 66.8811 154.347 67.0203 154.363L67.2408 154.389C67.3803 154.405 67.4809 154.532 67.4647 154.671Z" fill="#ED7D2B"/>
<path d="M63.7387 160.434L63.3256 163.987C63.3094 164.126 63.1823 164.227 63.043 164.21L62.8226 164.185C62.6833 164.169 62.5827 164.041 62.5989 163.902L63.0119 160.349C63.0281 160.21 63.1552 160.11 63.2945 160.126L63.515 160.151C63.6541 160.168 63.7549 160.295 63.7387 160.434Z" fill="#ED7D2B"/>
<path d="M45.8616 154.671L45.4486 158.224C45.4324 158.363 45.3052 158.464 45.166 158.448L44.9455 158.422C44.8062 158.406 44.7056 158.279 44.7218 158.14L45.1348 154.587C45.151 154.447 45.2781 154.347 45.4174 154.363L45.6379 154.389C45.777 154.405 45.8778 154.532 45.8616 154.671Z" fill="#ED7D2B"/>
<path d="M45.8616 163.19L45.4486 166.743C45.4324 166.882 45.3052 166.983 45.166 166.966L44.9455 166.941C44.8062 166.925 44.7056 166.797 44.7218 166.658L45.1348 163.105C45.151 162.966 45.2781 162.865 45.4174 162.882L45.6379 162.907C45.777 162.924 45.8778 163.051 45.8616 163.19Z" fill="#ED7D2B"/>
<path d="M49.6884 156.612L49.1076 161.607C49.0888 161.77 48.9406 161.887 48.7782 161.868L48.6417 161.852C48.4793 161.834 48.3619 161.685 48.3808 161.523L48.9614 156.528C48.9802 156.365 49.1286 156.248 49.2909 156.267L49.4274 156.283C49.5898 156.301 49.7072 156.45 49.6884 156.612Z" fill="#ED7D2B"/>
<path d="M53.5862 150.394L53.0055 155.39C52.9866 155.552 52.8383 155.669 52.676 155.651L52.5395 155.635C52.3772 155.616 52.2598 155.468 52.2786 155.305L52.8593 150.31C52.8782 150.147 53.0265 150.03 53.1888 150.049L53.3253 150.065C53.4876 150.084 53.6051 150.232 53.5862 150.394Z" fill="#ED7D2B"/>
<path d="M66.5249 165.692L65.8379 171.602C65.8176 171.778 65.6572 171.905 65.4816 171.884L65.3931 171.874C65.2175 171.853 65.0907 171.693 65.111 171.517L65.798 165.607C65.8185 165.432 65.9788 165.305 66.1543 165.325L66.2429 165.336C66.4184 165.356 66.5454 165.516 66.5249 165.692Z" fill="#ED7D2B"/>
<path d="M72.2874 156.329L71.383 164.109C71.3597 164.309 71.1771 164.454 70.9774 164.43C70.7775 164.407 70.6331 164.225 70.6563 164.025L71.5606 156.245C71.5839 156.045 71.7664 155.9 71.9663 155.923C72.1661 155.947 72.3106 156.129 72.2874 156.329Z" fill="#ED7D2B"/>
<path d="M114.163 73.3852C125.24 73.3852 134.219 70.2725 134.219 66.4328C134.219 62.5932 125.24 59.4805 114.163 59.4805C103.087 59.4805 94.108 62.5932 94.108 66.4328C94.108 70.2725 103.087 73.3852 114.163 73.3852Z" fill="#C2DBFD"/>
<path d="M184.661 45.7988H144.55V175.115H184.661V45.7988Z" fill="#F2C5A0"/>
<path d="M164.605 52.7504C175.682 52.7504 184.661 49.6378 184.661 45.7981C184.661 41.9584 175.682 38.8457 164.605 38.8457C153.529 38.8457 144.55 41.9584 144.55 45.7981C144.55 49.6378 153.529 52.7504 164.605 52.7504Z" fill="#F5D1B7"/>
<path d="M229.769 98.7002H196.743V175.114H229.769V98.7002Z" fill="#D8E3B7"/>
<path d="M213.256 105.653C222.376 105.653 229.769 102.54 229.769 98.7004C229.769 94.8607 222.376 91.748 213.256 91.748C204.137 91.748 196.744 94.8607 196.744 98.7004C196.744 102.54 204.137 105.653 213.256 105.653Z" fill="#DCE9BF"/>
<path d="M278.279 132.078V168.082C278.279 171.966 275.131 175.115 271.247 175.115H213.109C209.226 175.115 206.076 171.966 206.076 168.082V161.324C207.727 160.789 209.058 159.359 209.058 157.607C209.058 155.762 208.098 153.579 206.076 153.342V132.465C206.705 132.297 207.303 131.946 207.751 131.46C208.7 130.43 208.552 128.711 207.691 127.593C208.982 126.037 210.929 125.046 213.109 125.046H271.247C275.131 125.046 278.279 128.194 278.279 132.078Z" fill="#FFA412"/>
<path d="M249.439 130.683V169.477C249.439 172.591 246.915 175.115 243.802 175.115H206.076V161.324C207.728 160.789 209.058 159.359 209.058 157.607C209.058 155.762 208.098 153.579 206.076 153.342V149.085C206.727 149.021 207.373 148.815 207.977 148.497C209.844 147.512 211.31 145.452 211.31 143.184C211.31 140.515 208.742 138.535 206.076 138.338V132.465C206.705 132.297 207.304 131.946 207.751 131.46C208.7 130.43 208.552 128.711 207.691 127.593C207.585 127.455 207.468 127.326 207.34 127.209C206.97 126.868 206.533 126.645 206.076 126.535V125.046H243.802C246.915 125.046 249.439 127.57 249.439 130.683Z" fill="#FFB93E"/>
<path d="M228.208 144.488C228.208 146.755 226.742 148.815 224.875 149.8C224.137 150.189 223.338 150.411 222.541 150.411C221.25 150.411 220.07 149.931 219.173 149.138C219.171 149.135 219.169 149.134 219.167 149.132C218.112 148.199 217.447 146.835 217.447 145.316C217.447 142.501 219.727 139.627 222.541 139.627C225.355 139.627 228.208 141.674 228.208 144.488Z" fill="#FFA412"/>
<path opacity="0.5" d="M227.341 145.449C227.341 147.238 226.286 148.879 224.875 149.801C224.137 150.19 223.338 150.411 222.541 150.411C221.25 150.411 220.07 149.931 219.173 149.138C219.171 149.136 219.169 149.135 219.167 149.132C218.455 148.349 218.021 147.307 218.021 146.166C218.021 143.729 219.996 141.239 222.433 141.239C224.87 141.239 227.341 143.013 227.341 145.449Z" fill="#FFB93E"/>
<path d="M213.224 135.402C212.291 134.543 211.999 133.16 212.301 132.018C212.42 131.568 212.631 131.155 212.933 130.827C213.422 130.296 214.067 129.992 214.732 129.924C214.734 129.924 214.735 129.924 214.737 129.923C215.52 129.842 216.334 130.085 216.959 130.661C218.117 131.726 218.436 133.753 217.37 134.911C216.305 136.069 214.382 136.467 213.224 135.402Z" fill="#FFA412"/>
<path opacity="0.5" d="M213.157 134.682C212.421 134.004 212.145 132.949 212.301 132.019C212.42 131.568 212.631 131.156 212.933 130.828C213.422 130.296 214.067 129.993 214.733 129.924C214.734 129.924 214.735 129.924 214.737 129.924C215.329 129.928 215.922 130.143 216.392 130.576C217.394 131.498 217.671 133.254 216.748 134.257C215.825 135.259 214.16 135.605 213.157 134.682Z" fill="#FFB93E"/>
<path d="M238.313 136.955C237.287 138.135 235.592 138.544 234.174 138.211C233.614 138.08 233.098 137.834 232.684 137.473C232.011 136.889 231.615 136.105 231.507 135.286C231.507 135.284 231.506 135.283 231.506 135.28C231.379 134.318 231.65 133.306 232.338 132.516C233.611 131.051 236.099 130.587 237.564 131.861C239.028 133.134 239.586 135.49 238.313 136.955Z" fill="#FFA412"/>
<path opacity="0.5" d="M237.428 137.063C236.618 137.994 235.326 138.371 234.174 138.212C233.614 138.08 233.098 137.834 232.684 137.474C232.011 136.889 231.615 136.105 231.507 135.287C231.507 135.284 231.506 135.283 231.506 135.281C231.49 134.551 231.735 133.812 232.252 133.218C233.355 131.95 235.51 131.548 236.778 132.65C238.046 133.754 238.53 135.795 237.428 137.063Z" fill="#FFB93E"/>
<path d="M239.861 155.468C239.159 157.333 237.315 158.573 235.475 158.804C234.748 158.896 234.022 158.83 233.367 158.584C232.305 158.184 231.484 157.423 230.992 156.494C230.991 156.491 230.99 156.49 230.989 156.487C230.41 155.393 230.285 154.066 230.756 152.816C231.628 150.502 234.393 148.845 236.707 149.716C239.02 150.588 240.733 153.155 239.861 155.468Z" fill="#FFA412"/>
<path opacity="0.5" d="M238.851 155.989C238.297 157.461 236.921 158.483 235.475 158.804C234.748 158.896 234.022 158.83 233.368 158.584C232.305 158.183 231.484 157.423 230.992 156.494C230.991 156.491 230.99 156.489 230.989 156.487C230.646 155.622 230.611 154.631 230.965 153.692C231.719 151.689 234.115 150.253 236.118 151.008C238.123 151.763 239.606 153.986 238.851 155.989Z" fill="#FFB93E"/>
<path d="M232.805 165.739C233.058 166.923 232.522 168.163 231.658 168.885C231.316 169.171 230.923 169.375 230.507 169.464C229.833 169.609 229.163 169.489 228.606 169.175C228.605 169.174 228.604 169.174 228.603 169.173C227.948 168.804 227.448 168.166 227.278 167.372C226.964 165.903 227.834 164.147 229.304 163.833C230.773 163.519 232.491 164.27 232.805 165.739Z" fill="#FFA412"/>
<path opacity="0.5" d="M232.46 166.337C232.66 167.272 232.292 168.247 231.658 168.885C231.316 169.171 230.923 169.376 230.507 169.464C229.833 169.609 229.163 169.49 228.606 169.176C228.605 169.174 228.604 169.174 228.603 169.173C228.143 168.844 227.8 168.348 227.673 167.752C227.401 166.48 228.155 164.959 229.427 164.687C230.699 164.415 232.188 165.065 232.46 166.337Z" fill="#FFB93E"/>
<path d="M245.822 139.291C246.559 140.048 246.74 141.212 246.437 142.148C246.318 142.518 246.123 142.851 245.857 143.11C245.426 143.531 244.876 143.754 244.319 143.781C244.318 143.781 244.317 143.781 244.315 143.781C243.66 143.813 242.994 143.574 242.5 143.067C241.585 142.128 241.411 140.427 242.35 139.512C243.289 138.597 244.907 138.352 245.822 139.291Z" fill="#FFA412"/>
<path opacity="0.5" d="M245.845 139.893C246.427 140.49 246.609 141.381 246.437 142.147C246.318 142.517 246.123 142.851 245.857 143.11C245.426 143.53 244.876 143.753 244.319 143.78C244.318 143.78 244.317 143.78 244.315 143.78C243.823 143.75 243.339 143.544 242.968 143.163C242.176 142.35 242.025 140.877 242.838 140.084C243.651 139.292 245.053 139.08 245.845 139.893Z" fill="#FFB93E"/>
<path d="M215.527 170.809C213.542 170.979 211.629 169.85 210.626 168.289C210.23 167.672 209.977 166.99 209.917 166.292C209.82 165.161 210.152 164.093 210.779 163.248C210.78 163.246 210.781 163.245 210.783 163.242C211.52 162.249 212.665 161.564 213.995 161.45C216.459 161.238 219.146 163.019 219.357 165.483C219.569 167.946 217.99 170.598 215.527 170.809Z" fill="#FFA412"/>
<path opacity="0.5" d="M214.622 170.122C213.055 170.256 211.539 169.455 210.626 168.289C210.23 167.672 209.977 166.99 209.917 166.292C209.82 165.161 210.152 164.093 210.779 163.248C210.78 163.246 210.781 163.244 210.783 163.242C211.416 162.56 212.295 162.101 213.294 162.016C215.427 161.833 217.755 163.376 217.938 165.509C218.121 167.642 216.754 169.939 214.622 170.122Z" fill="#FFB93E"/>
<path d="M171.694 116.654C165.364 107.09 162.833 86.4229 172.397 80.0932C181.96 73.7633 199.996 84.1681 206.325 93.7315C212.655 103.295 210.034 116.179 200.47 122.508C190.907 128.838 178.023 126.217 171.694 116.654Z" fill="white"/>
<path d="M178.988 111.065C175.453 105.724 176.917 98.5277 182.258 94.9923C187.6 91.4569 194.796 92.921 198.332 98.2625C201.867 103.604 200.403 110.8 195.061 114.336C189.72 117.871 182.524 116.407 178.988 111.065Z" fill="#F99746"/>
<path d="M161.076 15.5373H158.69V17.9268H158.257V12.8105H161.427V13.1796H158.69V15.1683H161.076V15.5373Z" fill="black"/>
<path d="M164.488 17.9271C164.464 17.8615 164.446 17.7812 164.433 17.6864C164.42 17.5915 164.411 17.4949 164.407 17.3966C164.344 17.4785 164.269 17.5558 164.182 17.6285C164.095 17.7011 163.998 17.7644 163.89 17.8183C163.782 17.8722 163.664 17.9155 163.535 17.9483C163.406 17.981 163.267 17.9974 163.117 17.9974C162.932 17.9974 162.764 17.9705 162.613 17.9167C162.462 17.8628 162.333 17.7872 162.226 17.69C162.12 17.5928 162.037 17.4785 161.979 17.3473C161.92 17.2161 161.891 17.0733 161.891 16.9187C161.891 16.7337 161.931 16.5668 162.01 16.418C162.09 16.2693 162.205 16.1427 162.355 16.0385C162.504 15.9343 162.687 15.8546 162.901 15.7996C163.115 15.7445 163.356 15.7171 163.623 15.7171H164.403V15.2848C164.403 15.0131 164.319 14.7993 164.152 14.6435C163.984 14.4878 163.74 14.4098 163.419 14.4098C163.272 14.4098 163.136 14.4298 163.012 14.4695C162.887 14.5094 162.78 14.5644 162.69 14.6346C162.6 14.7049 162.53 14.7864 162.479 14.8789C162.429 14.9715 162.404 15.0704 162.404 15.1757L161.982 15.1722C161.982 15.0294 162.017 14.8912 162.087 14.7576C162.158 14.6241 162.257 14.5052 162.384 14.4008C162.512 14.2966 162.665 14.2128 162.845 14.1496C163.024 14.0864 163.222 14.0547 163.44 14.0547C163.642 14.0547 163.827 14.0805 163.997 14.132C164.167 14.1836 164.313 14.2609 164.435 14.3638C164.557 14.4669 164.652 14.5958 164.72 14.7503C164.787 14.905 164.821 15.0854 164.821 15.2914V17.1327C164.821 17.1983 164.824 17.2663 164.829 17.3365C164.833 17.4067 164.841 17.4747 164.851 17.5403C164.862 17.6059 164.874 17.6685 164.888 17.7282C164.902 17.788 164.919 17.8401 164.937 17.8846V17.9268H164.488V17.9271ZM163.166 17.625C163.319 17.625 163.46 17.6057 163.59 17.5669C163.72 17.5283 163.837 17.475 163.943 17.407C164.048 17.3391 164.14 17.2601 164.217 17.1699C164.294 17.0797 164.356 16.982 164.403 16.8765V16.0401H163.683C163.467 16.0401 163.275 16.0594 163.105 16.0981C162.935 16.1367 162.791 16.1925 162.674 16.2651C162.557 16.3378 162.468 16.4261 162.406 16.5303C162.343 16.6347 162.312 16.7524 162.312 16.8835C162.312 16.9866 162.332 17.0832 162.372 17.1734C162.412 17.2635 162.469 17.342 162.543 17.4088C162.616 17.4755 162.706 17.5281 162.811 17.5668C162.917 17.6057 163.035 17.625 163.166 17.625Z" fill="black"/>
<path d="M166.596 13.1514V14.1248H167.383V14.4692H166.596V17.0027C166.596 17.1363 166.609 17.2433 166.636 17.3242C166.663 17.4051 166.7 17.4683 166.745 17.514C166.791 17.5597 166.844 17.5902 166.904 17.6053C166.963 17.6205 167.026 17.6282 167.092 17.6282C167.155 17.6282 167.216 17.6242 167.274 17.6159C167.333 17.6078 167.386 17.6001 167.432 17.593L167.45 17.9375C167.398 17.9562 167.331 17.9708 167.248 17.9815C167.165 17.9919 167.082 17.9972 167 17.9972C166.881 17.9972 166.77 17.9815 166.668 17.9498C166.566 17.9182 166.479 17.8637 166.406 17.7864C166.334 17.7091 166.277 17.6067 166.236 17.4789C166.195 17.3512 166.175 17.1924 166.175 17.0027V14.4692H165.475V14.1248H166.175V13.1514H166.596Z" fill="black"/>
<path d="M170.532 16.9607C170.532 16.8834 170.518 16.8061 170.491 16.7289C170.464 16.6515 170.414 16.5784 170.34 16.5092C170.266 16.4402 170.163 16.3757 170.031 16.316C169.899 16.2562 169.727 16.2042 169.516 16.1596C169.305 16.1151 169.117 16.0636 168.952 16.005C168.787 15.9464 168.648 15.8755 168.534 15.7923C168.42 15.7091 168.334 15.6102 168.276 15.4955C168.217 15.3807 168.188 15.2459 168.188 15.0913C168.188 14.9508 168.219 14.8172 168.281 14.6907C168.343 14.5642 168.432 14.4541 168.548 14.3604C168.664 14.2668 168.804 14.1923 168.97 14.1373C169.135 14.0823 169.321 14.0547 169.527 14.0547C169.747 14.0547 169.944 14.0834 170.119 14.1407C170.293 14.1982 170.441 14.2778 170.562 14.3797C170.682 14.4816 170.774 14.6017 170.837 14.7399C170.901 14.8781 170.932 15.028 170.932 15.1896H170.511C170.511 15.0913 170.489 14.9953 170.446 14.9015C170.402 14.8079 170.339 14.7253 170.256 14.6538C170.173 14.5824 170.07 14.5245 169.947 14.4799C169.824 14.4354 169.684 14.4131 169.527 14.4131C169.363 14.4131 169.223 14.4331 169.107 14.4729C168.991 14.5127 168.896 14.5642 168.822 14.6275C168.748 14.6908 168.695 14.7616 168.661 14.8402C168.627 14.9186 168.61 14.9977 168.61 15.0773C168.61 15.1616 168.623 15.2385 168.648 15.3075C168.674 15.3767 168.724 15.441 168.798 15.5007C168.872 15.5605 168.975 15.6155 169.107 15.6658C169.239 15.7163 169.412 15.766 169.625 15.8152C169.855 15.8691 170.053 15.9288 170.219 15.9944C170.385 16.06 170.523 16.1379 170.632 16.2281C170.741 16.3183 170.822 16.4213 170.874 16.5372C170.927 16.6532 170.954 16.7873 170.954 16.9396C170.954 17.0966 170.921 17.24 170.855 17.37C170.79 17.5001 170.696 17.6113 170.574 17.7038C170.452 17.7964 170.305 17.8684 170.131 17.9199C169.958 17.9713 169.765 17.9972 169.552 17.9972C169.31 17.9972 169.097 17.9661 168.912 17.9041C168.727 17.8421 168.571 17.7582 168.445 17.6528C168.318 17.5473 168.223 17.4261 168.158 17.2892C168.094 17.1521 168.062 17.0098 168.062 16.8622H168.483C168.493 17.0123 168.531 17.1369 168.599 17.2364C168.667 17.336 168.752 17.4156 168.852 17.4754C168.953 17.5351 169.065 17.5779 169.188 17.6037C169.311 17.6294 169.432 17.6423 169.552 17.6423C169.711 17.6423 169.851 17.6235 169.973 17.5861C170.095 17.5487 170.198 17.4982 170.281 17.4351C170.364 17.3718 170.427 17.2992 170.469 17.2171C170.51 17.1353 170.532 17.0497 170.532 16.9607Z" fill="black"/>
<path d="M156.644 24.4506H152.307V22.6973H158.952V24.2265L154.812 31.9259H152.518L156.644 24.4506Z" fill="black"/>
<path d="M159.809 30.6999L161.035 29.2365C161.734 29.8693 162.419 30.2384 163.237 30.2384C164.186 30.2384 164.779 29.777 164.779 28.9332C164.779 28.1422 164.107 27.6807 163.144 27.6807C162.564 27.6807 162.037 27.8389 161.602 28.0236L160.428 27.2457L160.692 22.6973H166.361V24.4771H162.432L162.327 26.0724C162.696 25.9801 163.026 25.9142 163.54 25.9142C165.333 25.9142 166.77 26.7843 166.77 28.8937C166.77 30.8449 165.386 32.0842 163.263 32.0842C161.786 32.0843 160.705 31.557 159.809 30.6999Z" fill="black"/>
<path d="M167.976 25.8109C167.976 24.6629 168.776 23.7354 169.959 23.7354C171.13 23.7354 171.918 24.6514 171.918 25.8109C171.918 26.9472 171.118 27.8864 169.935 27.8864C168.764 27.8864 167.976 26.9704 167.976 25.8109ZM174.712 23.8281H176.092L170.167 31.9446H168.787L174.712 23.8281ZM170.701 25.8109C170.701 25.2658 170.399 24.7905 169.935 24.7905C169.448 24.7905 169.193 25.2542 169.193 25.8109C169.193 26.3559 169.495 26.8312 169.959 26.8312C170.445 26.8312 170.701 26.3559 170.701 25.8109ZM172.961 29.9619C172.961 28.814 173.762 27.8864 174.944 27.8864C176.115 27.8864 176.904 28.8023 176.904 29.9619C176.904 31.0982 176.104 32.0374 174.921 32.0374C173.75 32.0374 172.961 31.1214 172.961 29.9619ZM175.686 29.9619C175.686 29.4169 175.385 28.9416 174.921 28.9416C174.434 28.9416 174.179 29.4054 174.179 29.9619C174.179 30.5069 174.48 30.9823 174.944 30.9823C175.431 30.9823 175.686 30.5068 175.686 29.9619Z" fill="black"/>
<path d="M102.94 35.8655V37.9493H102.508V32.833H104.251C104.532 32.833 104.78 32.8706 104.994 32.9455C105.208 33.0205 105.388 33.1253 105.533 33.26C105.679 33.3947 105.788 33.5557 105.862 33.7431C105.936 33.9305 105.973 34.1367 105.973 34.3616C105.973 34.5982 105.936 34.8096 105.862 34.9958C105.788 35.1821 105.679 35.3397 105.535 35.4685C105.391 35.5974 105.211 35.6957 104.996 35.7636C104.78 35.8316 104.532 35.8655 104.251 35.8655H102.94ZM102.94 35.5002H104.251C104.478 35.5002 104.674 35.4715 104.838 35.4141C105.002 35.3567 105.135 35.2771 105.238 35.175C105.341 35.0731 105.418 34.9532 105.467 34.8149C105.516 34.6767 105.541 34.5279 105.541 34.3687C105.541 34.2117 105.516 34.0624 105.467 33.9206C105.418 33.7789 105.341 33.6548 105.238 33.5482C105.135 33.4416 105.002 33.3572 104.838 33.2951C104.674 33.2332 104.478 33.202 104.251 33.202H102.94V35.5002Z" fill="black"/>
<path d="M108.598 34.5058C108.509 34.4894 108.414 34.4812 108.313 34.4812C108.17 34.4812 108.041 34.5023 107.926 34.5445C107.812 34.5867 107.71 34.6458 107.623 34.7219C107.535 34.7981 107.461 34.8884 107.401 34.9926C107.341 35.0968 107.294 35.2122 107.259 35.3386V37.9495H106.841V34.1473H107.252L107.259 34.7518C107.362 34.5432 107.502 34.3786 107.679 34.2581C107.856 34.1375 108.073 34.0771 108.331 34.0771C108.382 34.0771 108.435 34.0819 108.489 34.0913C108.543 34.1006 108.582 34.1112 108.608 34.1229L108.598 34.5058Z" fill="black"/>
<path d="M108.96 35.9922C108.96 35.7158 109 35.4604 109.081 35.2261C109.162 34.9919 109.276 34.7898 109.423 34.62C109.571 34.4502 109.749 34.3173 109.957 34.2211C110.166 34.1252 110.398 34.0771 110.653 34.0771C110.913 34.0771 111.148 34.1252 111.358 34.2211C111.567 34.3173 111.746 34.4502 111.894 34.62C112.041 34.7899 112.155 34.992 112.235 35.2261C112.314 35.4604 112.354 35.7158 112.354 35.9922V36.1081C112.354 36.3845 112.314 36.6399 112.235 36.8741C112.155 37.1084 112.041 37.3105 111.894 37.4803C111.746 37.6501 111.568 37.7825 111.36 37.8773C111.151 37.9722 110.918 38.0197 110.66 38.0197C110.403 38.0197 110.17 37.9722 109.961 37.8773C109.753 37.7825 109.574 37.6501 109.425 37.4803C109.276 37.3105 109.162 37.1084 109.081 36.8741C109 36.6399 108.96 36.3845 108.96 36.1081V35.9922ZM109.381 36.1081C109.381 36.3166 109.409 36.5151 109.466 36.7036C109.522 36.8923 109.604 37.0575 109.712 37.1992C109.819 37.3409 109.953 37.4538 110.112 37.5382C110.271 37.6225 110.454 37.6648 110.66 37.6648C110.866 37.6648 111.049 37.6226 111.207 37.5382C111.365 37.4538 111.498 37.3409 111.606 37.1992C111.713 37.0575 111.795 36.8923 111.851 36.7036C111.908 36.5151 111.936 36.3166 111.936 36.1081V35.9922C111.936 35.7884 111.908 35.5923 111.851 35.4036C111.795 35.2151 111.713 35.0493 111.606 34.9064C111.498 34.7635 111.364 34.6493 111.203 34.5637C111.043 34.4782 110.859 34.4354 110.653 34.4354C110.45 34.4354 110.268 34.4782 110.11 34.5637C109.952 34.6493 109.819 34.7635 109.712 34.9064C109.604 35.0493 109.522 35.2151 109.465 35.4036C109.409 35.5923 109.381 35.7884 109.381 35.9922L109.381 36.1081Z" fill="black"/>
<path d="M113.876 33.1738V34.1471H114.663V34.4916H113.876V37.0251C113.876 37.1586 113.889 37.2658 113.916 37.3467C113.943 37.4274 113.979 37.4907 114.025 37.5365C114.071 37.5822 114.123 37.6126 114.183 37.6278C114.243 37.643 114.305 37.6505 114.371 37.6505C114.434 37.6505 114.495 37.6465 114.554 37.6383C114.612 37.6301 114.665 37.6224 114.712 37.6154L114.73 37.9598C114.678 37.9785 114.611 37.9931 114.527 38.0038C114.444 38.0144 114.362 38.0196 114.28 38.0196C114.16 38.0196 114.05 38.0038 113.948 37.9721C113.846 37.9405 113.758 37.8861 113.686 37.8087C113.613 37.7315 113.556 37.6291 113.515 37.5013C113.475 37.3737 113.454 37.2149 113.454 37.0251V34.4916H112.755V34.1471H113.454V33.1738H113.876Z" fill="black"/>
<path d="M117.006 38.0197C116.758 38.0197 116.53 37.9735 116.321 37.881C116.113 37.7884 115.933 37.6596 115.782 37.4944C115.631 37.3293 115.513 37.1331 115.429 36.9058C115.344 36.6786 115.302 36.4292 115.302 36.1574V36.0063C115.302 35.7135 115.346 35.4482 115.434 35.2104C115.522 34.9727 115.641 34.77 115.791 34.6025C115.941 34.435 116.113 34.3054 116.309 34.2142C116.505 34.1229 116.711 34.0771 116.929 34.0771C117.17 34.0771 117.385 34.1205 117.572 34.2071C117.76 34.2938 117.917 34.4145 118.045 34.569C118.173 34.7236 118.269 34.9075 118.335 35.1206C118.4 35.3339 118.433 35.5669 118.433 35.8198V36.0764H115.72V36.1571C115.72 36.3657 115.752 36.5619 115.815 36.7457C115.878 36.9296 115.968 37.0895 116.082 37.2253C116.197 37.3612 116.334 37.4684 116.493 37.5468C116.653 37.6254 116.829 37.6645 117.024 37.6645C117.249 37.6645 117.447 37.6235 117.62 37.5415C117.792 37.4596 117.948 37.3284 118.089 37.1479L118.352 37.3483C118.289 37.4396 118.216 37.5263 118.133 37.6084C118.049 37.6903 117.953 37.7617 117.843 37.8226C117.733 37.8836 117.608 37.9317 117.47 37.9667C117.332 38.0021 117.178 38.0197 117.006 38.0197ZM116.929 34.4354C116.77 34.4354 116.622 34.4658 116.486 34.5268C116.351 34.5877 116.231 34.6744 116.126 34.7869C116.022 34.8993 115.937 35.0346 115.87 35.1928C115.803 35.3509 115.758 35.5261 115.734 35.7182H118.015V35.6724C118.01 35.5131 117.984 35.3592 117.938 35.2104C117.891 35.0617 117.822 34.9299 117.732 34.8151C117.642 34.7003 117.53 34.6083 117.396 34.5392C117.263 34.4701 117.107 34.4354 116.929 34.4354Z" fill="black"/>
<path d="M119.227 33.0474C119.227 32.9679 119.253 32.9004 119.305 32.8453C119.356 32.7903 119.426 32.7627 119.515 32.7627C119.604 32.7627 119.675 32.7903 119.728 32.8453C119.781 32.9004 119.807 32.9678 119.807 33.0474C119.807 33.1271 119.781 33.1937 119.728 33.2476C119.675 33.3016 119.604 33.3285 119.515 33.3285C119.426 33.3285 119.356 33.3016 119.305 33.2476C119.253 33.1937 119.227 33.1271 119.227 33.0474ZM119.723 37.9493H119.301V34.1472H119.723V37.9493Z" fill="black"/>
<path d="M121.265 34.1472L121.279 34.7974C121.345 34.6896 121.421 34.5913 121.506 34.5022C121.592 34.4132 121.687 34.337 121.792 34.2738C121.898 34.2105 122.012 34.1619 122.133 34.128C122.255 34.0942 122.384 34.0771 122.52 34.0771C122.71 34.0771 122.879 34.1029 123.029 34.1545C123.179 34.2059 123.306 34.288 123.411 34.4004C123.515 34.5128 123.595 34.6575 123.649 34.8344C123.704 35.0113 123.732 35.225 123.732 35.4756V37.9495H123.314V35.4721C123.314 35.2753 123.293 35.1113 123.251 34.9801C123.208 34.8489 123.149 34.7435 123.071 34.6639C122.994 34.5842 122.9 34.5274 122.789 34.4935C122.677 34.4595 122.554 34.4425 122.418 34.4425C122.268 34.4425 122.132 34.4676 122.01 34.5181C121.888 34.5685 121.781 34.6358 121.687 34.7202C121.593 34.8045 121.512 34.9011 121.444 35.01C121.377 35.1189 121.323 35.2308 121.283 35.3456V37.9495H120.865V34.1473L121.265 34.1472Z" fill="black"/>
<path d="M99.7169 51.0964L102.835 48.54C104 47.5763 104.455 47.0677 104.455 46.2915C104.455 45.5019 103.933 45.0736 103.197 45.0736C102.474 45.0736 101.979 45.4751 101.283 46.3317L99.8374 45.1672C100.761 43.9091 101.658 43.2266 103.331 43.2266C105.271 43.2266 106.556 44.3642 106.556 46.1442C106.556 47.7101 105.753 48.4863 104.093 49.7712L102.568 50.949H106.65V52.7291H99.7168V51.0964H99.7169Z" fill="black"/>
<path d="M108.122 48.0451C108.122 45.3281 109.808 43.2002 112.298 43.2002C114.774 43.2002 116.447 45.3013 116.447 48.0451C116.447 50.762 114.774 52.8902 112.271 52.8902C109.768 52.8902 108.122 50.7888 108.122 48.0451ZM114.332 48.0451C114.332 46.3453 113.502 45.0605 112.271 45.0605C111.04 45.0605 110.237 46.3053 110.237 48.0451C110.237 49.7583 111.053 51.0297 112.298 51.0297C113.543 51.0297 114.332 49.7716 114.332 48.0451Z" fill="black"/>
<path d="M117.595 46.6174C117.595 45.4696 118.395 44.542 119.578 44.542C120.749 44.542 121.537 45.458 121.537 46.6174C121.537 47.7537 120.737 48.6929 119.555 48.6929C118.383 48.693 117.595 47.7769 117.595 46.6174ZM124.332 44.6347H125.711L119.786 52.7512H118.407L124.332 44.6347ZM120.32 46.6174C120.32 46.0725 120.018 45.597 119.555 45.597C119.068 45.597 118.813 46.0608 118.813 46.6174C118.813 47.1624 119.114 47.6378 119.578 47.6378C120.065 47.6378 120.32 47.1624 120.32 46.6174ZM122.581 50.7684C122.581 49.6205 123.381 48.6929 124.564 48.6929C125.735 48.6929 126.523 49.6089 126.523 50.7684C126.523 51.9047 125.723 52.8439 124.54 52.8439C123.369 52.844 122.581 51.9279 122.581 50.7684ZM125.306 50.7684C125.306 50.2235 125.004 49.748 124.54 49.748C124.053 49.748 123.798 50.2118 123.798 50.7684C123.798 51.3134 124.1 51.7887 124.564 51.7887C125.051 51.7888 125.306 51.3135 125.306 50.7684Z" fill="black"/>
<path d="M207.395 71.3696C207.367 71.6296 207.306 71.8628 207.213 72.0688C207.119 72.275 206.993 72.4497 206.835 72.5925C206.677 72.7355 206.487 72.8449 206.266 72.921C206.044 72.9971 205.793 73.0352 205.512 73.0352C205.221 73.0352 204.958 72.9801 204.721 72.87C204.484 72.76 204.282 72.6035 204.113 72.4009C203.944 72.1983 203.814 71.9553 203.723 71.6718C203.632 71.3882 203.586 71.0744 203.586 70.7299V70.0869C203.586 69.7426 203.632 69.4281 203.723 69.1435C203.814 68.8589 203.945 68.6158 204.115 68.4143C204.285 68.2128 204.49 68.0565 204.731 67.9452C204.973 67.8339 205.243 67.7783 205.543 67.7783C205.815 67.7783 206.06 67.8158 206.278 67.8907C206.496 67.9657 206.682 68.0752 206.838 68.2192C206.994 68.3633 207.119 68.539 207.214 68.7463C207.309 68.9536 207.369 69.1885 207.395 69.4508H206.959C206.933 69.2447 206.887 69.0603 206.819 68.8974C206.751 68.7346 206.659 68.5981 206.543 68.4881C206.427 68.3779 206.286 68.2937 206.121 68.2351C205.956 68.1766 205.763 68.1472 205.543 68.1472C205.304 68.1472 205.091 68.1935 204.904 68.286C204.716 68.3786 204.557 68.5092 204.426 68.6779C204.295 68.8465 204.194 69.0499 204.125 69.2876C204.056 69.5253 204.022 69.7895 204.022 70.0799V70.7299C204.022 71.0111 204.055 71.2706 204.12 71.5082C204.186 71.7461 204.282 71.9511 204.408 72.1233C204.535 72.2955 204.691 72.4296 204.876 72.5256C205.061 72.6216 205.273 72.6697 205.512 72.6697C205.964 72.6697 206.304 72.5613 206.534 72.3447C206.764 72.128 206.905 71.803 206.959 71.3695L207.395 71.3696Z" fill="black"/>
<path d="M210.747 72.9651C210.724 72.8996 210.706 72.8193 210.693 72.7244C210.68 72.6295 210.671 72.5329 210.667 72.4344C210.603 72.5165 210.528 72.5938 210.442 72.6663C210.355 72.7389 210.258 72.8023 210.15 72.8561C210.042 72.9099 209.924 72.9533 209.795 72.9861C209.666 73.0189 209.527 73.0353 209.377 73.0353C209.192 73.0353 209.024 73.0083 208.873 72.9544C208.722 72.9005 208.593 72.825 208.486 72.7278C208.38 72.6307 208.297 72.5163 208.239 72.3853C208.18 72.2541 208.151 72.1111 208.151 71.9565C208.151 71.7714 208.191 71.6045 208.27 71.4558C208.35 71.3071 208.465 71.1806 208.614 71.0763C208.764 70.9719 208.947 70.8924 209.161 70.8373C209.375 70.7823 209.616 70.7548 209.883 70.7548H210.663V70.3226C210.663 70.0509 210.579 69.8371 210.412 69.6812C210.244 69.5254 210 69.4475 209.679 69.4475C209.532 69.4475 209.396 69.4675 209.272 69.5074C209.147 69.5473 209.04 69.6022 208.95 69.6726C208.86 69.7429 208.79 69.8242 208.739 69.9167C208.689 70.0093 208.663 70.1082 208.663 70.2136L208.242 70.21C208.242 70.0672 208.277 69.9289 208.347 69.7954C208.418 69.6619 208.517 69.5431 208.644 69.4388C208.772 69.3346 208.925 69.2507 209.105 69.1876C209.284 69.1243 209.482 69.0928 209.7 69.0928C209.902 69.0928 210.087 69.1185 210.257 69.1701C210.427 69.2216 210.573 69.299 210.695 69.402C210.817 69.505 210.911 69.6339 210.979 69.7885C211.047 69.9432 211.081 70.1236 211.081 70.3296V72.1709C211.081 72.2366 211.084 72.3045 211.088 72.3748C211.093 72.445 211.101 72.5131 211.111 72.5786C211.122 72.6442 211.134 72.7068 211.148 72.7667C211.162 72.8263 211.179 72.8786 211.197 72.9229V72.9652H210.747V72.9651ZM209.426 72.6629C209.578 72.6629 209.72 72.6435 209.85 72.6049C209.98 72.5663 210.097 72.513 210.203 72.445C210.308 72.3771 210.4 72.2979 210.477 72.2079C210.554 72.1177 210.616 72.0198 210.663 71.9143V71.0781H209.943C209.727 71.0781 209.534 71.0973 209.365 71.136C209.195 71.1747 209.051 71.2304 208.934 71.3029C208.817 71.3757 208.727 71.4641 208.665 71.5683C208.603 71.6726 208.572 71.7904 208.572 71.9215C208.572 72.0244 208.592 72.1211 208.632 72.2112C208.672 72.3014 208.729 72.3799 208.802 72.4466C208.876 72.5135 208.966 72.5662 209.071 72.6048C209.177 72.6435 209.295 72.6629 209.426 72.6629Z" fill="black"/>
<path d="M213.959 69.5215C213.87 69.505 213.775 69.4968 213.675 69.4968C213.532 69.4968 213.403 69.518 213.288 69.5601C213.173 69.6022 213.072 69.6613 212.984 69.7375C212.896 69.8137 212.823 69.9039 212.763 70.0081C212.703 70.1124 212.656 70.2277 212.621 70.3541V72.965H212.202V69.1629H212.613L212.621 69.7674C212.723 69.5589 212.863 69.3943 213.04 69.2737C213.217 69.1531 213.435 69.0928 213.692 69.0928C213.744 69.0928 213.796 69.0975 213.85 69.1068C213.904 69.1162 213.944 69.1267 213.97 69.1384L213.959 69.5215Z" fill="black"/>
<path d="M217.684 71.1023C217.684 71.388 217.652 71.6492 217.587 71.8858C217.523 72.1225 217.429 72.3257 217.304 72.4955C217.18 72.6654 217.028 72.7976 216.847 72.8926C216.667 72.9874 216.462 73.035 216.232 73.035C215.954 73.035 215.715 72.9823 215.517 72.8768C215.319 72.7714 215.157 72.6273 215.031 72.4446L215.013 72.9647H214.62V67.5674H215.038V69.7145C215.164 69.5177 215.325 69.3649 215.519 69.2558C215.714 69.1468 215.949 69.0925 216.225 69.0925C216.457 69.0925 216.663 69.1381 216.844 69.2294C217.024 69.3208 217.177 69.4508 217.302 69.6195C217.428 69.7881 217.523 69.9913 217.587 70.2292C217.652 70.467 217.684 70.7334 217.684 71.0285L217.684 71.1023ZM217.262 71.0283C217.262 70.8082 217.241 70.6021 217.199 70.4099C217.157 70.2178 217.091 70.0515 217 69.9109C216.91 69.7703 216.795 69.6597 216.654 69.5788C216.514 69.4979 216.345 69.4575 216.148 69.4575C215.989 69.4575 215.849 69.4792 215.727 69.5225C215.605 69.5659 215.499 69.6238 215.41 69.6964C215.321 69.769 215.246 69.8523 215.185 69.946C215.125 70.0396 215.075 70.137 215.038 70.2375V71.9523C215.082 72.0531 215.138 72.1474 215.205 72.2352C215.272 72.3232 215.351 72.3993 215.442 72.4637C215.533 72.5281 215.638 72.5785 215.756 72.6147C215.875 72.651 216.008 72.6692 216.155 72.6692C216.345 72.6692 216.51 72.6294 216.649 72.5497C216.788 72.4702 216.904 72.36 216.995 72.2195C217.087 72.0789 217.154 71.9132 217.197 71.7223C217.241 71.5313 217.262 71.3247 217.262 71.1022L217.262 71.0283Z" fill="black"/>
<path d="M220.889 71.9988C220.889 71.9215 220.875 71.8442 220.848 71.7668C220.821 71.6895 220.771 71.6163 220.697 71.5472C220.623 71.478 220.52 71.4137 220.388 71.3538C220.256 71.2942 220.084 71.242 219.873 71.1975C219.662 71.153 219.474 71.1015 219.309 71.0428C219.144 70.9842 219.005 70.9135 218.891 70.8303C218.777 70.7471 218.691 70.6481 218.633 70.5334C218.574 70.4185 218.545 70.2839 218.545 70.1293C218.545 69.9886 218.576 69.8552 218.638 69.7287C218.7 69.6021 218.789 69.492 218.905 69.3984C219.021 69.3047 219.162 69.2303 219.327 69.1753C219.492 69.1202 219.678 69.0928 219.884 69.0928C220.104 69.0928 220.301 69.1214 220.476 69.1788C220.65 69.2363 220.798 69.3158 220.919 69.4178C221.039 69.5197 221.131 69.6397 221.194 69.7779C221.258 69.9162 221.289 70.0661 221.289 70.2277H220.868C220.868 70.1294 220.846 70.0333 220.803 69.9396C220.759 69.846 220.696 69.7635 220.613 69.6918C220.53 69.6204 220.427 69.5624 220.304 69.518C220.181 69.4735 220.041 69.4511 219.884 69.4511C219.72 69.4511 219.58 69.471 219.464 69.5108C219.348 69.5507 219.253 69.6022 219.179 69.6655C219.105 69.7288 219.052 69.7997 219.018 69.8781C218.984 69.9567 218.967 70.0357 218.967 70.1154C218.967 70.1996 218.98 70.2764 219.005 70.3455C219.031 70.4146 219.081 70.479 219.155 70.5387C219.229 70.5985 219.332 70.6535 219.464 70.7039C219.596 70.7544 219.769 70.8042 219.982 70.8533C220.212 70.9072 220.41 70.9669 220.576 71.0325C220.742 71.0982 220.88 71.1761 220.989 71.2662C221.098 71.3565 221.179 71.4594 221.232 71.5753C221.284 71.6912 221.311 71.8254 221.311 71.9777C221.311 72.1346 221.278 72.2781 221.212 72.4081C221.147 72.5382 221.053 72.6495 220.931 72.742C220.809 72.8346 220.662 72.9066 220.488 72.9582C220.315 73.0097 220.122 73.0355 219.909 73.0355C219.667 73.0355 219.454 73.0044 219.269 72.9423C219.084 72.8802 218.928 72.7964 218.802 72.6911C218.675 72.5856 218.58 72.4644 218.515 72.3274C218.451 72.1904 218.419 72.0481 218.419 71.9004H218.84C218.85 72.0505 218.888 72.1752 218.956 72.2746C219.024 72.3742 219.109 72.454 219.209 72.5137C219.31 72.5734 219.422 72.6162 219.545 72.6419C219.668 72.6678 219.789 72.6805 219.909 72.6805C220.068 72.6805 220.208 72.6618 220.33 72.6243C220.452 72.5869 220.555 72.5363 220.638 72.4731C220.721 72.41 220.784 72.3374 220.826 72.2553C220.867 72.1733 220.889 72.0877 220.889 71.9988Z" fill="black"/>
<path d="M203.686 85.0161L204.988 83.4625C205.73 84.1343 206.457 84.5263 207.325 84.5263C208.333 84.5263 208.963 84.0363 208.963 83.1405C208.963 82.3006 208.249 81.8108 207.227 81.8108C206.612 81.8108 206.052 81.9787 205.59 82.1746L204.344 81.3487L204.624 76.5195H210.643V78.4093H206.472L206.36 80.103C206.751 80.005 207.101 79.9351 207.647 79.9351C209.551 79.9351 211.077 80.8588 211.077 83.0985C211.077 85.1701 209.607 86.4859 207.353 86.4859C205.785 86.4859 204.638 85.926 203.686 85.0161Z" fill="black"/>
<path d="M212.283 80.2132C212.283 79.0653 213.083 78.1377 214.265 78.1377C215.437 78.1377 216.225 79.0538 216.225 80.2132C216.225 81.3495 215.425 82.2887 214.242 82.2887C213.071 82.2887 212.283 81.3727 212.283 80.2132ZM219.019 78.2304H220.399L214.474 86.3469H213.094L219.019 78.2304ZM215.007 80.2132C215.007 79.6682 214.706 79.1928 214.242 79.1928C213.755 79.1928 213.5 79.6566 213.5 80.2132C213.5 80.7581 213.802 81.2335 214.265 81.2335C214.752 81.2335 215.007 80.7581 215.007 80.2132ZM217.268 84.3641C217.268 83.2163 218.069 82.2887 219.251 82.2887C220.422 82.2887 221.211 83.2047 221.211 84.3641C221.211 85.5004 220.411 86.4397 219.228 86.4397C218.057 86.4397 217.268 85.5236 217.268 84.3641ZM219.993 84.3641C219.993 83.8192 219.692 83.3438 219.228 83.3438C218.741 83.3438 218.486 83.8076 218.486 84.3641C218.486 84.9091 218.787 85.3845 219.251 85.3845C219.738 85.3845 219.993 84.9091 219.993 84.3641Z" fill="black"/>
<path d="M277.079 103.155C274.075 110.146 268.935 118.213 261.897 120.686C261.377 120.869 260.824 120.945 260.275 120.889C259.274 120.786 258.324 120.472 257.656 119.976C256.738 119.298 256.346 118.279 257.057 116.998C260.819 110.222 260.394 103.115 256.366 101.923C253.46 101.062 248.681 106.668 248.586 114.167C248.564 115.901 247.296 116.787 245.658 116.668C244.65 116.593 243.501 116.138 242.42 115.261C242.322 115.182 242.237 115.086 242.167 114.981C238.291 109.105 237.731 99.722 238.193 91.9322C238.782 82.0353 246.857 71.0597 258.863 71.0496C260.697 71.0481 263.546 70.767 264.83 71.1213C265.969 71.4354 268.413 73.1368 269.966 74.0014C281.379 80.3582 280.918 94.2236 277.079 103.155Z" fill="#2E3552"/>
<path d="M278.541 92.1387C278.541 92.1906 278.541 92.2438 278.54 92.2932C278.532 96.1614 277.616 100.021 276.222 103.261C275.896 104.017 275.545 104.785 275.166 105.56C275.167 105.56 275.167 105.56 275.164 105.563C275.123 105.655 275.076 105.747 275.031 105.84C273.89 108.145 272.524 110.476 270.938 112.588V112.591C270.869 112.683 270.801 112.772 270.73 112.863C270.162 113.607 269.564 114.322 268.94 114.995C268.794 115.154 268.648 115.308 268.498 115.461L268.497 115.464C266.488 117.534 264.21 119.19 261.676 120.09C261.144 120.279 260.575 120.355 260.013 120.292C259.075 120.187 258.189 119.887 257.562 119.422C256.679 118.77 256.302 117.792 256.986 116.56C260.6 110.051 260.191 103.223 256.321 102.077C253.53 101.249 248.938 106.637 248.847 113.842C248.826 115.507 247.608 116.358 246.034 116.244C245.296 116.189 244.478 115.921 243.671 115.424C243.104 115.075 242.638 114.583 242.297 114.011C241.169 112.118 240.362 109.896 239.808 107.504C240.076 108.07 240.562 109.009 241.221 109.919C242.215 111.288 243.282 112.139 244.356 112.436C244.779 112.553 245.202 112.584 245.624 112.527C246.849 112.365 247.993 111.217 249.024 109.113C249.783 107.564 250.195 106.04 250.199 106.027L249.98 105.966C249.963 106.026 248.345 111.934 245.593 112.301C242.171 112.756 239.809 106.949 239.786 106.889L239.682 106.932C239.486 106.025 239.326 105.098 239.198 104.155C239.187 104.081 239.176 104.012 239.167 103.936C239.165 103.933 239.165 103.933 239.168 103.932C238.828 101.376 238.71 98.7282 238.733 96.1577L238.735 96.155C238.733 96.1058 238.736 96.0538 238.736 96.0045C238.749 94.8055 238.796 93.6246 238.862 92.479C239.088 88.6911 240.44 84.8021 242.713 81.5023L242.715 81.4996C242.744 81.4568 242.773 81.4166 242.804 81.3738C244.588 78.8226 246.925 76.6322 249.722 75.1231C249.797 75.0802 249.877 75.04 249.955 74.9985C250.749 74.5846 251.581 74.2239 252.447 73.9241C252.553 73.8877 252.664 73.8514 252.774 73.8178C253.098 73.71 253.428 73.6167 253.76 73.5284C253.76 73.5284 253.76 73.5284 253.763 73.5284C256.859 72.7174 260.349 72.6888 264.14 73.7347C268.382 74.9052 271.519 76.8257 273.76 79.1991C273.763 79.1991 273.763 79.2017 273.764 79.2017C274.056 79.5105 274.334 79.8285 274.595 80.1516C274.656 80.2256 274.714 80.2982 274.771 80.3734C275.309 81.0573 275.78 81.7723 276.191 82.512C276.218 82.56 276.244 82.6054 276.269 82.6522C277.86 85.5701 278.529 88.857 278.541 92.1387Z" fill="#F99746"/>
<path d="M257.656 119.975C256.625 119.372 255.981 117.683 256.788 116.291C260.52 109.848 260.171 103.503 256.301 102.357C253.509 101.53 248.939 106.637 248.847 113.841C248.826 115.507 247.693 117.026 245.164 116.601L246.029 116.24C246.029 116.24 247.495 116.025 247.93 114.477C248.312 113.117 248.696 98.9271 256.53 100.909C264.094 102.823 259.851 112.078 258.909 113.773C257.967 115.469 257.015 118.042 257.656 119.975Z" fill="#EFEFEF"/>
<g opacity="0.5">
<path d="M257.502 93.4003L257.276 93.3689C257.286 93.2909 258.337 85.4363 256.227 81.8129C253.912 77.8413 250.74 75.7288 249.722 75.1233C249.798 75.0802 249.877 75.0406 249.955 74.998C251.101 75.6983 254.169 77.8271 256.424 81.6991C257.328 83.2499 257.785 85.6939 257.78 88.959C257.777 91.383 257.506 93.3799 257.502 93.4003Z" fill="white"/>
</g>
<g opacity="0.5">
<path d="M276.269 82.6522L276.236 82.7617L276.076 82.7173C266.734 80.1398 261.112 93.6074 261.058 93.7441L260.845 93.6568C260.859 93.6228 262.301 90.1332 264.906 87.0403C268.323 82.9794 272.204 81.4121 276.138 82.4976L276.191 82.5122C276.218 82.5599 276.244 82.605 276.269 82.6522Z" fill="white"/>
</g>
<g opacity="0.5">
<path d="M256.534 93.1144L256.306 93.1227C256.303 93.0389 255.963 84.8407 252.207 82.7662C248.431 80.6789 242.789 81.6065 242.735 81.6151L242.713 81.5026L242.714 81.5005C242.745 81.4569 242.773 81.4171 242.804 81.3734C243.616 81.2539 248.767 80.601 252.319 82.5649C253.948 83.4648 255.152 85.5179 255.898 88.6653C256.452 90.9943 256.532 93.0928 256.534 93.1144Z" fill="white"/>
</g>
<g opacity="0.5">
<path d="M278.539 92.2939L278.464 92.3774C276.281 90.3743 273.807 89.464 271.106 89.6645C265.842 90.0586 261.552 94.5236 261.516 94.5682L261.329 94.4362C261.358 94.3942 265.441 90.1 270.63 89.4813C273.544 89.1334 276.204 90.0283 278.541 92.1404C278.541 92.1925 278.541 92.2445 278.539 92.2939Z" fill="white"/>
</g>
<g opacity="0.5">
<path d="M255.277 94.8476C252.971 92.6819 249.773 92.3286 247.203 92.0444C245.079 91.8093 243.402 91.6238 242.955 90.5005C242.445 89.2189 242.856 87.5467 243.953 86.4345C244.766 85.6118 246.63 84.4253 250.017 85.7212C255.551 87.8418 255.819 93.8826 255.821 93.9434L255.592 93.9511C255.59 93.8918 255.325 87.9997 249.935 85.9348C246.673 84.6851 244.889 85.812 244.116 86.595C243.096 87.6278 242.697 89.2347 243.167 90.4159C243.564 91.4118 245.18 91.5906 247.228 91.8171C249.832 92.1048 253.072 92.4631 255.434 94.681L255.277 94.8476Z" fill="white"/>
</g>
<g opacity="0.5">
<path d="M271.803 99.5016C271.075 99.3007 270.241 98.9065 269.31 98.4659C267.102 97.4216 264.354 96.1218 261.254 96.5764L261.221 96.3502C264.389 95.8859 267.172 97.2016 269.408 98.2596C271.209 99.1105 272.632 99.7841 273.542 99.1825C274.513 98.5417 275.388 97.2941 275.157 95.9512C274.984 94.9463 274.121 93.5888 271.019 92.8183C265.412 91.4309 261.626 95.895 261.589 95.9403L261.413 95.7945C261.452 95.7482 265.325 91.1741 271.074 92.5963C274.301 93.3994 275.198 94.8403 275.382 95.9125C275.631 97.3568 274.701 98.6913 273.669 99.3731C273.158 99.7102 272.534 99.7032 271.803 99.5016Z" fill="white"/>
</g>
<g opacity="0.5">
<path d="M255.69 95.8184L255.601 96.0308C255.487 95.9805 244.266 91.2891 238.811 96.2407L238.734 96.1579L238.735 96.1556C238.734 96.1057 238.737 96.0542 238.736 96.0044C244.326 91.0637 255.576 95.7701 255.69 95.8184Z" fill="white"/>
</g>
<g opacity="0.5">
<path d="M255.598 96.7787C255.475 96.7614 243.131 95.0645 239.303 104.198L239.199 104.155C239.188 104.081 239.177 104.012 239.167 103.936C239.165 103.933 239.165 103.933 239.168 103.931C243.15 94.8349 255.505 96.5347 255.632 96.5533L255.598 96.7787Z" fill="white"/>
</g>
<g opacity="0.5">
<path d="M245.029 107.308C244.603 107.19 244.23 106.856 243.995 106.37C243.531 105.409 243.548 103.695 244.985 101.77C247.993 97.7412 256.066 97.7785 256.147 97.7794L256.144 98.0079C256.064 98.0071 248.106 97.9711 245.168 101.907C243.792 103.75 243.766 105.37 244.201 106.27C244.456 106.799 244.87 107.11 245.339 107.125C245.914 107.142 246.473 106.719 246.914 105.932C248.656 102.82 253.387 98.4811 257.136 98.4853V98.714C253.47 98.7097 248.828 102.98 247.113 106.043C246.629 106.908 245.996 107.374 245.332 107.353C245.229 107.351 245.128 107.335 245.029 107.308Z" fill="white"/>
</g>
<g opacity="0.5">
<path d="M274.771 80.3737L274.716 80.472C272.783 79.377 270.419 80.7443 267.916 82.1943C267.451 82.464 266.969 82.7434 266.494 83.0035C265.053 83.7913 263.637 84.0191 262.375 83.6709C262.278 83.6441 262.182 83.613 262.087 83.5797C260.556 83.0386 259.327 81.6684 258.436 79.5025C257.039 76.1209 253.803 74.4814 252.447 73.9246C252.554 73.8879 252.663 73.8517 252.774 73.8184C254.275 74.4718 257.298 76.1498 258.645 79.4156C259.513 81.5182 260.696 82.8474 262.163 83.3636C263.434 83.8113 264.892 83.6188 266.385 82.8029C266.857 82.5444 267.337 82.2667 267.803 81.9969C270.268 80.5699 272.599 79.2173 274.595 80.1521C274.656 80.2257 274.714 80.2986 274.771 80.3737Z" fill="white"/>
</g>
<g opacity="0.5">
<path d="M275.165 105.56C275.167 105.561 275.167 105.561 275.165 105.563C275.122 105.655 275.076 105.747 275.031 105.841C272.535 99.1553 260.991 97.5011 260.872 97.485L260.904 97.2568C261.021 97.2723 272.47 98.912 275.165 105.56Z" fill="white"/>
</g>
<g opacity="0.5">
<path d="M270.939 112.588L270.938 112.591C270.87 112.683 270.8 112.773 270.73 112.863L270.675 112.855C272.07 103.049 260.605 98.1769 260.488 98.1281L260.577 97.918C260.692 97.9662 272.092 102.807 270.939 112.588Z" fill="white"/>
</g>
<g opacity="0.5">
<path d="M264.164 112.587C264.066 112.56 263.97 112.521 263.88 112.47C263.3 112.147 262.996 111.424 263.023 110.433C263.122 106.924 261.326 100.877 258.177 99.0009L258.295 98.8046C261.515 100.723 263.352 106.874 263.252 110.439C263.226 111.341 263.489 111.991 263.991 112.271C264.402 112.499 264.917 112.444 265.407 112.121C266.242 111.57 267.05 110.167 266.814 107.879C266.31 102.993 259.459 98.943 259.39 98.9026L259.505 98.7051C259.575 98.746 266.525 102.854 267.041 107.855C267.288 110.245 266.424 111.724 265.533 112.311C265.082 112.609 264.59 112.704 264.164 112.587Z" fill="white"/>
</g>
<g opacity="0.5">
<path d="M268.94 114.996C268.794 115.155 268.647 115.309 268.498 115.462L268.498 115.465C267.974 115.816 267.098 116.354 266.096 116.783C264.539 117.449 263.187 117.633 262.11 117.336C261.69 117.22 261.31 117.03 260.978 116.765C260.007 115.997 259.616 114.424 259.808 112.09C259.953 110.371 260.379 108.851 260.383 108.838L260.603 108.899C260.584 108.957 258.946 114.86 261.12 116.586C263.825 118.733 268.828 114.956 268.879 114.918L268.94 114.996Z" fill="white"/>
</g>
<path d="M273.761 79.1986C271.919 77.6523 268.013 77.0654 265.806 78.6195C264.253 79.713 259.838 92.9037 259.838 92.9037L258.599 92.5617C258.599 92.5617 262.08 79.8729 259.918 76.7577C258.406 74.5802 253.909 73.5479 253.762 73.5288C256.859 72.7169 260.349 72.689 264.14 73.7349C268.382 74.9055 271.519 76.8259 273.761 79.1986Z" fill="#FCCBA2"/>
<path d="M254.525 95.4196C255.098 93.3467 257.242 92.1298 259.315 92.7018C261.388 93.2738 262.604 95.418 262.032 97.491C261.46 99.564 259.316 100.781 257.243 100.209C255.17 99.6367 253.954 97.4926 254.525 95.4196Z" fill="white"/>
<path d="M255.394 95.6597C255.833 94.0662 257.482 93.1308 259.075 93.5705C260.669 94.0101 261.604 95.6583 261.164 97.2519C260.725 98.8453 259.076 99.7807 257.483 99.341C255.889 98.9014 254.954 97.2531 255.394 95.6597Z" fill="#EFEFEF"/>
<path d="M267.008 175.096H248.728V155.646H267.019C267.659 155.646 268.177 156.165 268.177 156.805V173.927C268.177 174.573 267.654 175.096 267.008 175.096Z" fill="#EBF3FA"/>
<path d="M255.01 175.096H237.838C237.163 175.096 236.615 174.548 236.615 173.873V156.983C236.615 156.245 237.213 155.646 237.951 155.646H254.931C255.557 155.646 256.064 156.154 256.064 156.78V174.042C256.064 174.624 255.592 175.096 255.01 175.096Z" fill="white"/>
<path d="M243.092 161.187C243.092 161.096 243.077 161.015 243.048 160.945C243.018 160.875 242.968 160.81 242.897 160.751C242.827 160.693 242.734 160.64 242.619 160.591C242.503 160.543 242.359 160.494 242.186 160.445C242.019 160.398 241.869 160.347 241.736 160.292C241.602 160.237 241.489 160.172 241.396 160.097C241.302 160.023 241.23 159.937 241.179 159.84C241.128 159.743 241.103 159.63 241.103 159.499C241.103 159.372 241.13 159.256 241.185 159.151C241.24 159.046 241.316 158.956 241.415 158.881C241.513 158.806 241.631 158.748 241.768 158.706C241.904 158.664 242.053 158.644 242.216 158.644C242.39 158.644 242.548 158.669 242.688 158.721C242.828 158.773 242.948 158.843 243.046 158.932C243.145 159.022 243.221 159.127 243.273 159.246C243.327 159.366 243.353 159.495 243.353 159.633H243.071C243.071 159.526 243.052 159.426 243.014 159.334C242.976 159.242 242.921 159.163 242.848 159.096C242.775 159.03 242.686 158.977 242.58 158.939C242.473 158.901 242.352 158.882 242.216 158.882C242.079 158.882 241.959 158.899 241.855 158.931C241.751 158.964 241.665 159.008 241.595 159.063C241.526 159.119 241.474 159.184 241.439 159.258C241.403 159.332 241.385 159.411 241.385 159.495C241.385 159.573 241.4 159.646 241.429 159.713C241.459 159.78 241.509 159.841 241.578 159.898C241.648 159.955 241.74 160.008 241.854 160.058C241.968 160.107 242.108 160.153 242.275 160.197C242.449 160.246 242.605 160.299 242.741 160.357C242.878 160.415 242.993 160.482 243.087 160.56C243.181 160.638 243.252 160.728 243.301 160.83C243.349 160.932 243.374 161.049 243.374 161.183C243.374 161.318 243.345 161.439 243.288 161.546C243.231 161.652 243.152 161.743 243.052 161.817C242.951 161.892 242.83 161.949 242.691 161.988C242.551 162.027 242.4 162.047 242.236 162.047C242.137 162.047 242.038 162.039 241.939 162.022C241.84 162.005 241.744 161.98 241.652 161.946C241.561 161.912 241.475 161.868 241.395 161.815C241.316 161.762 241.247 161.699 241.188 161.625C241.13 161.552 241.084 161.467 241.049 161.373C241.015 161.278 240.998 161.172 240.998 161.055H241.278C241.278 161.195 241.307 161.313 241.365 161.409C241.422 161.505 241.497 161.583 241.588 161.642C241.679 161.701 241.781 161.744 241.895 161.771C242.009 161.797 242.122 161.811 242.236 161.811C242.365 161.811 242.482 161.796 242.588 161.766C242.693 161.736 242.783 161.694 242.858 161.64C242.933 161.585 242.991 161.52 243.031 161.443C243.072 161.367 243.092 161.281 243.092 161.187Z" fill="#699DEE"/>
<path d="M245.497 161.69C245.419 161.802 245.317 161.89 245.188 161.953C245.06 162.016 244.901 162.047 244.712 162.047C244.59 162.047 244.48 162.03 244.382 161.996C244.283 161.962 244.198 161.908 244.127 161.833C244.056 161.759 244.001 161.663 243.962 161.546C243.923 161.428 243.904 161.285 243.904 161.117V159.54H244.175V161.121C244.175 161.253 244.19 161.363 244.22 161.451C244.25 161.539 244.291 161.61 244.343 161.663C244.394 161.716 244.455 161.754 244.524 161.777C244.593 161.799 244.666 161.811 244.743 161.811C244.852 161.811 244.949 161.799 245.032 161.774C245.116 161.75 245.188 161.716 245.248 161.672C245.309 161.628 245.359 161.576 245.399 161.517C245.438 161.458 245.469 161.393 245.492 161.322V159.54H245.765V162.002H245.501L245.497 161.69Z" fill="#699DEE"/>
<path d="M246.364 160.748C246.364 160.557 246.385 160.384 246.428 160.23C246.472 160.076 246.534 159.945 246.616 159.835C246.698 159.726 246.798 159.642 246.915 159.583C247.033 159.524 247.166 159.494 247.315 159.494C247.491 159.494 247.642 159.529 247.767 159.6C247.893 159.67 247.997 159.769 248.079 159.895L248.093 159.54H248.347V161.958C248.347 162.118 248.324 162.26 248.277 162.387C248.23 162.514 248.164 162.621 248.078 162.709C247.992 162.797 247.889 162.865 247.768 162.912C247.646 162.958 247.51 162.982 247.36 162.982C247.283 162.982 247.204 162.973 247.124 162.956C247.043 162.938 246.965 162.912 246.89 162.877C246.815 162.842 246.744 162.799 246.678 162.746C246.611 162.694 246.552 162.632 246.502 162.561L246.655 162.397C246.755 162.52 246.861 162.61 246.973 162.667C247.086 162.724 247.208 162.752 247.342 162.752C247.459 162.752 247.562 162.734 247.652 162.699C247.743 162.663 247.819 162.611 247.881 162.544C247.943 162.476 247.991 162.394 248.023 162.298C248.056 162.202 248.072 162.092 248.072 161.969V161.683C247.99 161.796 247.887 161.886 247.761 161.95C247.634 162.014 247.484 162.047 247.31 162.047C247.163 162.047 247.031 162.016 246.914 161.955C246.797 161.893 246.698 161.807 246.616 161.698C246.534 161.587 246.472 161.456 246.428 161.303C246.385 161.149 246.364 160.98 246.364 160.795L246.364 160.748ZM246.639 160.796C246.639 160.94 246.653 161.074 246.682 161.197C246.711 161.321 246.755 161.428 246.814 161.519C246.873 161.61 246.948 161.681 247.038 161.733C247.129 161.784 247.236 161.81 247.36 161.81C247.454 161.81 247.539 161.799 247.614 161.776C247.689 161.753 247.755 161.722 247.813 161.682C247.871 161.641 247.921 161.594 247.963 161.54C248.006 161.485 248.042 161.425 248.072 161.36V160.215C248.046 160.152 248.013 160.091 247.973 160.032C247.933 159.974 247.885 159.922 247.828 159.878C247.771 159.833 247.704 159.797 247.629 159.771C247.553 159.744 247.465 159.731 247.365 159.731C247.239 159.731 247.13 159.757 247.039 159.809C246.948 159.862 246.873 159.933 246.814 160.024C246.755 160.115 246.711 160.223 246.682 160.347C246.653 160.472 246.639 160.605 246.639 160.748V160.796Z" fill="#699DEE"/>
<path d="M250.611 162.001C250.596 161.959 250.584 161.907 250.576 161.846C250.568 161.784 250.562 161.722 250.559 161.658C250.518 161.711 250.47 161.761 250.413 161.808C250.357 161.855 250.294 161.896 250.225 161.931C250.155 161.966 250.078 161.994 249.995 162.015C249.911 162.036 249.821 162.047 249.724 162.047C249.604 162.047 249.495 162.03 249.398 161.995C249.3 161.96 249.216 161.911 249.147 161.848C249.078 161.785 249.025 161.711 248.987 161.626C248.949 161.541 248.93 161.449 248.93 161.348C248.93 161.229 248.956 161.121 249.007 161.024C249.059 160.928 249.133 160.846 249.23 160.778C249.327 160.711 249.445 160.659 249.584 160.624C249.723 160.588 249.879 160.57 250.052 160.57H250.557V160.29C250.557 160.115 250.502 159.976 250.394 159.875C250.286 159.774 250.127 159.724 249.92 159.724C249.824 159.724 249.736 159.737 249.656 159.763C249.575 159.788 249.506 159.824 249.447 159.87C249.389 159.915 249.344 159.968 249.311 160.028C249.278 160.088 249.262 160.152 249.262 160.22L248.989 160.218C248.989 160.125 249.011 160.036 249.057 159.949C249.103 159.863 249.167 159.786 249.249 159.718C249.332 159.651 249.431 159.596 249.547 159.555C249.664 159.515 249.792 159.494 249.933 159.494C250.064 159.494 250.184 159.511 250.294 159.544C250.404 159.578 250.498 159.628 250.577 159.694C250.656 159.761 250.717 159.845 250.761 159.945C250.805 160.045 250.827 160.162 250.827 160.295V161.487C250.827 161.53 250.829 161.574 250.832 161.619C250.835 161.665 250.84 161.709 250.847 161.751C250.853 161.794 250.861 161.834 250.87 161.873C250.88 161.912 250.89 161.945 250.902 161.974V162.001H250.611ZM249.756 161.806C249.854 161.806 249.946 161.793 250.03 161.768C250.114 161.743 250.19 161.709 250.259 161.665C250.327 161.621 250.386 161.57 250.436 161.511C250.486 161.453 250.526 161.389 250.557 161.321V160.78H250.09C249.951 160.78 249.826 160.792 249.716 160.817C249.606 160.842 249.513 160.878 249.437 160.925C249.361 160.972 249.303 161.03 249.263 161.097C249.223 161.165 249.203 161.241 249.203 161.326C249.203 161.392 249.216 161.455 249.242 161.513C249.267 161.572 249.304 161.623 249.352 161.666C249.4 161.709 249.458 161.743 249.526 161.768C249.594 161.793 249.671 161.806 249.756 161.806Z" fill="#699DEE"/>
<path d="M252.691 159.772C252.633 159.761 252.572 159.756 252.507 159.756C252.414 159.756 252.331 159.77 252.256 159.797C252.182 159.824 252.116 159.862 252.059 159.912C252.003 159.961 251.955 160.02 251.916 160.087C251.877 160.154 251.847 160.229 251.824 160.311V162.002H251.553V159.54H251.819L251.824 159.931C251.891 159.796 251.981 159.689 252.096 159.611C252.21 159.533 252.351 159.494 252.518 159.494C252.551 159.494 252.585 159.497 252.62 159.503C252.655 159.509 252.681 159.516 252.698 159.524L252.691 159.772Z" fill="#699DEE"/>
<path d="M239.857 168.129C239.857 166.165 241.076 164.627 242.875 164.627C244.665 164.627 245.874 166.146 245.874 168.129C245.874 170.092 244.665 171.63 242.856 171.63C241.047 171.63 239.857 170.112 239.857 168.129ZM244.346 168.129C244.346 166.9 243.746 165.971 242.856 165.971C241.966 165.971 241.385 166.871 241.385 168.129C241.385 169.367 241.976 170.285 242.875 170.285C243.775 170.285 244.346 169.376 244.346 168.129Z" fill="#699DEE"/>
<path d="M246.617 167.568C246.617 166.824 247.135 166.224 247.901 166.224C248.659 166.224 249.17 166.817 249.17 167.568C249.17 168.303 248.651 168.912 247.886 168.912C247.127 168.912 246.617 168.318 246.617 167.568ZM250.979 166.284H251.872L248.036 171.539H247.142L250.979 166.284ZM248.381 167.568C248.381 167.215 248.186 166.907 247.886 166.907C247.57 166.907 247.405 167.207 247.405 167.568C247.405 167.92 247.6 168.228 247.901 168.228C248.216 168.228 248.381 167.92 248.381 167.568ZM249.845 170.256C249.845 169.512 250.363 168.912 251.129 168.912C251.888 168.912 252.398 169.505 252.398 170.256C252.398 170.991 251.88 171.599 251.114 171.599C250.356 171.6 249.845 171.006 249.845 170.256ZM251.61 170.256C251.61 169.903 251.415 169.595 251.114 169.595C250.799 169.595 250.634 169.895 250.634 170.256C250.634 170.608 250.829 170.916 251.129 170.916C251.445 170.916 251.61 170.608 251.61 170.256Z" fill="#699DEE"/>
<path d="M185.138 124.693L186.072 125.452C186.072 125.452 188.628 124.536 189.204 127.572C189.204 127.572 189.358 128.866 188.538 128.868C187.718 128.871 188.057 128.727 186.896 128.761C185.735 128.795 184.773 128.183 184.603 127.241L184.048 126.443L185.138 124.693Z" fill="#EA8E50"/>
<path d="M185.033 126.321C185.778 125.543 185.718 124.968 185.718 124.968C185.718 124.968 177.089 117.903 176.213 117.327C175.617 116.935 169.262 111.301 166.292 107.867C164.818 106.163 162.993 106.824 160.905 107.423L159.185 107.916C157.109 108.512 156.568 111.416 158.272 112.828C163.071 116.802 171.053 121.273 172.547 122.212C176.254 124.545 183.512 127.316 183.512 127.316C183.512 127.316 184.393 126.989 185.033 126.321Z" fill="#1E3D70"/>
<path d="M194.88 169.727C194.88 169.727 196.974 171.295 200.183 170.466C200.183 170.466 202.77 169.877 203.338 171.167C203.338 171.167 199.37 173.183 198.366 173.734C197.609 174.15 196.819 174.806 196.261 175.312C195.819 175.714 195.131 175.659 194.755 175.196C194.58 174.982 194.38 174.726 194.161 174.429C193.55 173.6 192.124 170.922 192.124 170.922L194.88 169.727Z" fill="#233862"/>
<path d="M196.109 168.929C196.109 168.929 194.834 171.869 191.891 171.329C191.891 171.329 185.884 166.368 181.764 161.215C180.426 159.542 179.287 157.848 178.617 156.298C175.885 149.972 168.511 140.538 163.823 135.756L175.553 131.513C175.553 131.513 179.31 139.071 184.309 148.355C187.912 155.044 192.159 162.629 196.109 168.929Z" fill="#2B478B"/>
<path d="M184.309 148.355L181.764 161.215C180.426 159.542 179.287 157.848 178.618 156.298C175.885 149.972 168.511 140.538 163.823 135.756L175.553 131.513C175.553 131.513 179.31 139.071 184.309 148.355Z" fill="#233862"/>
<path d="M174.721 171.433C174.721 171.433 174.594 173.779 177.438 174.092C177.438 174.092 179.063 174.1 179.068 175.594L170.801 175.62C170.801 175.62 170.561 175.017 170.503 173.727C170.458 172.736 171.463 170.146 171.463 170.146L174.721 171.433Z" fill="#233862"/>
<path d="M171.706 131.513C171.706 131.513 176.931 137.255 180.248 147.599C182.053 153.228 176.94 167.379 175.944 172.296C175.944 172.296 172.514 172.587 170.169 171.68C170.169 171.68 169.99 161.525 171.362 153.698C172.13 149.318 164.482 144.33 161.14 136.415C158.866 131.03 161.632 131.122 165.031 130.992L171.706 131.513Z" fill="#2B478B"/>
<path d="M165.673 105.895C162.766 107.537 156.814 106.022 156.814 106.022C156.814 106.022 159.231 103.259 158.132 98.8086L160.415 99.9679L162.867 101.213C162.867 101.213 163.026 101.999 163.136 103.411C163.164 103.774 163.189 104.181 163.207 104.624C164.7 105.077 165.673 105.895 165.673 105.895Z" fill="#FFB07B"/>
<path d="M176.334 131.217C176.334 131.728 175.746 131.972 175.621 131.997C174.448 132.211 171.174 133.485 168.224 133.777C165.74 134.037 163.435 133.79 160.901 133.282C160.566 133.214 159.778 133.002 159.722 132.68C159.652 132.329 149.951 112.903 157.493 104.558C157.67 104.363 159.158 104.715 160.52 105.038C161.777 105.336 162.931 105.17 163.96 104.757L165.237 105.429C166.805 106.303 169.772 109.407 170.119 111.842C170.295 113.081 171.004 113.998 171.208 115.088C171.285 115.491 171.362 115.885 171.441 116.268C171.596 117.021 171.755 117.737 171.919 118.418C172.363 120.26 172.831 121.846 173.291 123.216C173.78 124.67 174.26 125.88 174.688 126.892C175.245 128.205 175.714 129.186 176.008 129.937C176.215 130.466 176.334 130.88 176.334 131.217Z" fill="#2A4E96"/>
<path d="M176.008 129.936C162.313 123.484 157.57 111.095 157.57 111.095C157.57 111.095 168.697 115.199 171.442 116.268C171.596 117.02 171.755 117.736 171.919 118.417C172.363 120.26 172.831 121.846 173.291 123.216C173.78 124.67 174.26 125.88 174.689 126.892C175.245 128.205 175.715 129.185 176.008 129.936Z" fill="#1E3D70"/>
<path d="M163.136 103.411C160.277 103.571 158.418 101.211 158.418 101.211C158.418 101.211 159.711 100.495 160.415 99.9678L162.867 101.213C162.867 101.213 163.026 101.999 163.136 103.411Z" fill="#EA8E50"/>
<path d="M164.354 100.476C164.354 100.476 160.022 103.585 158.128 100.857C156.233 98.1298 154.398 96.6942 157.084 94.5939C159.77 92.4938 161.036 93.1573 161.89 93.9138C162.743 94.6705 165.432 99.5973 164.354 100.476Z" fill="#FFB07B"/>
<path d="M162.347 91.4504C162.192 90.402 161.843 89.6641 161.843 89.6641C161.843 89.6641 161.571 90.7903 159.513 90.6348C157.455 90.4795 154.193 90.8373 153.105 93.1824C153.036 93.3316 152.975 93.4854 152.92 93.6425C152.723 93.1227 152.676 92.3434 152.676 92.3434C152.285 93.353 152.676 94.6158 152.676 94.6158C152.67 94.6526 152.665 94.6896 152.66 94.7265C152.206 95.1105 151.824 96.3042 151.824 96.3042C151.961 95.9714 152.295 95.754 152.593 95.6202C152.584 97.4451 153.324 99.229 154.623 99.7601C156.523 100.537 156.507 99.9444 158.418 101.211C158.418 101.211 158.93 100.576 158.581 100.148C158.231 99.7213 156.911 99.1 157.649 98.4787C158.387 97.8574 158.658 98.5564 158.93 98.1292C159.202 97.7021 157.843 96.4595 159.59 95.2946C161.338 94.1296 162.503 92.4989 162.347 91.4504Z" fill="#233862"/>
<path d="M184.31 128.304C184.31 128.304 186.628 129.086 187.963 129.053C189.298 129.021 191.62 127.616 191.625 127.517C191.63 127.418 190.581 126.813 189.06 127.005C187.539 127.197 187.23 126.969 187.702 126.78C188.234 126.568 188.613 126.25 188.484 126.047C188.412 125.935 187.648 126.177 187.387 126.264C187.127 126.351 186.476 126.112 185.933 126.503C185.572 126.764 184.218 126.958 184.218 126.958L184.31 128.304Z" fill="#FFC299"/>
<path d="M185.226 127.551C185.634 126.399 185.821 125.877 185.821 125.877C185.821 125.877 176.698 118.816 175.771 118.215C175.14 117.804 168.844 113.342 165.74 109.818C164.201 108.07 161.824 107.313 159.557 107.849L157.69 108.29C155.437 108.822 154.773 111.709 156.569 113.171C161.626 117.29 170.1 122.002 171.683 122.986C175.612 125.43 184.25 128.776 184.25 128.776C184.25 128.776 184.905 128.456 185.226 127.551Z" fill="#2A4E96"/>
<path d="M107.275 116.379C106.567 117.005 104.688 114.854 104.429 114.568C104.416 114.541 104.402 114.527 104.402 114.527L104.974 112.934C104.974 112.934 107.438 112.839 107.846 113.248C108.255 113.656 108.05 115.712 107.275 116.379Z" fill="#ED985F"/>
<path d="M104.974 112.935L104.729 114.582C104.729 114.582 104.62 114.582 104.429 114.569C103.83 114.528 102.374 114.446 100.726 114.269C98.2486 114.024 95.308 113.588 94.1373 112.867C92.3539 111.778 89.4269 108.442 87.5209 105.107C87.4663 105.025 87.4256 104.944 87.3847 104.862C86.3909 103.092 85.6966 101.336 85.6422 99.9337C85.6013 99.0761 85.6967 98.3409 85.8736 97.701C86.1051 96.857 86.4863 96.1899 86.881 95.6862C86.9356 95.6044 86.9899 95.5228 87.0716 95.4547C87.7251 94.6788 88.365 94.352 88.365 94.352C88.6917 94.2157 89.0457 94.3793 89.4132 94.774V94.7876C89.7127 95.1008 90.0394 95.5771 90.3525 96.1762C90.3662 96.1898 90.3797 96.2034 90.3797 96.2171C90.4477 96.3395 90.516 96.4757 90.5975 96.6254C90.6246 96.6526 90.6383 96.6936 90.652 96.7208C90.8017 97.0339 90.9514 97.3605 91.1013 97.7009C92.7758 101.349 94.5592 106.877 96.0432 108.524C96.683 109.232 99.61 110.62 101.938 111.655C103.612 112.39 104.974 112.935 104.974 112.935Z" fill="#ED985F"/>
<path d="M129.337 114.832C129.284 114.671 129.228 114.51 129.17 114.349C125.918 105.366 115.645 100.679 106.624 104.058C97.6801 107.407 93.0397 117.273 96.2498 126.216C96.2649 126.259 96.2803 126.301 96.2957 126.343C98.0238 131.044 98.1443 136.167 96.7211 140.984C95.1303 146.368 95.2021 152.284 97.3112 157.947C102.459 171.772 117.978 178.885 131.972 173.842C146.099 168.751 153.47 153.272 148.438 139.251C146.382 133.523 142.574 128.924 137.824 125.833C133.82 123.226 130.827 119.356 129.337 114.832Z" fill="#82B378"/>
<path d="M128.203 115.89C128.154 115.739 128.102 115.588 128.047 115.438C125.007 107.038 115.526 102.61 107.24 105.715C99.0258 108.794 94.8066 117.977 97.8082 126.34C97.8224 126.379 97.8368 126.419 97.8512 126.458C99.4665 130.854 99.6044 135.636 98.3199 140.123C96.8838 145.139 96.9811 150.661 98.9521 155.957C103.764 168.886 118.085 175.606 130.94 170.973C143.916 166.296 150.619 151.89 145.913 138.778C143.991 133.422 140.461 129.11 136.073 126.2C132.374 123.747 129.599 120.119 128.203 115.89Z" fill="#CEE085"/>
<path d="M135.907 144.388C138.295 151.043 134.837 158.374 128.182 160.763C127.824 160.891 127.465 161.003 127.105 161.098C120.753 162.772 114.066 159.336 111.806 153.038C110.299 148.839 111.12 144.372 113.601 141.047C115.053 139.1 117.075 137.544 119.531 136.662C126.186 134.274 133.518 137.732 135.907 144.388Z" fill="#F99746"/>
<path d="M128.902 149.104C130.41 153.304 129.589 157.773 127.105 161.099C120.753 162.772 114.066 159.336 111.806 153.039C110.299 148.84 111.119 144.373 113.601 141.047C119.953 139.37 126.642 142.806 128.902 149.104Z" fill="#ED7D2B"/>
<path d="M87.1414 172.266L85.3426 172.935C85.3426 172.935 77.5289 162.098 76.567 152.564C76.3951 150.861 76.4524 149.212 76.8239 147.689C76.8239 147.689 76.7476 147.253 76.6139 146.482C76.5522 146.122 76.4758 145.689 76.3892 145.192C76.1351 143.737 75.7856 141.745 75.3861 139.477C74.4666 134.259 73.2755 127.589 72.3502 122.685L72.8349 122.529L78.0796 120.837L79.1636 117.394L83.0689 116.366C83.0689 116.366 83.9413 118.073 84.7211 126.134C84.8651 127.192 84.9958 128.358 85.0942 129.623C85.3982 133.482 85.4202 138.27 84.7226 143.744C84.5434 145.145 84.3173 146.592 84.0368 148.078C83.8311 149.168 83.8003 150.653 83.887 152.358C84.2804 160.152 87.1414 172.266 87.1414 172.266Z" fill="#2B478B"/>
<path d="M85.0942 129.623L76.6139 146.482C76.5522 146.122 76.4758 145.689 76.3892 145.192C76.1351 143.737 75.7856 141.745 75.3861 139.477C74.4666 134.259 73.2755 127.589 72.3502 122.685L72.8349 122.529L78.0796 120.837L79.1636 117.394L83.0689 116.366C83.0689 116.366 83.9413 118.073 84.7211 126.134C84.8651 127.192 84.9958 128.358 85.0942 129.623Z" fill="#233862"/>
<path d="M81.3634 118.529L81.1671 116.845C77.8781 117.719 69.0905 114.404 69.0905 114.404C69.0905 114.404 65.9044 117.205 66.3227 123.919C66.5268 127.195 66.8997 141.12 67.2893 145.24C67.4302 146.733 67.5534 147.796 67.6039 148.221C67.6049 148.223 67.6049 148.224 67.6049 148.225C67.6203 148.354 67.5752 148.477 67.5093 148.59C66.9358 149.563 66.461 150.576 66.0714 151.613C62.2481 161.802 66.6603 174.349 66.6603 174.349L67.8053 173.888C67.8053 173.888 70.3161 159.924 72.3563 153.755C72.7027 152.709 73.0346 151.887 73.3389 151.395C74.226 149.964 75.0491 147.625 75.7963 144.842C77.2085 139.582 78.3452 132.739 79.1017 127.457C79.2061 127.462 81.3634 118.529 81.3634 118.529Z" fill="#2B478B"/>
<path d="M87.6468 98.1097C86.6144 98.5884 85.3674 98.9145 83.8591 98.9967C78.2047 99.3066 76.9209 94.3499 76.6875 91.06C77.5026 90.7648 78.2164 90.7927 78.6277 90.8146C79.0286 90.8367 79.4471 90.8778 79.7923 90.9205C80.484 90.5591 81.7266 88.804 82.4447 85.8682L82.6884 85.9812L86.7684 87.8993C86.7684 87.8993 86.3352 89.2271 86.015 90.4974C85.7654 91.4917 85.5861 92.4523 85.7359 92.721C86.0576 92.8518 86.2501 92.934 86.2501 92.934C86.2501 92.934 86.2501 92.9355 86.2516 92.9384C86.2927 93.0427 87.1797 95.303 87.6468 98.1097Z" fill="#FFB27D"/>
<path d="M89.0612 101.82C89.0186 101.933 88.9716 102.043 88.9201 102.156C87.4882 105.241 84.8372 118.017 84.8372 118.017C85.2146 120.314 67.5743 117.566 67.5287 115.474C66.9074 113.257 69.7331 109.694 71.3268 107.906C71.5265 107.681 71.7057 107.441 71.8613 107.187C72.2549 106.549 72.5046 105.829 72.584 105.077C72.8969 102.113 72.7778 99.3343 72.8041 97.6447L72.8042 97.6444C73.1155 97.4139 73.4167 97.201 73.6972 96.9983C74.1261 96.6854 74.505 96.3931 74.784 96.0965C75.091 95.7733 75.2834 95.4429 75.3054 95.0699C75.3216 94.7878 75.3127 94.4984 75.2834 94.2092C75.2702 94.0727 75.2525 93.936 75.2319 93.7995C75.0117 92.3646 74.4125 91.0634 74.4125 91.0634C75.9296 90.4494 78.6276 90.8151 78.6276 90.8151C78.6276 90.8151 78.6246 90.965 78.6231 91.2102C78.6143 92.1957 78.6231 94.7261 78.9388 95.205C79.3339 95.8012 86.5613 98.4141 86.9432 97.6048C87.3191 96.8088 86.2896 93.0798 86.2515 92.9389C86.25 92.936 86.25 92.9345 86.25 92.9345C88.6704 93.8847 89.5355 94.6821 89.5355 94.6821C88.0771 95.628 90.1891 98.8282 89.0612 101.82Z" fill="#F99746"/>
<path d="M84.1927 75.1693C84.1838 74.9242 83.9941 72.2825 79.9704 72.1445C79.9704 72.1445 81.949 72.3804 82.2908 73.2503C82.2908 73.2503 80.9436 72.1754 79.8464 72.5212C78.7493 72.8669 78.1049 74.7891 78.0984 75.4214C78.092 76.0536 78.7016 78.0918 79.3978 78.265C79.6616 78.3306 79.9653 78.313 80.2412 78.2661C80.056 78.5553 79.8743 78.8745 79.7007 79.2307C78.0952 82.5266 79.7511 85.7476 81.1103 85.3918C81.982 85.1635 82.2287 86.651 82.2287 86.651L90.6979 79.7946C90.6979 79.7946 87.5871 73.3578 84.1927 75.1693Z" fill="#2C3A64"/>
<path d="M86.7686 87.9004C86.7686 87.9004 86.3348 89.2268 86.0152 90.4985C83.6303 89.8331 82.9062 87.3262 82.6882 85.9824L86.7686 87.9004Z" fill="#ED985F"/>
<path d="M87.2707 89.3049C87.2707 89.3049 81.5651 87.9844 82.4421 84.4438C83.3192 80.9032 83.1734 78.3483 86.8534 79.0416C90.5334 79.7351 90.9039 81.2608 90.8985 82.5137C90.8933 83.7669 88.7776 89.5572 87.2707 89.3049Z" fill="#FFB27D"/>
<path d="M91.2194 80.5034C90.606 79.2201 89.8841 79.2886 89.4324 79.5161C86.7515 77.0356 84.1219 79.062 84.1219 79.062C83.1098 81.5071 80.9161 82.5063 80.9161 82.5063C80.9161 82.5063 81.7926 83.4039 84.3332 83.3841C85.1091 83.378 85.8894 83.0218 86.5994 82.5309C85.2299 83.9101 83.6243 84.7496 83.6243 84.7496C86.8046 84.1411 88.9371 80.4594 89.1556 80.0683C89.425 80.4662 89.9403 81.313 89.9837 82.0281C90.0426 83 89.7083 84.8873 90.2647 84.9587C90.2647 84.9587 92.1392 82.4279 91.2194 80.5034Z" fill="#2C3A64"/>
<path d="M89.536 94.6816C89.536 94.6816 90.9098 97.078 91.1153 97.6948C91.1153 97.6948 89.3338 97.6262 88.6144 98.9967C88.6144 98.9967 88.442 95.0047 89.536 94.6816Z" fill="#F99746"/>
<path d="M80.0873 113.724C76.608 113.687 73.6618 110.074 71.8612 107.187C72.2548 106.549 72.5045 105.83 72.5838 105.078C72.8968 102.113 72.7776 99.3345 72.804 97.6449L72.8041 97.6446C73.1154 97.4141 73.4165 97.2012 73.6971 96.9985C74.1259 96.6856 74.5048 96.3933 74.7839 96.0967C77.6333 100.913 84.8048 113.774 80.0873 113.724Z" fill="#ED7D2B"/>
<path d="M98.7326 117.127C98.4303 117.359 96.0162 118.302 95.0969 118.013C94.5836 117.852 92.7971 117.41 92.0756 117.233C91.7898 117.178 90.7612 116.978 90.7612 116.978L91.5372 114.718C91.5372 114.718 91.5669 114.722 91.6324 114.745C91.9275 114.848 92.4958 115.128 93.2388 115.239C94.1553 115.376 95.2986 114.8 95.8935 115.126C97.1529 115.817 98.8908 115.117 99.2914 115.485C99.5932 115.762 99.4842 116.551 98.7326 117.127Z" fill="#FFB27D"/>
<path d="M93.2387 115.617L92.7622 117.359C92.7622 117.359 92.1632 117.25 91.2102 117.073C90.9244 117.019 90.761 116.978 90.761 116.978C89.9986 116.828 89.0865 116.624 88.0927 116.406H88.079C86.3772 115.998 84.4714 115.508 82.865 114.963C81.7351 114.568 80.7548 114.146 80.0878 113.724C80.0197 113.684 79.9653 113.643 79.8972 113.588C78.3044 112.431 76.412 109.028 74.9418 105.379C74.7376 104.875 74.547 104.372 74.3564 103.881C73.6757 102.057 73.1311 100.26 72.8045 98.7082C72.6002 97.7826 72.4641 96.9384 72.4369 96.244C72.4232 95.9991 72.4097 95.7677 72.4232 95.5498C72.4504 91.6019 74.4108 91.0573 74.4108 91.0573C74.4516 91.0437 74.4925 91.0301 74.547 91.0167C74.8873 90.9621 75.2413 91.1935 75.6089 91.6428C76.0717 92.2008 76.5618 93.1131 77.0656 94.2157C77.8415 95.972 78.6584 98.2456 79.4207 100.505C79.8427 101.744 80.2511 102.983 80.6595 104.127C80.891 104.821 81.1225 105.474 81.3402 106.074C81.7622 107.217 82.1435 108.143 82.4838 108.728C82.7016 109.109 83.3278 109.64 84.1582 110.239C85.6013 111.288 87.7115 112.554 89.5493 113.588C90.3117 114.024 91.0332 114.419 91.6322 114.745C92.5988 115.276 93.2387 115.617 93.2387 115.617Z" fill="#FFB27D"/>
<path d="M77.0607 94.2213C74.4398 93.4988 72.4181 95.545 72.4181 95.545C72.4511 91.6034 74.4131 91.0638 74.4131 91.0638C75.2024 90.737 76.1171 92.1041 77.0607 94.2213Z" fill="#F99746"/>
<path d="M73.3173 175.285H64.2567C64.2567 175.285 64.0396 173.904 64.5129 172.856C64.9664 171.851 65.6766 171.394 65.5066 170.178C66.0823 170.771 67.0206 171.434 68.3306 171.258C68.4909 171.518 69.3666 172.911 69.9026 173.296C70.4946 173.721 73.1349 173.57 73.3173 175.285Z" fill="#233862"/>
<path d="M92.7714 175.285H83.7109C83.7109 175.285 83.3721 173.84 83.967 172.856C84.4935 171.986 84.2918 171.49 83.9019 170.771C84.3124 170.939 84.8432 171.091 85.4279 171.058C85.8794 171.032 86.3567 170.827 86.7754 170.584C87.1654 171.029 88.8351 172.921 89.3569 173.296C89.9488 173.721 92.5891 173.57 92.7714 175.285Z" fill="#233862"/>
<path d="M93.7042 115.47C93.7042 115.47 94.4797 114.964 95.6212 114.581C96.3345 114.342 97.2684 114.083 97.2396 114.343C97.2106 114.603 95.7371 115.296 95.708 115.412C95.679 115.528 93.7042 115.47 93.7042 115.47Z" fill="#FFB27D"/>
<path d="M143.283 150.009C149.349 145.741 154.818 149.244 159.086 155.31C163.354 161.375 164.46 167.903 158.395 172.171C152.329 176.439 138.176 176.301 135.221 172.102C132.892 168.791 137.218 154.277 143.283 150.009Z" fill="#F77D48"/>
<path d="M150.893 151.349C150.675 151.502 149.903 151.457 149.903 151.457C149.903 151.457 150.121 150.714 150.339 150.561C150.556 150.408 150.857 150.461 151.01 150.678C151.163 150.896 151.11 151.196 150.893 151.349Z" fill="#FBBEA3"/>
<path d="M150.723 154.108C150.505 154.261 149.733 154.216 149.733 154.216C149.733 154.216 149.951 153.473 150.169 153.32C150.386 153.167 150.686 153.219 150.839 153.437C150.993 153.654 150.94 153.955 150.723 154.108Z" fill="#FBBEA3"/>
<path d="M153.683 155.314C153.465 155.467 152.693 155.422 152.693 155.422C152.693 155.422 152.911 154.679 153.129 154.526C153.346 154.373 153.647 154.425 153.8 154.643C153.953 154.86 153.9 155.161 153.683 155.314Z" fill="#FBBEA3"/>
<path d="M154.457 159.415C154.24 159.568 153.468 159.523 153.468 159.523C153.468 159.523 153.686 158.781 153.903 158.628C154.121 158.475 154.421 158.527 154.574 158.745C154.727 158.962 154.675 159.262 154.457 159.415Z" fill="#FBBEA3"/>
<path d="M157.277 160.844C157.06 160.997 156.287 160.952 156.287 160.952C156.287 160.952 156.506 160.21 156.723 160.056C156.941 159.903 157.241 159.956 157.394 160.173C157.547 160.391 157.495 160.691 157.277 160.844Z" fill="#FBBEA3"/>
<path d="M157.85 164.237C157.633 164.39 156.861 164.344 156.861 164.344C156.861 164.344 157.079 163.602 157.296 163.449C157.514 163.296 157.814 163.348 157.967 163.566C158.12 163.783 158.068 164.084 157.85 164.237Z" fill="#FBBEA3"/>
<path d="M160.383 165.257C160.165 165.41 159.393 165.365 159.393 165.365C159.393 165.365 159.611 164.623 159.828 164.47C160.046 164.317 160.346 164.369 160.499 164.586C160.652 164.804 160.6 165.104 160.383 165.257Z" fill="#FBBEA3"/>
<path d="M145.966 152.925C145.706 153.108 144.783 153.054 144.783 153.054C144.783 153.054 145.044 152.167 145.304 151.984C145.563 151.801 145.922 151.863 146.105 152.123C146.288 152.383 146.226 152.742 145.966 152.925Z" fill="#FBBEA3"/>
<path d="M145.762 156.222C145.503 156.405 144.58 156.351 144.58 156.351C144.58 156.351 144.841 155.464 145.1 155.281C145.36 155.098 145.719 155.16 145.902 155.42C146.085 155.68 146.022 156.039 145.762 156.222Z" fill="#FBBEA3"/>
<path d="M149.299 157.662C149.039 157.845 148.116 157.791 148.116 157.791C148.116 157.791 148.377 156.904 148.637 156.721C148.897 156.538 149.256 156.601 149.439 156.861C149.621 157.12 149.559 157.479 149.299 157.662Z" fill="#FBBEA3"/>
<path d="M150.225 162.563C149.965 162.746 149.042 162.692 149.042 162.692C149.042 162.692 149.303 161.805 149.563 161.622C149.823 161.44 150.181 161.502 150.364 161.762C150.547 162.022 150.484 162.381 150.225 162.563Z" fill="#FBBEA3"/>
<path d="M153.594 164.271C153.334 164.453 152.411 164.399 152.411 164.399C152.411 164.399 152.672 163.512 152.932 163.33C153.192 163.147 153.55 163.209 153.733 163.469C153.916 163.729 153.854 164.088 153.594 164.271Z" fill="#FBBEA3"/>
<path d="M154.279 168.325C154.019 168.508 153.096 168.454 153.096 168.454C153.096 168.454 153.357 167.567 153.617 167.384C153.876 167.201 154.235 167.264 154.418 167.524C154.601 167.784 154.539 168.142 154.279 168.325Z" fill="#FBBEA3"/>
<path d="M157.304 169.543C157.044 169.726 156.121 169.672 156.121 169.672C156.121 169.672 156.382 168.785 156.642 168.602C156.902 168.419 157.261 168.482 157.444 168.741C157.626 169.001 157.564 169.36 157.304 169.543Z" fill="#FBBEA3"/>
<path d="M137.331 164.2C137.191 164.298 136.695 164.269 136.695 164.269C136.695 164.269 136.835 163.792 136.975 163.694C137.115 163.596 137.308 163.629 137.406 163.769C137.504 163.909 137.471 164.102 137.331 164.2Z" fill="#FBBEA3"/>
<path d="M137.221 165.972C137.082 166.071 136.586 166.042 136.586 166.042C136.586 166.042 136.726 165.565 136.866 165.467C137.005 165.368 137.198 165.402 137.296 165.541C137.395 165.681 137.361 165.874 137.221 165.972Z" fill="#FBBEA3"/>
<path d="M139.123 166.748C138.983 166.846 138.487 166.817 138.487 166.817C138.487 166.817 138.627 166.34 138.767 166.242C138.906 166.144 139.099 166.177 139.198 166.317C139.296 166.456 139.262 166.649 139.123 166.748Z" fill="#FBBEA3"/>
<path d="M139.62 169.382C139.481 169.48 138.984 169.451 138.984 169.451C138.984 169.451 139.125 168.974 139.264 168.876C139.404 168.777 139.597 168.811 139.695 168.951C139.793 169.09 139.76 169.283 139.62 169.382Z" fill="#FBBEA3"/>
<path d="M141.431 170.3C141.292 170.398 140.796 170.369 140.796 170.369C140.796 170.369 140.936 169.892 141.076 169.794C141.215 169.695 141.408 169.729 141.506 169.869C141.605 170.008 141.571 170.201 141.431 170.3Z" fill="#FBBEA3"/>
<path d="M141.8 172.478C141.66 172.576 141.164 172.548 141.164 172.548C141.164 172.548 141.304 172.071 141.444 171.972C141.583 171.874 141.776 171.908 141.875 172.047C141.973 172.187 141.939 172.38 141.8 172.478Z" fill="#FBBEA3"/>
<path d="M143.426 173.133C143.286 173.232 142.79 173.203 142.79 173.203C142.79 173.203 142.93 172.726 143.07 172.628C143.21 172.529 143.403 172.563 143.501 172.703C143.599 172.842 143.566 173.035 143.426 173.133Z" fill="#FBBEA3"/>
<path d="M139.691 160.696C139.51 160.823 138.867 160.786 138.867 160.786C138.867 160.786 139.049 160.168 139.23 160.041C139.411 159.913 139.661 159.957 139.788 160.138C139.916 160.319 139.872 160.569 139.691 160.696Z" fill="#FBBEA3"/>
<path d="M139.549 162.992C139.368 163.119 138.726 163.082 138.726 163.082C138.726 163.082 138.907 162.464 139.088 162.337C139.269 162.209 139.519 162.253 139.647 162.434C139.774 162.615 139.73 162.865 139.549 162.992Z" fill="#FBBEA3"/>
<path d="M142.013 163.996C141.832 164.123 141.189 164.086 141.189 164.086C141.189 164.086 141.371 163.468 141.552 163.341C141.733 163.213 141.983 163.257 142.11 163.438C142.237 163.619 142.194 163.869 142.013 163.996Z" fill="#FBBEA3"/>
<path d="M142.657 167.409C142.476 167.536 141.834 167.499 141.834 167.499C141.834 167.499 142.015 166.881 142.196 166.754C142.377 166.626 142.627 166.67 142.755 166.851C142.882 167.032 142.839 167.282 142.657 167.409Z" fill="#FBBEA3"/>
<path d="M145.004 168.599C144.823 168.726 144.181 168.688 144.181 168.688C144.181 168.688 144.362 168.07 144.543 167.943C144.724 167.816 144.974 167.859 145.102 168.04C145.229 168.221 145.185 168.471 145.004 168.599Z" fill="#FBBEA3"/>
<path d="M145.481 171.422C145.3 171.549 144.657 171.511 144.657 171.511C144.657 171.511 144.839 170.894 145.02 170.766C145.201 170.639 145.451 170.683 145.578 170.864C145.706 171.044 145.662 171.294 145.481 171.422Z" fill="#FBBEA3"/>
<path d="M147.589 172.271C147.408 172.399 146.765 172.361 146.765 172.361C146.765 172.361 146.947 171.743 147.128 171.616C147.309 171.489 147.559 171.532 147.686 171.713C147.813 171.894 147.77 172.144 147.589 172.271Z" fill="#FBBEA3"/>
<path d="M142.342 157.081C142.122 157.236 141.34 157.19 141.34 157.19C141.34 157.19 141.561 156.438 141.781 156.283C142.001 156.128 142.305 156.181 142.46 156.401C142.615 156.622 142.562 156.926 142.342 157.081Z" fill="#FBBEA3"/>
<path d="M142.17 159.874C141.949 160.029 141.167 159.983 141.167 159.983C141.167 159.983 141.388 159.231 141.609 159.076C141.829 158.921 142.133 158.974 142.288 159.194C142.443 159.415 142.39 159.719 142.17 159.874Z" fill="#FBBEA3"/>
<path d="M145.167 161.095C144.947 161.25 144.165 161.205 144.165 161.205C144.165 161.205 144.386 160.453 144.606 160.298C144.826 160.143 145.13 160.196 145.285 160.416C145.44 160.636 145.387 160.94 145.167 161.095Z" fill="#FBBEA3"/>
<path d="M145.951 165.249C145.731 165.404 144.949 165.358 144.949 165.358C144.949 165.358 145.17 164.606 145.39 164.451C145.61 164.296 145.914 164.349 146.069 164.569C146.224 164.79 146.171 165.094 145.951 165.249Z" fill="#FBBEA3"/>
<path d="M148.806 166.695C148.586 166.85 147.804 166.804 147.804 166.804C147.804 166.804 148.025 166.053 148.245 165.898C148.466 165.742 148.77 165.795 148.925 166.016C149.08 166.236 149.027 166.54 148.806 166.695Z" fill="#FBBEA3"/>
<path d="M149.387 170.131C149.167 170.286 148.385 170.24 148.385 170.24C148.385 170.24 148.606 169.488 148.826 169.333C149.046 169.178 149.35 169.231 149.505 169.451C149.66 169.671 149.607 169.976 149.387 170.131Z" fill="#FBBEA3"/>
<path d="M151.951 171.164C151.731 171.319 150.948 171.273 150.948 171.273C150.948 171.273 151.169 170.521 151.39 170.366C151.61 170.211 151.914 170.264 152.069 170.484C152.224 170.705 152.171 171.009 151.951 171.164Z" fill="#FBBEA3"/>
<path d="M158.422 155.019C158.422 155.019 163.025 151.34 167.585 153.213C167.585 153.213 167.113 153.766 166.774 154.004C166.435 154.243 163.197 152.52 158.552 155.636L158.422 155.019Z" fill="#649B57"/>
<path d="M159.023 154.848C159.023 154.848 157.677 151.272 154.447 150.366C154.447 150.366 156.571 152.443 156.75 153.076C156.75 153.076 155.879 152.701 154.443 153.522C154.443 153.522 156.809 154.023 157.283 155.398C157.757 156.774 157.382 159.317 157.382 159.317C157.382 159.317 159.319 158.405 159.324 157.381C159.324 157.381 161.112 158.701 162.125 161.333C162.125 161.333 161.689 157.321 159.023 154.848Z" fill="#649B57"/>
<path d="M308.522 176H0.363727C0.163713 176 0 175.836 0 175.636V175.479C0 175.279 0.163598 175.115 0.363727 175.115H308.522C308.722 175.115 308.886 175.279 308.886 175.479V175.636C308.886 175.837 308.722 176 308.522 176Z" fill="#2E3552"/>
<path d="M141.177 168.397C141.177 172.066 137.654 175.04 133.308 175.04C128.962 175.04 125.438 172.066 125.438 168.397C125.438 164.729 128.962 161.755 133.308 161.755C137.654 161.755 141.177 164.729 141.177 168.397Z" fill="#2A4E96"/>
<path d="M136.487 167.714C137.611 167.714 138.522 166.945 138.522 165.996C138.522 165.047 137.611 164.278 136.487 164.278C135.363 164.278 134.452 165.047 134.452 165.996C134.452 166.945 135.363 167.714 136.487 167.714Z" fill="#4673BC"/>
</svg>
