<svg width="261" height="255" viewBox="0 0 261 255" fill="none" xmlns="http://www.w3.org/2000/svg">
<path d="M18.3225 211.857C18.3225 211.857 -9.45341 197.638 3.39225 149.318C9.55791 126.126 28.1761 125.573 50.5476 99.0216C64.352 82.6382 55.471 32.5661 123.465 36.1866C208.254 40.7015 230.419 114.928 230.785 118.307C232.055 130.037 237.439 137.214 243.317 143.949C245.108 146.002 246.945 148.012 248.725 150.099C248.943 150.354 249.161 150.612 249.377 150.869C251.605 153.528 253.724 156.33 255.527 159.509C261.501 170.039 264.015 184.702 255.586 212L18.3225 211.857Z" fill="#031837" style="mix-blend-mode:overlay"/>
<path d="M126.032 183.948C133.188 176.255 145.12 165.191 145.12 165.191V136.426H124.214L126.032 183.948Z" fill="#FFC9AF"/>
<path opacity="0.4" d="M126.032 183.948C133.188 176.255 145.12 165.191 145.12 165.191V136.426H124.214L126.032 183.948Z" fill="#D04C44"/>
<path d="M161.309 94.0198C161.309 94.0198 149.045 99.3015 147.263 100.1C145.481 100.899 144.005 101.882 143.206 104.279C142.407 106.676 141.301 117.31 141.301 117.31C141.301 117.31 132.758 130.832 131.283 135.196C129.807 139.56 129.746 157.815 136.016 174.656C136.384 195.553 136.262 210.673 136.262 210.673C136.262 210.673 133.435 217.189 133.68 218.541C133.926 219.893 137.122 223.581 137.122 223.581C137.122 223.581 172.279 232.37 221.328 223.581C221.328 223.581 225.384 217.558 224.831 216.083C224.278 214.608 219.852 206.126 219.852 206.126C219.852 206.126 234.235 144.354 236.817 129.787C239.398 115.22 237.923 106.646 227.505 102.681C217.087 98.7166 202.635 92.625 202.635 92.625L161.309 94.0198Z" fill="#FF9EBD"/>
<path d="M183.873 8.82585C186.662 0.466203 195.212 -1.68456 203.291 1.23475C211.37 4.15406 218.131 14.1113 218.5 28.8627C218.869 43.6142 220.221 68.1311 226.491 71.6692C223.048 71.5195 219.729 67.4496 219.729 67.4496C219.729 67.4496 217.025 84.958 222.925 89.3023C215.673 89.9588 210.509 86.4406 208.911 83.0979C209.035 87.2541 209.895 90.2044 209.895 90.2044C209.895 90.2044 204.102 87.6701 202.635 83.0979C200.061 83.1975 193.03 78.6511 193.03 68.0168C193.03 57.3824 193.03 9.56342 193.03 9.56342L183.873 8.82585Z" fill="#404040"/>
<path d="M196.398 59.1716C195.189 67.1809 194.588 74.7108 194.415 80.219C194.243 85.7264 195.793 90.0435 202.635 92.625C201.387 95.5081 196.983 107.025 177.964 107.025C161.999 107.025 161.309 94.0197 161.309 94.0197C161.309 94.0197 164.267 92.1382 166.54 90.503C168.813 88.8678 169.028 87.1042 169.028 83.704C169.028 80.3053 169.028 59.1709 169.028 59.1709L196.398 59.1716Z" fill="#FFC9AF"/>
<path opacity="0.5" d="M194.582 65.2893V59.1719H169.028C169.028 59.1719 169.028 80.3055 169.028 83.705C169.028 85.4029 168.975 86.6929 168.638 87.7624C170.771 89.6484 173.683 89.7583 177.051 88.3384C183.315 85.6994 191.047 77.4674 194.582 65.2893Z" fill="#D04C44"/>
<path d="M148.307 53.7976C148.307 53.7976 149.468 59.8494 151.49 66.3533C153.511 72.8579 158.993 81.9028 170.538 82.9118C171.743 82.872 188.967 80.4395 196.246 61.5731C199.616 57.7259 207.687 43.656 200.219 25.4534C192.753 7.24943 161.255 7.26271 150.538 21.5613C143.172 31.388 146.052 46.607 148.307 53.7976Z" fill="#FFC9AF"/>
<path d="M176.372 45.4107C172.609 46.0561 171.244 49.3508 171.762 52.3173C171.762 52.3173 173.355 54.0676 177.191 53.69C181.025 53.3116 182.62 50.6858 182.431 48.6848C182.431 48.6848 180.791 45.2226 176.372 45.4107Z" fill="white"/>
<path d="M176.274 46.7722C174.101 46.9884 172.516 48.9208 172.73 51.0937C172.821 52.0046 173.216 52.8107 173.803 53.4259C174.644 53.6759 175.761 53.8308 177.191 53.6899C178.309 53.5793 179.23 53.2747 179.978 52.8535C180.45 52.1278 180.689 51.2434 180.599 50.3163C180.383 48.1456 178.446 46.5583 176.274 46.7722Z" fill="#404040"/>
<path d="M180.737 47.924C180.803 48.61 180.237 49.2229 179.475 49.3003C178.708 49.3741 178.033 48.8821 177.97 48.1984C177.898 47.5132 178.467 46.8944 179.227 46.8214C179.992 46.7498 180.665 47.241 180.737 47.924Z" fill="white"/>
<path d="M171.358 52.2327C171.546 49.4203 173.151 46.5415 176.521 46.1595C179.889 45.7752 181.842 48.426 182.15 49.3296C182.151 50.5554 182.002 51.3033 182.002 51.3033C182.002 51.3033 183.458 50.374 183.873 48.8892C182.73 46.7459 180.541 44.4122 176.411 44.8215C173.326 45.1254 170.429 48.0314 171.358 52.2327Z" fill="#242424"/>
<path d="M169.905 43.2344C171.108 43.0153 177.089 40.7583 178.199 40.3763C179.319 39.9986 180.33 39.7995 180.145 39.6697C179.959 39.5406 175.383 38.8407 172.229 39.6911C169.076 40.5422 169.905 43.2344 169.905 43.2344Z" fill="#242424"/>
<path d="M152.005 46.7533C154.73 47.3161 155.841 50.5673 155.704 53.303C155.704 53.303 154.881 54.9493 152.488 55.071C149.874 55.2067 148.219 52.8973 147.938 50.7908C147.938 50.7908 148.507 46.7054 152.005 46.7533Z" fill="white"/>
<path d="M152.112 48.1462C150.432 47.9935 149.212 49.9222 149.464 52.2943C149.549 53.113 149.8 53.8506 150.156 54.4495C150.811 54.8706 151.591 55.1162 152.487 55.0705C153.375 55.0248 154.046 54.7696 154.54 54.4664C154.813 53.8801 154.971 53.1713 154.96 52.3931C154.932 50.2527 153.692 48.2966 152.112 48.1462Z" fill="#404040"/>
<path d="M148.954 49.7393C149.041 50.5086 149.594 51.1275 150.178 51.1489C150.758 51.1651 151.177 50.5971 151.116 49.8603C151.064 49.1058 150.533 48.4353 149.927 48.3903C149.308 48.3424 148.874 48.9546 148.954 49.7393Z" fill="white"/>
<path d="M155.934 53.1872C155.659 50.6558 154.409 47.8634 151.996 47.6089C149.36 47.3331 148.347 50.4611 148.298 51.4554C148.549 52.7137 148.807 53.438 148.807 53.438C148.807 53.438 147.503 52.6672 146.825 51.1463C147.245 48.6319 148.531 45.6942 151.888 46.0674C154.156 46.3182 156.266 49.2375 155.934 53.1872Z" fill="#242424"/>
<path d="M155.605 44.2557C154.621 44.148 150.272 42.4376 149.336 42.1632C148.396 41.8881 147.566 41.7819 147.695 41.6366C147.824 41.489 150.694 40.604 153.314 41.1601C155.932 41.7162 155.605 44.2557 155.605 44.2557Z" fill="#242424"/>
<path d="M162.168 60.1268C162.077 61.9677 161.796 63.4849 162.118 64.1074C162.44 64.7292 163.894 65.9167 163.773 65.9204C163.654 65.9248 160.748 65.5081 160.763 64.1812C160.779 62.8536 162.031 59.6193 162.168 60.1268Z" fill="#D0645D"/>
<path d="M165.622 65.2893C165.622 65.2893 165.287 64.2752 166.069 64.1889C166.85 64.1033 167.63 64.9228 167.63 64.9228L165.622 65.2893Z" fill="#D0645D"/>
<path d="M211.187 36.9144C210.018 26.466 209.28 13.4973 192.563 5.19886C180.603 -0.737861 161.524 -1.31612 148.616 12.6978C142.777 14.2953 136.446 20.7491 136.876 31.3827C137.306 42.0162 144.923 45.0727 147.937 44.7733C147.396 43.2598 147.004 34.2002 149.084 29.4436C149.706 32.0435 152.632 41.7891 161.831 43.4914H162.753C162.753 43.4914 161.954 40.6023 161.954 38.3896C164.72 42.2618 168.408 43.2458 170.436 43.4914H171.182C171.182 43.4914 169.452 38.2672 169.391 32.2434C172.869 39.5439 178.365 43.2244 181.008 43.2347C183.958 45.0897 190.596 45.4644 190.596 45.4644C190.596 45.4644 192.685 50.0395 199.262 50.9143L196.246 61.5737L195.333 67.4492C195.333 67.4492 204.549 67.6461 209.896 60.3936C215.243 53.141 214.199 43.7982 211.187 36.9144Z" fill="#404040"/>
<path d="M200.926 66.3889L201.968 65.9987L202.973 65.5532C203.629 65.228 204.284 64.8946 204.894 64.4904C205.206 64.3016 205.512 64.1032 205.798 63.8753C206.085 63.6503 206.394 63.4556 206.661 63.2085L207.477 62.4879C207.741 62.2408 207.98 61.9657 208.231 61.7068C208.49 61.4523 208.719 61.1735 208.935 60.8829C209.148 60.6004 209.397 60.3061 209.581 60.0362C209.967 59.4093 210.42 58.789 210.714 58.151C210.872 57.8301 211.054 57.5277 211.194 57.1965L211.609 56.1971C211.761 55.8704 211.85 55.5178 211.969 55.1785C212.076 54.8348 212.21 54.5 212.282 54.1459L212.537 53.0964C212.612 52.7446 212.657 52.3861 212.719 52.0321C212.786 51.6788 212.831 51.321 212.856 50.9611C212.885 50.6019 212.93 50.2442 212.945 49.8843C212.96 49.1629 212.994 48.4438 212.944 47.7217C212.935 47.0011 212.836 46.2834 212.769 45.5658C212.647 44.8533 212.568 44.1356 212.412 43.4283C212.287 42.7165 212.098 42.018 211.922 41.3166C211.728 40.6211 211.553 39.916 211.311 39.233C211.106 38.536 210.841 37.8611 210.611 37.1678L210.611 37.1663L210.568 37.0549L210.561 36.9834L210.315 34.1939C210.22 33.269 210.146 32.3396 210.035 31.4184C209.908 30.5009 209.824 29.573 209.665 28.6621C209.492 27.7549 209.378 26.83 209.157 25.9323L208.832 24.584C208.721 24.1349 208.63 23.6791 208.47 23.2454L208.036 21.9273C207.883 21.4914 207.772 21.0371 207.567 20.6218L207.008 19.3495C206.811 18.932 206.659 18.4873 206.424 18.089L205.035 15.6757L205.027 15.6624C204.99 15.5989 205.012 15.5186 205.075 15.4824C205.136 15.447 205.215 15.4669 205.251 15.5259L206.765 17.9039C207.022 18.2985 207.194 18.7388 207.413 19.1548L208.039 20.4219C208.267 20.8372 208.399 21.2908 208.575 21.7282L209.076 23.0506C209.259 23.4873 209.371 23.9446 209.505 24.396L209.897 25.7546C210.162 26.6611 210.319 27.5882 210.535 28.5065C210.738 29.427 210.866 30.357 211.035 31.2827C211.188 32.2105 211.305 33.1384 211.442 34.0663L211.812 36.8447L211.763 36.6625L211.764 36.664C212.095 37.3463 212.419 38.0352 212.685 38.7476C212.968 39.4535 213.183 40.1837 213.416 40.9095C213.6 41.6485 213.794 42.3854 213.925 43.1377C214.09 43.8819 214.165 44.6438 214.259 45.3998C214.306 46.1625 214.384 46.9222 214.369 47.6878C214.395 48.4511 214.335 49.2145 214.294 49.9772C214.264 50.3578 214.205 50.7361 214.161 51.116C214.122 51.4966 214.062 51.8735 213.979 52.2474C213.901 52.6221 213.839 53.0005 213.747 53.3708L213.44 54.4764C213.351 54.8488 213.197 55.2014 213.072 55.5628C212.933 55.9183 212.828 56.2878 212.651 56.6286L212.162 57.6649C211.996 58.0093 211.783 58.3383 211.594 58.6739C211.224 59.3687 210.768 59.9315 210.347 60.5495C210.098 60.8815 209.851 61.1426 209.602 61.4413C209.362 61.737 209.105 62.0188 208.821 62.2747C208.544 62.5358 208.281 62.8117 207.991 63.058L207.099 63.7668C206.805 64.0058 206.471 64.1917 206.16 64.4056C205.849 64.6217 205.521 64.809 205.186 64.9838C204.532 65.3622 203.84 65.6631 203.148 65.9552L202.089 66.3476L201.024 66.6736C200.945 66.6979 200.86 66.6537 200.836 66.5733C200.81 66.4973 200.851 66.4169 200.926 66.3889Z" fill="#242424"/>
<path d="M198.464 49.7676C196.095 50.1158 191.838 55.3363 194.038 61.377C189.367 58.1192 188.936 46.5762 198.464 48.1376V49.7676Z" fill="#404040"/>
<path d="M196.965 51.7403C197.508 47.7411 198.423 45.6007 200.693 45.4687C202.964 45.3359 206.813 48.6653 206.21 52.4328C205.347 57.84 202.155 59.7532 200.382 60.8065C198.607 61.8597 196.263 62.0722 196.246 61.5743C196.23 61.0779 196.965 51.7403 196.965 51.7403Z" fill="#FFC9AF"/>
<path d="M165.089 68.9377C162.539 69.0226 161.214 69.3065 161.154 70.5973C161.093 71.888 162.906 74.4695 166.317 74.4695C171.05 74.4695 172.895 71.7029 172.741 70.1975C172.587 68.6921 168.776 68.8146 165.089 68.9377Z" fill="#7A1C1C"/>
<path d="M172.643 71.0333C169.208 69.5567 164.14 70.0796 161.871 72.4015C162.689 73.468 164.192 74.4697 166.316 74.4697C170.265 74.4689 172.198 72.5461 172.643 71.0333Z" fill="#F65B55"/>
<path d="M161.397 69.8735C162.033 70.1737 163.297 70.4916 165.81 70.4591C169.49 70.4119 171.589 70.4451 172.663 69.9236C172.088 68.7089 168.535 68.8224 165.089 68.9375C163.115 69.0031 161.885 69.1942 161.397 69.8735Z" fill="white"/>
<path d="M187.558 45.1421C189.278 45.3884 190.596 45.4636 190.596 45.4636C190.596 45.4636 186.232 39.6176 183.405 30.9512C183.405 30.9512 184.003 39.1021 187.558 45.1421Z" fill="#242424"/>
<path d="M163.659 107.292C163.659 107.292 157.528 97.427 156.837 96.4128C156.145 95.3987 155.269 94.7068 154.301 94.4302C153.332 94.1536 148.308 92.5863 146.879 91.9409C145.449 91.2956 144.926 92.8172 145.811 94.4302C146.694 96.044 148.492 96.9195 149.322 97.1961C149.645 99.5475 151.12 108.675 163.659 107.292Z" fill="#FFC9AF"/>
<path opacity="0.3" d="M163.659 107.292C163.659 107.292 157.528 97.427 156.837 96.4128C156.145 95.3987 155.269 94.7068 154.301 94.4302C153.332 94.1536 148.308 92.5863 146.879 91.9409C145.449 91.2956 144.926 92.8172 145.811 94.4302C146.694 96.044 148.492 96.9195 149.322 97.1961C149.645 99.5475 151.12 108.675 163.659 107.292Z" fill="#D04C44"/>
<path d="M159.81 116.193C160.128 116.748 160.13 117.243 159.872 117.564C159.681 117.805 159.306 118.412 158.693 119.157L139.658 117.948C138.596 117.948 137.283 117.163 136.726 116.192L115.552 81.6886C115.962 81.0993 116.468 80.4694 116.685 80.1471C116.87 79.8778 117.219 79.7148 117.705 79.7148H136.937C138 79.7148 139.313 80.4996 139.869 81.4695L159.81 116.193Z" fill="#404040"/>
<path opacity="0.6" d="M159.81 116.193C160.128 116.748 160.13 117.243 159.872 117.564C159.681 117.805 159.306 118.412 158.693 119.157L139.658 117.948C138.596 117.948 137.283 117.163 136.726 116.192L115.552 81.6886C115.962 81.0993 116.468 80.4694 116.685 80.1471C116.87 79.8778 117.219 79.7148 117.705 79.7148H136.937C138 79.7148 139.313 80.4996 139.869 81.4695L159.81 116.193Z" fill="#242424"/>
<path d="M158.663 117.751C159.218 118.72 158.807 119.505 157.744 119.505H138.511C137.449 119.505 136.136 118.72 135.579 117.751L115.64 83.0271C115.083 82.058 115.494 81.2725 116.558 81.2725H135.79C136.853 81.2725 138.165 82.0572 138.723 83.0271L158.663 117.751Z" fill="#404040"/>
<path d="M125.198 87.6173C125.711 88.4404 125.264 89.1079 124.201 89.1079H122.435C121.372 89.1079 120.094 88.4404 119.581 87.6173L117.644 84.5121C117.132 83.6875 117.578 83.0215 118.641 83.0215H120.407C121.47 83.0215 122.748 83.6875 123.261 84.5121L125.198 87.6173Z" fill="#242424"/>
<path d="M121.129 84.7386C121.436 85.2321 121.17 85.6296 120.535 85.6296C119.9 85.6296 119.136 85.2321 118.829 84.7386C118.522 84.2489 118.788 83.8506 119.425 83.8506C120.06 83.8506 120.823 84.2489 121.129 84.7386Z" fill="#242424"/>
<path d="M122.795 87.409C123.1 87.901 122.835 88.3 122.199 88.3C121.564 88.3 120.8 87.901 120.494 87.409C120.189 86.9186 120.454 86.5195 121.089 86.5195C121.725 86.5195 122.488 86.9186 122.795 87.409Z" fill="#242424"/>
<path d="M227.412 194.324C232.637 186.458 238.907 168.141 238.907 147.366H210.51L209.527 165.314C209.527 165.314 213.705 181.539 227.412 194.324Z" fill="#FFC9AF"/>
<path opacity="0.3" d="M226.771 193.708C228.306 190.383 230.894 173.507 215.999 154.647C214.22 152.393 212.373 150.026 210.498 147.601L209.528 165.314C209.528 165.314 213.58 181.024 226.771 193.708Z" fill="#D04C44"/>
<path d="M126.325 109.263C126.325 109.263 126.608 115.314 125.411 120.092C124.214 124.871 110.937 156.341 108.356 164.086C105.774 171.83 105.037 176.501 105.774 182.033C106.512 187.565 108.233 193.465 111.429 192.973C114.625 192.482 126.367 187.688 128.671 178.714C130.975 169.74 140.577 120.015 140.577 120.015V109.263L126.325 109.263Z" fill="#FFC9AF"/>
<path opacity="0.4" d="M128.27 114.394C129.13 121.011 132.518 127.534 138.547 130.457C139.761 124.245 140.578 120.014 140.578 120.014V109.263H128.271V114.394H128.27Z" fill="#D04C44"/>
<path d="M133.234 100.009C131.723 99.1471 130.906 98.5791 129.604 98.4869C128.301 98.3947 124.706 98.4405 123.876 98.4869C123.046 98.5334 121.764 99.5269 121.645 100.39C121.525 101.253 121.041 104.295 121.421 104.941C121.802 105.586 123.369 106.39 123.554 107.025C123.738 107.66 123.507 109.182 124.107 110.104C124.706 111.026 126.735 112.178 126.919 112.547C127.104 112.916 128.579 116.235 129.271 117.388C129.962 118.541 131.622 119.785 134.157 120.016C136.692 120.247 139.58 119.877 140.579 120.016C141.578 120.155 142.178 118.955 142.039 118.033C141.901 117.111 141.285 116.189 140.579 115.59C140.334 112.962 139.781 111.394 138.767 110.104C138.49 107.752 138.349 106.047 137.151 105.402C136.415 103.328 135.114 101.08 133.234 100.009Z" fill="#FFC9AF"/>
<path opacity="0.5" d="M142.039 118.032C141.9 117.11 141.284 116.188 140.578 115.589C140.333 112.961 139.78 111.393 138.766 110.103C138.489 107.751 138.348 106.046 137.151 105.401C136.415 103.326 135.113 101.079 133.234 100.007C131.758 99.1651 130.942 98.6082 129.692 98.4961C128.735 98.89 127.997 99.2137 127.741 99.3613C126.78 99.9144 126.78 100.791 127.01 101.482C127.237 102.16 128.258 103.449 129.123 103.545C127.738 103.803 126.045 104.382 126.365 104.524C126.614 104.634 128.031 104.473 129.13 104.324C129.214 105.487 129.911 106.973 130.468 107.485C130.923 107.903 131.454 107.985 131.767 107.992C130.408 108.261 128.821 108.811 129.132 108.95C129.369 109.056 130.678 108.911 131.753 108.769C131.633 109.217 131.553 109.781 131.713 110.24C132.036 111.162 132.635 112.039 132.82 112.361C132.951 112.592 133.523 112.819 133.844 112.932C132.483 113.2 130.888 113.753 131.199 113.891C131.458 114.006 132.986 113.826 134.1 113.673C134.146 114.047 134.25 114.506 134.48 114.85C134.941 115.542 135.863 116.418 136.785 116.879C137.466 117.219 140.129 118.237 141.96 118.914C142.047 118.624 142.081 118.316 142.039 118.032Z" fill="#D04C44"/>
<path d="M169.329 111.901C167.208 109.504 154.209 96.2734 153.471 95.9968C152.733 95.7202 141.439 95.1671 140.24 95.2593C139.042 95.3515 131.421 98.3482 130.46 98.9014C129.499 99.4546 129.499 100.331 129.73 101.022C129.961 101.713 131.021 103.05 131.897 103.097C131.574 104.25 132.497 106.39 133.188 107.025C133.88 107.66 134.755 107.522 134.755 107.522C134.755 107.522 134.11 108.859 134.432 109.781C134.754 110.703 135.354 111.58 135.538 111.902C135.723 112.224 136.783 112.547 136.783 112.547C136.783 112.547 136.737 113.7 137.199 114.391C137.66 115.082 138.582 115.958 139.504 116.419C140.426 116.88 144.99 118.586 146.188 119.001C147.387 119.415 157.022 123.104 160.341 124.072C163.706 129.742 190.167 177.269 202.798 185.843C215.429 194.418 226.216 195.985 227.414 194.326C228.613 192.666 230.457 174.411 212.202 156.341C193.947 138.27 169.329 111.901 169.329 111.901Z" fill="#FFC9AF"/>
<path opacity="0.5" d="M132.178 102.782C132.178 102.782 132.415 102.708 132.836 102.596C133.257 102.491 133.854 102.317 134.578 102.152C135.301 101.979 136.148 101.789 137.057 101.608C137.285 101.561 137.516 101.514 137.75 101.467L138.104 101.399L138.282 101.366L138.351 101.355L138.374 101.354L138.419 101.351L138.51 101.345C138.983 101.301 139.515 101.306 140.043 101.328C140.58 101.341 141.049 101.386 141.547 101.414C142.037 101.446 142.515 101.5 142.978 101.541C143.906 101.632 144.768 101.742 145.506 101.845C146.98 102.059 147.958 102.253 147.958 102.253C148.065 102.274 148.135 102.378 148.115 102.486C148.096 102.581 148.013 102.646 147.92 102.648C147.92 102.648 147.672 102.649 147.237 102.651C146.803 102.645 146.184 102.636 145.44 102.626C144.699 102.602 143.834 102.573 142.907 102.542C142.446 102.524 141.968 102.504 141.483 102.484C141.007 102.467 140.49 102.431 140.036 102.429C139.574 102.422 139.116 102.386 138.617 102.431L138.525 102.436L138.48 102.438L138.457 102.44H138.451C138.439 102.441 138.534 102.427 138.492 102.434L138.48 102.435L138.301 102.466L137.946 102.525C137.71 102.562 137.477 102.598 137.248 102.634C136.331 102.779 135.471 102.895 134.732 102.983C133.995 103.081 133.374 103.124 132.942 103.173C132.509 103.214 132.26 103.227 132.26 103.227C132.134 103.235 132.026 103.14 132.017 103.014C132.012 102.909 132.082 102.814 132.178 102.782Z" fill="#D04C44"/>
<path opacity="0.5" d="M135.078 107.249C135.078 107.249 135.254 107.217 135.56 107.182C135.867 107.153 136.305 107.087 136.831 107.052C137.358 107.009 137.972 106.972 138.63 106.952L138.878 106.944L139.004 106.94L139.035 106.938L139.105 106.942L139.112 106.944L139.127 106.946L139.19 106.956C139.357 106.986 139.524 107.017 139.695 107.047C140.036 107.118 140.375 107.155 140.727 107.254C141.429 107.429 142.128 107.614 142.778 107.803C143.417 107.993 143.997 108.183 144.498 108.358C145.495 108.708 146.147 108.988 146.147 108.988C146.249 109.032 146.294 109.15 146.252 109.252C146.216 109.333 146.129 109.379 146.045 109.371C146.045 109.371 145.869 109.354 145.563 109.311C145.26 109.261 144.821 109.206 144.301 109.115C143.783 109.028 143.176 108.906 142.539 108.776C141.912 108.652 141.249 108.504 140.588 108.344C140.263 108.263 139.905 108.201 139.571 108.13C139.402 108.094 139.234 108.06 139.068 108.025L139.006 108.01L138.99 108.007L138.982 108.005C139.102 108.012 139.013 108.007 139.039 108.009H139.034L139.003 108.007L138.877 108.003L138.629 107.995C137.971 107.976 137.357 107.938 136.831 107.895C136.305 107.86 135.867 107.794 135.56 107.765C135.253 107.73 135.077 107.698 135.077 107.698C134.953 107.676 134.869 107.557 134.891 107.432C134.91 107.338 134.987 107.266 135.078 107.249Z" fill="#D04C44"/>
<path opacity="0.5" d="M137.137 112.276C137.137 112.276 137.651 112.229 138.413 112.269C139.174 112.304 140.18 112.422 141.173 112.631C141.67 112.727 142.164 112.862 142.623 112.991C143.082 113.115 143.506 113.289 143.864 113.425C144.223 113.556 144.514 113.741 144.713 113.843C144.909 113.957 145.021 114.023 145.021 114.023C145.116 114.079 145.147 114.2 145.092 114.295C145.049 114.367 144.97 114.402 144.891 114.391L144.863 114.386C144.863 114.386 144.739 114.368 144.521 114.335C144.301 114.307 144.017 114.225 143.644 114.177C143.272 114.13 142.858 114.034 142.394 113.967C141.936 113.885 141.448 113.798 140.959 113.709C139.984 113.521 139.008 113.306 138.281 113.104C137.555 112.907 137.074 112.723 137.074 112.723C136.954 112.677 136.895 112.543 136.94 112.424C136.974 112.339 137.053 112.284 137.137 112.276Z" fill="#D04C44"/>
<path d="M235.524 108.859C238.661 113.745 244.93 141.127 246.497 152.559L238.492 156.702L238.753 151.914C238.753 151.914 231.93 149.886 209.158 152.191C209.158 152.191 209.342 132.737 215.427 113.929C215.427 113.929 223.076 107.846 235.524 108.859Z" fill="#FF9EBD"/>
<path d="M238.753 151.913L238.492 156.701L244.796 153.438C243.416 152.92 241.42 152.387 238.753 151.913Z" fill="#DB7093"/>
<path d="M214.785 119.362C214.785 119.362 214.327 121.116 213.64 123.745C213.474 124.4 213.295 125.11 213.105 125.86C212.922 126.61 212.738 127.405 212.528 128.218C212.341 129.039 212.147 129.886 211.951 130.747C211.754 131.607 211.575 132.485 211.396 133.363C211.201 134.238 211.036 135.118 210.891 135.988C210.714 136.852 210.577 137.709 210.448 138.539C210.308 139.369 210.184 140.171 210.086 140.936C209.979 141.701 209.861 142.424 209.799 143.095C209.717 143.767 209.64 144.383 209.572 144.929C209.531 145.476 209.475 145.956 209.437 146.35C209.351 147.141 209.289 147.596 209.289 147.596L209.288 147.603C209.278 147.676 209.211 147.726 209.139 147.717C209.079 147.708 209.033 147.662 209.026 147.605C209.026 147.605 208.959 147.153 208.865 146.356C208.822 145.958 208.761 145.472 208.714 144.915C208.683 144.357 208.654 143.727 208.64 143.038C208.614 142.35 208.61 141.602 208.653 140.815C208.685 140.026 208.699 139.191 208.801 138.336C208.883 137.479 208.962 136.591 209.1 135.698C209.231 134.803 209.38 133.897 209.561 132.996C209.714 132.091 209.951 131.202 210.159 130.323C210.354 129.441 210.631 128.594 210.867 127.768C211.123 126.947 211.377 126.156 211.655 125.418C211.924 124.677 212.187 123.981 212.464 123.35C213.516 120.808 214.507 119.244 214.507 119.244C214.553 119.173 214.647 119.151 214.718 119.196C214.776 119.232 214.8 119.3 214.785 119.362Z" fill="#DB7093"/>
<path d="M204.75 124.29C204.75 124.29 204.774 124.611 204.816 125.172C204.832 125.449 204.852 125.784 204.874 126.169C204.908 126.556 204.934 126.99 204.951 127.461C204.978 127.932 205.006 128.441 205.037 128.981C205.077 129.519 205.093 130.085 205.113 130.67C205.161 131.255 205.21 131.857 205.231 132.47C205.251 133.084 205.295 133.706 205.352 134.325C205.4 134.946 205.448 135.567 205.495 136.178C205.513 136.793 205.588 137.391 205.664 137.97C205.74 138.548 205.776 139.114 205.832 139.65C205.856 139.918 205.883 140.179 205.897 140.434C205.923 140.686 205.969 140.925 206.002 141.158C206.289 143.011 206.358 144.314 206.358 144.314L206.359 144.328C206.363 144.401 206.307 144.464 206.233 144.468C206.178 144.471 206.129 144.44 206.106 144.393C206.106 144.393 205.539 143.242 204.871 141.414C204.69 140.96 204.534 140.459 204.42 139.918C204.295 139.378 204.142 138.811 204.023 138.218C203.896 137.625 203.757 137.012 203.694 136.38C203.626 135.748 203.556 135.106 203.488 134.466C203.396 133.825 203.407 133.178 203.393 132.544C203.374 131.91 203.382 131.285 203.392 130.682C203.416 130.078 203.467 129.496 203.522 128.945C203.569 128.394 203.619 127.874 203.713 127.396C203.857 126.441 204.036 125.651 204.191 125.102C204.259 124.827 204.329 124.615 204.378 124.472C204.426 124.328 204.452 124.252 204.452 124.252C204.478 124.171 204.565 124.128 204.646 124.154C204.706 124.174 204.746 124.23 204.75 124.29Z" fill="#DB7093"/>
<path d="M131.1 92.7346C128.993 92.7346 128.093 91.8348 128.093 89.7275C128.093 89.5343 127.937 89.3779 127.744 89.3779C127.551 89.3779 127.394 89.5343 127.394 89.7275C127.394 91.8348 126.494 92.7346 124.387 92.7346C124.194 92.7346 124.037 92.891 124.037 93.0842C124.037 93.2775 124.194 93.4338 124.387 93.4338C126.494 93.4338 127.394 94.3337 127.394 96.4409C127.394 96.6342 127.551 96.7905 127.744 96.7905C127.937 96.7905 128.093 96.6342 128.093 96.4409C128.093 94.3337 128.993 93.4338 131.1 93.4338C131.294 93.4338 131.45 93.2775 131.45 93.0842C131.45 92.891 131.294 92.7346 131.1 92.7346Z" fill="white"/>
<path d="M113.675 87.8009C112.365 87.8009 111.806 87.2419 111.806 85.9327C111.806 85.8132 111.709 85.7158 111.589 85.7158C111.469 85.7158 111.372 85.8132 111.372 85.9327C111.372 87.2419 110.813 87.8009 109.504 87.8009C109.384 87.8009 109.287 87.8983 109.287 88.0185C109.287 88.138 109.384 88.2354 109.504 88.2354C110.813 88.2354 111.372 88.7945 111.372 90.1036C111.372 90.2239 111.469 90.3205 111.589 90.3205C111.709 90.3205 111.806 90.2239 111.806 90.1036C111.806 88.7945 112.365 88.2354 113.675 88.2354C113.794 88.2354 113.891 88.138 113.891 88.0185C113.891 87.8983 113.794 87.8009 113.675 87.8009Z" fill="white"/>
<path d="M130.175 78.338C128.865 78.338 128.306 77.779 128.306 76.4698C128.306 76.3503 128.209 76.2529 128.09 76.2529C127.969 76.2529 127.872 76.3503 127.872 76.4698C127.872 77.779 127.313 78.338 126.004 78.338C125.884 78.338 125.787 78.4354 125.787 78.5556C125.787 78.6751 125.884 78.7725 126.004 78.7725C127.313 78.7725 127.872 79.3316 127.872 80.6408C127.872 80.761 127.969 80.8576 128.09 80.8576C128.209 80.8576 128.306 80.761 128.306 80.6408C128.306 79.3316 128.865 78.7725 130.175 78.7725C130.294 78.7725 130.392 78.6751 130.392 78.5556C130.392 78.4354 130.294 78.338 130.175 78.338Z" fill="white"/>
<mask id="mask0_260_11615" style="mask-type:luminance" maskUnits="userSpaceOnUse" x="19" y="191" width="233" height="64">
<path d="M251.611 191.848H19V254.368H251.611V191.848Z" fill="white"/>
</mask>
<g mask="url(#mask0_260_11615)">
<path d="M124.164 214.51H93.9807V254.37H124.164V214.51Z" fill="#949290"/>
<path d="M124.164 214.51H93.9807V254.37H124.164V214.51Z" fill="#949290"/>
<path d="M19.0001 221.865C19.0001 232.04 70.6388 240.287 134.338 240.287C198.037 240.287 249.676 232.039 249.676 221.865V212.654H19.0001V221.865Z" fill="#949290"/>
<path opacity="0.4" d="M134.338 238.644C70.6388 238.644 19.0001 230.773 19.0001 221.064V222.708C19.0001 232.417 70.6388 240.287 134.338 240.287C198.037 240.287 249.676 232.416 249.676 222.708V221.064C249.676 230.773 198.037 238.644 134.338 238.644Z" fill="#949290"/>
<path opacity="0.7" d="M18.9844 216.072C18.9844 224.447 70.6108 231.236 134.294 231.236C197.978 231.236 249.605 224.446 249.605 216.072V214.871H18.9844V216.072Z" fill="white"/>
<path d="M134.295 228.244C197.979 228.244 249.605 221.455 249.605 213.08C249.605 204.706 197.979 197.917 134.295 197.917C70.6105 197.917 18.9844 204.706 18.9844 213.08C18.9844 221.455 70.6105 228.244 134.295 228.244Z" fill="#C8C6C4"/>
</g>
<path opacity="0.4" d="M150.187 212.076C150.187 216.149 130.863 219.452 107.026 219.452C83.188 219.452 63.8622 216.149 63.8622 212.076C63.8622 208.003 83.1873 204.7 107.026 204.7C130.863 204.7 150.187 208.003 150.187 212.076Z" fill="#949290"/>
<path d="M150.187 198.206C150.187 198.206 142.599 214.34 107.025 214.34C71.4511 214.34 63.8622 198.206 63.8622 198.206H150.187Z" fill="#1C1C1C"/>
<path d="M63.8806 198.24C63.9485 198.378 64.3121 199.075 65.1153 200.116C69.7421 203.337 86.7468 205.728 107.026 205.728C127.305 205.728 144.308 203.337 148.936 200.116C149.739 199.075 150.102 198.378 150.171 198.24C150.17 198.228 150.167 198.218 150.165 198.206H63.8843C63.8836 198.218 63.8814 198.229 63.8806 198.24Z" fill="#737373"/>
<path d="M150.187 197.86C150.187 201.934 130.863 205.236 107.026 205.236C83.188 205.236 63.8622 201.934 63.8622 197.86C63.8622 193.787 83.1873 190.484 107.026 190.484C130.863 190.484 150.187 193.786 150.187 197.86Z" fill="#4A4A4A"/>
<path opacity="0.4" d="M107.026 205.236C122.885 205.236 136.736 203.774 144.239 201.596C143.259 198.229 126.974 195.55 107.026 195.55C87.078 195.55 70.7924 198.229 69.8114 201.595C77.3132 203.773 91.1671 205.236 107.026 205.236Z" fill="#1C1C1C"/>
<path d="M71.1378 200.538C67.593 199.54 65.4953 195.455 67.742 191.732C69.9879 188.006 73.4574 187.421 79.8256 186.831C88.4198 186.033 93.8063 187.207 96.1525 190.153C98.4995 193.098 94.7202 197.789 88.4205 198.565C82.1217 199.34 72.9854 200.887 71.1378 200.538Z" fill="#FFB380"/>
<path d="M74.133 200.089C70.2379 199.689 69.2901 198.441 69.4399 196.394C69.5896 194.347 68.391 193.499 68.8911 192.249C69.3897 191.001 70.7151 190.302 71.4512 188.854C72.1859 187.406 70.8376 186.019 72.635 185.739C74.4332 185.458 76.1304 185.26 77.2294 185.059C78.3276 183.611 80.575 183.511 82.5214 184.11C84.4694 184.71 84.0202 183.013 85.1686 183.112C86.317 183.212 87.9647 183.962 88.9132 184.461C89.8625 184.96 90.5603 183.962 92.1586 184.461C93.7562 184.96 94.8042 184.971 95.454 185.739C96.1038 186.507 97.5222 186.715 98.2989 187.406C99.077 188.096 99.3986 188.555 99.3986 190.102C99.3986 191.65 99.4981 193.389 97.2508 195.065C95.0034 196.743 88.7628 197.093 84.3189 197.94C79.8758 198.791 77.4794 199.641 74.133 200.089Z" fill="#6BB451"/>
<path d="M94.3462 186.439C92.7479 185.939 92.0494 186.938 91.1008 186.439C90.1523 185.939 88.5039 185.19 87.3562 185.09C86.2085 184.991 86.657 186.688 84.7105 186.088C82.7626 185.49 80.5152 185.589 79.4177 187.037C78.3187 187.238 76.6208 187.436 74.8234 187.717C73.0266 187.998 74.3742 189.384 73.6396 190.832C72.9035 192.281 71.578 192.979 71.0794 194.228C70.5801 195.477 71.7779 196.326 71.6289 198.372C71.595 198.83 71.6201 199.246 71.7182 199.624C72.3555 199.833 73.1498 199.988 74.1337 200.089C77.4801 199.641 79.8757 198.791 84.3196 197.942C88.7635 197.095 95.0041 196.744 97.2515 195.067C99.4988 193.391 99.3993 191.652 99.3993 190.104C99.3993 189.475 99.3432 189.032 99.2282 188.675C98.6233 188.41 98.009 188.153 97.6424 187.719C96.9918 186.95 95.9438 186.938 94.3462 186.439Z" fill="#3D843C"/>
<path d="M82.6373 188.102C80.3154 185.931 77.2227 186.905 76.4107 188.102C75.5979 189.301 77.3201 190.199 78.5186 191.099C79.7165 191.998 83.2391 193.346 83.987 192.746C84.7349 192.147 85.5595 189.601 84.8846 189.151C84.2098 188.703 82.6373 188.102 82.6373 188.102Z" fill="#D04C44"/>
<path d="M76.1451 193.753C73.824 191.581 70.7306 192.554 69.9185 193.753C69.1057 194.951 70.8272 195.85 72.0258 196.749C73.2236 197.648 76.7462 198.996 77.4941 198.396C78.242 197.798 79.0659 195.251 78.391 194.802C77.7184 194.352 76.1451 193.753 76.1451 193.753Z" fill="#D04C44"/>
<path d="M89.3721 186.115C87.0502 183.942 83.9568 184.916 83.1448 186.115C82.3312 187.312 84.0549 188.212 85.2527 189.111C86.4506 190.009 89.9732 191.357 90.7211 190.758C91.469 190.16 92.2929 187.612 91.618 187.163C90.9453 186.713 89.3721 186.115 89.3721 186.115Z" fill="#D04C44"/>
<path d="M82.6232 193.417C82.8201 192.852 80.783 192.27 78.0731 192.113C75.364 191.956 73.0089 192.285 72.8127 192.849L73.1092 192C73.3047 191.433 75.6598 191.104 78.3696 191.262C81.0794 191.419 83.1166 192.003 82.9212 192.565L82.6232 193.417Z" fill="#EFEBF7"/>
<path d="M78.4819 190.94C75.3767 190.762 72.6218 191.3 72.329 192.14C72.0355 192.981 74.3175 193.809 77.4205 193.987C80.5249 194.167 83.2805 193.63 83.5733 192.789C83.8647 191.95 81.5863 191.123 78.4819 190.94ZM77.6602 193.301C74.9504 193.146 72.9132 192.561 73.1101 192C73.3056 191.433 75.6606 191.104 78.3705 191.262C81.0803 191.418 83.1175 192.003 82.922 192.565C82.7251 193.129 80.3686 193.459 77.6602 193.301Z" fill="#DFD0F7"/>
<path d="M83.1645 193.965C82.871 194.807 80.1169 195.343 77.0109 195.161C73.908 194.984 71.6267 194.157 71.9202 193.315L72.3296 192.14C72.036 192.981 74.3181 193.809 77.421 193.987C80.5255 194.167 83.281 193.63 83.5739 192.789L83.1645 193.965Z" fill="#876CB4"/>
<path d="M79.4568 192.515C79.6257 192.647 78.7348 192.751 77.4669 192.751C76.1982 192.751 75.0329 192.646 74.864 192.515C74.6965 192.386 75.5868 192.279 76.8547 192.279C78.124 192.279 79.2887 192.386 79.4568 192.515Z" fill="#F59F9F"/>
<path d="M75.9496 193.352C76.1185 193.482 77.2839 193.588 78.5518 193.588C79.8196 193.588 80.7114 193.482 80.5417 193.352L79.456 192.515C79.6249 192.646 78.7339 192.75 77.4661 192.75C76.1974 192.75 75.0321 192.645 74.8632 192.515L75.9496 193.352Z" fill="#E33636"/>
<path d="M94.2062 187.386C94.2652 187.591 93.4863 187.148 92.4655 186.394C91.4447 185.641 90.5699 184.864 90.5124 184.658C90.4534 184.454 91.2338 184.897 92.2538 185.651C93.2739 186.405 94.1487 187.181 94.2062 187.386Z" fill="#F59F9F"/>
<path d="M90.8879 185.977C90.9469 186.182 91.8209 186.96 92.8417 187.713C93.8618 188.466 94.6406 188.911 94.5824 188.705L94.2055 187.387C94.2645 187.593 93.4856 187.149 92.4648 186.395C91.444 185.642 90.5692 184.865 90.5117 184.659L90.8879 185.977Z" fill="#E33636"/>
<path d="M78.9177 196.355C78.9767 196.56 78.197 196.116 77.177 195.362C76.1562 194.609 75.2822 193.833 75.2224 193.627C75.1642 193.423 75.9438 193.867 76.9646 194.62C77.9846 195.373 78.8601 196.15 78.9177 196.355Z" fill="#F59F9F"/>
<path d="M75.5986 194.944C75.6583 195.149 76.5331 195.926 77.5531 196.68C78.5739 197.433 79.3528 197.877 79.2938 197.672L78.9169 196.354C78.9759 196.559 78.1963 196.115 77.1762 195.361C76.1554 194.608 75.2814 193.832 75.2217 193.626L75.5986 194.944Z" fill="#E33636"/>
<path d="M77.5089 187.752C77.722 187.748 77.0899 188.385 76.0957 189.172C75.1007 189.96 74.1234 190.602 73.9088 190.605C73.6963 190.607 74.3284 189.972 75.3227 189.182C76.3162 188.395 77.295 187.754 77.5089 187.752Z" fill="#F59F9F"/>
<path d="M75.2798 190.586C75.493 190.583 76.471 189.942 77.466 189.155C78.4603 188.368 79.0938 187.73 78.8799 187.733L77.5088 187.752C77.7219 187.748 77.0898 188.385 76.0956 189.172C75.1006 189.96 74.1233 190.602 73.9087 190.605L75.2798 190.586Z" fill="#E33636"/>
<path d="M80.1523 198.794C80.44 198.493 78.6152 197.474 76.0751 196.516C73.5363 195.56 71.2432 195.028 70.9563 195.329L71.3907 194.875C71.6791 194.574 73.9715 195.106 76.5102 196.062C79.0497 197.019 80.8759 198.039 80.5882 198.34L80.1523 198.794Z" fill="#EFEBF7"/>
<path d="M76.674 195.891C73.7636 194.796 71.0559 194.27 70.6259 194.719C70.1967 195.168 72.2088 196.421 75.1185 197.516C78.029 198.613 80.7373 199.139 81.1666 198.689C81.5951 198.24 79.5845 196.988 76.674 195.891ZM75.4681 197.151C72.9286 196.195 71.1032 195.174 71.3908 194.875C71.6792 194.574 73.9716 195.106 76.5103 196.062C79.0498 197.019 80.876 198.039 80.5883 198.34C80.3007 198.639 78.0076 198.108 75.4681 197.151Z" fill="#DFD0F7"/>
<path d="M80.5655 199.317C80.1355 199.765 77.4279 199.24 74.5174 198.143C71.6084 197.047 69.5963 195.794 70.0256 195.345L70.626 194.718C70.1967 195.166 72.2088 196.42 75.1185 197.515C78.029 198.611 80.7374 199.137 81.1666 198.687L80.5655 199.317Z" fill="#876CB4"/>
<path d="M90.232 187.713C90.2585 187.117 88.1387 187.14 85.4975 187.764C82.8577 188.388 80.6944 189.376 80.6664 189.972L80.7084 189.071C80.7342 188.474 82.8975 187.486 85.5395 186.863C88.1808 186.239 90.3006 186.217 90.2747 186.812L90.232 187.713Z" fill="#EFEBF7"/>
<path d="M85.555 186.523C82.5295 187.24 80.0417 188.54 80.0026 189.429C79.9613 190.318 82.3835 190.461 85.4083 189.745C88.436 189.031 90.9231 187.73 90.9629 186.841C91.002 185.952 88.582 185.811 85.555 186.523ZM85.4414 189.02C82.8002 189.645 80.6804 189.667 80.7085 189.071C80.7343 188.474 82.8976 187.486 85.5396 186.863C88.1808 186.239 90.3006 186.217 90.2748 186.812C90.2467 187.409 88.082 188.397 85.4414 189.02Z" fill="#DFD0F7"/>
<path d="M90.9061 188.083C90.8656 188.973 88.3792 190.274 85.3522 190.988C82.3267 191.703 79.9045 191.561 79.9451 190.672L80.0026 189.428C79.9613 190.317 82.3835 190.46 85.4083 189.744C88.436 189.03 90.9231 187.729 90.9629 186.84L90.9061 188.083Z" fill="#876CB4"/>
<path d="M71.1377 200.539C72.8843 200.688 75.0321 198.483 77.1784 195.067C79.3255 191.651 82.9418 187.49 90.9098 186.907C97.7486 186.408 101.245 188.405 102.144 190.951C103.043 193.498 103.251 196.81 100.845 197.342C98.4397 197.874 75.2806 200.401 73.7317 200.545C72.1858 200.688 71.637 200.688 71.1377 200.539Z" fill="#FFD999"/>
<path d="M89.5771 202.016C86.0316 201.018 83.9347 196.933 86.1813 193.21C88.4272 189.485 91.8968 188.899 98.2642 188.309C106.859 187.512 112.246 188.685 114.592 191.631C116.939 194.577 113.159 199.268 106.86 200.043C100.561 200.819 91.4247 202.365 89.5771 202.016Z" fill="#FFB380"/>
<path d="M92.5724 201.566C88.6773 201.167 87.7295 199.919 87.8792 197.871C88.029 195.824 86.8304 194.975 87.3298 193.727C87.8284 192.479 89.1538 191.779 89.8899 190.331C90.6252 188.883 89.2762 187.496 91.0737 187.216C92.8726 186.935 94.5698 186.737 95.6688 186.536C96.767 185.088 99.0144 184.988 100.961 185.588C102.909 186.187 102.46 184.49 103.607 184.588C104.756 184.688 106.404 185.439 107.353 185.937C108.301 186.436 108.999 185.439 110.598 185.937C112.196 186.436 113.244 186.448 113.893 187.215C114.542 187.984 115.962 188.192 116.738 188.882C117.516 189.573 117.837 190.031 117.837 191.578C117.837 193.127 117.938 194.865 115.69 196.542C113.443 198.219 107.202 198.57 102.758 199.417C98.3144 200.269 95.9181 201.117 92.5724 201.566Z" fill="#6BB451"/>
<path d="M112.785 187.917C111.186 187.417 110.489 188.416 109.54 187.917C108.592 187.417 106.943 186.668 105.795 186.568C104.647 186.469 105.096 188.166 103.15 187.566C101.202 186.967 98.9545 187.068 97.8563 188.516C96.758 188.715 95.0601 188.915 93.2619 189.196C91.4652 189.476 92.8127 190.863 92.0774 192.31C91.342 193.759 90.0166 194.457 89.5173 195.706C89.0179 196.955 90.2165 197.804 90.0667 199.85C90.0336 200.309 90.0586 200.725 90.156 201.102C90.794 201.311 91.5884 201.466 92.5723 201.568C95.9179 201.118 98.3143 200.27 102.758 199.421C107.202 198.573 113.443 198.223 115.69 196.546C117.937 194.869 117.837 193.13 117.837 191.582C117.837 190.953 117.781 190.51 117.667 190.152C117.062 189.887 116.447 189.631 116.081 189.196C115.431 188.426 114.383 188.415 112.785 187.917Z" fill="#3D843C"/>
<path d="M101.076 189.579C98.7553 187.407 95.6619 188.381 94.8498 189.579C94.0363 190.778 95.7585 191.677 96.9571 192.576C98.1556 193.475 101.678 194.823 102.426 194.223C103.174 193.624 103.998 191.078 103.324 190.628C102.649 190.18 101.076 189.579 101.076 189.579Z" fill="#D04C44"/>
<path d="M94.5845 195.232C92.2626 193.06 89.1699 194.033 88.3571 195.232C87.5443 196.43 89.2658 197.329 90.4644 198.227C91.6629 199.126 95.1848 200.474 95.9335 199.874C96.6806 199.276 97.5045 196.728 96.8304 196.279C96.1577 195.83 94.5845 195.232 94.5845 195.232Z" fill="#D04C44"/>
<path d="M107.811 187.592C105.489 185.42 102.396 186.394 101.584 187.592C100.771 188.79 102.493 189.689 103.691 190.587C104.89 191.486 108.412 192.834 109.16 192.235C109.908 191.635 110.731 189.089 110.057 188.639C109.385 188.191 107.811 187.592 107.811 187.592Z" fill="#D04C44"/>
<path d="M101.063 194.895C101.259 194.33 99.2217 193.748 96.5118 193.591C93.8027 193.434 91.4477 193.763 91.2515 194.327L91.548 193.478C91.7434 192.911 94.0985 192.582 96.8083 192.739C99.5182 192.897 101.557 193.481 101.361 194.043L101.063 194.895Z" fill="#EFEBF7"/>
<path d="M96.9203 192.419C93.8159 192.241 91.0611 192.777 90.7682 193.618C90.4754 194.46 92.756 195.287 95.8597 195.465C98.9641 195.645 101.72 195.108 102.012 194.267C102.304 193.428 100.026 192.602 96.9203 192.419ZM96.0994 194.78C93.3896 194.624 91.3517 194.039 91.5486 193.478C91.744 192.912 94.0991 192.583 96.809 192.74C99.5188 192.897 101.557 193.481 101.361 194.044C101.164 194.608 98.8078 194.937 96.0994 194.78Z" fill="#DFD0F7"/>
<path d="M101.603 195.445C101.31 196.285 98.5563 196.822 95.4504 196.641C92.3467 196.463 90.0661 195.636 90.3597 194.795L90.769 193.619C90.4762 194.461 92.7568 195.288 95.8605 195.466C98.9649 195.646 101.72 195.109 102.013 194.268L101.603 195.445Z" fill="#876CB4"/>
<path d="M97.8961 193.993C98.0658 194.123 97.174 194.228 95.9062 194.228C94.6368 194.228 93.4722 194.123 93.3033 193.993C93.1344 193.863 94.0253 193.757 95.294 193.757C96.5626 193.757 97.7272 193.863 97.8961 193.993Z" fill="#F59F9F"/>
<path d="M94.3882 194.83C94.5571 194.961 95.7225 195.066 96.9911 195.066C98.259 195.066 99.1507 194.96 98.9811 194.83L97.8953 193.993C98.065 194.124 97.1733 194.228 95.9054 194.228C94.636 194.228 93.4714 194.124 93.3025 193.993L94.3882 194.83Z" fill="#E33636"/>
<path d="M112.645 188.865C112.704 189.07 111.925 188.626 110.905 187.872C109.884 187.119 109.009 186.342 108.951 186.136C108.893 185.931 109.673 186.375 110.693 187.128C111.713 187.883 112.588 188.659 112.645 188.865Z" fill="#F59F9F"/>
<path d="M109.327 187.455C109.385 187.661 110.26 188.438 111.28 189.191C112.301 189.944 113.08 190.39 113.021 190.184L112.645 188.866C112.704 189.071 111.924 188.628 110.904 187.873C109.883 187.12 109.008 186.343 108.95 186.137L109.327 187.455Z" fill="#E33636"/>
<path d="M97.357 197.831C97.416 198.035 96.6364 197.592 95.6163 196.838C94.5955 196.085 93.7208 195.308 93.6625 195.102C93.6042 194.898 94.3831 195.342 95.4046 196.096C96.424 196.848 97.2987 197.626 97.357 197.831Z" fill="#F59F9F"/>
<path d="M94.0379 196.42C94.0976 196.625 94.9717 197.402 95.9917 198.155C97.0125 198.908 97.7914 199.353 97.7331 199.148L97.3562 197.83C97.4152 198.034 96.6356 197.591 95.6156 196.837C94.5948 196.084 93.72 195.307 93.6617 195.102L94.0379 196.42Z" fill="#E33636"/>
<path d="M95.9474 189.229C96.1606 189.225 95.5278 189.861 94.5335 190.648C93.5393 191.437 92.5613 192.079 92.3474 192.081C92.1349 192.084 92.767 191.449 93.7613 190.659C94.7555 189.872 95.7343 189.231 95.9474 189.229Z" fill="#F59F9F"/>
<path d="M93.7184 192.063C93.9316 192.059 94.9103 191.419 95.9053 190.631C96.8996 189.845 97.5324 189.207 97.3185 189.21L95.9481 189.228C96.1613 189.225 95.5284 189.861 94.5342 190.648C93.5399 191.437 92.5619 192.078 92.348 192.081L93.7184 192.063Z" fill="#E33636"/>
<path d="M98.5916 200.272C98.8792 199.971 97.0545 198.952 94.5143 197.995C91.9748 197.038 89.6817 196.506 89.3955 196.807L89.8299 196.354C90.1183 196.053 92.4107 196.585 94.9494 197.54C97.4889 198.498 99.3151 199.518 99.0267 199.819L98.5916 200.272Z" fill="#EFEBF7"/>
<path d="M95.1132 197.37C92.2027 196.274 89.4951 195.748 89.0651 196.198C88.6351 196.646 90.6479 197.9 93.5576 198.995C96.4681 200.091 99.1764 200.616 99.6057 200.167C100.034 199.72 98.0229 198.466 95.1132 197.37ZM93.9072 198.629C91.3678 197.674 89.5423 196.653 89.8299 196.353C90.1183 196.052 92.4107 196.584 94.9494 197.54C97.4889 198.497 99.3151 199.517 99.0267 199.818C98.7398 200.118 96.446 199.587 93.9072 198.629Z" fill="#DFD0F7"/>
<path d="M99.0046 200.795C98.5746 201.244 95.867 200.718 92.9565 199.622C90.0468 198.526 88.0354 197.272 88.4647 196.823L89.0644 196.196C88.6343 196.645 90.6472 197.899 93.5569 198.993C96.4674 200.09 99.1757 200.615 99.605 200.166L99.0046 200.795Z" fill="#876CB4"/>
<path d="M108.671 189.191C108.697 188.595 106.578 188.618 103.937 189.242C101.296 189.865 99.1339 190.854 99.1058 191.45L99.1479 190.549C99.1729 189.952 101.337 188.964 103.978 188.341C106.62 187.717 108.74 187.694 108.714 188.29L108.671 189.191Z" fill="#EFEBF7"/>
<path d="M103.994 188.001C100.968 188.717 98.4811 190.018 98.4413 190.906C98.4007 191.796 100.823 191.938 103.848 191.223C106.875 190.509 109.363 189.207 109.402 188.318C109.441 187.429 107.021 187.289 103.994 188.001ZM103.881 190.499C101.24 191.123 99.1191 191.145 99.1479 190.549C99.173 189.952 101.337 188.964 103.978 188.341C106.62 187.717 108.74 187.694 108.714 188.29C108.686 188.886 106.521 189.875 103.881 190.499Z" fill="#DFD0F7"/>
<path d="M109.346 189.562C109.305 190.451 106.818 191.752 103.792 192.466C100.766 193.182 98.344 193.039 98.3838 192.15L98.4413 190.906C98.4008 191.796 100.823 191.938 103.848 191.223C106.875 190.509 109.363 189.207 109.402 188.317L109.346 189.562Z" fill="#876CB4"/>
<path d="M89.5771 202.015C91.3237 202.165 93.4708 199.961 95.6179 196.544C97.7642 193.128 101.381 188.967 109.349 188.384C116.188 187.886 119.684 189.882 120.582 192.429C121.482 194.975 121.69 198.288 119.284 198.82C116.879 199.351 93.7194 201.879 92.1712 202.023C90.6252 202.165 90.0765 202.165 89.5771 202.015Z" fill="#FFD999"/>
<path d="M108.016 204.228C104.471 203.23 102.374 199.145 104.621 195.422C106.866 191.697 110.336 191.111 116.704 190.521C125.298 189.724 130.685 190.897 133.031 193.843C135.378 196.789 131.598 201.48 125.298 202.255C119 203.031 109.863 204.577 108.016 204.228Z" fill="#FFB380"/>
<path d="M111.012 203.778C107.117 203.378 106.17 202.13 106.319 200.083C106.469 198.036 105.27 197.187 105.77 195.939C106.268 194.691 107.594 193.991 108.33 192.543C109.065 191.095 107.716 189.708 109.514 189.428C111.312 189.147 113.009 188.949 114.109 188.748C115.206 187.3 117.454 187.2 119.4 187.799C121.348 188.398 120.9 186.702 122.047 186.8C123.196 186.9 124.844 187.65 125.792 188.149C126.741 188.648 127.439 187.65 129.037 188.149C130.635 188.648 131.683 188.659 132.333 189.427C132.983 190.196 134.401 190.403 135.178 191.094C135.956 191.785 136.277 192.243 136.277 193.79C136.277 195.339 136.377 197.077 134.129 198.754C131.883 200.43 125.641 200.781 121.198 201.629C116.754 202.481 114.358 203.329 111.012 203.778Z" fill="#6BB451"/>
<path d="M131.225 190.128C129.626 189.629 128.927 190.628 127.98 190.128C127.031 189.629 125.383 188.88 124.234 188.78C123.087 188.681 123.536 190.378 121.589 189.778C119.641 189.179 117.394 189.279 116.296 190.727C115.198 190.927 113.499 191.126 111.701 191.407C109.905 191.686 111.252 193.074 110.517 194.522C109.781 195.97 108.455 196.668 107.957 197.917C107.457 199.166 108.656 200.015 108.506 202.061C108.472 202.52 108.498 202.937 108.596 203.313C109.233 203.521 110.028 203.677 111.012 203.779C114.357 203.33 116.754 202.481 121.198 201.632C125.641 200.784 131.882 200.433 134.129 198.757C136.376 197.08 136.277 195.341 136.277 193.793C136.277 193.164 136.221 192.721 136.106 192.363C135.501 192.099 134.887 191.842 134.52 191.408C133.87 190.638 132.822 190.627 131.225 190.128Z" fill="#3D843C"/>
<path d="M119.516 191.79C117.194 189.618 114.101 190.592 113.289 191.79C112.476 192.989 114.198 193.887 115.397 194.787C116.595 195.686 120.117 197.034 120.865 196.434C121.614 195.835 122.437 193.289 121.763 192.839C121.088 192.391 119.516 191.79 119.516 191.79Z" fill="#D04C44"/>
<path d="M113.024 197.444C110.702 195.272 107.609 196.245 106.796 197.444C105.984 198.642 107.705 199.541 108.904 200.439C110.102 201.338 113.624 202.686 114.372 202.086C115.12 201.488 115.944 198.94 115.27 198.491C114.596 198.042 113.024 197.444 113.024 197.444Z" fill="#D04C44"/>
<path d="M126.251 189.803C123.928 187.632 120.835 188.606 120.023 189.803C119.211 191.002 120.934 191.901 122.131 192.799C123.33 193.698 126.852 195.046 127.6 194.447C128.348 193.848 129.172 191.301 128.497 190.851C127.824 190.403 126.251 189.803 126.251 189.803Z" fill="#D04C44"/>
<path d="M119.502 197.107C119.699 196.542 117.662 195.96 114.952 195.803C112.243 195.645 109.888 195.975 109.691 196.539L109.988 195.69C110.183 195.124 112.538 194.794 115.248 194.951C117.958 195.108 119.996 195.693 119.8 196.255L119.502 197.107Z" fill="#EFEBF7"/>
<path d="M115.36 194.631C112.255 194.452 109.5 194.989 109.207 195.83C108.915 196.672 111.195 197.499 114.298 197.677C117.403 197.857 120.159 197.32 120.451 196.479C120.743 195.64 118.464 194.813 115.36 194.631ZM114.539 196.992C111.829 196.836 109.79 196.251 109.988 195.69C110.183 195.124 112.538 194.795 115.248 194.952C117.958 195.109 119.996 195.693 119.8 196.255C119.603 196.82 117.247 197.149 114.539 196.992Z" fill="#DFD0F7"/>
<path d="M120.042 197.657C119.749 198.497 116.996 199.034 113.889 198.853C110.786 198.675 108.505 197.848 108.798 197.007L109.207 195.831C108.915 196.673 111.196 197.5 114.299 197.678C117.404 197.858 120.16 197.321 120.452 196.48L120.042 197.657Z" fill="#876CB4"/>
<path d="M116.336 196.205C116.506 196.335 115.614 196.44 114.345 196.44C113.077 196.44 111.912 196.335 111.743 196.205C111.574 196.074 112.465 195.969 113.733 195.969C115.003 195.969 116.167 196.074 116.336 196.205Z" fill="#F59F9F"/>
<path d="M112.828 197.042C112.997 197.173 114.163 197.278 115.431 197.278C116.699 197.278 117.59 197.172 117.421 197.042L116.336 196.205C116.505 196.336 115.613 196.44 114.345 196.44C113.076 196.44 111.912 196.335 111.743 196.205L112.828 197.042Z" fill="#E33636"/>
<path d="M131.085 191.078C131.144 191.283 130.364 190.839 129.344 190.085C128.323 189.332 127.449 188.555 127.391 188.349C127.332 188.144 128.112 188.588 129.132 189.341C130.152 190.096 131.028 190.872 131.085 191.078Z" fill="#F59F9F"/>
<path d="M127.766 189.668C127.825 189.873 128.7 190.651 129.72 191.403C130.741 192.157 131.52 192.601 131.461 192.396L131.085 191.078C131.143 191.283 130.363 190.839 129.343 190.085C128.322 189.332 127.448 188.555 127.39 188.349L127.766 189.668Z" fill="#E33636"/>
<path d="M115.796 200.043C115.855 200.248 115.076 199.804 114.056 199.051C113.035 198.298 112.16 197.52 112.101 197.314C112.043 197.11 112.823 197.554 113.843 198.307C114.863 199.061 115.738 199.838 115.796 200.043Z" fill="#F59F9F"/>
<path d="M112.477 198.633C112.536 198.839 113.411 199.616 114.431 200.37C115.452 201.123 116.231 201.568 116.172 201.362L115.796 200.044C115.855 200.249 115.075 199.805 114.055 199.052C113.034 198.299 112.159 197.521 112.1 197.315L112.477 198.633Z" fill="#E33636"/>
<path d="M114.388 191.441C114.601 191.438 113.968 192.074 112.974 192.861C111.979 193.65 111.001 194.291 110.787 194.294C110.575 194.297 111.207 193.661 112.201 192.872C113.195 192.085 114.174 191.444 114.388 191.441Z" fill="#F59F9F"/>
<path d="M112.158 194.276C112.372 194.272 113.35 193.632 114.345 192.844C115.339 192.058 115.972 191.42 115.759 191.423L114.388 191.441C114.601 191.438 113.968 192.074 112.974 192.861C111.979 193.65 111.002 194.291 110.788 194.293L112.158 194.276Z" fill="#E33636"/>
<path d="M117.032 202.485C117.319 202.184 115.494 201.164 112.954 200.207C110.415 199.25 108.122 198.719 107.834 199.019L108.269 198.566C108.557 198.264 110.849 198.797 113.388 199.753C115.928 200.71 117.754 201.73 117.466 202.031L117.032 202.485Z" fill="#EFEBF7"/>
<path d="M113.553 199.582C110.642 198.486 107.934 197.96 107.505 198.41C107.075 198.858 109.087 200.111 111.996 201.206C114.908 202.303 117.616 202.828 118.045 202.379C118.473 201.931 116.463 200.678 113.553 199.582ZM112.347 200.841C109.807 199.885 107.982 198.865 108.269 198.565C108.558 198.264 110.85 198.796 113.389 199.752C115.929 200.709 117.755 201.729 117.467 202.03C117.179 202.33 114.886 201.799 112.347 200.841Z" fill="#DFD0F7"/>
<path d="M117.444 203.007C117.015 203.455 114.307 202.93 111.396 201.833C108.487 200.737 106.476 199.485 106.904 199.035L107.504 198.408C107.074 198.857 109.087 200.11 111.996 201.205C114.907 202.302 117.616 202.827 118.045 202.378L117.444 203.007Z" fill="#876CB4"/>
<path d="M127.111 191.403C127.137 190.806 125.018 190.83 122.377 191.454C119.736 192.077 117.573 193.066 117.545 193.662L117.588 192.761C117.613 192.164 119.777 191.176 122.418 190.553C125.06 189.929 127.18 189.906 127.154 190.502L127.111 191.403Z" fill="#EFEBF7"/>
<path d="M122.433 190.213C119.408 190.929 116.92 192.23 116.881 193.118C116.839 194.008 119.261 194.15 122.286 193.435C125.314 192.721 127.801 191.419 127.841 190.529C127.881 189.641 125.461 189.5 122.433 190.213ZM122.321 192.71C119.679 193.335 117.559 193.357 117.588 192.761C117.613 192.164 119.777 191.176 122.418 190.553C125.06 189.929 127.18 189.906 127.154 190.502C127.126 191.098 124.961 192.086 122.321 192.71Z" fill="#DFD0F7"/>
<path d="M127.785 191.774C127.744 192.663 125.257 193.964 122.23 194.678C119.205 195.394 116.783 195.251 116.823 194.362L116.881 193.118C116.839 194.008 119.261 194.15 122.286 193.435C125.314 192.721 127.801 191.419 127.841 190.529L127.785 191.774Z" fill="#876CB4"/>
<path d="M108.016 204.228C109.762 204.378 111.91 202.173 114.056 198.757C116.204 195.341 119.82 191.18 127.788 190.597C134.627 190.099 138.123 192.095 139.022 194.641C139.921 197.188 140.13 200.501 137.723 201.032C135.318 201.564 112.159 204.092 110.611 204.236C109.065 204.378 108.516 204.378 108.016 204.228Z" fill="#FFD999"/>
<path opacity="0.4" d="M111.459 224.704C111.459 225.945 105.573 226.951 98.3113 226.951C91.0499 226.951 85.1626 225.945 85.1626 224.704C85.1626 223.463 91.0499 222.457 98.3113 222.457C105.573 222.457 111.459 223.463 111.459 224.704Z" fill="#949290"/>
<path d="M111.459 220.479C111.459 220.479 109.148 225.394 98.3113 225.394C87.4741 225.394 85.1626 220.479 85.1626 220.479H111.459Z" fill="#1C1C1C"/>
<path d="M85.1677 220.49C85.1876 220.532 85.2998 220.744 85.5446 221.061C86.9534 222.042 92.1348 222.77 98.312 222.77C104.49 222.77 109.669 222.042 111.079 221.061C111.324 220.744 111.435 220.531 111.456 220.49C111.456 220.486 111.454 220.483 111.454 220.479H85.1699C85.1692 220.483 85.1685 220.486 85.1677 220.49Z" fill="#737373"/>
<path d="M111.459 220.373C111.459 221.614 105.573 222.619 98.3113 222.619C91.0499 222.619 85.1626 221.614 85.1626 220.373C85.1626 219.131 91.0499 218.126 98.3113 218.126C105.573 218.127 111.459 219.132 111.459 220.373Z" fill="#4A4A4A"/>
<path d="M98.3115 222.619C103.143 222.619 107.362 222.174 109.648 221.511C109.349 220.485 104.388 219.669 98.3115 219.669C92.2353 219.669 87.273 220.485 86.975 221.511C89.2607 222.174 93.4804 222.619 98.3115 222.619Z" fill="#F6BF25"/>
<path opacity="0.4" d="M82.0456 222.138C82.0456 223.379 76.159 224.385 68.8976 224.385C61.6355 224.385 55.7489 223.379 55.7489 222.138C55.7489 220.897 61.6355 219.891 68.8976 219.891C76.159 219.891 82.0456 220.897 82.0456 222.138Z" fill="#949290"/>
<path d="M82.0456 217.915C82.0456 217.915 79.734 222.829 68.8976 222.829C58.0605 222.829 55.7489 217.915 55.7489 217.915H82.0456Z" fill="#1C1C1C"/>
<path d="M55.754 217.925C55.7739 217.967 55.886 218.18 56.1302 218.496C57.5397 219.478 62.7204 220.205 68.8983 220.205C75.0762 220.205 80.2554 219.478 81.6657 218.496C81.9106 218.179 82.0212 217.967 82.0426 217.925C82.0426 217.921 82.0404 217.919 82.0404 217.915H55.7562C55.7555 217.919 55.7548 217.921 55.754 217.925Z" fill="#737373"/>
<path d="M82.0456 217.808C82.0456 219.049 76.159 220.055 68.8976 220.055C61.6355 220.055 55.7489 219.049 55.7489 217.808C55.7489 216.567 61.6355 215.562 68.8976 215.562C76.159 215.562 82.0456 216.568 82.0456 217.808Z" fill="#4A4A4A"/>
<path d="M68.8976 220.055C73.7287 220.055 77.9484 219.61 80.2341 218.946C79.9354 217.92 74.9738 217.104 68.8976 217.104C62.8208 217.104 57.8591 217.92 57.5612 218.945C59.8462 219.61 64.0658 220.055 68.8976 220.055Z" fill="#E33636"/>
</svg>
