<svg width="578" height="663" viewBox="0 0 578 663" fill="none" xmlns="http://www.w3.org/2000/svg">
<path d="M311.626 493.916C293.869 473.258 264.258 443.552 264.258 443.552V366.314H316.138L311.626 493.916Z" fill="#FFC9AF"/>
<path opacity="0.4" d="M311.626 493.916C293.869 473.258 264.258 443.552 264.258 443.552V366.314H316.138L311.626 493.916Z" fill="#D04C44"/>
<path d="M224.086 252.451C224.086 252.451 254.52 266.633 258.942 268.778C263.364 270.923 267.026 273.563 269.008 279.999C270.99 286.435 273.736 314.987 273.736 314.987C273.736 314.987 294.936 351.295 298.597 363.013C302.257 374.731 302.409 423.745 286.852 468.964C285.936 525.076 286.24 565.675 286.24 565.675C286.24 565.675 293.256 583.17 292.646 586.8C292.037 590.431 284.106 600.333 284.106 600.333C284.106 600.333 196.864 623.932 75.1507 600.333C75.1507 600.333 65.0842 584.16 66.4568 580.2C67.8296 576.239 78.8112 553.464 78.8112 553.464C78.8112 553.464 43.1208 387.602 36.7148 348.488C30.3089 309.375 33.9694 286.352 59.8221 275.707C85.6748 265.062 121.537 248.706 121.537 248.706L224.086 252.451Z" fill="#FF9EBD"/>
<path d="M168.092 23.6981C161.172 1.25179 139.955 -4.52317 119.906 3.31541C99.8572 11.154 83.0809 37.8899 82.1658 77.4986C81.2506 117.107 77.8939 182.937 62.3365 192.437C70.8784 192.035 79.1147 181.107 79.1147 181.107C79.1147 181.107 85.8263 228.119 71.1841 239.784C89.1812 241.546 101.995 232.1 105.959 223.124C105.654 234.284 103.518 242.206 103.518 242.206C103.518 242.206 117.893 235.401 121.535 223.124C127.923 223.392 145.369 211.184 145.369 182.63C145.369 154.076 145.369 25.6785 145.369 25.6785L168.092 23.6981Z" fill="#404040"/>
<path d="M137.011 158.88C140.011 180.385 141.505 200.604 141.933 215.394C142.359 230.182 138.514 241.773 121.536 248.705C124.631 256.446 135.56 287.369 182.755 287.369C222.372 287.369 224.085 252.45 224.085 252.45C224.085 252.45 216.746 247.398 211.105 243.007C205.464 238.616 204.929 233.881 204.929 224.751C204.929 215.625 204.929 158.878 204.929 158.878L137.011 158.88Z" fill="#FFC9AF"/>
<path opacity="0.5" d="M141.518 175.307V158.881H204.93C204.93 158.881 204.93 215.626 204.93 224.754C204.93 229.313 205.064 232.777 205.9 235.649C200.605 240.713 193.381 241.008 185.022 237.195C169.48 230.109 150.291 208.006 141.518 175.307Z" fill="#D04C44"/>
<path d="M256.349 144.451C256.349 144.451 253.468 160.7 248.451 178.164C243.436 195.629 229.832 219.915 201.182 222.625C198.193 222.518 155.453 215.986 137.39 165.329C129.027 154.999 108.998 117.22 127.53 68.3446C146.058 19.4654 224.218 19.501 250.812 57.8938C269.091 84.2792 261.946 125.144 256.349 144.451Z" fill="#FFC9AF"/>
<path d="M186.706 121.931C196.044 123.664 199.43 132.51 198.145 140.476C198.145 140.476 194.192 145.175 184.673 144.161C175.159 143.145 171.202 136.095 171.67 130.722C171.67 130.722 175.739 121.426 186.706 121.931Z" fill="white"/>
<path d="M186.952 125.586C192.343 126.166 196.276 131.355 195.745 137.189C195.52 139.635 194.539 141.8 193.082 143.452C190.995 144.123 188.224 144.539 184.675 144.161C181.901 143.863 179.615 143.046 177.759 141.915C176.587 139.966 175.994 137.591 176.22 135.102C176.756 129.274 181.56 125.012 186.952 125.586Z" fill="#404040"/>
<path d="M175.877 128.681C175.712 130.523 177.116 132.169 179.009 132.377C180.91 132.575 182.585 131.254 182.742 129.418C182.922 127.578 181.509 125.917 179.622 125.721C177.724 125.529 176.055 126.848 175.877 128.681Z" fill="white"/>
<path d="M199.147 140.249C198.682 132.697 194.699 124.968 186.337 123.942C177.978 122.91 173.132 130.028 172.368 132.454C172.365 135.745 172.734 137.753 172.734 137.753C172.734 137.753 169.123 135.258 168.093 131.271C170.928 125.516 176.36 119.25 186.61 120.349C194.266 121.165 201.453 128.968 199.147 140.249Z" fill="#242424"/>
<path d="M202.756 116.088C199.77 115.499 184.929 109.439 182.172 108.413C179.394 107.399 176.885 106.865 177.344 106.516C177.805 106.169 189.162 104.29 196.988 106.574C204.813 108.859 202.756 116.088 202.756 116.088Z" fill="#242424"/>
<path d="M247.173 125.537C240.411 127.048 237.654 135.778 237.995 143.124C237.995 143.124 240.037 147.544 245.975 147.871C252.461 148.235 256.568 142.034 257.266 136.378C257.266 136.378 255.853 125.409 247.173 125.537Z" fill="white"/>
<path d="M246.908 129.275C251.075 128.865 254.104 134.044 253.478 140.413C253.266 142.611 252.644 144.591 251.76 146.2C250.136 147.33 248.2 147.99 245.976 147.867C243.773 147.744 242.109 147.059 240.882 146.245C240.205 144.671 239.814 142.767 239.841 140.678C239.909 134.931 242.985 129.679 246.908 129.275Z" fill="#404040"/>
<path d="M254.746 133.552C254.528 135.618 253.156 137.279 251.708 137.337C250.269 137.38 249.23 135.855 249.38 133.877C249.51 131.851 250.826 130.051 252.33 129.93C253.868 129.801 254.944 131.445 254.746 133.552Z" fill="white"/>
<path d="M237.424 142.809C238.105 136.012 241.208 128.514 247.196 127.831C253.738 127.09 256.251 135.49 256.371 138.159C255.749 141.538 255.11 143.483 255.11 143.483C255.11 143.483 258.346 141.413 260.028 137.329C258.985 130.578 255.795 122.69 247.463 123.692C241.837 124.365 236.601 132.204 237.424 142.809Z" fill="#242424"/>
<path d="M238.239 118.829C240.681 118.54 251.474 113.947 253.795 113.21C256.129 112.472 258.188 112.186 257.867 111.796C257.547 111.4 250.426 109.024 243.924 110.517C237.427 112.01 238.239 118.829 238.239 118.829Z" fill="#242424"/>
<path d="M221.953 161.444C222.179 166.387 222.876 170.46 222.076 172.132C221.278 173.801 217.671 176.99 217.969 177C218.265 177.012 225.477 175.893 225.438 172.33C225.4 168.765 222.292 160.081 221.953 161.444Z" fill="#D0645D"/>
<path d="M213.381 175.309C213.381 175.309 214.214 172.585 212.274 172.354C210.334 172.124 208.399 174.324 208.399 174.324L213.381 175.309Z" fill="#D0645D"/>
<path d="M100.314 99.1175C103.213 71.0626 105.045 36.2406 146.528 13.9587C176.206 -1.98182 223.552 -3.53449 255.582 34.0938C270.072 38.3835 285.781 55.7123 284.714 84.2642C283.647 112.816 264.748 121.023 257.267 120.219C258.609 116.155 259.583 91.8295 254.421 79.0577C252.876 86.0387 245.618 112.206 222.79 116.777H220.502C220.502 116.777 222.485 109.02 222.485 103.078C215.621 113.476 206.47 116.118 201.436 116.777H199.584C199.584 116.777 203.878 102.75 204.03 86.5754C195.398 106.178 181.761 116.06 175.203 116.088C167.882 121.069 151.409 122.075 151.409 122.075C151.409 122.075 146.224 134.359 129.904 136.708L137.39 165.33L139.654 181.106C139.654 181.106 116.786 181.634 103.517 162.161C90.2471 142.687 92.8388 117.601 100.314 99.1175Z" fill="#404040"/>
<path d="M125.776 178.259L123.188 177.212L120.695 176.016C119.068 175.142 117.443 174.247 115.929 173.162C115.153 172.655 114.395 172.122 113.685 171.51C112.973 170.906 112.206 170.383 111.544 169.72L109.518 167.785C108.862 167.121 108.271 166.383 107.647 165.688C107.005 165.004 106.435 164.256 105.901 163.475C105.372 162.717 104.755 161.927 104.298 161.202C103.34 159.519 102.217 157.853 101.486 156.14C101.093 155.278 100.643 154.466 100.295 153.577L99.2643 150.894C98.8873 150.016 98.6658 149.07 98.3711 148.159C98.1057 147.236 97.7726 146.337 97.5951 145.386L96.9618 142.568C96.7751 141.623 96.6635 140.661 96.5097 139.71C96.3432 138.762 96.2315 137.801 96.1711 136.835C96.0997 135.87 95.9881 134.91 95.9497 133.943C95.9112 132.006 95.8289 130.075 95.9515 128.137C95.9753 126.202 96.2205 124.275 96.3853 122.348C96.6891 120.435 96.885 118.508 97.2711 116.608C97.5823 114.697 98.0509 112.822 98.4883 110.938C98.9697 109.071 99.4034 107.178 100.006 105.344C100.513 103.472 101.171 101.66 101.741 99.7984L101.742 99.7945L101.849 99.4954L101.865 99.3033L102.476 91.8133C102.711 89.3298 102.896 86.8345 103.172 84.3609C103.485 81.8973 103.695 79.4059 104.089 76.96C104.517 74.5241 104.801 72.0406 105.35 69.6304L106.155 66.0102C106.432 64.8041 106.657 63.5802 107.054 62.4157L108.13 58.8766C108.511 57.7062 108.785 56.4863 109.296 55.3713L110.682 51.955C111.17 50.8341 111.547 49.6399 112.131 48.5704L115.579 42.0905L115.598 42.0548C115.689 41.8845 115.636 41.6686 115.479 41.5716C115.327 41.4765 115.133 41.53 115.041 41.6884L111.286 48.0734C110.647 49.1329 110.22 50.3152 109.677 51.4322L108.125 54.8346C107.557 55.9496 107.232 57.1675 106.794 58.3419L105.551 61.8929C105.097 63.0653 104.819 64.2931 104.486 65.5052L103.512 69.1531C102.855 71.5871 102.465 74.0765 101.929 76.5422C101.426 79.0138 101.109 81.5111 100.69 83.9965C100.309 86.4879 100.02 88.9793 99.6798 91.4707L98.761 98.931L98.8818 98.4418L98.88 98.4458C98.0582 100.278 97.2546 102.127 96.5957 104.041C95.8929 105.936 95.3603 107.896 94.7819 109.845C94.3244 111.83 93.843 113.808 93.519 115.828C93.1072 117.826 92.9224 119.872 92.6881 121.902C92.5728 123.95 92.3788 125.99 92.4154 128.045C92.3513 130.095 92.4996 132.145 92.6021 134.193C92.6772 135.215 92.8236 136.231 92.9334 137.25C93.0286 138.272 93.1786 139.284 93.3836 140.288C93.5777 141.295 93.7314 142.311 93.9583 143.305L94.7216 146.273C94.943 147.273 95.3237 148.22 95.6348 149.191C95.9789 150.145 96.2389 151.137 96.6781 152.052L97.8916 154.835C98.3034 155.76 98.8342 156.643 99.3009 157.544C100.22 159.41 101.353 160.921 102.396 162.58C103.015 163.472 103.628 164.173 104.244 164.975C104.841 165.769 105.478 166.525 106.183 167.213C106.871 167.914 107.524 168.654 108.242 169.316L110.456 171.219C111.187 171.861 112.016 172.36 112.786 172.934C113.559 173.514 114.371 174.017 115.204 174.487C116.828 175.503 118.543 176.311 120.261 177.095L122.89 178.149L125.532 179.024C125.728 179.089 125.939 178.97 125.999 178.755C126.061 178.551 125.961 178.335 125.776 178.259Z" fill="#242424"/>
<path d="M131.888 133.629C137.765 134.564 148.329 148.581 142.869 164.801C154.46 156.053 155.529 125.059 131.888 129.252V133.629Z" fill="#404040"/>
<path d="M135.605 138.925C134.257 128.187 131.987 122.44 126.353 122.086C120.72 121.729 111.168 130.669 112.663 140.785C114.804 155.303 122.726 160.441 127.126 163.269C131.529 166.097 137.348 166.667 137.39 165.33C137.428 163.998 135.605 138.925 135.605 138.925Z" fill="#FFC9AF"/>
<path d="M214.707 185.103C221.035 185.331 224.322 186.094 224.472 189.559C224.622 193.025 220.123 199.957 211.658 199.957C199.913 199.957 195.336 192.528 195.718 188.486C196.101 184.444 205.556 184.773 214.707 185.103Z" fill="#7A1C1C"/>
<path d="M195.962 190.73C204.486 186.765 217.061 188.169 222.691 194.403C220.662 197.267 216.932 199.957 211.66 199.957C201.861 199.955 197.066 194.792 195.962 190.73Z" fill="#F65B55"/>
<path d="M223.868 187.616C222.289 188.422 219.153 189.276 212.918 189.188C203.786 189.062 198.577 189.151 195.913 187.751C197.338 184.489 206.155 184.794 214.708 185.103C219.605 185.279 222.658 185.792 223.868 187.616Z" fill="white"/>
<path d="M158.949 121.209C154.68 121.871 151.41 122.073 151.41 122.073C151.41 122.073 162.239 106.376 169.255 83.1055C169.255 83.1055 167.771 104.991 158.949 121.209Z" fill="#242424"/>
<path d="M218.255 288.088C218.255 288.088 233.47 261.599 235.185 258.876C236.9 256.153 239.074 254.295 241.477 253.553C243.88 252.81 256.348 248.602 259.895 246.869C263.442 245.136 264.74 249.221 262.546 253.553C260.353 257.886 255.891 260.237 253.832 260.979C253.03 267.293 249.369 291.801 218.255 288.088Z" fill="#FFC9AF"/>
<path opacity="0.3" d="M218.255 288.088C218.255 288.088 233.47 261.599 235.185 258.876C236.9 256.153 239.074 254.295 241.477 253.553C243.88 252.81 256.348 248.602 259.895 246.869C263.442 245.136 264.74 249.221 262.546 253.553C260.353 257.886 255.891 260.237 253.832 260.979C253.03 267.293 249.369 291.801 218.255 288.088Z" fill="#D04C44"/>
<path d="M227.807 311.987C227.016 313.478 227.013 314.807 227.651 315.668C228.125 316.314 229.057 317.946 230.578 319.944L277.812 316.698C280.449 316.698 283.707 314.591 285.089 311.985L337.631 219.34C336.613 217.757 335.359 216.066 334.82 215.201C334.36 214.478 333.494 214.04 332.29 214.04H284.566C281.926 214.04 278.67 216.147 277.288 218.751L227.807 311.987Z" fill="#404040"/>
<path opacity="0.6" d="M227.807 311.987C227.016 313.478 227.013 314.807 227.651 315.668C228.125 316.314 229.057 317.946 230.578 319.944L277.812 316.698C280.449 316.698 283.707 314.591 285.089 311.985L337.631 219.34C336.613 217.757 335.359 216.066 334.82 215.201C334.36 214.478 333.494 214.04 332.29 214.04H284.566C281.926 214.04 278.67 216.147 277.288 218.751L227.807 311.987Z" fill="#242424"/>
<path d="M230.653 316.17C229.275 318.772 230.294 320.882 232.933 320.882H280.658C283.295 320.882 286.553 318.774 287.935 316.17L337.413 222.935C338.797 220.333 337.775 218.224 335.136 218.224H287.412C284.774 218.224 281.518 220.331 280.133 222.935L230.653 316.17Z" fill="#404040"/>
<path d="M313.697 235.258C312.423 237.468 313.532 239.261 316.17 239.261H320.553C323.191 239.261 326.361 237.468 327.635 235.258L332.441 226.92C333.711 224.706 332.606 222.918 329.967 222.918H325.585C322.947 222.918 319.776 224.706 318.504 226.92L313.697 235.258Z" fill="#242424"/>
<path d="M323.791 227.53C323.03 228.855 323.691 229.922 325.267 229.922C326.842 229.922 328.737 228.855 329.498 227.53C330.261 226.215 329.601 225.146 328.021 225.146C326.443 225.146 324.551 226.215 323.791 227.53Z" fill="#242424"/>
<path d="M319.658 234.701C318.9 236.022 319.557 237.093 321.137 237.093C322.711 237.093 324.609 236.022 325.366 234.701C326.124 233.384 325.465 232.312 323.891 232.312C322.312 232.312 320.419 233.384 319.658 234.701Z" fill="#242424"/>
<path d="M60.0512 521.774C47.0855 500.651 31.5281 451.47 31.5281 395.688H101.994L104.434 443.877C104.434 443.877 94.0651 487.445 60.0512 521.774Z" fill="#FFC9AF"/>
<path opacity="0.3" d="M61.6424 520.122C57.8336 511.193 51.4112 465.88 88.3718 415.238C92.7883 409.186 97.3695 402.831 102.024 396.319L104.431 443.882C104.431 443.882 94.3751 486.065 61.6424 520.122Z" fill="#D04C44"/>
<path d="M310.897 293.378C310.897 293.378 310.196 309.625 313.166 322.457C316.137 335.288 349.082 419.787 355.488 440.582C361.894 461.377 363.724 473.919 361.894 488.772C360.063 503.625 355.792 519.467 347.861 518.148C339.93 516.829 310.794 503.956 305.076 479.86C299.359 455.764 275.53 322.249 275.53 322.249V293.38L310.897 293.378Z" fill="#FFC9AF"/>
<path opacity="0.4" d="M306.071 307.156C303.937 324.922 295.531 342.437 280.57 350.286C277.557 333.607 275.529 322.247 275.529 322.247V293.378H306.069V307.156H306.071Z" fill="#D04C44"/>
<path d="M293.751 268.529C297.502 266.216 299.528 264.691 302.76 264.443C305.992 264.195 314.915 264.318 316.974 264.443C319.033 264.568 322.214 267.235 322.511 269.553C322.807 271.87 324.008 280.039 323.065 281.772C322.121 283.505 318.231 285.663 317.774 287.369C317.316 289.074 317.889 293.159 316.401 295.635C314.913 298.11 309.88 301.206 309.422 302.196C308.965 303.186 305.304 312.098 303.587 315.194C301.871 318.289 297.752 321.63 291.462 322.25C285.171 322.87 278.006 321.878 275.526 322.25C273.045 322.622 271.557 319.402 271.902 316.927C272.246 314.451 273.774 311.976 275.526 310.365C276.133 303.309 277.506 299.101 280.022 295.635C280.709 289.321 281.058 284.743 284.031 283.01C285.859 277.441 289.088 271.406 293.751 268.529Z" fill="#FFC9AF"/>
<path opacity="0.5" d="M271.905 316.927C272.249 314.451 273.778 311.975 275.529 310.365C276.137 303.309 277.51 299.101 280.026 295.635C280.713 289.321 281.062 284.742 284.035 283.01C285.861 277.439 289.09 271.406 293.753 268.527C297.416 266.267 299.442 264.772 302.544 264.471C304.918 265.528 306.748 266.398 307.385 266.794C309.77 268.279 309.77 270.632 309.197 272.487C308.635 274.308 306.102 277.769 303.955 278.027C307.391 278.72 311.593 280.275 310.799 280.657C310.182 280.952 306.664 280.518 303.937 280.12C303.73 283.241 302.001 287.232 300.617 288.606C299.488 289.729 298.17 289.949 297.394 289.969C300.767 290.69 304.704 292.167 303.933 292.539C303.344 292.825 300.097 292.436 297.428 292.054C297.727 293.258 297.924 294.771 297.527 296.005C296.726 298.481 295.239 300.833 294.782 301.699C294.456 302.319 293.036 302.929 292.24 303.232C295.618 303.951 299.575 305.436 298.803 305.808C298.161 306.117 294.37 305.632 291.605 305.222C291.489 306.226 291.233 307.458 290.662 308.383C289.518 310.241 287.23 312.591 284.942 313.829C283.253 314.742 276.644 317.477 272.099 319.293C271.885 318.517 271.799 317.689 271.905 316.927Z" fill="#D04C44"/>
<path d="M204.184 300.462C209.446 294.026 241.705 258.501 243.535 257.758C245.365 257.015 273.392 255.53 276.366 255.778C279.341 256.025 298.251 264.072 300.636 265.557C303.021 267.042 303.021 269.395 302.448 271.251C301.875 273.106 299.245 276.697 297.07 276.822C297.872 279.917 295.582 285.664 293.867 287.369C292.151 289.075 289.978 288.704 289.978 288.704C289.978 288.704 291.58 292.295 290.78 294.77C289.98 297.246 288.492 299.599 288.034 300.464C287.577 301.33 284.945 302.197 284.945 302.197C284.945 302.197 285.06 305.292 283.914 307.148C282.769 309.004 280.483 311.357 278.195 312.594C275.907 313.832 264.581 318.413 261.607 319.526C258.633 320.639 234.724 330.543 226.488 333.141C218.136 348.367 152.475 475.98 121.131 499.003C89.7878 522.026 63.02 526.234 60.0458 521.778C57.0716 517.322 52.4959 468.306 97.7953 419.785C143.095 371.265 204.184 300.462 204.184 300.462Z" fill="#FFC9AF"/>
<path opacity="0.5" d="M296.374 275.975C296.374 275.975 295.784 275.777 294.741 275.476C293.696 275.195 292.214 274.728 290.418 274.284C288.624 273.821 286.523 273.31 284.266 272.823C283.701 272.698 283.128 272.571 282.548 272.444L281.669 272.262L281.226 272.173L281.056 272.145L280.999 272.141L280.886 272.133L280.661 272.118C279.486 271.999 278.168 272.013 276.857 272.072C275.525 272.108 274.361 272.228 273.126 272.302C271.908 272.389 270.722 272.533 269.573 272.644C267.271 272.888 265.133 273.183 263.301 273.46C259.642 274.035 257.217 274.555 257.217 274.555C256.95 274.613 256.776 274.892 256.827 275.181C256.873 275.435 257.08 275.611 257.31 275.615C257.31 275.615 257.925 275.619 259.005 275.625C260.081 275.609 261.619 275.583 263.464 275.558C265.303 275.492 267.45 275.415 269.749 275.332C270.894 275.282 272.079 275.229 273.283 275.175C274.463 275.13 275.747 275.033 276.874 275.027C278.02 275.009 279.156 274.912 280.395 275.033L280.622 275.047L280.736 275.053L280.793 275.056H280.807C280.837 275.06 280.6 275.023 280.707 275.041L280.734 275.045L281.179 275.128L282.059 275.286C282.645 275.385 283.225 275.482 283.792 275.577C286.067 275.967 288.202 276.278 290.036 276.516C291.864 276.777 293.407 276.894 294.478 277.025C295.552 277.136 296.171 277.17 296.171 277.17C296.482 277.191 296.751 276.936 296.773 276.599C296.786 276.316 296.612 276.063 296.374 275.975Z" fill="#D04C44"/>
<path opacity="0.5" d="M289.177 287.971C289.177 287.971 288.741 287.886 287.98 287.791C287.218 287.714 286.131 287.536 284.826 287.443C283.519 287.328 281.996 287.227 280.364 287.175L279.747 287.154L279.434 287.142L279.357 287.138L279.185 287.148L279.167 287.152L279.128 287.157L278.973 287.185C278.559 287.266 278.144 287.348 277.721 287.429C276.873 287.619 276.033 287.718 275.158 287.985C273.418 288.455 271.683 288.952 270.07 289.459C268.483 289.97 267.045 290.481 265.802 290.948C263.327 291.889 261.71 292.641 261.71 292.641C261.457 292.76 261.343 293.077 261.45 293.348C261.538 293.566 261.753 293.691 261.962 293.669C261.962 293.669 262.4 293.624 263.159 293.509C263.911 293.374 265 293.226 266.289 292.982C267.576 292.748 269.082 292.421 270.661 292.071C272.219 291.738 273.864 291.34 275.504 290.912C276.31 290.695 277.199 290.528 278.028 290.336C278.447 290.241 278.865 290.148 279.277 290.055L279.43 290.015L279.469 290.007L279.489 290.001C279.191 290.019 279.412 290.007 279.348 290.011H279.359L279.436 290.007L279.749 289.995L280.366 289.974C281.998 289.924 283.521 289.821 284.828 289.706C286.133 289.613 287.22 289.435 287.981 289.358C288.743 289.263 289.178 289.178 289.178 289.178C289.488 289.118 289.695 288.797 289.64 288.463C289.594 288.211 289.404 288.017 289.177 287.971Z" fill="#D04C44"/>
<path opacity="0.5" d="M284.067 301.47C284.067 301.47 282.791 301.343 280.902 301.452C279.014 301.545 276.517 301.862 274.052 302.423C272.818 302.68 271.594 303.043 270.455 303.389C269.315 303.724 268.264 304.189 267.375 304.556C266.483 304.906 265.762 305.403 265.268 305.677C264.781 305.984 264.503 306.162 264.503 306.162C264.269 306.31 264.19 306.637 264.327 306.891C264.434 307.085 264.631 307.178 264.825 307.148L264.897 307.136C264.897 307.136 265.204 307.087 265.744 307C266.291 306.922 266.994 306.703 267.92 306.576C268.845 306.447 269.871 306.19 271.023 306.011C272.159 305.792 273.371 305.556 274.582 305.318C277.004 304.813 279.425 304.235 281.228 303.694C283.031 303.165 284.224 302.67 284.224 302.67C284.521 302.546 284.669 302.187 284.556 301.866C284.473 301.639 284.277 301.492 284.067 301.47Z" fill="#D04C44"/>
<path d="M39.9209 292.294C32.1385 305.412 16.5811 378.936 12.6918 409.633L32.5576 420.755L31.9097 407.9C31.9097 407.9 48.8398 402.454 105.35 408.643C105.35 408.643 104.892 356.409 89.7922 305.908C89.7922 305.908 70.8105 289.573 39.9209 292.294Z" fill="#FF9EBD"/>
<path d="M31.9097 407.899L32.5576 420.754L16.9124 411.995C20.3368 410.603 25.2914 409.171 31.9097 407.899Z" fill="#DB7093"/>
<path d="M91.3863 320.498C91.3863 320.498 92.5229 325.206 94.2269 332.266C94.6387 334.024 95.0835 335.93 95.5538 337.944C96.0096 339.96 96.4653 342.093 96.9851 344.277C97.45 346.479 97.9314 348.755 98.4182 351.066C98.9069 353.375 99.3498 355.734 99.7946 358.091C100.28 360.44 100.688 362.802 101.048 365.139C101.488 367.46 101.828 369.759 102.148 371.989C102.494 374.217 102.804 376.372 103.047 378.426C103.312 380.48 103.605 382.42 103.757 384.223C103.962 386.027 104.152 387.68 104.321 389.146C104.423 390.615 104.562 391.903 104.658 392.962C104.87 395.085 105.024 396.307 105.024 396.307L105.026 396.327C105.051 396.523 105.218 396.658 105.397 396.632C105.545 396.608 105.659 396.483 105.677 396.331C105.677 396.331 105.842 395.117 106.076 392.978C106.182 391.909 106.334 390.606 106.449 389.108C106.528 387.611 106.6 385.92 106.634 384.07C106.698 382.22 106.709 380.214 106.601 378.099C106.523 375.982 106.488 373.738 106.235 371.445C106.032 369.144 105.836 366.759 105.492 364.361C105.168 361.957 104.797 359.525 104.348 357.106C103.969 354.674 103.382 352.288 102.864 349.929C102.381 347.559 101.694 345.285 101.107 343.067C100.474 340.863 99.8422 338.74 99.1522 336.757C98.4841 334.769 97.8325 332.9 97.1443 331.206C94.5343 324.38 92.0745 320.181 92.0745 320.181C91.961 319.989 91.7267 319.932 91.5528 320.052C91.4082 320.148 91.3478 320.332 91.3863 320.498Z" fill="#DB7093"/>
<path d="M116.288 333.728C116.288 333.728 116.228 334.59 116.124 336.097C116.085 336.839 116.034 337.74 115.979 338.774C115.897 339.812 115.831 340.976 115.789 342.242C115.723 343.507 115.653 344.874 115.576 346.324C115.478 347.767 115.436 349.288 115.388 350.859C115.269 352.429 115.146 354.047 115.093 355.693C115.044 357.341 114.936 359.01 114.795 360.674C114.676 362.341 114.555 364.007 114.438 365.649C114.394 367.3 114.209 368.907 114.021 370.459C113.83 372.012 113.743 373.533 113.603 374.971C113.543 375.69 113.477 376.391 113.442 377.076C113.378 377.753 113.263 378.395 113.181 379.019C112.469 383.996 112.297 387.495 112.297 387.495L112.295 387.531C112.286 387.729 112.425 387.897 112.608 387.907C112.743 387.915 112.866 387.832 112.923 387.707C112.923 387.707 114.33 384.615 115.988 379.708C116.437 378.488 116.825 377.143 117.107 375.69C117.416 374.24 117.797 372.719 118.093 371.125C118.408 369.532 118.752 367.887 118.908 366.191C119.078 364.494 119.25 362.771 119.42 361.05C119.647 359.329 119.62 357.592 119.656 355.891C119.702 354.188 119.682 352.511 119.658 350.891C119.599 349.271 119.471 347.706 119.334 346.227C119.219 344.747 119.094 343.351 118.862 342.068C118.503 339.503 118.06 337.382 117.676 335.909C117.507 335.17 117.332 334.601 117.211 334.217C117.092 333.831 117.028 333.625 117.028 333.625C116.962 333.409 116.748 333.292 116.547 333.364C116.396 333.417 116.298 333.568 116.288 333.728Z" fill="#DB7093"/>
<path d="M299.046 249.001C304.276 249.001 306.509 246.585 306.509 240.927C306.509 240.408 306.897 239.988 307.376 239.988C307.856 239.988 308.244 240.408 308.244 240.927C308.244 246.585 310.477 249.001 315.706 249.001C316.185 249.001 316.573 249.421 316.573 249.94C316.573 250.459 316.185 250.879 315.706 250.879C310.477 250.879 308.244 253.295 308.244 258.953C308.244 259.472 307.856 259.892 307.376 259.892C306.897 259.892 306.509 259.472 306.509 258.953C306.509 253.295 304.276 250.879 299.046 250.879C298.567 250.879 298.179 250.459 298.179 249.94C298.179 249.421 298.567 249.001 299.046 249.001Z" fill="white"/>
<path d="M342.288 235.751C345.537 235.751 346.925 234.25 346.925 230.735C346.925 230.414 347.166 230.152 347.463 230.152C347.761 230.152 348.003 230.414 348.003 230.735C348.003 234.25 349.39 235.751 352.639 235.751C352.935 235.751 353.177 236.012 353.177 236.335C353.177 236.656 352.935 236.918 352.639 236.918C349.39 236.918 348.003 238.419 348.003 241.934C348.003 242.257 347.761 242.516 347.463 242.516C347.166 242.516 346.925 242.257 346.925 241.934C346.925 238.419 345.537 236.918 342.288 236.918C341.992 236.918 341.75 236.656 341.75 236.335C341.75 236.012 341.992 235.751 342.288 235.751Z" fill="white"/>
<path d="M301.345 210.344C304.594 210.344 305.981 208.843 305.981 205.327C305.981 205.007 306.223 204.745 306.519 204.745C306.818 204.745 307.059 205.007 307.059 205.327C307.059 208.843 308.447 210.344 311.695 210.344C311.992 210.344 312.233 210.605 312.233 210.928C312.233 211.249 311.992 211.51 311.695 211.51C308.447 211.51 307.059 213.011 307.059 216.527C307.059 216.85 306.818 217.109 306.519 217.109C306.223 217.109 305.981 216.85 305.981 216.527C305.981 213.011 304.594 211.51 301.345 211.51C301.049 211.51 300.807 211.249 300.807 210.928C300.807 210.605 301.049 210.344 301.345 210.344Z" fill="white"/>
<mask id="mask0_366_1316" style="mask-type:luminance" maskUnits="userSpaceOnUse" x="0" y="515" width="578" height="168">
<path d="M0.000183105 515.127H577.223V682.998H0.000183105V515.127Z" fill="white"/>
</mask>
<g mask="url(#mask0_366_1316)">
<path d="M316.258 575.977H391.157V683.004H316.258V575.977Z" fill="#949290"/>
<path d="M316.258 575.977H391.157V683.004H316.258V575.977Z" fill="#949290"/>
<path d="M577.222 595.726C577.222 623.045 449.081 645.191 291.013 645.191C132.944 645.191 4.8028 623.043 4.8028 595.726V570.994H577.222V595.726Z" fill="#949290"/>
<path opacity="0.4" d="M291.013 640.778C449.081 640.778 577.222 619.643 577.222 593.576V597.99C577.222 624.059 449.081 645.191 291.013 645.191C132.944 645.191 4.8028 624.057 4.8028 597.99V593.576C4.8028 619.643 132.944 640.778 291.013 640.778Z" fill="#949290"/>
<path opacity="0.7" d="M577.261 580.173C577.261 602.659 449.15 620.888 291.12 620.888C133.089 620.888 4.97845 602.658 4.97845 580.173V576.947H577.261V580.173Z" fill="white"/>
<path d="M291.12 612.854C133.088 612.854 4.97852 594.625 4.97852 572.139C4.97852 549.653 133.088 531.424 291.12 531.424C449.151 531.424 577.261 549.653 577.261 572.139C577.261 594.625 449.151 612.854 291.12 612.854Z" fill="#C8C6C4"/>
</g>
<path opacity="0.4" d="M251.684 569.437C251.684 580.373 299.635 589.242 358.788 589.242C417.941 589.242 465.897 580.373 465.897 569.437C465.897 558.501 417.942 549.633 358.788 549.633C299.635 549.633 251.684 558.501 251.684 569.437Z" fill="#949290"/>
<path d="M251.684 532.196C251.684 532.196 270.513 575.516 358.79 575.516C447.066 575.516 465.897 532.196 465.897 532.196H251.684Z" fill="#1C1C1C"/>
<path d="M465.852 532.287C465.683 532.658 464.781 534.529 462.788 537.324C451.306 545.974 409.109 552.393 358.786 552.393C308.464 552.393 266.271 545.974 254.788 537.324C252.794 534.529 251.894 532.658 251.724 532.287C251.725 532.256 251.733 532.228 251.736 532.196H465.842C465.844 532.228 465.85 532.258 465.852 532.287Z" fill="#737373"/>
<path d="M251.684 531.268C251.684 542.206 299.635 551.073 358.788 551.073C417.941 551.073 465.897 542.206 465.897 531.268C465.897 520.332 417.942 511.464 358.788 511.464C299.635 511.464 251.684 520.33 251.684 531.268Z" fill="#4A4A4A"/>
<path opacity="0.4" d="M358.786 551.073C319.433 551.073 285.061 547.145 266.443 541.297C268.876 532.256 309.286 525.063 358.786 525.063C408.288 525.063 448.7 532.256 451.135 541.295C432.519 547.143 398.141 551.073 358.786 551.073Z" fill="#1C1C1C"/>
<path d="M447.845 538.463C456.642 535.782 461.847 524.814 456.272 514.817C450.699 504.814 442.089 503.241 426.286 501.657C404.96 499.516 391.594 502.667 385.771 510.577C379.948 518.487 389.326 531.082 404.958 533.164C420.589 535.247 443.26 539.4 447.845 538.463Z" fill="#FFB380"/>
<path d="M440.412 537.256C450.078 536.183 452.43 532.832 452.058 527.334C451.687 521.838 454.661 519.561 453.42 516.206C452.183 512.855 448.894 510.978 447.067 507.088C445.244 503.2 448.59 499.477 444.129 498.725C439.667 497.97 435.456 497.439 432.729 496.899C430.003 493.011 424.426 492.742 419.596 494.352C414.763 495.962 415.877 491.405 413.027 491.67C410.178 491.94 406.089 493.954 403.735 495.293C401.38 496.633 399.648 493.954 395.682 495.293C391.718 496.633 389.117 496.663 387.504 498.725C385.892 500.788 382.372 501.347 380.445 503.2C378.514 505.054 377.716 506.286 377.716 510.441C377.716 514.598 377.469 519.266 383.046 523.767C388.623 528.273 404.109 529.212 415.136 531.487C426.162 533.771 432.108 536.052 440.412 537.256Z" fill="#6BB451"/>
<path d="M390.254 500.604C394.22 499.261 395.953 501.945 398.307 500.604C400.661 499.261 404.751 497.251 407.599 496.982C410.447 496.717 409.334 501.273 414.164 499.661C418.998 498.055 424.575 498.323 427.299 502.21C430.026 502.749 434.239 503.282 438.699 504.036C443.158 504.789 439.814 508.512 441.637 512.4C443.464 516.289 446.753 518.165 447.99 521.517C449.229 524.87 446.257 527.15 446.626 532.644C446.71 533.875 446.648 534.992 446.405 536.006C444.823 536.567 442.852 536.983 440.411 537.256C432.107 536.052 426.162 533.77 415.135 531.491C404.107 529.215 388.621 528.275 383.044 523.771C377.467 519.27 377.714 514.6 377.714 510.445C377.714 508.756 377.854 507.565 378.139 506.607C379.64 505.896 381.165 505.207 382.074 504.04C383.689 501.975 386.289 501.945 390.254 500.604Z" fill="#3D843C"/>
<path d="M419.31 505.069C425.072 499.241 432.746 501.855 434.761 505.069C436.778 508.29 432.505 510.702 429.53 513.116C426.558 515.53 417.817 519.15 415.961 517.54C414.105 515.93 412.058 509.094 413.733 507.888C415.408 506.684 419.31 505.069 419.31 505.069Z" fill="#D04C44"/>
<path d="M435.42 520.246C441.18 514.414 448.856 517.026 450.871 520.246C452.888 523.462 448.617 525.876 445.642 528.29C442.67 530.703 433.929 534.323 432.073 532.713C430.217 531.105 428.172 524.266 429.847 523.06C431.516 521.854 435.42 520.246 435.42 520.246Z" fill="#D04C44"/>
<path d="M402.599 499.734C408.36 493.901 416.037 496.515 418.052 499.734C420.071 502.95 415.793 505.366 412.821 507.778C409.848 510.19 401.107 513.811 399.251 512.202C397.395 510.596 395.351 503.754 397.025 502.548C398.695 501.34 402.599 499.734 402.599 499.734Z" fill="#D04C44"/>
<path d="M419.344 519.343C418.855 517.826 423.91 516.262 430.635 515.842C437.358 515.42 443.202 516.303 443.688 517.816L442.953 515.537C442.468 514.016 436.624 513.132 429.899 513.556C423.175 513.976 418.119 515.545 418.605 517.056L419.344 519.343Z" fill="#EFEBF7"/>
<path d="M429.62 512.692C437.325 512.213 444.161 513.657 444.888 515.913C445.617 518.172 439.954 520.394 432.254 520.872C424.55 521.357 417.712 519.913 416.985 517.655C416.263 515.404 421.916 513.184 429.62 512.692ZM431.659 519.032C438.383 518.614 443.438 517.043 442.95 515.536C442.465 514.015 436.621 513.132 429.896 513.556C423.172 513.976 418.117 515.544 418.602 517.055C419.09 518.568 424.938 519.454 431.659 519.032Z" fill="#DFD0F7"/>
<path d="M418.001 520.813C418.73 523.072 425.564 524.512 433.271 524.025C440.971 523.548 446.632 521.328 445.904 519.068L444.888 515.911C445.616 518.171 439.953 520.393 432.253 520.87C424.55 521.355 417.712 519.912 416.985 517.654L418.001 520.813Z" fill="#876CB4"/>
<path d="M427.202 516.922C426.783 517.274 428.994 517.554 432.14 517.554C435.288 517.554 438.18 517.272 438.599 516.922C439.015 516.573 436.806 516.288 433.659 516.288C430.509 516.286 427.619 516.573 427.202 516.922Z" fill="#F59F9F"/>
<path d="M435.907 519.169C435.487 519.519 432.596 519.802 429.449 519.802C426.303 519.802 424.09 519.519 424.511 519.169L427.205 516.921C426.786 517.273 428.997 517.553 432.143 517.553C435.292 517.553 438.183 517.271 438.603 516.921L435.907 519.169Z" fill="#E33636"/>
<path d="M390.603 503.151C390.456 503.701 392.389 502.511 394.922 500.485C397.455 498.463 399.626 496.378 399.769 495.825C399.915 495.276 397.979 496.467 395.447 498.491C392.916 500.515 390.745 502.6 390.603 503.151Z" fill="#F59F9F"/>
<path d="M398.836 499.365C398.69 499.916 396.521 502.003 393.988 504.025C391.456 506.047 389.524 507.243 389.668 506.691L390.604 503.152C390.457 503.702 392.39 502.512 394.923 500.486C397.456 498.464 399.627 496.379 399.77 495.826L398.836 499.365Z" fill="#E33636"/>
<path d="M428.54 527.23C428.394 527.78 430.329 526.588 432.86 524.564C435.393 522.542 437.562 520.457 437.71 519.904C437.855 519.355 435.92 520.548 433.387 522.572C430.856 524.592 428.683 526.679 428.54 527.23Z" fill="#F59F9F"/>
<path d="M436.778 523.442C436.629 523.993 434.459 526.078 431.927 528.102C429.394 530.124 427.462 531.319 427.608 530.768L428.543 527.229C428.397 527.779 430.331 526.587 432.863 524.563C435.396 522.541 437.565 520.456 437.713 519.903L436.778 523.442Z" fill="#E33636"/>
<path d="M432.037 504.13C431.508 504.12 433.076 505.829 435.544 507.942C438.013 510.059 440.438 511.782 440.97 511.79C441.497 511.796 439.929 510.091 437.462 507.97C434.996 505.857 432.567 504.136 432.037 504.13Z" fill="#F59F9F"/>
<path d="M437.568 511.74C437.039 511.731 434.612 510.012 432.143 507.896C429.676 505.785 428.104 504.072 428.635 504.08L432.037 504.13C431.508 504.12 433.077 505.829 435.544 507.942C438.013 510.059 440.438 511.782 440.971 511.79L437.568 511.74Z" fill="#E33636"/>
<path d="M425.474 533.779C424.76 532.971 429.288 530.234 435.592 527.664C441.892 525.095 447.582 523.667 448.294 524.475L447.216 523.257C446.5 522.449 440.812 523.877 434.512 526.444C428.21 529.014 423.679 531.753 424.392 532.561L425.474 533.779Z" fill="#EFEBF7"/>
<path d="M434.106 525.985C441.329 523.044 448.048 521.632 449.115 522.838C450.18 524.042 445.187 527.409 437.966 530.348C430.744 533.293 424.023 534.705 422.958 533.497C421.895 532.293 426.884 528.93 434.106 525.985ZM437.099 529.368C443.4 526.801 447.93 524.06 447.217 523.256C446.501 522.448 440.812 523.876 434.513 526.443C428.211 529.013 423.679 531.752 424.393 532.56C425.107 533.364 430.797 531.938 437.099 529.368Z" fill="#DFD0F7"/>
<path d="M424.45 535.184C425.517 536.388 432.236 534.978 439.458 532.033C446.677 529.09 451.67 525.725 450.605 524.519L449.115 522.836C450.18 524.04 445.187 527.407 437.967 530.346C430.744 533.291 424.024 534.703 422.958 533.495L424.45 535.184Z" fill="#876CB4"/>
<path d="M400.464 504.027C400.398 502.425 405.659 502.488 412.213 504.163C418.763 505.837 424.132 508.491 424.201 510.091L424.097 507.673C424.033 506.069 418.665 503.417 412.109 501.743C405.554 500.068 400.294 500.008 400.358 501.607L400.464 504.027Z" fill="#EFEBF7"/>
<path d="M412.069 500.831C419.577 502.754 425.75 506.245 425.847 508.632C425.95 511.02 419.939 511.402 412.433 509.481C404.92 507.564 398.748 504.071 398.649 501.682C398.552 499.296 404.558 498.918 412.069 500.831ZM412.351 507.535C418.905 509.212 424.165 509.271 424.096 507.671C424.032 506.067 418.663 503.415 412.107 501.742C405.553 500.066 400.293 500.007 400.357 501.605C400.427 503.207 405.798 505.861 412.351 507.535Z" fill="#DFD0F7"/>
<path d="M398.79 505.021C398.891 507.409 405.061 510.903 412.572 512.82C420.08 514.741 426.091 514.358 425.99 511.97L425.847 508.631C425.95 511.019 419.939 511.402 412.433 509.481C404.92 507.564 398.748 504.07 398.649 501.682L398.79 505.021Z" fill="#876CB4"/>
<path d="M447.846 538.464C443.512 538.864 438.182 532.944 432.856 523.771C427.528 514.6 418.554 503.426 398.781 501.861C381.811 500.523 373.136 505.884 370.904 512.72C368.673 519.559 368.157 528.453 374.128 529.881C380.096 531.309 437.565 538.096 441.409 538.482C445.245 538.866 446.607 538.866 447.846 538.464Z" fill="#FFD999"/>
<path d="M402.084 542.425C410.882 539.746 416.086 528.778 410.511 518.781C404.938 508.778 396.328 507.205 380.527 505.621C359.199 503.48 345.833 506.631 340.01 514.541C334.186 522.451 343.565 535.046 359.197 537.128C374.828 539.211 397.499 543.362 402.084 542.425Z" fill="#FFB380"/>
<path d="M394.651 541.219C404.317 540.145 406.669 536.795 406.297 531.297C405.926 525.801 408.9 523.522 407.661 520.169C406.424 516.818 403.135 514.94 401.308 511.051C399.483 507.163 402.831 503.44 398.37 502.687C393.906 501.933 389.695 501.402 386.968 500.862C384.242 496.974 378.666 496.705 373.836 498.315C369.002 499.925 370.116 495.368 367.268 495.631C364.417 495.9 360.328 497.915 357.974 499.253C355.621 500.594 353.889 497.915 349.921 499.253C345.957 500.594 343.356 500.624 341.745 502.685C340.133 504.749 336.611 505.308 334.684 507.161C332.753 509.015 331.957 510.245 331.957 514.4C331.957 518.559 331.708 523.227 337.285 527.728C342.862 532.232 358.348 533.172 369.375 535.448C380.403 537.735 386.349 540.013 394.651 541.219Z" fill="#6BB451"/>
<path d="M344.492 504.568C348.46 503.225 350.192 505.909 352.546 504.568C354.899 503.225 358.99 501.215 361.838 500.946C364.688 500.68 363.573 505.237 368.403 503.627C373.237 502.019 378.814 502.288 381.539 506.176C384.264 506.713 388.478 507.247 392.94 508.002C397.398 508.755 394.055 512.478 395.879 516.365C397.704 520.255 400.993 522.13 402.232 525.483C403.471 528.836 400.497 531.116 400.869 536.609C400.951 537.841 400.889 538.958 400.647 539.972C399.064 540.533 397.093 540.949 394.651 541.222C386.349 540.016 380.402 537.736 369.375 535.457C358.348 533.181 342.862 532.241 337.285 527.737C331.708 523.236 331.957 518.566 331.957 514.409C331.957 512.721 332.096 511.531 332.38 510.571C333.88 509.86 335.405 509.171 336.315 508.004C337.927 505.936 340.528 505.907 344.492 504.568Z" fill="#3D843C"/>
<path d="M373.547 509.033C379.307 503.202 386.984 505.817 388.999 509.033C391.017 512.253 386.744 514.665 383.77 517.079C380.795 519.494 372.056 523.114 370.198 521.504C368.342 519.894 366.298 513.057 367.971 511.851C369.645 510.647 373.547 509.033 373.547 509.033Z" fill="#D04C44"/>
<path d="M389.658 524.21C395.419 518.377 403.094 520.99 405.111 524.21C407.128 527.426 402.856 529.84 399.882 532.252C396.907 534.664 388.168 538.285 386.31 536.675C384.456 535.069 382.412 528.226 384.084 527.022C385.754 525.816 389.658 524.21 389.658 524.21Z" fill="#D04C44"/>
<path d="M356.836 503.696C362.597 497.864 370.273 500.478 372.289 503.696C374.306 506.913 370.032 509.327 367.059 511.737C364.085 514.151 355.346 517.771 353.488 516.163C351.634 514.553 349.589 507.715 351.262 506.507C352.932 505.305 356.836 503.696 356.836 503.696Z" fill="#D04C44"/>
<path d="M373.584 523.305C373.097 521.788 378.153 520.224 384.877 519.804C391.6 519.382 397.444 520.265 397.931 521.778L397.195 519.499C396.71 517.978 390.866 517.095 384.141 517.516C377.417 517.938 372.358 519.507 372.845 521.018L373.584 523.305Z" fill="#EFEBF7"/>
<path d="M383.861 516.656C391.565 516.177 398.401 517.619 399.128 519.877C399.854 522.136 394.195 524.358 386.493 524.836C378.79 525.319 371.952 523.877 371.227 521.619C370.502 519.366 376.156 517.148 383.861 516.656ZM385.898 522.996C392.623 522.578 397.68 521.007 397.191 519.5C396.706 517.979 390.862 517.096 384.138 517.518C377.413 517.94 372.354 519.508 372.841 521.019C373.33 522.534 379.178 523.418 385.898 522.996Z" fill="#DFD0F7"/>
<path d="M372.241 524.781C372.97 527.038 379.802 528.48 387.509 527.993C395.211 527.516 400.87 525.293 400.142 523.036L399.126 519.879C399.853 522.139 394.194 524.361 386.492 524.838C378.788 525.321 371.95 523.879 371.225 521.622L372.241 524.781Z" fill="#876CB4"/>
<path d="M381.44 520.883C381.019 521.233 383.231 521.515 386.378 521.515C389.528 521.515 392.418 521.233 392.837 520.883C393.256 520.534 391.045 520.249 387.897 520.249C384.749 520.249 381.859 520.534 381.44 520.883Z" fill="#F59F9F"/>
<path d="M390.145 523.13C389.726 523.48 386.834 523.763 383.686 523.763C380.539 523.763 378.327 523.478 378.748 523.13L381.442 520.882C381.021 521.232 383.234 521.514 386.38 521.514C389.53 521.514 392.42 521.232 392.839 520.882L390.145 523.13Z" fill="#E33636"/>
<path d="M344.84 507.113C344.694 507.664 346.628 506.474 349.16 504.448C351.693 502.426 353.863 500.34 354.008 499.786C354.153 499.237 352.216 500.429 349.685 502.451C347.154 504.477 344.983 506.561 344.84 507.113Z" fill="#F59F9F"/>
<path d="M353.075 503.33C352.931 503.881 350.76 505.968 348.229 507.99C345.696 510.012 343.763 511.208 343.909 510.656L344.843 507.117C344.696 507.667 346.631 506.477 349.162 504.451C351.695 502.429 353.866 500.344 354.011 499.789L353.075 503.33Z" fill="#E33636"/>
<path d="M382.779 531.188C382.632 531.736 384.567 530.546 387.098 528.522C389.631 526.5 391.802 524.415 391.946 523.862C392.091 523.313 390.158 524.506 387.623 526.53C385.094 528.55 382.923 530.637 382.779 531.188Z" fill="#F59F9F"/>
<path d="M391.017 527.4C390.869 527.951 388.7 530.038 386.168 532.06C383.635 534.082 381.702 535.277 381.847 534.726L382.782 531.187C382.636 531.736 384.571 530.545 387.102 528.521C389.635 526.499 391.806 524.414 391.95 523.861L391.017 527.4Z" fill="#E33636"/>
<path d="M386.274 508.092C385.745 508.082 387.315 509.791 389.783 511.904C392.25 514.021 394.677 515.744 395.208 515.75C395.735 515.758 394.166 514.053 391.699 511.932C389.232 509.819 386.803 508.098 386.274 508.092Z" fill="#F59F9F"/>
<path d="M391.806 515.702C391.277 515.692 388.849 513.973 386.38 511.858C383.912 509.747 382.342 508.034 382.873 508.042L386.273 508.092C385.745 508.082 387.315 509.791 389.782 511.904C392.249 514.021 394.676 515.744 395.207 515.75L391.806 515.702Z" fill="#E33636"/>
<path d="M379.713 537.742C378.999 536.934 383.528 534.197 389.831 531.627C396.133 529.058 401.823 527.63 402.533 528.438L401.455 527.22C400.74 526.412 395.051 527.84 388.751 530.407C382.45 532.977 377.918 535.716 378.633 536.524L379.713 537.742Z" fill="#EFEBF7"/>
<path d="M388.345 529.948C395.567 527.007 402.286 525.595 403.353 526.801C404.421 528.005 399.426 531.372 392.205 534.311C384.983 537.256 378.262 538.666 377.197 537.46C376.134 536.258 381.125 532.893 388.345 529.948ZM391.338 533.331C397.639 530.764 402.169 528.023 401.455 527.219C400.74 526.411 395.051 527.839 388.751 530.406C382.45 532.976 377.918 535.715 378.634 536.523C379.346 537.327 385.038 535.901 391.338 533.331Z" fill="#DFD0F7"/>
<path d="M378.689 539.147C379.756 540.351 386.475 538.941 393.698 535.996C400.918 533.053 405.909 529.688 404.844 528.482L403.356 526.799C404.423 528.003 399.428 531.37 392.208 534.309C384.986 537.254 378.265 538.664 377.2 537.458L378.689 539.147Z" fill="#876CB4"/>
<path d="M354.702 507.99C354.637 506.388 359.895 506.452 366.449 508.127C373.002 509.801 378.368 512.454 378.438 514.055L378.333 511.636C378.271 510.032 372.901 507.38 366.347 505.707C359.791 504.032 354.53 503.97 354.594 505.57L354.702 507.99Z" fill="#EFEBF7"/>
<path d="M366.306 504.794C373.816 506.717 379.988 510.208 380.087 512.595C380.187 514.983 374.177 515.365 366.671 513.444C359.157 511.527 352.986 508.032 352.887 505.643C352.792 503.259 358.797 502.881 366.306 504.794ZM366.588 511.5C373.143 513.177 378.405 513.236 378.333 511.636C378.271 510.032 372.901 507.38 366.347 505.707C359.791 504.031 354.53 503.97 354.595 505.57C354.664 507.17 360.036 509.826 366.588 511.5Z" fill="#DFD0F7"/>
<path d="M353.028 508.985C353.128 511.374 359.3 514.867 366.81 516.784C374.317 518.706 380.328 518.323 380.229 515.935L380.087 512.596C380.187 514.984 374.177 515.366 366.671 513.445C359.157 511.528 352.986 508.033 352.887 505.645L353.028 508.985Z" fill="#876CB4"/>
<path d="M402.084 542.427C397.75 542.829 392.422 536.909 387.094 527.736C381.768 518.565 372.794 507.391 353.022 505.826C336.049 504.488 327.374 509.849 325.145 516.685C322.913 523.522 322.396 532.418 328.368 533.846C334.334 535.273 391.805 542.06 395.647 542.447C399.483 542.829 400.845 542.829 402.084 542.427Z" fill="#FFD999"/>
<path d="M356.329 548.368C365.128 545.688 370.331 534.72 364.756 524.723C359.185 514.72 350.573 513.148 334.772 511.563C313.446 509.422 300.078 512.573 294.256 520.483C288.432 528.393 297.812 540.989 313.444 543.07C329.073 545.153 351.746 549.304 356.329 548.368Z" fill="#FFB380"/>
<path d="M348.895 547.161C358.561 546.088 360.913 542.735 360.541 537.239C360.17 531.744 363.144 529.464 361.905 526.111C360.668 522.76 357.379 520.883 355.552 516.993C353.727 513.106 357.075 509.382 352.615 508.63C348.152 507.875 343.941 507.345 341.212 506.804C338.488 502.916 332.912 502.647 328.082 504.255C323.248 505.865 324.361 501.31 321.513 501.574C318.663 501.843 314.572 503.855 312.22 505.196C309.865 506.537 308.133 503.855 304.167 505.196C300.203 506.537 297.602 506.566 295.989 508.628C294.377 510.691 290.857 511.248 288.928 513.104C286.997 514.957 286.201 516.187 286.201 520.342C286.201 524.501 285.954 529.169 291.531 533.67C297.106 538.172 312.594 539.115 323.619 541.39C334.647 543.678 340.593 545.955 348.895 547.161Z" fill="#6BB451"/>
<path d="M298.737 510.508C302.705 509.168 304.438 511.851 306.79 510.508C309.144 509.168 313.234 507.157 316.084 506.888C318.932 506.623 317.817 511.18 322.649 509.568C327.483 507.962 333.058 508.229 335.783 512.117C338.508 512.653 342.724 513.188 347.186 513.942C351.643 514.693 348.299 518.418 350.123 522.306C351.95 526.195 355.239 528.069 356.476 531.424C357.715 534.777 354.741 537.056 355.113 542.55C355.197 543.782 355.133 544.901 354.891 545.913C353.31 546.471 351.337 546.889 348.895 547.162C340.593 545.956 334.647 543.677 323.619 541.397C312.594 539.122 297.106 538.179 291.531 533.678C285.954 529.176 286.201 524.506 286.201 520.349C286.201 518.662 286.34 517.472 286.626 516.511C288.125 515.8 289.649 515.111 290.561 513.944C292.173 511.879 294.774 511.849 298.737 510.508Z" fill="#3D843C"/>
<path d="M327.795 514.972C333.556 509.142 341.231 511.756 343.248 514.972C345.265 518.193 340.991 520.605 338.017 523.019C335.042 525.433 326.303 529.053 324.447 527.443C322.589 525.833 320.545 518.997 322.218 517.79C323.892 516.586 327.795 514.972 327.795 514.972Z" fill="#D04C44"/>
<path d="M343.905 530.152C349.666 524.32 357.341 526.932 359.358 530.152C361.375 533.368 357.103 535.783 354.129 538.195C351.154 540.607 342.415 544.227 340.559 542.617C338.703 541.011 336.659 534.168 338.332 532.964C340.003 531.758 343.905 530.152 343.905 530.152Z" fill="#D04C44"/>
<path d="M311.079 509.637C316.844 503.807 324.519 506.421 326.534 509.637C328.551 512.856 324.275 515.27 321.303 517.68C318.329 520.094 309.589 523.714 307.733 522.106C305.877 520.496 303.833 513.658 305.506 512.45C307.177 511.247 311.079 509.637 311.079 509.637Z" fill="#D04C44"/>
<path d="M327.826 529.246C327.338 527.728 332.393 526.164 339.117 525.744C345.84 525.32 351.684 526.206 352.171 527.719L351.435 525.439C350.95 523.92 345.106 523.035 338.382 523.457C331.657 523.879 326.6 525.447 327.087 526.956L327.826 529.246Z" fill="#EFEBF7"/>
<path d="M338.105 522.597C345.808 522.118 352.645 523.559 353.373 525.817C354.098 528.077 348.439 530.299 340.739 530.776C333.033 531.259 326.195 529.818 325.47 527.56C324.746 525.306 330.401 523.086 338.105 522.597ZM340.142 528.936C346.866 528.518 351.925 526.948 351.435 525.441C350.95 523.922 345.106 523.036 338.381 523.458C331.657 523.88 326.6 525.449 327.087 526.958C327.575 528.475 333.421 529.358 340.142 528.936Z" fill="#DFD0F7"/>
<path d="M326.486 530.721C327.214 532.979 334.047 534.42 341.756 533.933C349.456 533.456 355.115 531.234 354.388 528.976L353.373 525.819C354.097 528.079 348.438 530.301 340.738 530.778C333.033 531.262 326.195 529.82 325.47 527.562L326.486 530.721Z" fill="#876CB4"/>
<path d="M335.686 526.825C335.265 527.176 337.478 527.457 340.626 527.457C343.774 527.457 346.664 527.174 347.083 526.825C347.502 526.475 345.291 526.191 342.145 526.191C338.995 526.191 336.107 526.475 335.686 526.825Z" fill="#F59F9F"/>
<path d="M344.391 529.072C343.972 529.423 341.08 529.706 337.934 529.706C334.785 529.706 332.575 529.421 332.994 529.072L335.688 526.824C335.267 527.175 337.48 527.456 340.628 527.456C343.776 527.456 346.666 527.173 347.085 526.824L344.391 529.072Z" fill="#E33636"/>
<path d="M299.085 513.059C298.94 513.609 300.875 512.419 303.406 510.393C305.939 508.371 308.108 506.286 308.253 505.731C308.399 505.183 306.463 506.375 303.932 508.397C301.402 510.423 299.228 512.506 299.085 513.059Z" fill="#F59F9F"/>
<path d="M307.322 509.273C307.176 509.824 305.005 511.911 302.474 513.931C299.941 515.955 298.008 517.15 298.155 516.597L299.088 513.058C298.943 513.609 300.878 512.418 303.409 510.392C305.942 508.37 308.111 506.285 308.256 505.73L307.322 509.273Z" fill="#E33636"/>
<path d="M337.023 537.133C336.876 537.682 338.811 536.491 341.342 534.467C343.875 532.445 346.046 530.358 346.193 529.805C346.337 529.257 344.403 530.449 341.869 532.471C339.338 534.495 337.167 536.582 337.023 537.133Z" fill="#F59F9F"/>
<path d="M345.26 533.346C345.114 533.896 342.943 535.984 340.412 538.008C337.879 540.03 335.946 541.224 336.092 540.671L337.026 537.134C336.879 537.683 338.814 536.493 341.345 534.469C343.878 532.447 346.049 530.359 346.195 529.807L345.26 533.346Z" fill="#E33636"/>
<path d="M340.519 514.035C339.99 514.025 341.561 515.734 344.028 517.848C346.497 519.965 348.922 521.688 349.453 521.694C349.98 521.701 348.411 519.994 345.946 517.875C343.479 515.762 341.048 514.041 340.519 514.035Z" fill="#F59F9F"/>
<path d="M346.051 521.646C345.523 521.636 343.094 519.917 340.627 517.802C338.159 515.691 336.587 513.977 337.118 513.985L340.519 514.035C339.99 514.025 341.56 515.734 344.027 517.847C346.496 519.964 348.921 521.687 349.452 521.693L346.051 521.646Z" fill="#E33636"/>
<path d="M333.959 543.685C333.245 542.877 337.775 540.14 344.078 537.57C350.378 535.001 356.068 533.573 356.782 534.381L355.704 533.163C354.989 532.353 349.3 533.783 343 536.35C336.697 538.92 332.165 541.659 332.881 542.467L333.959 543.685Z" fill="#EFEBF7"/>
<path d="M342.59 535.89C349.813 532.95 356.533 531.537 357.599 532.744C358.666 533.948 353.673 537.312 346.452 540.253C339.228 543.198 332.507 544.608 331.442 543.402C330.38 542.2 335.368 538.835 342.59 535.89ZM345.581 539.273C351.884 536.706 356.414 533.966 355.701 533.161C354.985 532.351 349.296 533.781 342.997 536.348C336.693 538.919 332.161 541.658 332.877 542.466C333.591 543.27 339.281 541.844 345.581 539.273Z" fill="#DFD0F7"/>
<path d="M332.935 545.089C334 546.293 340.719 544.883 347.943 541.938C355.162 538.995 360.153 535.633 359.09 534.425L357.6 532.741C358.667 533.945 353.674 537.31 346.453 540.251C339.229 543.196 332.509 544.606 331.443 543.4L332.935 545.089Z" fill="#876CB4"/>
<path d="M308.946 513.933C308.88 512.331 314.138 512.394 320.692 514.07C327.245 515.743 332.613 518.397 332.683 519.997L332.576 517.579C332.514 515.975 327.144 513.323 320.59 511.649C314.036 509.974 308.774 509.913 308.838 511.513L308.946 513.933Z" fill="#EFEBF7"/>
<path d="M320.553 510.736C328.061 512.659 334.233 516.151 334.332 518.537C334.434 520.926 328.425 521.308 320.918 519.387C313.404 517.47 307.233 513.974 307.134 511.586C307.035 509.201 313.04 508.823 320.553 510.736ZM320.832 517.442C327.388 519.119 332.648 519.177 332.576 517.579C332.514 515.974 327.144 513.323 320.59 511.649C314.036 509.974 308.774 509.912 308.838 511.513C308.909 513.113 314.279 515.766 320.832 517.442Z" fill="#DFD0F7"/>
<path d="M307.273 514.927C307.373 517.315 313.545 520.809 321.057 522.726C328.564 524.647 334.573 524.265 334.474 521.876L334.332 518.537C334.434 520.926 328.425 521.308 320.918 519.387C313.404 517.47 307.233 513.974 307.134 511.586L307.273 514.927Z" fill="#876CB4"/>
<path d="M356.329 548.368C351.997 548.77 346.667 542.851 341.341 533.677C336.013 524.506 327.039 513.332 307.267 511.768C290.295 510.429 281.619 515.79 279.39 522.626C277.159 529.463 276.641 538.359 282.613 539.787C288.581 541.215 346.05 548.002 349.892 548.388C353.728 548.77 355.09 548.77 356.329 548.368Z" fill="#FFD999"/>
<path opacity="0.4" d="M347.784 603.347C347.784 606.678 362.39 609.379 380.411 609.379C398.43 609.379 413.039 606.678 413.039 603.347C413.039 600.014 398.43 597.312 380.411 597.312C362.39 597.313 347.784 600.014 347.784 603.347Z" fill="#949290"/>
<path d="M347.784 592.005C347.784 592.005 353.518 605.201 380.411 605.201C407.303 605.201 413.039 592.005 413.039 592.005H347.784Z" fill="#1C1C1C"/>
<path d="M413.027 592.032C412.978 592.145 412.7 592.715 412.092 593.565C408.596 596.201 395.739 598.153 380.41 598.153C365.08 598.153 352.227 596.201 348.728 593.565C348.12 592.713 347.846 592.143 347.793 592.032C347.793 592.022 347.798 592.014 347.798 592.004H413.022C413.024 592.014 413.026 592.022 413.027 592.032Z" fill="#737373"/>
<path d="M347.784 591.717C347.784 595.05 362.39 597.749 380.411 597.749C398.43 597.749 413.039 595.05 413.039 591.717C413.039 588.384 398.43 585.685 380.411 585.685C362.39 585.687 347.784 588.386 347.784 591.717Z" fill="#4A4A4A"/>
<path d="M380.412 597.749C368.421 597.749 357.952 596.553 352.28 594.772C353.022 592.018 365.332 589.827 380.412 589.827C395.489 589.827 407.804 592.018 408.543 594.772C402.871 596.555 392.4 597.749 380.412 597.749Z" fill="#F6BF25"/>
<path opacity="0.4" d="M420.775 596.457C420.775 599.79 435.383 602.492 453.402 602.492C471.423 602.492 486.03 599.79 486.03 596.457C486.03 593.124 471.423 590.423 453.402 590.423C435.383 590.425 420.775 593.126 420.775 596.457Z" fill="#949290"/>
<path d="M420.775 585.117C420.775 585.117 426.511 598.313 453.402 598.313C480.294 598.313 486.03 585.117 486.03 585.117H420.775Z" fill="#1C1C1C"/>
<path d="M486.019 585.143C485.969 585.258 485.691 585.828 485.085 586.678C481.587 589.314 468.732 591.266 453.401 591.266C438.071 591.266 425.219 589.314 421.719 586.678C421.111 585.826 420.837 585.256 420.784 585.143C420.784 585.133 420.789 585.127 420.789 585.117H486.013C486.015 585.127 486.017 585.133 486.019 585.143Z" fill="#737373"/>
<path d="M420.775 584.831C420.775 588.164 435.383 590.864 453.402 590.864C471.423 590.864 486.03 588.164 486.03 584.831C486.03 581.498 471.423 578.799 453.402 578.799C435.383 578.799 420.775 581.5 420.775 584.831Z" fill="#4A4A4A"/>
<path d="M453.403 590.862C441.414 590.862 430.943 589.668 425.271 587.886C426.013 585.129 438.325 582.94 453.403 582.94C468.482 582.94 480.795 585.129 481.534 587.884C475.864 589.668 465.393 590.862 453.403 590.862Z" fill="#E33636"/>
</svg>
