<svg width="1210" height="892" viewBox="0 0 1510 982" fill="none" xmlns="http://www.w3.org/2000/svg">
<g filter="url(#filter0_f_366_1538)">
<path d="M1500.55 115.5C1500.55 419 1491.09 986.265 1491.09 986.265H339.178C293.209 833.026 306.917 750.71 339.499 691.597C349.331 673.755 360.888 658.022 373.039 643.1C374.218 641.653 375.403 640.207 376.595 638.777C386.3 627.062 396.319 615.775 406.088 604.253C438.143 566.442 467.508 526.156 474.434 460.305C476.431 441.339 597.307 24.6576 1059.72 -0.6875L1500.55 -10V115.5Z" fill="#E9E6DA" fill-opacity="0.7"/>
</g>
<path d="M889.089 592.176H745.946V981.825H889.089V592.176Z" fill="#B6D1F8"/>
<path d="M507.128 733.487C522.551 698.088 582.803 718.903 582.803 718.903C582.803 718.903 615.291 789.764 627.303 793.136C639.314 796.507 611.302 727.102 611.302 727.102C635.359 728.35 691.456 766.612 691.456 766.612C691.456 766.612 676.447 841.354 688.916 841.651C701.384 841.948 698.844 774.789 698.844 774.789C720.767 785.146 738.192 815.254 738.192 815.254C758.462 863.073 696.295 886.752 696.295 886.752C696.295 886.752 691.65 912.767 703.264 945.147C703.264 945.147 706.068 951.225 708.357 961.184L702.1 960.247C701.84 958.484 701.518 956.771 701.127 955.113C701.129 955.101 701.126 955.092 701.119 955.083C701.114 955.059 701.108 955.035 701.102 955.011C700.818 953.975 700.407 952.501 699.889 950.702C699.888 950.7 699.888 950.698 699.887 950.696C699.887 950.692 699.884 950.691 699.884 950.687C698.531 946.641 697.652 943.671 697.133 941.543C697.131 941.536 697.13 941.53 697.129 941.524C693.154 928.865 687.186 912.253 682.162 908.203C682.162 908.203 682.999 907.328 683.929 905.521C683.366 906.376 682.778 907.268 682.162 908.203C668.029 929.654 613.909 925.472 584.988 914.852C556.066 904.233 570.326 897.728 588.428 886.415C606.53 875.102 639.652 883.763 650.396 879.874C661.139 875.984 647.404 868.427 627.286 866.983C607.168 865.539 594.256 884.031 561.67 882.29C529.085 880.548 513.62 816.166 513.62 816.166C534.778 826.408 576.383 820.073 579.054 812.617C581.725 805.161 522.707 797.102 513.869 793.421C505.032 789.74 491.706 768.886 507.128 733.487Z" fill="#82B378"/>
<path d="M1284.49 530.617C1268.64 494.246 1206.74 515.632 1206.74 515.632C1206.74 515.632 1173.36 588.438 1161.01 591.902C1148.67 595.366 1177.45 524.056 1177.45 524.056C1152.74 525.339 1095.1 564.65 1095.1 564.65C1095.1 564.65 1110.52 641.443 1097.71 641.749C1084.9 642.054 1087.51 573.052 1087.51 573.052C1064.99 583.693 1047.08 614.628 1047.08 614.628C1026.26 663.759 1090.13 688.088 1090.13 688.088C1090.13 688.088 1094.9 714.817 1082.97 748.085C1082.97 748.085 1080.09 754.33 1077.74 764.562L1084.16 763.599C1084.43 761.788 1084.76 760.028 1085.16 758.324C1085.16 758.312 1085.17 758.303 1085.17 758.294C1085.18 758.269 1085.18 758.245 1085.19 758.22C1085.48 757.156 1085.9 755.641 1086.44 753.793L1086.44 753.786L1086.44 753.777C1087.83 749.62 1088.74 746.568 1089.27 744.382C1089.27 744.375 1089.27 744.362 1089.27 744.362C1093.36 731.356 1099.49 714.288 1104.65 710.127C1104.65 710.127 1103.79 709.228 1102.83 707.371C1103.41 708.25 1104.02 709.166 1104.65 710.127C1119.17 732.167 1174.78 727.869 1204.49 716.958C1234.21 706.048 1219.56 699.364 1200.96 687.741C1182.36 676.117 1148.33 685.016 1137.29 681.02C1126.25 677.024 1140.36 669.259 1161.03 667.776C1181.7 666.292 1194.97 685.291 1228.45 683.502C1261.93 681.714 1277.82 615.565 1277.82 615.565C1256.08 626.087 1213.33 619.579 1210.59 611.918C1207.84 604.257 1268.48 595.977 1277.56 592.195C1286.64 588.411 1300.33 566.987 1284.49 530.617Z" fill="#82B378"/>
<path d="M561.756 917.955C561.756 917.955 480.019 921.368 462.046 962.447C462.046 962.447 458.737 971.727 471.675 973.246C484.612 974.764 523.883 925.633 561.756 921.084V917.955Z" fill="#82B378"/>
<path d="M561.756 914.609C561.756 914.609 516.837 873.979 482.568 888.246C448.3 902.513 506.551 903.576 523.938 906.545C541.324 909.514 561.756 917.956 561.756 917.956V914.609Z" fill="#82B378"/>
<path d="M560.599 924.293C560.599 924.293 519.661 938.202 526.607 960.441C533.554 982.68 560.599 924.293 560.599 924.293Z" fill="#82B378"/>
<path d="M885.739 968.922C884.866 976.463 878.997 982.192 872.127 982.208L586.575 982.855C566.681 980.532 552.488 960.621 555.035 938.609L556.822 923.167C559.527 899.789 579.027 882.681 600.155 885.148L876.754 954.63C882.65 956.111 886.511 962.252 885.739 968.922Z" fill="#F99746"/>
<path d="M605.209 931.36L602.901 951.308C602.83 951.92 602.274 952.363 601.665 952.292L601.286 952.248C600.677 952.176 600.237 951.618 600.307 951.006L602.615 931.058C602.686 930.445 603.242 930.003 603.852 930.074L604.231 930.118C604.84 930.189 605.28 930.749 605.209 931.36Z" fill="#ED7D2B"/>
<path d="M622.941 951.208L620.633 971.156C620.562 971.768 620.006 972.21 619.397 972.139L619.017 972.095C618.409 972.024 617.968 971.465 618.039 970.853L620.347 950.905C620.418 950.293 620.974 949.851 621.583 949.922L621.962 949.966C622.572 950.037 623.012 950.596 622.941 951.208Z" fill="#ED7D2B"/>
<path d="M679.083 931.36L676.774 951.308C676.703 951.92 676.147 952.363 675.538 952.292L675.159 952.248C674.55 952.176 674.109 951.618 674.18 951.006L676.489 931.058C676.56 930.445 677.115 930.003 677.725 930.074L678.104 930.118C678.713 930.189 679.153 930.749 679.083 931.36Z" fill="#ED7D2B"/>
<path d="M686.808 951.982L684.5 971.93C684.429 972.542 683.873 972.985 683.264 972.914L682.885 972.87C682.276 972.798 681.835 972.24 681.906 971.628L684.214 951.679C684.285 951.068 684.841 950.625 685.45 950.696L685.83 950.74C686.438 950.812 686.879 951.37 686.808 951.982Z" fill="#ED7D2B"/>
<path d="M703.551 925.586L701.243 945.535C701.172 946.146 700.616 946.589 700.007 946.518L699.628 946.474C699.019 946.403 698.578 945.844 698.649 945.232L700.957 925.284C701.028 924.672 701.584 924.229 702.193 924.3L702.573 924.345C703.182 924.416 703.622 924.975 703.551 925.586Z" fill="#ED7D2B"/>
<path d="M735.629 933.093L734.165 945.746C734.107 946.241 733.657 946.599 733.164 946.542L732.363 946.448C731.87 946.39 731.513 945.938 731.571 945.443L733.035 932.791C733.092 932.295 733.542 931.937 734.035 931.994L734.836 932.088C735.329 932.145 735.686 932.598 735.629 933.093Z" fill="#ED7D2B"/>
<path d="M739.682 951.565L738.218 964.218C738.16 964.713 737.71 965.071 737.217 965.014L736.416 964.921C735.924 964.862 735.567 964.411 735.624 963.916L737.088 951.263C737.146 950.768 737.596 950.41 738.089 950.467L738.89 950.56C739.383 950.618 739.739 951.07 739.682 951.565Z" fill="#ED7D2B"/>
<path d="M754.979 932.405L753.315 946.788C753.255 947.313 752.776 947.694 752.253 947.633L751.563 947.552C751.039 947.491 750.661 947.011 750.721 946.485L752.385 932.102C752.447 931.576 752.925 931.195 753.448 931.256L754.138 931.337C754.662 931.399 755.04 931.879 754.979 932.405Z" fill="#ED7D2B"/>
<path d="M773.336 948.811L771.672 963.193C771.611 963.719 771.133 964.1 770.609 964.039L769.919 963.958C769.395 963.897 769.017 963.417 769.078 962.891L770.742 948.508C770.803 947.982 771.281 947.602 771.805 947.663L772.495 947.743C773.018 947.804 773.397 948.285 773.336 948.811Z" fill="#ED7D2B"/>
<path d="M787.666 941.766L786.002 956.148C785.941 956.674 785.463 957.055 784.939 956.994L784.249 956.913C783.725 956.852 783.347 956.372 783.408 955.846L785.072 941.463C785.133 940.937 785.611 940.557 786.135 940.618L786.825 940.698C787.348 940.759 787.727 941.24 787.666 941.766Z" fill="#ED7D2B"/>
<path d="M793.378 961.139L791.714 975.521C791.653 976.047 791.175 976.428 790.651 976.367L789.961 976.286C789.437 976.225 789.059 975.745 789.12 975.219L790.784 960.836C790.844 960.31 791.323 959.93 791.847 959.991L792.537 960.071C793.06 960.132 793.439 960.612 793.378 961.139Z" fill="#ED7D2B"/>
<path d="M779.33 969.145L778.56 975.805C778.516 976.177 778.179 976.446 777.809 976.402L776.56 976.256C776.19 976.213 775.922 975.873 775.965 975.502L776.736 968.842C776.779 968.47 777.117 968.201 777.487 968.245L778.735 968.391C779.106 968.434 779.373 968.773 779.33 969.145Z" fill="#ED7D2B"/>
<path d="M767.592 936.825L766.822 943.485C766.779 943.857 766.441 944.126 766.071 944.082L764.823 943.936C764.453 943.893 764.185 943.554 764.228 943.182L764.999 936.521C765.042 936.15 765.38 935.881 765.75 935.925L766.998 936.07C767.368 936.114 767.635 936.453 767.592 936.825Z" fill="#ED7D2B"/>
<path d="M758.378 959.423L756.714 973.806C756.653 974.332 756.175 974.712 755.651 974.651L754.961 974.571C754.437 974.51 754.059 974.029 754.12 973.503L755.784 959.12C755.844 958.594 756.323 958.214 756.846 958.275L757.537 958.355C758.06 958.416 758.439 958.897 758.378 959.423Z" fill="#ED7D2B"/>
<path d="M721.461 960.291L719.997 972.943C719.94 973.438 719.49 973.796 718.997 973.739L718.196 973.645C717.702 973.587 717.346 973.136 717.404 972.641L718.868 959.988C718.925 959.492 719.375 959.134 719.868 959.192L720.669 959.285C721.162 959.343 721.519 959.795 721.461 960.291Z" fill="#ED7D2B"/>
<path d="M592.224 943.028L588.997 970.922C588.914 971.638 588.263 972.156 587.549 972.073C586.836 971.99 586.32 971.335 586.403 970.619L589.631 942.725C589.714 942.008 590.365 941.49 591.078 941.573C591.792 941.656 592.308 942.311 592.224 943.028Z" fill="#ED7D2B"/>
<path d="M620.067 908.532L618.593 921.27C618.535 921.769 618.082 922.13 617.585 922.072L616.798 921.98C616.301 921.921 615.942 921.466 615.999 920.967L617.473 908.229C617.531 907.73 617.985 907.369 618.482 907.427L619.268 907.519C619.765 907.577 620.125 908.033 620.067 908.532Z" fill="#ED7D2B"/>
<path d="M650.861 908.532L649.387 921.27C649.329 921.769 648.876 922.13 648.379 922.072L647.592 921.98C647.095 921.921 646.736 921.466 646.793 920.967L648.267 908.229C648.325 907.73 648.778 907.369 649.275 907.427L650.062 907.519C650.56 907.577 650.919 908.033 650.861 908.532Z" fill="#ED7D2B"/>
<path d="M637.565 929.192L636.091 941.93C636.033 942.429 635.579 942.79 635.082 942.732L634.296 942.64C633.799 942.582 633.44 942.126 633.497 941.627L634.971 928.889C635.029 928.39 635.482 928.029 635.98 928.087L636.767 928.179C637.263 928.238 637.623 928.693 637.565 929.192Z" fill="#ED7D2B"/>
<path d="M573.767 908.532L572.293 921.27C572.235 921.769 571.781 922.13 571.285 922.072L570.498 921.98C570.001 921.921 569.642 921.466 569.699 920.967L571.173 908.229C571.231 907.73 571.685 907.369 572.182 907.427L572.969 907.519C573.465 907.577 573.825 908.033 573.767 908.532Z" fill="#ED7D2B"/>
<path d="M573.767 939.073L572.293 951.81C572.235 952.309 571.781 952.67 571.285 952.612L570.498 952.52C570.001 952.462 569.642 952.006 569.699 951.507L571.173 938.769C571.231 938.27 571.685 937.909 572.182 937.967L572.969 938.059C573.465 938.117 573.825 938.573 573.767 939.073Z" fill="#ED7D2B"/>
<path d="M587.423 915.489L585.35 933.399C585.283 933.981 584.754 934.402 584.174 934.334L583.687 934.277C583.108 934.21 582.689 933.678 582.756 933.096L584.828 915.187C584.895 914.605 585.425 914.183 586.004 914.251L586.491 914.308C587.071 914.376 587.49 914.907 587.423 915.489Z" fill="#ED7D2B"/>
<path d="M601.335 893.197L599.262 911.107C599.195 911.689 598.666 912.11 598.086 912.043L597.599 911.986C597.02 911.918 596.601 911.386 596.668 910.804L598.741 892.895C598.808 892.313 599.337 891.892 599.917 891.959L600.404 892.016C600.983 892.084 601.402 892.615 601.335 893.197Z" fill="#ED7D2B"/>
<path d="M647.508 948.044L645.057 969.233C644.984 969.862 644.412 970.317 643.785 970.244L643.469 970.207C642.843 970.134 642.39 969.559 642.463 968.929L644.914 947.741C644.987 947.111 645.559 946.656 646.186 946.729L646.502 946.766C647.128 946.839 647.581 947.414 647.508 948.044Z" fill="#ED7D2B"/>
<path d="M668.073 914.475L664.845 942.369C664.762 943.085 664.111 943.604 663.398 943.52C662.684 943.437 662.169 942.783 662.252 942.066L665.479 914.172C665.563 913.455 666.214 912.937 666.927 913.02C667.64 913.104 668.156 913.758 668.073 914.475Z" fill="#ED7D2B"/>
<path d="M817.518 617.103C857.046 617.103 889.089 605.943 889.089 592.177C889.089 578.411 857.046 567.251 817.518 567.251C777.99 567.251 745.946 578.411 745.946 592.177C745.946 605.943 777.99 617.103 817.518 617.103Z" fill="#C2DBFD"/>
<path d="M1069.1 518.2H925.956V981.828H1069.1V518.2Z" fill="#F2C5A0"/>
<path d="M997.528 543.123C1037.06 543.123 1069.1 531.963 1069.1 518.197C1069.1 504.431 1037.06 493.271 997.528 493.271C958 493.271 925.956 504.431 925.956 518.197C925.956 531.963 958 543.123 997.528 543.123Z" fill="#F5D1B7"/>
<path d="M1230.08 707.862H1112.22V981.824H1230.08V707.862Z" fill="#D8E3B7"/>
<path d="M1171.15 732.789C1203.69 732.789 1230.08 721.629 1230.08 707.863C1230.08 694.097 1203.69 682.938 1171.15 682.938C1138.6 682.938 1112.22 694.097 1112.22 707.863C1112.22 721.629 1138.6 732.789 1171.15 732.789Z" fill="#DCE9BF"/>
<path d="M1403.2 827.529V956.613C1403.2 970.538 1391.96 981.825 1378.1 981.825H1170.63C1156.77 981.825 1145.53 970.538 1145.53 956.613V932.383C1151.42 930.464 1156.17 925.337 1156.17 919.055C1156.17 912.441 1152.74 904.614 1145.53 903.766V828.915C1147.77 828.315 1149.91 827.055 1151.5 825.312C1154.89 821.621 1154.36 815.457 1151.29 811.451C1155.9 805.87 1162.85 802.317 1170.63 802.317H1378.1C1391.96 802.317 1403.2 813.604 1403.2 827.529Z" fill="#FFA412"/>
<path d="M1300.28 822.528V961.614C1300.28 972.776 1291.27 981.825 1280.16 981.825H1145.53V932.383C1151.42 930.465 1156.17 925.337 1156.17 919.055C1156.17 912.442 1152.74 904.614 1145.53 903.766V888.502C1147.85 888.275 1150.15 887.536 1152.31 886.394C1158.97 882.863 1164.21 875.476 1164.21 867.346C1164.21 857.777 1155.04 850.68 1145.53 849.974V828.915C1147.77 828.315 1149.91 827.055 1151.5 825.312C1154.89 821.621 1154.36 815.457 1151.29 811.451C1150.91 810.956 1150.49 810.493 1150.04 810.073C1148.71 808.852 1147.16 808.049 1145.53 807.655V802.317H1280.16C1291.27 802.317 1300.28 811.367 1300.28 822.528Z" fill="#FFB93E"/>
<path d="M1224.51 872.021C1224.51 880.15 1219.27 887.537 1212.61 891.068C1209.98 892.462 1207.13 893.256 1204.28 893.256C1199.67 893.256 1195.46 891.534 1192.26 888.691C1192.25 888.683 1192.25 888.679 1192.24 888.67C1188.48 885.328 1186.1 880.436 1186.1 874.99C1186.1 864.899 1194.24 854.594 1204.28 854.594C1214.32 854.594 1224.51 861.934 1224.51 872.021Z" fill="#FFA412"/>
<path opacity="0.5" d="M1221.41 875.466C1221.41 881.882 1217.65 887.765 1212.61 891.07C1209.98 892.464 1207.13 893.258 1204.28 893.258C1199.67 893.258 1195.46 891.536 1192.26 888.693C1192.25 888.685 1192.25 888.681 1192.24 888.672C1189.7 885.863 1188.15 882.13 1188.15 878.036C1188.15 869.302 1195.2 860.374 1203.9 860.374C1212.59 860.374 1221.41 866.732 1221.41 875.466Z" fill="#FFB93E"/>
<path d="M1171.03 839.447C1167.7 836.368 1166.66 831.407 1167.74 827.316C1168.16 825.7 1168.92 824.22 1170 823.046C1171.74 821.14 1174.04 820.052 1176.42 819.805C1176.42 819.805 1176.43 819.805 1176.43 819.805C1179.23 819.514 1182.13 820.385 1184.36 822.448C1188.5 826.269 1189.63 833.536 1185.83 837.688C1182.03 841.837 1175.17 843.267 1171.03 839.447Z" fill="#FFA412"/>
<path opacity="0.5" d="M1170.79 836.865C1168.17 834.436 1167.18 830.651 1167.74 827.317C1168.16 825.701 1168.92 824.222 1170 823.047C1171.74 821.141 1174.04 820.053 1176.42 819.807C1176.42 819.806 1176.43 819.806 1176.43 819.806C1178.55 819.819 1180.66 820.592 1182.34 822.142C1185.92 825.45 1186.9 831.746 1183.61 835.34C1180.32 838.935 1174.37 840.173 1170.79 836.865Z" fill="#FFB93E"/>
<path d="M1260.57 845.013C1256.91 849.245 1250.86 850.71 1245.8 849.519C1243.8 849.048 1241.96 848.165 1240.48 846.872C1238.08 844.777 1236.67 841.967 1236.28 839.032C1236.28 839.023 1236.28 839.02 1236.28 839.011C1235.83 835.559 1236.79 831.934 1239.25 829.099C1243.79 823.847 1252.67 822.184 1257.9 826.75C1263.12 831.315 1265.12 839.764 1260.57 845.013Z" fill="#FFA412"/>
<path opacity="0.5" d="M1257.41 845.401C1254.52 848.74 1249.91 850.09 1245.8 849.521C1243.8 849.049 1241.96 848.166 1240.48 846.874C1238.08 844.778 1236.67 841.968 1236.28 839.033C1236.28 839.025 1236.28 839.021 1236.28 839.012C1236.22 836.395 1237.1 833.747 1238.94 831.616C1242.87 827.07 1250.57 825.629 1255.09 829.582C1259.62 833.536 1261.34 840.855 1257.41 845.401Z" fill="#FFB93E"/>
<path d="M1266.1 911.388C1263.59 918.073 1257.01 922.518 1250.44 923.349C1247.85 923.676 1245.26 923.442 1242.92 922.558C1239.13 921.123 1236.2 918.398 1234.44 915.065C1234.44 915.055 1234.44 915.05 1234.43 915.041C1232.37 911.12 1231.92 906.359 1233.6 901.881C1236.71 893.583 1246.58 887.642 1254.84 890.767C1263.09 893.89 1269.2 903.094 1266.1 911.388Z" fill="#FFA412"/>
<path opacity="0.5" d="M1262.49 913.257C1260.51 918.533 1255.6 922.199 1250.44 923.349C1247.85 923.676 1245.26 923.442 1242.92 922.557C1239.13 921.123 1236.2 918.398 1234.44 915.064C1234.44 915.055 1234.44 915.05 1234.43 915.04C1233.21 911.94 1233.09 908.388 1234.35 905.021C1237.04 897.839 1245.59 892.692 1252.74 895.397C1259.89 898.103 1265.18 906.074 1262.49 913.257Z" fill="#FFB93E"/>
<path d="M1240.91 948.211C1241.82 952.456 1239.9 956.9 1236.82 959.491C1235.6 960.513 1234.2 961.248 1232.71 961.566C1230.31 962.084 1227.92 961.656 1225.93 960.531C1225.92 960.527 1225.92 960.525 1225.92 960.522C1223.58 959.199 1221.8 956.911 1221.19 954.067C1220.07 948.798 1223.17 942.504 1228.42 941.378C1233.66 940.253 1239.79 942.944 1240.91 948.211Z" fill="#FFA412"/>
<path opacity="0.5" d="M1239.68 950.356C1240.4 953.706 1239.08 957.2 1236.82 959.491C1235.6 960.514 1234.2 961.248 1232.71 961.566C1230.31 962.084 1227.92 961.657 1225.93 960.531C1225.92 960.527 1225.92 960.526 1225.92 960.522C1224.28 959.341 1223.05 957.565 1222.6 955.427C1221.63 950.866 1224.32 945.414 1228.86 944.439C1233.4 943.463 1238.71 945.795 1239.68 950.356Z" fill="#FFB93E"/>
<path d="M1287.37 853.389C1290 856.102 1290.64 860.277 1289.56 863.632C1289.14 864.958 1288.44 866.154 1287.49 867.083C1285.95 868.589 1283.99 869.39 1282 869.488C1282 869.488 1282 869.487 1281.99 869.487C1279.65 869.602 1277.28 868.745 1275.51 866.928C1272.25 863.56 1271.63 857.463 1274.98 854.181C1278.33 850.901 1284.1 850.023 1287.37 853.389Z" fill="#FFA412"/>
<path opacity="0.5" d="M1287.45 855.546C1289.53 857.687 1290.18 860.881 1289.57 863.63C1289.14 864.955 1288.44 866.151 1287.49 867.08C1285.96 868.586 1283.99 869.387 1282.01 869.485C1282 869.485 1282 869.485 1281.99 869.484C1280.23 869.377 1278.51 868.638 1277.18 867.272C1274.36 864.357 1273.82 859.074 1276.72 856.233C1279.62 853.392 1284.62 852.631 1287.45 855.546Z" fill="#FFB93E"/>
<path d="M1179.25 966.388C1172.17 966.998 1165.34 962.949 1161.76 957.355C1160.35 955.143 1159.44 952.695 1159.23 950.196C1158.89 946.141 1160.07 942.31 1162.31 939.281C1162.31 939.272 1162.32 939.269 1162.32 939.26C1164.95 935.698 1169.04 933.242 1173.78 932.833C1182.58 932.076 1192.17 938.46 1192.92 947.294C1193.68 956.124 1188.04 965.631 1179.25 966.388Z" fill="#FFA412"/>
<path opacity="0.5" d="M1176.02 963.926C1170.43 964.407 1165.02 961.536 1161.76 957.355C1160.35 955.143 1159.44 952.696 1159.23 950.196C1158.89 946.141 1160.07 942.31 1162.31 939.281C1162.31 939.273 1162.32 939.269 1162.32 939.261C1164.58 936.815 1167.72 935.171 1171.28 934.863C1178.9 934.208 1187.2 939.74 1187.86 947.386C1188.51 955.036 1183.63 963.27 1176.02 963.926Z" fill="#FFB93E"/>
<path d="M1022.82 772.229C1000.24 737.942 991.205 663.845 1025.33 641.151C1059.46 618.457 1123.83 655.761 1146.42 690.048C1169 724.334 1159.65 770.526 1125.52 793.22C1091.39 815.913 1045.41 806.515 1022.82 772.229Z" fill="white"/>
<path d="M1048.86 752.194C1036.24 733.044 1041.47 707.243 1060.53 694.568C1079.59 681.893 1105.27 687.142 1117.89 706.292C1130.51 725.443 1125.28 751.243 1106.22 763.918C1087.16 776.594 1061.48 771.345 1048.86 752.194Z" fill="#F99746"/>
<path d="M984.934 409.704H976.42V418.271H974.877V399.928H986.188V401.251H976.42V408.381H984.934V409.704Z" fill="black"/>
<path d="M997.113 418.272C997.029 418.037 996.964 417.749 996.918 417.409C996.872 417.069 996.841 416.723 996.825 416.37C996.599 416.664 996.331 416.941 996.022 417.202C995.713 417.462 995.365 417.689 994.981 417.882C994.597 418.075 994.174 418.231 993.715 418.348C993.255 418.465 992.757 418.524 992.222 418.524C991.562 418.524 990.962 418.428 990.423 418.235C989.884 418.042 989.423 417.771 989.043 417.422C988.663 417.074 988.368 416.664 988.159 416.193C987.95 415.723 987.846 415.211 987.846 414.657C987.846 413.994 987.988 413.395 988.272 412.862C988.556 412.329 988.966 411.875 989.501 411.501C990.036 411.128 990.686 410.842 991.451 410.644C992.216 410.447 993.075 410.349 994.028 410.349H996.812V408.799C996.812 407.825 996.513 407.058 995.915 406.5C995.317 405.941 994.446 405.662 993.3 405.662C992.774 405.662 992.288 405.733 991.846 405.876C991.402 406.019 991.02 406.216 990.698 406.468C990.376 406.72 990.126 407.012 989.946 407.344C989.766 407.676 989.676 408.03 989.676 408.408L988.171 408.395C988.171 407.883 988.297 407.388 988.548 406.909C988.798 406.43 989.152 406.004 989.607 405.63C990.063 405.256 990.61 404.955 991.25 404.729C991.89 404.502 992.598 404.389 993.376 404.389C994.094 404.389 994.757 404.481 995.364 404.666C995.97 404.851 996.49 405.128 996.925 405.497C997.36 405.867 997.698 406.329 997.941 406.883C998.183 407.437 998.305 408.084 998.305 408.823V415.424C998.305 415.659 998.313 415.903 998.33 416.155C998.346 416.406 998.374 416.65 998.412 416.885C998.449 417.121 998.493 417.345 998.543 417.559C998.593 417.773 998.651 417.96 998.718 418.12V418.271H997.113V418.272ZM992.398 417.189C992.941 417.189 993.445 417.12 993.909 416.981C994.373 416.843 994.793 416.651 995.169 416.408C995.546 416.164 995.872 415.881 996.148 415.557C996.424 415.234 996.645 414.884 996.812 414.505V411.507H994.241C993.472 411.507 992.784 411.576 992.178 411.715C991.572 411.853 991.06 412.053 990.643 412.313C990.224 412.574 989.904 412.891 989.683 413.264C989.461 413.638 989.35 414.061 989.35 414.531C989.35 414.9 989.421 415.246 989.564 415.57C989.706 415.893 989.909 416.174 990.172 416.414C990.436 416.653 990.755 416.842 991.131 416.981C991.508 417.12 991.93 417.189 992.398 417.189Z" fill="black"/>
<path d="M1004.63 401.149V404.639H1007.44V405.874H1004.63V414.957C1004.63 415.436 1004.68 415.82 1004.78 416.11C1004.87 416.4 1005 416.627 1005.17 416.79C1005.33 416.954 1005.52 417.064 1005.73 417.118C1005.95 417.172 1006.17 417.2 1006.4 417.2C1006.63 417.2 1006.85 417.185 1007.05 417.156C1007.26 417.127 1007.45 417.099 1007.62 417.074L1007.68 418.309C1007.5 418.376 1007.26 418.428 1006.96 418.466C1006.66 418.504 1006.37 418.523 1006.08 418.523C1005.65 418.523 1005.26 418.466 1004.89 418.353C1004.53 418.239 1004.22 418.044 1003.96 417.767C1003.7 417.49 1003.5 417.123 1003.35 416.664C1003.2 416.207 1003.13 415.638 1003.13 414.957V405.874H1000.63V404.639H1003.13V401.149H1004.63Z" fill="black"/>
<path d="M1018.68 414.807C1018.68 414.53 1018.63 414.253 1018.54 413.976C1018.44 413.699 1018.26 413.437 1018 413.189C1017.73 412.941 1017.37 412.71 1016.89 412.496C1016.42 412.282 1015.81 412.095 1015.06 411.935C1014.3 411.776 1013.63 411.591 1013.04 411.381C1012.46 411.171 1011.96 410.917 1011.55 410.618C1011.15 410.32 1010.84 409.966 1010.63 409.554C1010.42 409.143 1010.32 408.66 1010.32 408.105C1010.32 407.601 1010.43 407.122 1010.65 406.669C1010.87 406.215 1011.19 405.821 1011.6 405.485C1012.02 405.149 1012.52 404.882 1013.11 404.685C1013.7 404.488 1014.36 404.389 1015.1 404.389C1015.88 404.389 1016.59 404.492 1017.21 404.697C1017.83 404.903 1018.36 405.189 1018.79 405.554C1019.22 405.919 1019.55 406.35 1019.77 406.845C1020 407.341 1020.11 407.878 1020.11 408.458H1018.61C1018.61 408.105 1018.53 407.761 1018.37 407.425C1018.22 407.089 1017.99 406.793 1017.7 406.537C1017.4 406.28 1017.03 406.073 1016.59 405.913C1016.16 405.754 1015.66 405.674 1015.1 405.674C1014.51 405.674 1014.01 405.745 1013.6 405.888C1013.18 406.031 1012.84 406.215 1012.58 406.442C1012.32 406.669 1012.13 406.923 1012 407.205C1011.88 407.486 1011.82 407.769 1011.82 408.055C1011.82 408.357 1011.87 408.633 1011.96 408.88C1012.05 409.128 1012.23 409.359 1012.49 409.573C1012.76 409.787 1013.12 409.985 1013.6 410.165C1014.07 410.346 1014.69 410.524 1015.45 410.7C1016.27 410.894 1016.97 411.108 1017.57 411.343C1018.16 411.578 1018.65 411.857 1019.04 412.181C1019.43 412.504 1019.72 412.874 1019.9 413.289C1020.09 413.705 1020.19 414.186 1020.19 414.732C1020.19 415.295 1020.07 415.809 1019.84 416.275C1019.6 416.741 1019.27 417.14 1018.83 417.471C1018.4 417.803 1017.87 418.062 1017.25 418.246C1016.63 418.431 1015.94 418.523 1015.18 418.523C1014.32 418.523 1013.56 418.412 1012.9 418.19C1012.24 417.967 1011.69 417.667 1011.23 417.289C1010.78 416.91 1010.44 416.476 1010.21 415.985C1009.98 415.494 1009.87 414.983 1009.87 414.454H1011.37C1011.41 414.992 1011.54 415.439 1011.79 415.796C1012.03 416.153 1012.33 416.438 1012.69 416.653C1013.05 416.867 1013.45 417.02 1013.89 417.113C1014.33 417.205 1014.76 417.251 1015.18 417.251C1015.75 417.251 1016.25 417.184 1016.69 417.05C1017.12 416.915 1017.49 416.735 1017.79 416.508C1018.08 416.281 1018.31 416.021 1018.46 415.727C1018.61 415.433 1018.68 415.127 1018.68 414.807Z" fill="black"/>
<path d="M969.117 441.66H953.639V435.374H977.352V440.857L962.578 468.461H954.391L969.117 441.66Z" fill="black"/>
<path d="M980.411 464.065L984.787 458.819C987.28 461.087 989.726 462.411 992.644 462.411C996.031 462.411 998.148 460.757 998.148 457.731C998.148 454.895 995.748 453.241 992.314 453.241C990.244 453.241 988.362 453.808 986.81 454.47L982.622 451.681L983.563 435.374H1003.79V441.755H989.774L989.398 447.474C990.715 447.144 991.891 446.907 993.726 446.907C1000.12 446.907 1005.25 450.027 1005.25 457.59C1005.25 464.585 1000.31 469.028 992.738 469.028C987.468 469.029 983.61 467.138 980.411 464.065Z" fill="black"/>
<path d="M1009.56 446.537C1009.56 442.421 1012.41 439.096 1016.63 439.096C1020.81 439.096 1023.63 442.38 1023.63 446.537C1023.63 450.611 1020.77 453.978 1016.55 453.978C1012.37 453.978 1009.56 450.694 1009.56 446.537ZM1033.6 439.428H1038.52L1017.38 468.528H1012.45L1033.6 439.428ZM1019.28 446.537C1019.28 444.583 1018.2 442.878 1016.55 442.878C1014.81 442.878 1013.9 444.541 1013.9 446.537C1013.9 448.491 1014.98 450.195 1016.63 450.195C1018.37 450.195 1019.28 448.491 1019.28 446.537ZM1027.35 461.419C1027.35 457.304 1030.2 453.978 1034.43 453.978C1038.6 453.978 1041.42 457.262 1041.42 461.419C1041.42 465.493 1038.56 468.86 1034.34 468.86C1030.16 468.86 1027.35 465.576 1027.35 461.419ZM1037.07 461.419C1037.07 459.465 1036 457.761 1034.34 457.761C1032.6 457.761 1031.69 459.424 1031.69 461.419C1031.69 463.373 1032.77 465.078 1034.43 465.078C1036.16 465.078 1037.07 463.373 1037.07 461.419Z" fill="black"/>
<path d="M777.464 482.585V490.056H775.921V471.713H782.141C783.144 471.713 784.028 471.848 784.793 472.116C785.558 472.385 786.199 472.761 786.718 473.244C787.236 473.727 787.627 474.304 787.891 474.976C788.154 475.648 788.285 476.387 788.285 477.193C788.285 478.042 788.154 478.799 787.891 479.467C787.627 480.135 787.239 480.7 786.724 481.162C786.21 481.624 785.568 481.976 784.799 482.22C784.03 482.464 783.144 482.585 782.141 482.585H777.464ZM777.464 481.275H782.141C782.952 481.275 783.65 481.172 784.236 480.967C784.82 480.761 785.297 480.475 785.665 480.11C786.033 479.744 786.305 479.314 786.48 478.818C786.656 478.323 786.744 477.789 786.744 477.219C786.744 476.656 786.656 476.12 786.48 475.612C786.305 475.104 786.033 474.659 785.665 474.277C785.297 473.895 784.82 473.592 784.236 473.37C783.65 473.148 782.952 473.036 782.141 473.036H777.464V481.275Z" fill="black"/>
<path d="M797.655 477.711C797.337 477.652 796.998 477.622 796.639 477.622C796.13 477.622 795.67 477.698 795.26 477.849C794.85 478.001 794.489 478.213 794.175 478.485C793.861 478.758 793.598 479.082 793.385 479.456C793.172 479.829 793.003 480.243 792.877 480.696V490.057H791.385V476.426H792.852L792.878 478.592C793.245 477.845 793.745 477.255 794.376 476.823C795.007 476.39 795.782 476.174 796.702 476.174C796.886 476.174 797.074 476.191 797.266 476.225C797.458 476.258 797.6 476.296 797.692 476.338L797.655 477.711Z" fill="black"/>
<path d="M798.943 483.04C798.943 482.049 799.088 481.133 799.376 480.293C799.665 479.453 800.072 478.729 800.598 478.12C801.125 477.511 801.76 477.035 802.505 476.69C803.248 476.346 804.076 476.174 804.987 476.174C805.916 476.174 806.754 476.346 807.502 476.69C808.25 477.035 808.888 477.511 809.415 478.12C809.941 478.729 810.346 479.454 810.631 480.293C810.915 481.133 811.057 482.049 811.057 483.04V483.455C811.057 484.446 810.915 485.362 810.631 486.202C810.346 487.042 809.941 487.766 809.415 488.375C808.888 488.984 808.252 489.458 807.508 489.798C806.764 490.138 805.932 490.309 805.013 490.309C804.093 490.309 803.261 490.138 802.517 489.798C801.774 489.458 801.136 488.984 800.605 488.375C800.074 487.766 799.665 487.042 799.376 486.202C799.088 485.362 798.943 484.446 798.943 483.455V483.04ZM800.448 483.455C800.448 484.203 800.548 484.915 800.749 485.59C800.949 486.267 801.242 486.859 801.627 487.367C802.012 487.875 802.488 488.28 803.056 488.582C803.625 488.885 804.277 489.036 805.012 489.036C805.748 489.036 806.398 488.885 806.962 488.582C807.526 488.28 808.001 487.875 808.386 487.367C808.77 486.859 809.063 486.267 809.264 485.59C809.464 484.915 809.564 484.203 809.564 483.455V483.04C809.564 482.309 809.464 481.606 809.264 480.929C809.063 480.254 808.77 479.659 808.386 479.147C808.001 478.634 807.522 478.225 806.95 477.918C806.377 477.612 805.723 477.458 804.987 477.458C804.261 477.458 803.614 477.612 803.05 477.918C802.486 478.225 802.011 478.634 801.627 479.147C801.242 479.659 800.949 480.254 800.749 480.929C800.548 481.606 800.448 482.309 800.448 483.04L800.448 483.455Z" fill="black"/>
<path d="M816.49 472.935V476.424H819.299V477.659H816.49V486.742C816.49 487.221 816.538 487.605 816.634 487.895C816.731 488.185 816.86 488.412 817.023 488.576C817.186 488.74 817.374 488.849 817.588 488.903C817.801 488.957 818.024 488.985 818.258 488.985C818.484 488.985 818.702 488.97 818.91 488.941C819.119 488.911 819.308 488.884 819.475 488.859L819.538 490.093C819.353 490.161 819.113 490.213 818.816 490.251C818.52 490.289 818.225 490.308 817.932 490.308C817.506 490.308 817.111 490.251 816.747 490.137C816.383 490.024 816.072 489.829 815.813 489.552C815.554 489.275 815.351 488.908 815.205 488.45C815.059 487.992 814.985 487.423 814.985 486.742V477.659H812.49V476.424H814.985V472.935H816.49Z" fill="black"/>
<path d="M827.66 490.309C826.774 490.309 825.959 490.143 825.215 489.811C824.472 489.479 823.83 489.018 823.291 488.425C822.751 487.834 822.331 487.13 822.03 486.315C821.729 485.501 821.579 484.606 821.579 483.632V483.09C821.579 482.04 821.736 481.089 822.049 480.237C822.363 479.385 822.787 478.658 823.322 478.057C823.857 477.457 824.473 476.992 825.171 476.665C825.869 476.338 826.607 476.174 827.385 476.174C828.246 476.174 829.011 476.329 829.68 476.64C830.348 476.951 830.911 477.383 831.366 477.937C831.822 478.492 832.167 479.151 832.401 479.915C832.634 480.679 832.752 481.515 832.752 482.422V483.342H823.071V483.631C823.071 484.379 823.184 485.082 823.409 485.741C823.635 486.401 823.953 486.974 824.363 487.461C824.772 487.948 825.261 488.332 825.829 488.613C826.398 488.895 827.029 489.035 827.723 489.035C828.526 489.035 829.234 488.888 829.849 488.594C830.464 488.301 831.021 487.83 831.523 487.183L832.463 487.902C832.238 488.229 831.976 488.54 831.679 488.834C831.382 489.128 831.038 489.384 830.644 489.602C830.252 489.821 829.808 489.993 829.315 490.119C828.823 490.246 828.271 490.309 827.66 490.309ZM827.385 477.458C826.816 477.458 826.29 477.567 825.805 477.786C825.32 478.004 824.891 478.315 824.52 478.718C824.147 479.121 823.843 479.607 823.604 480.174C823.366 480.74 823.205 481.369 823.121 482.057H831.26V481.893C831.243 481.322 831.151 480.77 830.984 480.237C830.817 479.704 830.572 479.231 830.25 478.819C829.929 478.408 829.529 478.078 829.052 477.83C828.576 477.583 828.02 477.458 827.385 477.458Z" fill="black"/>
<path d="M835.589 472.482C835.589 472.197 835.681 471.955 835.865 471.757C836.048 471.56 836.299 471.461 836.617 471.461C836.934 471.461 837.187 471.56 837.376 471.757C837.564 471.955 837.658 472.196 837.658 472.482C837.658 472.767 837.564 473.006 837.376 473.2C837.188 473.393 836.935 473.489 836.617 473.489C836.299 473.489 836.048 473.393 835.865 473.2C835.681 473.006 835.589 472.767 835.589 472.482ZM837.357 490.056H835.852V476.425H837.357V490.056Z" fill="black"/>
<path d="M842.859 476.425L842.91 478.756C843.143 478.37 843.413 478.017 843.718 477.698C844.024 477.379 844.364 477.106 844.74 476.879C845.117 476.652 845.522 476.478 845.957 476.356C846.391 476.235 846.851 476.174 847.336 476.174C848.013 476.174 848.619 476.266 849.154 476.451C849.689 476.636 850.143 476.93 850.515 477.333C850.887 477.736 851.171 478.255 851.367 478.889C851.564 479.523 851.662 480.289 851.662 481.188V490.057H850.17V481.175C850.17 480.469 850.095 479.882 849.944 479.411C849.793 478.941 849.581 478.563 849.305 478.277C849.029 477.992 848.692 477.788 848.295 477.666C847.898 477.545 847.457 477.484 846.972 477.484C846.437 477.484 845.952 477.574 845.518 477.755C845.082 477.935 844.698 478.177 844.364 478.479C844.029 478.781 843.741 479.128 843.498 479.518C843.256 479.909 843.064 480.31 842.922 480.721V490.057H841.43V476.425L842.859 476.425Z" fill="black"/>
<path d="M765.961 537.192L777.091 528.026C781.246 524.571 782.87 522.748 782.87 519.965C782.87 517.134 781.007 515.598 778.38 515.598C775.801 515.598 774.034 517.038 771.55 520.109L766.391 515.934C769.687 511.424 772.887 508.977 778.858 508.977C785.784 508.977 790.369 513.055 790.369 519.437C790.369 525.051 787.503 527.834 781.58 532.441L776.135 536.663H790.703V543.045H765.961V537.192H765.961Z" fill="black"/>
<path d="M795.957 526.252C795.957 516.511 801.975 508.882 810.859 508.882C819.696 508.882 825.666 516.415 825.666 526.252C825.666 535.993 819.696 543.623 810.764 543.623C801.832 543.623 795.957 536.089 795.957 526.252ZM818.119 526.252C818.119 520.158 815.158 515.552 810.764 515.552C806.37 515.552 803.504 520.014 803.504 526.252C803.504 532.394 806.417 536.952 810.859 536.952C815.302 536.952 818.119 532.442 818.119 526.252Z" fill="black"/>
<path d="M829.762 521.133C829.762 517.018 832.617 513.692 836.838 513.692C841.017 513.692 843.831 516.976 843.831 521.133C843.831 525.207 840.976 528.574 836.755 528.574C832.575 528.575 829.762 525.29 829.762 521.133ZM853.803 514.025H858.727L837.582 543.124H832.658L853.803 514.025ZM839.486 521.133C839.486 519.18 838.41 517.475 836.755 517.475C835.017 517.475 834.107 519.138 834.107 521.133C834.107 523.087 835.183 524.792 836.838 524.792C838.576 524.792 839.486 523.087 839.486 521.133ZM847.555 536.016C847.555 531.9 850.41 528.574 854.63 528.574C858.81 528.574 861.624 531.858 861.624 536.016C861.624 540.089 858.768 543.457 854.548 543.457C850.369 543.457 847.555 540.173 847.555 536.016ZM857.279 536.016C857.279 534.062 856.203 532.357 854.548 532.357C852.81 532.357 851.9 534.02 851.9 536.016C851.9 537.97 852.976 539.673 854.631 539.673C856.368 539.674 857.279 537.97 857.279 536.016Z" fill="black"/>
<path d="M1150.23 609.876C1150.13 610.808 1149.92 611.644 1149.58 612.382C1149.25 613.122 1148.8 613.748 1148.23 614.26C1147.67 614.773 1146.99 615.165 1146.2 615.438C1145.41 615.71 1144.52 615.847 1143.51 615.847C1142.48 615.847 1141.53 615.649 1140.69 615.255C1139.85 614.86 1139.12 614.299 1138.52 613.573C1137.92 612.847 1137.45 611.975 1137.13 610.959C1136.8 609.942 1136.64 608.817 1136.64 607.582V605.277C1136.64 604.042 1136.8 602.915 1137.13 601.894C1137.45 600.874 1137.92 600.003 1138.53 599.28C1139.13 598.558 1139.87 597.997 1140.73 597.598C1141.59 597.199 1142.55 597 1143.62 597C1144.59 597 1145.47 597.134 1146.24 597.403C1147.02 597.672 1147.69 598.064 1148.25 598.581C1148.8 599.097 1149.25 599.727 1149.59 600.471C1149.93 601.214 1150.14 602.056 1150.23 602.996H1148.68C1148.59 602.257 1148.42 601.596 1148.18 601.012C1147.93 600.429 1147.6 599.939 1147.19 599.545C1146.78 599.15 1146.28 598.848 1145.69 598.638C1145.1 598.428 1144.41 598.323 1143.62 598.323C1142.77 598.323 1142.01 598.489 1141.34 598.82C1140.67 599.152 1140.1 599.62 1139.64 600.225C1139.17 600.83 1138.81 601.559 1138.56 602.411C1138.32 603.263 1138.19 604.211 1138.19 605.252V607.582C1138.19 608.59 1138.31 609.521 1138.55 610.372C1138.78 611.225 1139.12 611.96 1139.57 612.578C1140.03 613.195 1140.58 613.676 1141.24 614.02C1141.9 614.364 1142.66 614.537 1143.51 614.537C1145.12 614.537 1146.34 614.148 1147.16 613.371C1147.98 612.595 1148.49 611.429 1148.68 609.875L1150.23 609.876Z" fill="black"/>
<path d="M1162.2 615.596C1162.11 615.361 1162.05 615.073 1162 614.733C1161.96 614.393 1161.92 614.046 1161.91 613.694C1161.68 613.988 1161.41 614.265 1161.1 614.525C1160.8 614.785 1160.45 615.012 1160.06 615.205C1159.68 615.398 1159.26 615.554 1158.8 615.671C1158.34 615.789 1157.84 615.848 1157.3 615.848C1156.64 615.848 1156.05 615.751 1155.51 615.558C1154.97 615.365 1154.51 615.094 1154.13 614.745C1153.75 614.397 1153.45 613.987 1153.24 613.517C1153.03 613.047 1152.93 612.534 1152.93 611.98C1152.93 611.316 1153.07 610.718 1153.36 610.185C1153.64 609.652 1154.05 609.198 1154.58 608.824C1155.12 608.45 1155.77 608.165 1156.53 607.967C1157.3 607.77 1158.16 607.672 1159.11 607.672H1161.89V606.122C1161.89 605.148 1161.6 604.382 1161 603.823C1160.4 603.264 1159.53 602.985 1158.38 602.985C1157.86 602.985 1157.37 603.056 1156.93 603.199C1156.49 603.342 1156.1 603.539 1155.78 603.792C1155.46 604.044 1155.21 604.335 1155.03 604.667C1154.85 604.999 1154.76 605.354 1154.76 605.731L1153.25 605.719C1153.25 605.207 1153.38 604.711 1153.63 604.232C1153.88 603.753 1154.23 603.328 1154.69 602.954C1155.15 602.58 1155.69 602.279 1156.33 602.053C1156.97 601.826 1157.68 601.713 1158.46 601.713C1159.18 601.713 1159.84 601.805 1160.45 601.99C1161.05 602.175 1161.57 602.452 1162.01 602.822C1162.44 603.191 1162.78 603.653 1163.02 604.207C1163.27 604.762 1163.39 605.409 1163.39 606.147V612.749C1163.39 612.984 1163.4 613.228 1163.41 613.48C1163.43 613.731 1163.46 613.976 1163.49 614.21C1163.53 614.446 1163.58 614.67 1163.63 614.885C1163.68 615.098 1163.73 615.286 1163.8 615.445V615.596H1162.2V615.596ZM1157.48 614.513C1158.02 614.513 1158.53 614.443 1158.99 614.305C1159.46 614.166 1159.88 613.975 1160.25 613.731C1160.63 613.488 1160.95 613.204 1161.23 612.881C1161.51 612.558 1161.73 612.207 1161.9 611.829V608.831H1159.32C1158.56 608.831 1157.87 608.9 1157.26 609.038C1156.66 609.177 1156.14 609.377 1155.73 609.637C1155.31 609.898 1154.99 610.215 1154.77 610.588C1154.54 610.962 1154.43 611.384 1154.43 611.854C1154.43 612.223 1154.5 612.57 1154.65 612.893C1154.79 613.217 1154.99 613.498 1155.26 613.737C1155.52 613.977 1155.84 614.166 1156.21 614.304C1156.59 614.443 1157.01 614.513 1157.48 614.513Z" fill="black"/>
<path d="M1173.66 603.25C1173.34 603.191 1173 603.162 1172.64 603.162C1172.13 603.162 1171.67 603.237 1171.26 603.388C1170.85 603.539 1170.49 603.751 1170.18 604.024C1169.86 604.297 1169.6 604.621 1169.39 604.994C1169.17 605.368 1169.01 605.782 1168.88 606.235V615.596H1167.39V601.964H1168.85L1168.88 604.132C1169.25 603.384 1169.75 602.794 1170.38 602.362C1171.01 601.929 1171.78 601.713 1172.7 601.713C1172.89 601.713 1173.08 601.73 1173.27 601.763C1173.46 601.797 1173.6 601.834 1173.7 601.876L1173.66 603.25Z" fill="black"/>
<path d="M1186.95 608.918C1186.95 609.942 1186.83 610.879 1186.6 611.727C1186.37 612.575 1186.04 613.304 1185.59 613.913C1185.15 614.522 1184.61 614.996 1183.96 615.336C1183.32 615.676 1182.59 615.847 1181.77 615.847C1180.77 615.847 1179.92 615.658 1179.22 615.28C1178.51 614.902 1177.93 614.385 1177.48 613.73L1177.42 615.595H1176.01V596.244H1177.51V603.942C1177.96 603.236 1178.53 602.689 1179.22 602.298C1179.92 601.907 1180.76 601.712 1181.74 601.712C1182.57 601.712 1183.31 601.875 1183.95 602.203C1184.6 602.53 1185.14 602.997 1185.59 603.601C1186.03 604.206 1186.37 604.935 1186.6 605.787C1186.83 606.64 1186.95 607.595 1186.95 608.653L1186.95 608.918ZM1185.44 608.652C1185.44 607.863 1185.37 607.124 1185.22 606.435C1185.07 605.746 1184.83 605.15 1184.51 604.646C1184.19 604.142 1183.78 603.745 1183.27 603.455C1182.77 603.166 1182.17 603.021 1181.47 603.021C1180.9 603.021 1180.4 603.098 1179.96 603.254C1179.53 603.409 1179.15 603.617 1178.84 603.877C1178.52 604.138 1178.25 604.436 1178.03 604.772C1177.82 605.108 1177.64 605.457 1177.51 605.817V611.965C1177.67 612.326 1177.86 612.664 1178.1 612.979C1178.34 613.295 1178.62 613.568 1178.95 613.798C1179.27 614.029 1179.65 614.21 1180.07 614.34C1180.49 614.47 1180.97 614.535 1181.49 614.535C1182.17 614.535 1182.76 614.393 1183.26 614.107C1183.75 613.822 1184.17 613.427 1184.49 612.923C1184.82 612.419 1185.06 611.825 1185.21 611.141C1185.37 610.456 1185.44 609.715 1185.44 608.917L1185.44 608.652Z" fill="black"/>
<path d="M1198.39 612.132C1198.39 611.854 1198.34 611.577 1198.24 611.3C1198.15 611.023 1197.97 610.76 1197.71 610.512C1197.44 610.265 1197.07 610.034 1196.6 609.819C1196.13 609.606 1195.52 609.419 1194.77 609.259C1194.01 609.099 1193.34 608.915 1192.75 608.704C1192.16 608.494 1191.67 608.241 1191.26 607.942C1190.85 607.644 1190.55 607.289 1190.34 606.878C1190.13 606.466 1190.02 605.983 1190.02 605.429C1190.02 604.925 1190.14 604.446 1190.36 603.993C1190.58 603.539 1190.9 603.144 1191.31 602.809C1191.72 602.473 1192.23 602.206 1192.82 602.009C1193.4 601.811 1194.07 601.713 1194.8 601.713C1195.59 601.713 1196.29 601.815 1196.92 602.021C1197.54 602.227 1198.07 602.512 1198.5 602.878C1198.93 603.243 1199.25 603.674 1199.48 604.169C1199.71 604.665 1199.82 605.202 1199.82 605.782H1198.31C1198.31 605.429 1198.24 605.085 1198.08 604.749C1197.93 604.413 1197.7 604.117 1197.41 603.86C1197.11 603.605 1196.74 603.397 1196.3 603.237C1195.86 603.078 1195.36 602.998 1194.8 602.998C1194.22 602.998 1193.72 603.069 1193.3 603.212C1192.89 603.355 1192.55 603.539 1192.29 603.766C1192.03 603.993 1191.83 604.247 1191.71 604.529C1191.59 604.81 1191.53 605.094 1191.53 605.379C1191.53 605.681 1191.58 605.957 1191.67 606.204C1191.76 606.452 1191.94 606.683 1192.2 606.897C1192.46 607.111 1192.83 607.308 1193.3 607.489C1193.78 607.67 1194.39 607.849 1195.15 608.025C1195.97 608.218 1196.68 608.432 1197.27 608.667C1197.87 608.903 1198.36 609.182 1198.75 609.505C1199.14 609.829 1199.42 610.198 1199.61 610.613C1199.8 611.029 1199.89 611.51 1199.89 612.056C1199.89 612.618 1199.78 613.133 1199.54 613.599C1199.31 614.065 1198.97 614.465 1198.54 614.796C1198.11 615.128 1197.58 615.386 1196.96 615.571C1196.34 615.756 1195.65 615.849 1194.89 615.849C1194.03 615.849 1193.27 615.737 1192.61 615.514C1191.95 615.292 1191.39 614.991 1190.94 614.614C1190.49 614.236 1190.15 613.801 1189.92 613.31C1189.69 612.819 1189.57 612.308 1189.57 611.779H1191.08C1191.11 612.317 1191.25 612.764 1191.49 613.121C1191.74 613.478 1192.04 613.764 1192.4 613.978C1192.75 614.192 1193.15 614.345 1193.59 614.437C1194.03 614.53 1194.46 614.576 1194.89 614.576C1195.46 614.576 1195.96 614.509 1196.4 614.374C1196.83 614.24 1197.2 614.059 1197.49 613.832C1197.79 613.606 1198.01 613.345 1198.16 613.051C1198.31 612.757 1198.39 612.45 1198.39 612.132Z" fill="black"/>
<path d="M1137 658.802L1141.64 653.232C1144.29 655.641 1146.89 657.046 1149.98 657.046C1153.58 657.046 1155.83 655.289 1155.83 652.077C1155.83 649.066 1153.28 647.31 1149.63 647.31C1147.44 647.31 1145.44 647.912 1143.79 648.615L1139.34 645.654L1140.34 628.34H1161.82V635.115H1146.94L1146.54 641.187C1147.93 640.836 1149.18 640.585 1151.13 640.585C1157.93 640.585 1163.37 643.897 1163.37 651.927C1163.37 659.354 1158.13 664.072 1150.08 664.072C1144.49 664.072 1140.39 662.064 1137 658.802Z" fill="black"/>
<path d="M1167.67 641.583C1167.67 637.467 1170.53 634.142 1174.75 634.142C1178.93 634.142 1181.74 637.426 1181.74 641.583C1181.74 645.657 1178.89 649.024 1174.67 649.024C1170.49 649.024 1167.67 645.74 1167.67 641.583ZM1191.71 634.474H1196.64L1175.49 663.574H1170.57L1191.71 634.474ZM1177.4 641.583C1177.4 639.629 1176.32 637.924 1174.67 637.924C1172.93 637.924 1172.02 639.587 1172.02 641.583C1172.02 643.536 1173.09 645.241 1174.75 645.241C1176.49 645.241 1177.4 643.536 1177.4 641.583ZM1185.47 656.465C1185.47 652.35 1188.32 649.024 1192.54 649.024C1196.72 649.024 1199.54 652.308 1199.54 656.465C1199.54 660.539 1196.68 663.906 1192.46 663.906C1188.28 663.906 1185.47 660.622 1185.47 656.465ZM1195.19 656.465C1195.19 654.511 1194.11 652.807 1192.46 652.807C1190.72 652.807 1189.81 654.47 1189.81 656.465C1189.81 658.419 1190.89 660.123 1192.54 660.123C1194.28 660.123 1195.19 658.419 1195.19 656.465Z" fill="black"/>
<path d="M1398.92 723.832C1388.19 748.897 1369.85 777.821 1344.74 786.686C1342.88 787.342 1340.91 787.614 1338.95 787.413C1335.37 787.044 1331.99 785.918 1329.6 784.14C1326.33 781.71 1324.93 778.058 1327.46 773.463C1340.89 749.17 1339.37 723.691 1325 719.415C1314.63 716.328 1297.57 736.43 1297.23 763.314C1297.16 769.529 1292.63 772.706 1286.79 772.28C1283.19 772.01 1279.09 770.379 1275.23 767.238C1274.88 766.952 1274.57 766.61 1274.33 766.232C1260.49 745.164 1258.5 711.525 1260.14 683.597C1262.24 648.114 1291.06 608.764 1333.91 608.728C1340.45 608.723 1350.62 607.715 1355.2 608.985C1359.27 610.111 1367.99 616.211 1373.53 619.311C1414.26 642.102 1412.62 691.812 1398.92 723.832Z" fill="#2E3552"/>
<path d="M1404.14 684.337C1404.14 684.523 1404.14 684.714 1404.13 684.891C1404.1 698.759 1400.83 712.595 1395.86 724.212C1394.7 726.925 1393.44 729.678 1392.09 732.456C1392.1 732.456 1392.1 732.456 1392.09 732.465C1391.94 732.796 1391.77 733.126 1391.61 733.461C1387.54 741.724 1382.66 750.079 1377 757.653V757.662C1376.76 757.993 1376.51 758.313 1376.26 758.639C1374.23 761.305 1372.1 763.868 1369.87 766.283C1369.35 766.851 1368.83 767.404 1368.3 767.953L1368.29 767.962C1361.12 775.385 1352.99 781.322 1343.95 784.547C1342.05 785.225 1340.02 785.498 1338.01 785.273C1334.67 784.895 1331.51 783.822 1329.27 782.152C1326.12 779.817 1324.77 776.309 1327.21 771.894C1340.11 748.558 1338.65 724.078 1324.84 719.969C1314.88 717.001 1298.49 736.318 1298.17 762.148C1298.09 768.116 1293.74 771.168 1288.13 770.759C1285.49 770.562 1282.57 769.603 1279.7 767.821C1277.67 766.567 1276.01 764.806 1274.79 762.753C1270.76 755.969 1267.89 748.002 1265.91 739.425C1266.87 741.454 1268.6 744.822 1270.95 748.083C1274.5 752.991 1278.31 756.043 1282.14 757.109C1283.65 757.527 1285.16 757.639 1286.66 757.434C1291.03 756.853 1295.12 752.736 1298.8 745.194C1301.51 739.639 1302.98 734.178 1302.99 734.131L1302.21 733.912C1302.15 734.126 1296.37 755.308 1286.55 756.625C1274.34 758.254 1265.91 737.434 1265.83 737.221L1265.46 737.374C1264.76 734.122 1264.19 730.8 1263.73 727.418C1263.69 727.153 1263.65 726.906 1263.62 726.632C1263.62 726.623 1263.62 726.623 1263.62 726.618C1262.41 717.453 1261.99 707.962 1262.07 698.746L1262.08 698.737C1262.07 698.56 1262.08 698.374 1262.08 698.197C1262.13 693.898 1262.3 689.664 1262.53 685.557C1263.34 671.977 1268.16 658.034 1276.28 646.203L1276.28 646.194C1276.39 646.04 1276.49 645.896 1276.6 645.743C1282.97 636.596 1291.31 628.743 1301.29 623.332C1301.56 623.179 1301.84 623.034 1302.12 622.886C1304.96 621.402 1307.92 620.108 1311.01 619.034C1311.39 618.903 1311.79 618.773 1312.18 618.652C1313.34 618.266 1314.51 617.932 1315.7 617.615C1315.7 617.615 1315.7 617.615 1315.71 617.615C1326.76 614.707 1339.22 614.605 1352.74 618.355C1367.88 622.551 1379.08 629.436 1387.08 637.946C1387.08 637.946 1387.08 637.955 1387.09 637.955C1388.13 639.062 1389.12 640.202 1390.05 641.361C1390.27 641.626 1390.48 641.886 1390.68 642.156C1392.6 644.608 1394.28 647.171 1395.75 649.823C1395.85 649.995 1395.94 650.158 1396.03 650.326C1401.7 660.787 1404.09 672.571 1404.14 684.337Z" fill="#F99746"/>
<path d="M1329.6 784.138C1325.92 781.977 1323.62 775.919 1326.5 770.928C1339.82 747.829 1338.58 725.082 1324.77 720.974C1314.8 718.009 1298.49 736.317 1298.17 762.147C1298.09 768.118 1294.05 773.564 1285.02 772.042L1288.11 770.746C1288.11 770.746 1293.34 769.977 1294.89 764.426C1296.26 759.548 1297.63 708.676 1325.58 715.782C1352.58 722.644 1337.44 755.823 1334.07 761.902C1330.71 767.981 1327.31 777.208 1329.6 784.138Z" fill="#EFEFEF"/>
<g opacity="0.5">
<path d="M1329.05 688.861L1328.25 688.749C1328.28 688.469 1332.03 660.308 1324.5 647.318C1316.24 633.079 1304.92 625.505 1301.29 623.334C1301.56 623.179 1301.84 623.037 1302.12 622.885C1306.21 625.395 1317.16 633.028 1325.2 646.909C1328.43 652.469 1330.06 661.232 1330.04 672.938C1330.03 681.629 1329.06 688.788 1329.05 688.861Z" fill="white"/>
</g>
<g opacity="0.5">
<path d="M1396.03 650.326L1395.91 650.718L1395.34 650.559C1362 641.318 1341.94 689.603 1341.74 690.093L1340.98 689.78C1341.03 689.658 1346.18 677.147 1355.47 666.058C1367.67 651.499 1381.52 645.88 1395.56 649.771L1395.75 649.824C1395.84 649.995 1395.94 650.157 1396.03 650.326Z" fill="white"/>
</g>
<g opacity="0.5">
<path d="M1325.6 687.836L1324.78 687.866C1324.77 687.565 1323.56 658.173 1310.15 650.735C1296.68 643.252 1276.55 646.578 1276.35 646.608L1276.28 646.205L1276.28 646.197C1276.39 646.041 1276.49 645.898 1276.6 645.742C1279.5 645.314 1297.88 642.973 1310.55 650.014C1316.37 653.24 1320.67 660.601 1323.33 671.885C1325.31 680.235 1325.59 687.759 1325.6 687.836Z" fill="white"/>
</g>
<g opacity="0.5">
<path d="M1404.13 684.894L1403.86 685.193C1396.07 678.012 1387.24 674.748 1377.6 675.467C1358.81 676.88 1343.5 692.888 1343.38 693.048L1342.71 692.574C1342.81 692.424 1357.39 677.028 1375.9 674.81C1386.3 673.563 1395.79 676.771 1404.13 684.343C1404.13 684.53 1404.13 684.717 1404.13 684.894Z" fill="white"/>
</g>
<g opacity="0.5">
<path d="M1321.11 694.049C1312.88 686.285 1301.47 685.018 1292.3 683.999C1284.72 683.156 1278.73 682.491 1277.14 678.464C1275.32 673.869 1276.78 667.874 1280.7 663.887C1283.6 660.937 1290.25 656.683 1302.34 661.329C1322.09 668.932 1323.04 690.59 1323.05 690.808L1322.24 690.835C1322.23 690.623 1321.29 669.498 1302.05 662.095C1290.41 657.614 1284.04 661.654 1281.28 664.462C1277.64 668.165 1276.22 673.926 1277.9 678.16C1279.31 681.731 1285.08 682.372 1292.39 683.184C1301.68 684.216 1313.24 685.5 1321.67 693.452L1321.11 694.049Z" fill="white"/>
</g>
<g opacity="0.5">
<path d="M1380.09 710.735C1377.49 710.014 1374.52 708.601 1371.19 707.021C1363.31 703.277 1353.5 698.617 1342.44 700.247L1342.32 699.436C1353.63 697.772 1363.56 702.489 1371.54 706.282C1377.97 709.333 1383.05 711.747 1386.3 709.59C1389.76 707.293 1392.88 702.82 1392.06 698.006C1391.44 694.403 1388.36 689.536 1377.29 686.773C1357.28 681.8 1343.77 697.804 1343.64 697.967L1343.01 697.444C1343.15 697.278 1356.97 680.879 1377.49 685.978C1389 688.857 1392.2 694.023 1392.86 697.867C1393.75 703.045 1390.43 707.83 1386.75 710.274C1384.93 711.483 1382.7 711.458 1380.09 710.735Z" fill="white"/>
</g>
<g opacity="0.5">
<path d="M1322.59 697.529L1322.27 698.291C1321.86 698.11 1281.82 681.29 1262.35 699.043L1262.07 698.746L1262.08 698.738C1262.08 698.559 1262.08 698.375 1262.08 698.196C1282.03 680.482 1322.18 697.356 1322.59 697.529Z" fill="white"/>
</g>
<g opacity="0.5">
<path d="M1322.26 700.973C1321.82 700.911 1277.77 694.827 1264.1 727.574L1263.73 727.42C1263.69 727.155 1263.65 726.906 1263.62 726.632C1263.61 726.622 1263.61 726.622 1263.62 726.617C1277.83 694.004 1321.92 700.098 1322.38 700.165L1322.26 700.973Z" fill="white"/>
</g>
<g opacity="0.5">
<path d="M1284.54 738.722C1283.02 738.301 1281.69 737.104 1280.85 735.359C1279.2 731.914 1279.25 725.771 1284.38 718.87C1295.12 704.424 1323.93 704.558 1324.22 704.561L1324.21 705.38C1323.92 705.377 1295.52 705.248 1285.04 719.36C1280.13 725.968 1280.03 731.773 1281.58 735.003C1282.5 736.899 1283.97 738.014 1285.65 738.068C1287.7 738.13 1289.69 736.611 1291.27 733.79C1297.48 722.632 1314.37 707.077 1327.74 707.092V707.912C1314.66 707.896 1298.1 723.207 1291.98 734.19C1290.25 737.291 1287.99 738.958 1285.62 738.886C1285.25 738.876 1284.89 738.82 1284.54 738.722Z" fill="white"/>
</g>
<g opacity="0.5">
<path d="M1390.68 642.158L1390.48 642.51C1383.59 638.584 1375.15 643.486 1366.22 648.685C1364.56 649.652 1362.84 650.654 1361.14 651.586C1356 654.41 1350.95 655.227 1346.44 653.979C1346.1 653.883 1345.76 653.771 1345.42 653.652C1339.95 651.712 1335.57 646.8 1332.39 639.034C1327.4 626.91 1315.85 621.032 1311.01 619.036C1311.39 618.904 1311.79 618.775 1312.18 618.655C1317.54 620.998 1328.33 627.014 1333.13 638.722C1336.23 646.261 1340.45 651.026 1345.69 652.877C1350.22 654.482 1355.43 653.792 1360.76 650.867C1362.44 649.94 1364.15 648.944 1365.81 647.977C1374.61 642.861 1382.93 638.012 1390.05 641.363C1390.27 641.627 1390.48 641.888 1390.68 642.158Z" fill="white"/>
</g>
<g opacity="0.5">
<path d="M1392.08 732.457C1392.09 732.459 1392.09 732.459 1392.08 732.465C1391.93 732.798 1391.77 733.126 1391.61 733.463C1382.7 709.494 1341.5 703.563 1341.08 703.505L1341.19 702.688C1341.61 702.743 1382.47 708.622 1392.08 732.457Z" fill="white"/>
</g>
<g opacity="0.5">
<path d="M1377 757.654L1377 757.662C1376.76 757.994 1376.51 758.315 1376.26 758.637L1376.06 758.609C1381.04 723.454 1340.12 705.985 1339.71 705.81L1340.02 705.057C1340.43 705.23 1381.12 722.584 1377 757.654Z" fill="white"/>
</g>
<g opacity="0.5">
<path d="M1352.83 757.649C1352.48 757.552 1352.14 757.413 1351.81 757.232C1349.74 756.073 1348.66 753.48 1348.76 749.927C1349.11 737.345 1342.7 715.665 1331.46 708.94L1331.88 708.237C1343.37 715.114 1349.93 737.167 1349.57 749.95C1349.48 753.182 1350.42 755.514 1352.21 756.516C1353.68 757.334 1355.51 757.137 1357.26 755.978C1360.24 754.004 1363.13 748.973 1362.28 740.77C1360.48 723.253 1336.04 708.733 1335.79 708.588L1336.2 707.88C1336.45 708.027 1361.25 722.753 1363.1 740.685C1363.98 749.252 1360.89 754.556 1357.71 756.661C1356.1 757.728 1354.35 758.07 1352.83 757.649Z" fill="white"/>
</g>
<g opacity="0.5">
<path d="M1369.87 766.286C1369.35 766.856 1368.83 767.407 1368.29 767.957L1368.29 767.965C1366.42 769.223 1363.3 771.152 1359.72 772.693C1354.16 775.08 1349.34 775.74 1345.5 774.674C1343.99 774.258 1342.64 773.578 1341.46 772.628C1337.99 769.874 1336.6 764.236 1337.28 755.868C1337.8 749.705 1339.32 744.255 1339.33 744.207L1340.12 744.425C1340.05 744.636 1334.2 765.799 1341.96 771.986C1351.61 779.684 1369.47 766.142 1369.65 766.005L1369.87 766.286Z" fill="white"/>
</g>
<path d="M1387.07 637.944C1380.5 632.4 1366.56 630.296 1358.69 635.868C1353.15 639.788 1337.39 687.08 1337.39 687.08L1332.97 685.854C1332.97 685.854 1345.39 640.361 1337.67 629.193C1332.28 621.386 1316.23 617.685 1315.71 617.616C1326.76 614.706 1339.21 614.606 1352.74 618.355C1367.88 622.552 1379.07 629.437 1387.07 637.944Z" fill="#FCCBA2"/>
<path d="M1318.43 696.1C1320.47 688.668 1328.12 684.305 1335.52 686.356C1342.92 688.407 1347.26 696.094 1345.22 703.526C1343.18 710.959 1335.53 715.321 1328.13 713.27C1320.73 711.219 1316.39 703.532 1318.43 696.1Z" fill="white"/>
<path d="M1321.53 696.96C1323.1 691.248 1328.98 687.894 1334.67 689.47C1340.35 691.047 1343.69 696.956 1342.12 702.669C1340.55 708.382 1334.67 711.735 1328.99 710.159C1323.3 708.583 1319.96 702.673 1321.53 696.96Z" fill="#EFEFEF"/>
<path d="M1362.97 981.758H1297.74V912.027H1363.01C1365.3 912.027 1367.15 913.886 1367.15 916.179V977.566C1367.15 979.881 1365.28 981.758 1362.97 981.758Z" fill="#EBF3FA"/>
<path d="M1320.16 981.758H1258.88C1256.47 981.758 1254.51 979.794 1254.51 977.372V916.818C1254.51 914.172 1256.65 912.027 1259.28 912.027H1319.88C1322.11 912.027 1323.92 913.847 1323.92 916.091V977.978C1323.92 980.066 1322.24 981.758 1320.16 981.758Z" fill="white"/>
<path d="M1277.62 931.892C1277.62 931.565 1277.57 931.276 1277.46 931.023C1277.36 930.771 1277.18 930.539 1276.93 930.33C1276.68 930.121 1276.34 929.929 1275.93 929.755C1275.52 929.581 1275.01 929.407 1274.39 929.233C1273.79 929.064 1273.26 928.881 1272.78 928.682C1272.31 928.484 1271.9 928.251 1271.57 927.985C1271.24 927.719 1270.98 927.411 1270.8 927.063C1270.62 926.715 1270.53 926.308 1270.53 925.839C1270.53 925.383 1270.62 924.967 1270.82 924.591C1271.01 924.216 1271.29 923.894 1271.64 923.625C1271.99 923.356 1272.41 923.146 1272.9 922.997C1273.38 922.847 1273.92 922.772 1274.5 922.772C1275.12 922.772 1275.68 922.865 1276.18 923.05C1276.68 923.235 1277.11 923.488 1277.46 923.808C1277.81 924.13 1278.08 924.505 1278.27 924.934C1278.46 925.364 1278.55 925.826 1278.55 926.32H1277.55C1277.55 925.934 1277.48 925.577 1277.35 925.248C1277.21 924.919 1277.01 924.635 1276.75 924.396C1276.49 924.156 1276.17 923.969 1275.79 923.833C1275.42 923.697 1274.98 923.629 1274.5 923.629C1274.01 923.629 1273.58 923.688 1273.21 923.804C1272.84 923.921 1272.53 924.079 1272.28 924.277C1272.04 924.476 1271.85 924.709 1271.72 924.975C1271.6 925.241 1271.53 925.524 1271.53 925.823C1271.53 926.106 1271.58 926.367 1271.69 926.606C1271.8 926.846 1271.97 927.067 1272.22 927.271C1272.47 927.475 1272.8 927.665 1273.2 927.842C1273.61 928.019 1274.11 928.186 1274.71 928.344C1275.33 928.518 1275.88 928.708 1276.37 928.915C1276.86 929.122 1277.27 929.365 1277.61 929.645C1277.94 929.924 1278.2 930.247 1278.37 930.612C1278.54 930.976 1278.63 931.397 1278.63 931.876C1278.63 932.36 1278.53 932.793 1278.32 933.177C1278.12 933.56 1277.84 933.885 1277.48 934.152C1277.12 934.418 1276.69 934.622 1276.19 934.763C1275.69 934.904 1275.15 934.975 1274.57 934.975C1274.22 934.975 1273.86 934.945 1273.51 934.886C1273.15 934.826 1272.81 934.735 1272.49 934.612C1272.16 934.49 1271.85 934.333 1271.57 934.143C1271.28 933.953 1271.04 933.725 1270.83 933.462C1270.62 933.198 1270.46 932.897 1270.33 932.557C1270.21 932.217 1270.15 931.838 1270.15 931.419H1271.15C1271.15 931.919 1271.25 932.342 1271.46 932.687C1271.66 933.033 1271.93 933.311 1272.25 933.523C1272.58 933.735 1272.94 933.889 1273.35 933.984C1273.76 934.079 1274.16 934.127 1274.57 934.127C1275.03 934.127 1275.45 934.073 1275.82 933.968C1276.2 933.861 1276.52 933.711 1276.79 933.514C1277.06 933.318 1277.26 933.084 1277.41 932.809C1277.55 932.535 1277.62 932.229 1277.62 931.892Z" fill="black"/>
<path d="M1286.2 933.695C1285.93 934.098 1285.56 934.411 1285.1 934.637C1284.65 934.863 1284.08 934.975 1283.4 934.975C1282.97 934.975 1282.58 934.914 1282.23 934.792C1281.87 934.67 1281.57 934.475 1281.32 934.209C1281.06 933.943 1280.86 933.599 1280.73 933.177C1280.59 932.756 1280.52 932.243 1280.52 931.64V925.986H1281.49V931.656C1281.49 932.129 1281.54 932.523 1281.65 932.838C1281.76 933.154 1281.9 933.407 1282.09 933.597C1282.27 933.788 1282.49 933.924 1282.73 934.005C1282.98 934.087 1283.24 934.128 1283.51 934.128C1283.9 934.128 1284.25 934.084 1284.55 933.997C1284.84 933.91 1285.1 933.788 1285.32 933.63C1285.53 933.472 1285.71 933.287 1285.85 933.075C1285.99 932.863 1286.11 932.629 1286.19 932.374V925.986H1287.16V934.813H1286.22L1286.2 933.695Z" fill="black"/>
<path d="M1289.3 930.317C1289.3 929.631 1289.38 929.013 1289.53 928.461C1289.68 927.909 1289.91 927.437 1290.2 927.045C1290.49 926.654 1290.85 926.352 1291.27 926.14C1291.69 925.928 1292.16 925.822 1292.69 925.822C1293.32 925.822 1293.86 925.949 1294.31 926.202C1294.76 926.455 1295.13 926.807 1295.42 927.258L1295.47 925.985H1296.38V934.656C1296.38 935.228 1296.29 935.74 1296.13 936.194C1295.96 936.648 1295.72 937.033 1295.42 937.348C1295.11 937.664 1294.74 937.906 1294.31 938.074C1293.87 938.243 1293.39 938.327 1292.85 938.327C1292.58 938.327 1292.3 938.295 1292.01 938.233C1291.72 938.171 1291.45 938.077 1291.18 937.951C1290.91 937.826 1290.66 937.67 1290.42 937.482C1290.18 937.295 1289.97 937.073 1289.79 936.818L1290.34 936.23C1290.69 936.671 1291.07 936.993 1291.47 937.197C1291.87 937.401 1292.31 937.503 1292.79 937.503C1293.21 937.503 1293.58 937.439 1293.9 937.311C1294.22 937.183 1294.49 936.998 1294.71 936.756C1294.94 936.514 1295.1 936.22 1295.22 935.875C1295.34 935.53 1295.4 935.137 1295.4 934.696V933.668C1295.1 934.076 1294.73 934.396 1294.28 934.627C1293.83 934.858 1293.3 934.974 1292.68 934.974C1292.15 934.974 1291.68 934.864 1291.26 934.643C1290.85 934.423 1290.49 934.116 1290.2 933.722C1289.91 933.327 1289.68 932.856 1289.53 932.306C1289.37 931.757 1289.3 931.151 1289.3 930.487L1289.3 930.317ZM1290.28 930.488C1290.28 931.005 1290.33 931.485 1290.44 931.928C1290.54 932.371 1290.7 932.756 1290.91 933.082C1291.12 933.408 1291.38 933.664 1291.71 933.848C1292.03 934.033 1292.41 934.126 1292.85 934.126C1293.19 934.126 1293.49 934.085 1293.76 934.004C1294.03 933.922 1294.26 933.809 1294.47 933.665C1294.68 933.521 1294.85 933.351 1295.01 933.156C1295.16 932.959 1295.29 932.745 1295.4 932.511V928.408C1295.3 928.179 1295.19 927.961 1295.04 927.752C1294.9 927.542 1294.73 927.357 1294.52 927.197C1294.32 927.037 1294.08 926.908 1293.81 926.813C1293.54 926.718 1293.23 926.67 1292.87 926.67C1292.42 926.67 1292.03 926.764 1291.71 926.952C1291.38 927.139 1291.12 927.396 1290.91 927.723C1290.69 928.049 1290.54 928.435 1290.44 928.881C1290.33 929.327 1290.28 929.806 1290.28 930.317V930.488Z" fill="black"/>
<path d="M1304.46 934.812C1304.4 934.66 1304.36 934.474 1304.33 934.253C1304.3 934.033 1304.28 933.809 1304.27 933.58C1304.13 933.77 1303.95 933.95 1303.75 934.119C1303.55 934.287 1303.33 934.434 1303.08 934.559C1302.83 934.684 1302.55 934.785 1302.26 934.861C1301.96 934.937 1301.64 934.974 1301.29 934.974C1300.86 934.974 1300.48 934.912 1300.13 934.787C1299.78 934.662 1299.48 934.487 1299.23 934.261C1298.99 934.036 1298.8 933.77 1298.66 933.466C1298.52 933.161 1298.46 932.829 1298.46 932.471C1298.46 932.041 1298.55 931.654 1298.73 931.308C1298.92 930.963 1299.18 930.669 1299.53 930.427C1299.88 930.185 1300.3 930 1300.79 929.872C1301.29 929.744 1301.84 929.68 1302.46 929.68H1304.26V928.677C1304.26 928.046 1304.07 927.55 1303.68 927.188C1303.29 926.827 1302.73 926.646 1301.99 926.646C1301.65 926.646 1301.33 926.692 1301.05 926.785C1300.76 926.877 1300.51 927.005 1300.3 927.168C1300.1 927.331 1299.93 927.52 1299.82 927.735C1299.7 927.95 1299.64 928.179 1299.64 928.425L1298.67 928.416C1298.67 928.084 1298.75 927.763 1298.91 927.454C1299.07 927.144 1299.3 926.867 1299.6 926.626C1299.89 926.384 1300.25 926.189 1300.66 926.042C1301.08 925.896 1301.53 925.822 1302.04 925.822C1302.5 925.822 1302.93 925.882 1303.32 926.002C1303.72 926.122 1304.05 926.301 1304.33 926.54C1304.62 926.779 1304.84 927.079 1304.99 927.438C1305.15 927.796 1305.23 928.216 1305.23 928.694V932.968C1305.23 933.121 1305.23 933.279 1305.24 933.442C1305.25 933.605 1305.27 933.762 1305.3 933.914C1305.32 934.067 1305.35 934.212 1305.38 934.351C1305.41 934.49 1305.45 934.611 1305.5 934.714V934.812H1304.46ZM1301.4 934.11C1301.76 934.11 1302.08 934.065 1302.38 933.976C1302.68 933.886 1302.96 933.762 1303.2 933.605C1303.44 933.447 1303.65 933.264 1303.83 933.054C1304.01 932.845 1304.15 932.617 1304.26 932.373V930.431H1302.6C1302.1 930.431 1301.65 930.476 1301.26 930.566C1300.87 930.656 1300.54 930.785 1300.27 930.954C1300 931.122 1299.79 931.328 1299.65 931.569C1299.5 931.811 1299.43 932.085 1299.43 932.389C1299.43 932.628 1299.48 932.853 1299.57 933.062C1299.66 933.272 1299.79 933.454 1299.96 933.609C1300.13 933.763 1300.34 933.886 1300.58 933.976C1300.83 934.065 1301.1 934.11 1301.4 934.11Z" fill="black"/>
<path d="M1311.88 926.818C1311.67 926.78 1311.45 926.761 1311.22 926.761C1310.89 926.761 1310.59 926.81 1310.33 926.908C1310.06 927.006 1309.83 927.143 1309.62 927.319C1309.42 927.497 1309.25 927.706 1309.11 927.947C1308.97 928.189 1308.86 928.457 1308.78 928.751V934.812H1307.82V925.985H1308.77L1308.78 927.388C1309.02 926.904 1309.35 926.522 1309.75 926.242C1310.16 925.962 1310.66 925.822 1311.26 925.822C1311.38 925.822 1311.5 925.833 1311.63 925.855C1311.75 925.877 1311.84 925.901 1311.9 925.929L1311.88 926.818Z" fill="black"/>
<path d="M1266.08 956.779C1266.08 949.739 1270.43 944.225 1276.85 944.225C1283.24 944.225 1287.55 949.669 1287.55 956.779C1287.55 963.819 1283.24 969.333 1276.78 969.333C1270.33 969.333 1266.08 963.888 1266.08 956.779ZM1282.1 956.779C1282.1 952.374 1279.96 949.045 1276.78 949.045C1273.61 949.045 1271.54 952.27 1271.54 956.779C1271.54 961.217 1273.64 964.512 1276.85 964.512C1280.06 964.512 1282.1 961.252 1282.1 956.779Z" fill="black"/>
<path d="M1290.21 954.768C1290.21 952.103 1292.05 949.949 1294.79 949.949C1297.49 949.949 1299.32 952.076 1299.32 954.768C1299.32 957.406 1297.47 959.586 1294.73 959.586C1292.03 959.586 1290.21 957.46 1290.21 954.768ZM1305.77 950.164H1308.96L1295.27 969.008H1292.08L1305.77 950.164ZM1296.5 954.768C1296.5 953.503 1295.81 952.399 1294.73 952.399C1293.61 952.399 1293.02 953.475 1293.02 954.768C1293.02 956.032 1293.72 957.137 1294.79 957.137C1295.91 957.137 1296.5 956.032 1296.5 954.768ZM1301.73 964.404C1301.73 961.74 1303.58 959.586 1306.31 959.586C1309.02 959.586 1310.84 961.712 1310.84 964.404C1310.84 967.043 1308.99 969.223 1306.26 969.223C1303.55 969.223 1301.73 967.097 1301.73 964.404ZM1308.02 964.404C1308.02 963.139 1307.33 962.035 1306.26 962.035C1305.13 962.035 1304.54 963.112 1304.54 964.404C1304.54 965.669 1305.24 966.773 1306.31 966.773C1307.43 966.773 1308.02 965.67 1308.02 964.404Z" fill="black"/>
<path d="M1070.81 801.054L1074.14 803.773C1074.14 803.773 1083.26 800.488 1085.32 811.374C1085.32 811.374 1085.86 816.013 1082.94 816.022C1080.01 816.031 1081.22 815.515 1077.08 815.637C1072.94 815.759 1069.5 813.565 1068.9 810.188L1066.91 807.327L1070.81 801.054Z" fill="#EA8E50"/>
<path d="M1070.43 806.889C1073.09 804.099 1072.88 802.037 1072.88 802.037C1072.88 802.037 1042.08 776.709 1038.96 774.645C1036.83 773.239 1014.15 753.04 1003.55 740.726C998.291 734.618 991.777 736.988 984.325 739.136L978.188 740.905C970.777 743.041 968.85 753.454 974.93 758.513C992.055 772.763 1020.54 788.791 1025.87 792.159C1039.1 800.521 1065 810.458 1065 810.458C1065 810.458 1068.15 809.285 1070.43 806.889Z" fill="#1E3D70"/>
<path d="M1105.57 962.508C1105.57 962.508 1113.04 968.133 1124.5 965.16C1124.5 965.16 1133.73 963.047 1135.75 967.672C1135.75 967.672 1121.59 974.9 1118.01 976.876C1115.31 978.365 1112.49 980.717 1110.5 982.534C1108.92 983.973 1106.47 983.778 1105.12 982.117C1104.5 981.348 1103.79 980.432 1103.01 979.368C1100.82 976.396 1095.74 966.795 1095.74 966.795L1105.57 962.508Z" fill="#233862"/>
<path d="M1109.96 959.648C1109.96 959.648 1105.41 970.19 1094.91 968.252C1094.91 968.252 1073.47 950.469 1058.77 931.994C1053.99 925.994 1049.93 919.921 1047.54 914.364C1037.79 891.685 1011.47 857.86 994.738 840.717L1036.6 825.503C1036.6 825.503 1050.01 852.6 1067.85 885.885C1080.71 909.867 1095.86 937.062 1109.96 959.648Z" fill="#2B478B"/>
<path d="M1067.85 885.885L1058.77 931.994C1053.99 925.994 1049.93 919.921 1047.54 914.364C1037.79 891.685 1011.47 857.86 994.738 840.717L1036.6 825.503C1036.6 825.503 1050.01 852.601 1067.85 885.885Z" fill="#233862"/>
<path d="M1033.63 968.624C1033.63 968.624 1033.18 977.036 1043.33 978.158C1043.33 978.158 1049.13 978.189 1049.14 983.543L1019.64 983.636C1019.64 983.636 1018.79 981.477 1018.58 976.851C1018.42 973.299 1022 964.014 1022 964.014L1033.63 968.624Z" fill="#233862"/>
<path d="M1022.87 825.503C1022.87 825.503 1041.52 846.089 1053.36 883.178C1059.8 903.357 1041.55 954.092 1037.99 971.72C1037.99 971.72 1025.75 972.763 1017.38 969.513C1017.38 969.513 1016.75 933.104 1021.64 905.043C1024.38 889.338 997.089 871.455 985.163 843.078C977.049 823.773 986.919 824.101 999.049 823.637L1022.87 825.503Z" fill="#2B478B"/>
<path d="M1001.34 733.657C990.964 739.543 969.723 734.114 969.723 734.114C969.723 734.114 978.349 724.207 974.429 708.251L982.576 712.407L991.326 716.872C991.326 716.872 991.892 719.69 992.286 724.752C992.386 726.055 992.475 727.511 992.537 729.102C997.865 730.724 1001.34 733.657 1001.34 733.657Z" fill="#FFB07B"/>
<path d="M1039.39 824.441C1039.39 826.273 1037.29 827.15 1036.84 827.239C1032.65 828.008 1020.97 832.574 1010.44 833.621C1001.58 834.554 993.351 833.668 984.31 831.845C983.112 831.602 980.302 830.842 980.103 829.69C979.853 828.431 945.231 758.783 972.145 728.865C972.778 728.163 978.09 729.427 982.949 730.586C987.436 731.655 991.552 731.059 995.227 729.578L999.783 731.986C1005.38 735.119 1015.97 746.248 1017.21 754.98C1017.83 759.421 1020.36 762.709 1021.09 766.615C1021.36 768.061 1021.64 769.472 1021.92 770.848C1022.48 773.546 1023.04 776.113 1023.63 778.555C1025.21 785.159 1026.88 790.845 1028.52 795.757C1030.27 800.972 1031.98 805.31 1033.51 808.938C1035.5 813.644 1037.17 817.16 1038.22 819.853C1038.96 821.749 1039.39 823.235 1039.39 824.441Z" fill="#2A4E96"/>
<path d="M1038.22 819.852C989.35 796.719 972.424 752.3 972.424 752.3C972.424 752.3 1012.13 767.015 1021.93 770.846C1022.48 773.545 1023.05 776.111 1023.63 778.554C1025.21 785.158 1026.88 790.844 1028.53 795.756C1030.27 800.971 1031.98 805.309 1033.51 808.937C1035.5 813.642 1037.18 817.159 1038.22 819.852Z" fill="#1E3D70"/>
<path d="M992.287 724.751C982.084 725.327 975.449 716.864 975.449 716.864C975.449 716.864 980.062 714.297 982.578 712.407L991.329 716.872C991.329 716.872 991.894 719.69 992.287 724.751Z" fill="#EA8E50"/>
<path d="M996.635 714.23C996.635 714.23 981.175 725.376 974.415 715.597C967.654 705.818 961.105 700.671 970.69 693.141C980.275 685.612 984.793 687.99 987.84 690.702C990.887 693.416 1000.48 711.079 996.635 714.23Z" fill="#FFB07B"/>
<path d="M989.471 681.87C988.917 678.111 987.67 675.466 987.67 675.466C987.67 675.466 986.7 679.504 979.355 678.946C972.011 678.389 960.37 679.672 956.49 688.08C956.243 688.615 956.023 689.166 955.827 689.73C955.125 687.866 954.956 685.072 954.956 685.072C953.56 688.692 954.956 693.219 954.956 693.219C954.935 693.351 954.918 693.483 954.899 693.616C953.278 694.993 951.917 699.272 951.917 699.272C952.406 698.079 953.599 697.3 954.662 696.82C954.63 703.363 957.27 709.758 961.906 711.663C968.684 714.447 968.63 712.323 975.448 716.866C975.448 716.866 977.276 714.586 976.029 713.055C974.782 711.523 970.07 709.296 972.703 707.068C975.336 704.841 976.306 707.347 977.276 705.815C978.246 704.284 973.396 699.829 979.632 695.652C985.868 691.476 990.026 685.629 989.471 681.87Z" fill="#233862"/>
<path d="M1067.85 813.999C1067.85 813.999 1076.12 816.801 1080.88 816.685C1085.65 816.568 1093.94 811.532 1093.95 811.177C1093.97 810.822 1090.23 808.653 1084.8 809.342C1079.37 810.03 1078.27 809.213 1079.96 808.535C1081.85 807.773 1083.21 806.632 1082.74 805.905C1082.49 805.503 1079.76 806.372 1078.83 806.683C1077.9 806.995 1075.58 806.139 1073.64 807.543C1072.35 808.476 1067.52 809.174 1067.52 809.174L1067.85 813.999Z" fill="#FFC299"/>
<path d="M1071.12 811.3C1072.58 807.169 1073.24 805.298 1073.24 805.298C1073.24 805.298 1040.68 779.984 1037.38 777.826C1035.12 776.355 1012.65 760.355 1001.58 747.722C996.085 741.456 987.602 738.742 979.513 740.662L972.852 742.243C964.808 744.152 962.44 754.501 968.848 759.745C986.897 774.512 1017.14 791.403 1022.79 794.933C1036.81 803.696 1067.63 815.691 1067.63 815.691C1067.63 815.691 1069.97 814.545 1071.12 811.3Z" fill="#2A4E96"/>
<path d="M792.933 771.244C790.407 773.489 783.702 765.778 782.779 764.753C782.73 764.655 782.682 764.607 782.682 764.607L784.723 758.896C784.723 758.896 793.516 758.554 794.974 760.019C796.431 761.483 795.702 768.853 792.933 771.244Z" fill="#ED985F"/>
<path d="M784.722 758.897L783.847 764.803C783.847 764.803 783.459 764.803 782.778 764.754C780.641 764.608 775.442 764.315 769.564 763.68C760.721 762.802 750.227 761.239 746.049 758.653C739.685 754.749 729.239 742.79 722.437 730.832C722.243 730.539 722.097 730.247 721.951 729.954C718.405 723.608 715.927 717.312 715.733 712.285C715.587 709.21 715.927 706.574 716.558 704.28C717.385 701.254 718.745 698.863 720.154 697.056C720.348 696.763 720.542 696.471 720.834 696.227C723.166 693.445 725.45 692.273 725.45 692.273C726.616 691.784 727.879 692.371 729.19 693.786V693.835C730.259 694.958 731.425 696.666 732.542 698.813C732.591 698.862 732.64 698.911 732.64 698.96C732.882 699.399 733.126 699.887 733.417 700.424C733.514 700.521 733.562 700.668 733.611 700.766C734.145 701.888 734.68 703.059 735.215 704.28C741.19 717.36 747.555 737.177 752.851 743.083C755.134 745.621 765.58 750.599 773.887 754.309C779.863 756.945 784.722 758.897 784.722 758.897Z" fill="#ED985F"/>
<path d="M871.665 765.697C871.475 765.119 871.277 764.542 871.07 763.967C859.463 731.761 822.802 714.958 790.608 727.071C758.691 739.079 742.131 774.45 753.587 806.514C753.641 806.665 753.696 806.817 753.751 806.968C759.918 823.821 760.348 842.19 755.269 859.458C749.592 878.762 749.848 899.971 757.375 920.276C775.747 969.842 831.13 995.344 881.07 977.263C931.485 959.011 957.79 903.515 939.831 853.245C932.494 832.71 918.903 816.222 901.954 805.138C887.664 795.793 876.983 781.918 871.665 765.697Z" fill="#82B378"/>
<path d="M867.62 769.49C867.442 768.949 867.257 768.41 867.063 767.871C856.212 737.754 822.378 721.88 792.809 733.013C763.494 744.051 748.436 776.973 759.148 806.956C759.199 807.097 759.25 807.239 759.302 807.38C765.066 823.14 765.558 840.284 760.974 856.372C755.849 874.357 756.197 894.152 763.23 913.14C780.401 959.493 831.511 983.585 877.384 966.976C923.693 950.208 947.616 898.558 930.821 851.55C923.96 832.347 911.364 816.89 895.705 806.455C882.504 797.659 872.6 784.654 867.62 769.49Z" fill="#CEE085"/>
<path d="M895.111 871.661C903.636 895.522 891.293 921.807 867.542 930.371C866.267 930.832 864.984 931.23 863.702 931.573C841.032 937.572 817.17 925.254 809.103 902.675C803.725 887.622 806.653 871.607 815.508 859.684C820.691 852.706 827.905 847.126 836.671 843.965C860.423 835.401 886.586 847.801 895.111 871.661Z" fill="#F99746"/>
<path d="M870.116 888.573C875.495 903.63 872.566 919.653 863.702 931.576C841.032 937.575 817.17 925.257 809.103 902.678C803.725 887.625 806.653 871.61 815.508 859.687C838.177 853.672 862.048 865.991 870.116 888.573Z" fill="#ED7D2B"/>
<path d="M721.083 971.611L714.664 974.012C714.664 974.012 686.779 935.159 683.346 900.975C682.733 894.872 682.937 888.959 684.263 883.498C684.263 883.498 683.991 881.935 683.514 879.17C683.294 877.88 683.021 876.327 682.712 874.547C681.805 869.328 680.558 862.188 679.132 854.058C675.851 835.35 671.6 811.434 668.298 793.852L670.028 793.294L688.744 787.228L692.613 774.885L706.55 771.199C706.55 771.199 709.663 777.318 712.446 806.22C712.96 810.011 713.426 814.192 713.777 818.726C714.862 832.564 714.941 849.729 712.451 869.355C711.812 874.378 711.005 879.565 710.004 884.894C709.27 888.8 709.16 894.124 709.469 900.238C710.873 928.182 721.083 971.611 721.083 971.611Z" fill="#2B478B"/>
<path d="M713.777 818.727L683.514 879.17C683.294 877.88 683.021 876.327 682.712 874.547C681.805 869.328 680.558 862.188 679.132 854.058C675.851 835.35 671.6 811.434 668.298 793.852L670.028 793.294L688.744 787.228L692.613 774.885L706.55 771.199C706.55 771.199 709.663 777.318 712.446 806.22C712.96 810.012 713.426 814.193 713.777 818.727Z" fill="#233862"/>
<path d="M700.463 778.952L699.763 772.917C688.025 776.049 656.665 764.165 656.665 764.165C656.665 764.165 645.295 774.206 646.787 798.276C647.516 810.024 648.847 859.946 650.237 874.718C650.74 880.072 651.18 883.883 651.36 885.404C651.363 885.412 651.363 885.415 651.363 885.419C651.418 885.883 651.257 886.322 651.022 886.727C648.975 890.217 647.281 893.85 645.891 897.568C632.246 934.097 647.992 979.081 647.992 979.081L652.078 977.426C652.078 977.426 661.039 927.363 668.32 905.247C669.556 901.496 670.74 898.548 671.826 896.786C674.992 891.654 677.929 883.267 680.596 873.292C685.636 854.433 689.692 829.9 692.392 810.963C692.764 810.981 700.463 778.952 700.463 778.952Z" fill="#2B478B"/>
<path d="M722.886 705.745C719.201 707.462 714.751 708.63 709.369 708.925C689.19 710.036 684.608 692.265 683.775 680.47C686.684 679.412 689.232 679.512 690.699 679.591C692.13 679.67 693.624 679.817 694.855 679.97C697.324 678.675 701.758 672.382 704.321 661.856L705.191 662.262L719.751 669.139C719.751 669.139 718.205 673.899 717.062 678.453C716.172 682.018 715.532 685.462 716.067 686.426C717.215 686.894 717.901 687.189 717.901 687.189C717.901 687.189 717.901 687.195 717.907 687.205C718.053 687.579 721.219 695.682 722.886 705.745Z" fill="#FFB27D"/>
<path d="M727.932 719.047C727.78 719.453 727.612 719.848 727.428 720.253C722.318 731.311 712.858 777.116 712.858 777.116C714.205 785.352 651.251 775.5 651.089 768.002C648.871 760.05 658.956 747.277 664.643 740.868C665.355 740.062 665.995 739.199 666.551 738.288C667.955 736.002 668.846 733.422 669.129 730.726C670.246 720.097 669.821 710.136 669.915 704.078L669.915 704.077C671.026 703.251 672.101 702.487 673.102 701.761C674.633 700.639 675.985 699.591 676.981 698.527C678.076 697.369 678.763 696.184 678.841 694.847C678.899 693.836 678.868 692.798 678.763 691.761C678.716 691.272 678.653 690.782 678.579 690.292C677.793 685.148 675.655 680.483 675.655 680.483C681.069 678.282 690.697 679.593 690.697 679.593C690.697 679.593 690.687 680.13 690.681 681.009C690.65 684.542 690.681 693.614 691.808 695.331C693.218 697.469 719.01 706.837 720.373 703.935C721.715 701.081 718.041 687.712 717.905 687.207C717.899 687.196 717.899 687.191 717.899 687.191C726.537 690.598 729.624 693.457 729.624 693.457C724.42 696.848 731.957 708.321 727.932 719.047Z" fill="#F99746"/>
<path d="M710.56 623.499C710.528 622.62 709.852 613.149 695.492 612.654C695.492 612.654 702.553 613.5 703.773 616.619C703.773 616.619 698.965 612.765 695.05 614.005C691.134 615.244 688.835 622.136 688.812 624.403C688.789 626.669 690.964 633.977 693.449 634.598C694.39 634.833 695.474 634.77 696.458 634.601C695.798 635.638 695.149 636.783 694.53 638.06C688.8 649.876 694.709 661.424 699.56 660.149C702.671 659.33 703.551 664.663 703.551 664.663L733.775 640.082C733.775 640.082 722.674 617.004 710.56 623.499Z" fill="#2C3A64"/>
<path d="M719.752 669.143C719.752 669.143 718.204 673.898 717.063 678.458C708.552 676.072 705.968 667.084 705.19 662.267L719.752 669.143Z" fill="#ED985F"/>
<path d="M721.544 674.178C721.544 674.178 701.183 669.444 704.312 656.75C707.442 644.056 706.922 634.896 720.055 637.382C733.188 639.868 734.51 645.338 734.491 649.83C734.472 654.323 726.922 675.083 721.544 674.178Z" fill="#FFB27D"/>
<path d="M735.634 642.623C733.445 638.022 730.869 638.267 729.257 639.083C719.69 630.19 710.306 637.455 710.306 637.455C706.694 646.221 698.865 649.803 698.865 649.803C698.865 649.803 701.993 653.022 711.06 652.951C713.829 652.929 716.613 651.652 719.147 649.892C714.26 654.836 708.53 657.846 708.53 657.846C719.879 655.665 727.49 642.465 728.269 641.063C729.231 642.489 731.07 645.525 731.225 648.089C731.435 651.573 730.242 658.34 732.227 658.596C732.227 658.596 738.917 649.523 735.634 642.623Z" fill="#2C3A64"/>
<path d="M729.628 693.455C729.628 693.455 734.531 702.047 735.264 704.258C735.264 704.258 728.906 704.012 726.339 708.926C726.339 708.926 725.724 694.613 729.628 693.455Z" fill="#F99746"/>
<path d="M695.909 761.726C683.493 761.594 672.979 748.64 666.553 738.289C667.957 736.003 668.848 733.423 669.132 730.727C670.248 720.098 669.823 710.137 669.917 704.079L669.918 704.078C671.029 703.251 672.103 702.488 673.104 701.762C674.635 700.64 675.987 699.592 676.983 698.528C687.151 715.794 712.745 761.905 695.909 761.726Z" fill="#ED7D2B"/>
<path d="M762.447 773.926C761.368 774.758 752.752 778.14 749.472 777.104C747.64 776.525 741.264 774.941 738.69 774.307C737.67 774.111 733.999 773.391 733.999 773.391L736.768 765.289C736.768 765.289 736.874 765.305 737.108 765.387C738.161 765.756 740.189 766.759 742.841 767.157C746.111 767.648 750.192 765.584 752.315 766.754C756.809 769.23 763.011 766.72 764.441 768.038C765.518 769.032 765.129 771.861 762.447 773.926Z" fill="#FFB27D"/>
<path d="M742.844 768.512L741.143 774.759C741.143 774.759 739.005 774.369 735.604 773.735C734.584 773.539 734.001 773.393 734.001 773.393C731.281 772.856 728.025 772.124 724.479 771.343H724.43C718.357 769.878 711.556 768.122 705.823 766.169C701.79 764.753 698.292 763.241 695.912 761.728C695.669 761.581 695.475 761.434 695.231 761.239C689.547 757.091 682.794 744.889 677.547 731.808C676.818 730.001 676.138 728.196 675.458 726.439C673.029 719.898 671.085 713.455 669.92 707.891C669.191 704.573 668.705 701.546 668.608 699.057C668.559 698.179 668.511 697.349 668.559 696.568C668.656 682.413 675.652 680.461 675.652 680.461C675.798 680.412 675.944 680.364 676.138 680.315C677.353 680.12 678.616 680.949 679.928 682.56C681.58 684.561 683.329 687.831 685.126 691.785C687.895 698.081 690.81 706.233 693.531 714.335C695.037 718.776 696.495 723.218 697.952 727.318C698.778 729.807 699.604 732.15 700.381 734.298C701.887 738.397 703.248 741.716 704.462 743.815C705.24 745.182 707.475 747.085 710.438 749.232C715.588 752.991 723.119 757.53 729.677 761.239C732.398 762.801 734.973 764.217 737.11 765.388C740.56 767.292 742.844 768.512 742.844 768.512Z" fill="#FFB27D"/>
<path d="M685.107 691.805C675.754 689.214 668.539 696.55 668.539 696.55C668.657 682.419 675.659 680.484 675.659 680.484C678.476 679.313 681.74 684.214 685.107 691.805Z" fill="#F99746"/>
<path d="M671.748 982.436H639.414C639.414 982.436 638.639 977.485 640.328 973.729C641.946 970.125 644.481 968.486 643.874 964.126C645.928 966.251 649.277 968.631 653.952 967.999C654.524 968.932 657.649 973.925 659.562 975.305C661.675 976.831 671.097 976.287 671.748 982.436Z" fill="#233862"/>
<path d="M741.176 982.435H708.842C708.842 982.435 707.633 977.254 709.756 973.728C711.635 970.609 710.915 968.831 709.523 966.251C710.988 966.853 712.883 967.401 714.969 967.281C716.58 967.188 718.284 966.454 719.778 965.582C721.17 967.176 727.129 973.961 728.991 975.305C731.103 976.83 740.525 976.287 741.176 982.435Z" fill="#233862"/>
<path d="M744.503 767.985C744.503 767.985 747.27 766.172 751.344 764.8C753.89 763.942 757.222 763.012 757.12 763.944C757.016 764.877 751.758 767.363 751.654 767.778C751.55 768.192 744.503 767.985 744.503 767.985Z" fill="#FFB27D"/>
<path d="M921.436 891.817C943.081 876.516 962.601 889.074 977.832 910.82C993.063 932.565 997.009 955.971 975.363 971.272C953.718 986.574 903.21 986.08 892.665 971.025C884.351 959.155 899.79 907.118 921.436 891.817Z" fill="#F77D48"/>
<path d="M948.591 896.62C947.814 897.168 945.058 897.006 945.058 897.006C945.058 897.006 945.837 894.345 946.613 893.796C947.389 893.247 948.461 893.435 949.007 894.215C949.553 894.994 949.367 896.071 948.591 896.62Z" fill="#FBBEA3"/>
<path d="M947.984 906.511C947.208 907.059 944.451 906.897 944.451 906.897C944.451 906.897 945.23 904.235 946.006 903.687C946.782 903.138 947.854 903.325 948.4 904.105C948.946 904.885 948.76 905.962 947.984 906.511Z" fill="#FBBEA3"/>
<path d="M958.548 910.834C957.771 911.383 955.015 911.221 955.015 911.221C955.015 911.221 955.794 908.56 956.57 908.011C957.346 907.462 958.418 907.649 958.964 908.429C959.51 909.209 959.323 910.286 958.548 910.834Z" fill="#FBBEA3"/>
<path d="M961.311 925.54C960.535 926.088 957.778 925.926 957.778 925.926C957.778 925.926 958.557 923.265 959.333 922.716C960.11 922.167 961.181 922.355 961.727 923.134C962.273 923.915 962.087 924.991 961.311 925.54Z" fill="#FBBEA3"/>
<path d="M971.376 930.662C970.599 931.211 967.843 931.048 967.843 931.048C967.843 931.048 968.622 928.387 969.398 927.838C970.174 927.289 971.246 927.477 971.792 928.257C972.338 929.036 972.151 930.113 971.376 930.662Z" fill="#FBBEA3"/>
<path d="M973.421 942.825C972.645 943.374 969.889 943.211 969.889 943.211C969.889 943.211 970.668 940.55 971.444 940.001C972.22 939.452 973.292 939.64 973.838 940.42C974.384 941.199 974.198 942.276 973.421 942.825Z" fill="#FBBEA3"/>
<path d="M982.455 946.484C981.679 947.033 978.922 946.87 978.922 946.87C978.922 946.87 979.701 944.209 980.477 943.66C981.253 943.112 982.325 943.299 982.871 944.079C983.417 944.858 983.231 945.935 982.455 946.484Z" fill="#FBBEA3"/>
<path d="M931.007 902.269C930.08 902.925 926.786 902.731 926.786 902.731C926.786 902.731 927.717 899.551 928.644 898.896C929.572 898.24 930.852 898.464 931.505 899.395C932.157 900.327 931.935 901.614 931.007 902.269Z" fill="#FBBEA3"/>
<path d="M930.282 914.09C929.355 914.745 926.062 914.552 926.062 914.552C926.062 914.552 926.993 911.372 927.92 910.716C928.847 910.06 930.127 910.284 930.78 911.216C931.432 912.148 931.21 913.434 930.282 914.09Z" fill="#FBBEA3"/>
<path d="M942.906 919.254C941.978 919.909 938.685 919.716 938.685 919.716C938.685 919.716 939.616 916.536 940.543 915.88C941.47 915.224 942.751 915.448 943.404 916.38C944.056 917.312 943.833 918.598 942.906 919.254Z" fill="#FBBEA3"/>
<path d="M946.205 936.826C945.278 937.482 941.984 937.288 941.984 937.288C941.984 937.288 942.915 934.108 943.843 933.452C944.77 932.796 946.051 933.02 946.703 933.952C947.356 934.884 947.133 936.171 946.205 936.826Z" fill="#FBBEA3"/>
<path d="M958.229 942.946C957.302 943.602 954.008 943.408 954.008 943.408C954.008 943.408 954.939 940.228 955.866 939.572C956.794 938.917 958.074 939.14 958.727 940.072C959.38 941.004 959.156 942.29 958.229 942.946Z" fill="#FBBEA3"/>
<path d="M960.676 957.483C959.749 958.139 956.455 957.945 956.455 957.945C956.455 957.945 957.386 954.765 958.314 954.109C959.241 953.454 960.521 953.678 961.174 954.609C961.827 955.541 961.604 956.828 960.676 957.483Z" fill="#FBBEA3"/>
<path d="M971.469 961.849C970.542 962.505 967.248 962.312 967.248 962.312C967.248 962.312 968.179 959.131 969.106 958.476C970.034 957.82 971.314 958.044 971.967 958.976C972.62 959.907 972.397 961.194 971.469 961.849Z" fill="#FBBEA3"/>
<path d="M900.192 942.693C899.694 943.046 897.923 942.942 897.923 942.942C897.923 942.942 898.423 941.232 898.922 940.88C899.421 940.527 900.109 940.648 900.46 941.148C900.81 941.649 900.691 942.341 900.192 942.693Z" fill="#FBBEA3"/>
<path d="M899.802 949.048C899.303 949.4 897.532 949.296 897.532 949.296C897.532 949.296 898.033 947.587 898.531 947.234C899.03 946.882 899.718 947.002 900.069 947.503C900.42 948.003 900.3 948.695 899.802 949.048Z" fill="#FBBEA3"/>
<path d="M906.587 951.828C906.088 952.18 904.317 952.076 904.317 952.076C904.317 952.076 904.818 950.367 905.317 950.014C905.815 949.662 906.503 949.783 906.854 950.283C907.205 950.783 907.085 951.476 906.587 951.828Z" fill="#FBBEA3"/>
<path d="M908.36 961.271C907.862 961.623 906.091 961.519 906.091 961.519C906.091 961.519 906.591 959.81 907.09 959.457C907.588 959.104 908.277 959.225 908.627 959.726C908.978 960.226 908.859 960.918 908.36 961.271Z" fill="#FBBEA3"/>
<path d="M914.826 964.562C914.327 964.914 912.557 964.81 912.557 964.81C912.557 964.81 913.057 963.101 913.556 962.748C914.054 962.395 914.743 962.516 915.093 963.017C915.444 963.517 915.324 964.209 914.826 964.562Z" fill="#FBBEA3"/>
<path d="M916.14 972.373C915.642 972.725 913.871 972.621 913.871 972.621C913.871 972.621 914.372 970.912 914.87 970.56C915.369 970.207 916.057 970.328 916.408 970.828C916.759 971.329 916.639 972.021 916.14 972.373Z" fill="#FBBEA3"/>
<path d="M921.942 974.722C921.444 975.074 919.673 974.971 919.673 974.971C919.673 974.971 920.173 973.262 920.672 972.909C921.171 972.557 921.859 972.677 922.21 973.178C922.56 973.678 922.441 974.37 921.942 974.722Z" fill="#FBBEA3"/>
<path d="M908.613 930.132C907.967 930.588 905.673 930.454 905.673 930.454C905.673 930.454 906.321 928.238 906.967 927.782C907.613 927.326 908.505 927.482 908.96 928.131C909.414 928.779 909.259 929.676 908.613 930.132Z" fill="#FBBEA3"/>
<path d="M908.108 938.364C907.462 938.82 905.168 938.685 905.168 938.685C905.168 938.685 905.817 936.47 906.462 936.014C907.108 935.557 908 935.713 908.454 936.362C908.909 937.011 908.754 937.907 908.108 938.364Z" fill="#FBBEA3"/>
<path d="M916.897 941.962C916.251 942.418 913.957 942.284 913.957 942.284C913.957 942.284 914.606 940.069 915.251 939.612C915.898 939.156 916.789 939.312 917.244 939.961C917.699 940.609 917.543 941.506 916.897 941.962Z" fill="#FBBEA3"/>
<path d="M919.201 954.199C918.555 954.656 916.261 954.521 916.261 954.521C916.261 954.521 916.909 952.306 917.555 951.849C918.201 951.393 919.093 951.549 919.547 952.198C920.002 952.847 919.847 953.743 919.201 954.199Z" fill="#FBBEA3"/>
<path d="M927.576 958.464C926.93 958.92 924.636 958.786 924.636 958.786C924.636 958.786 925.284 956.571 925.93 956.114C926.576 955.658 927.468 955.814 927.923 956.463C928.377 957.111 928.222 958.007 927.576 958.464Z" fill="#FBBEA3"/>
<path d="M929.276 968.586C928.63 969.043 926.336 968.908 926.336 968.908C926.336 968.908 926.985 966.693 927.63 966.236C928.276 965.78 929.168 965.936 929.623 966.585C930.077 967.233 929.922 968.129 929.276 968.586Z" fill="#FBBEA3"/>
<path d="M936.797 971.632C936.152 972.088 933.857 971.954 933.857 971.954C933.857 971.954 934.506 969.739 935.152 969.282C935.797 968.826 936.69 968.982 937.144 969.631C937.599 970.279 937.443 971.176 936.797 971.632Z" fill="#FBBEA3"/>
<path d="M918.074 917.17C917.288 917.726 914.497 917.562 914.497 917.562C914.497 917.562 915.286 914.867 916.072 914.311C916.858 913.755 917.943 913.945 918.496 914.734C919.049 915.524 918.86 916.615 918.074 917.17Z" fill="#FBBEA3"/>
<path d="M917.461 927.184C916.675 927.739 913.884 927.575 913.884 927.575C913.884 927.575 914.673 924.88 915.459 924.325C916.245 923.769 917.33 923.959 917.883 924.748C918.436 925.538 918.247 926.628 917.461 927.184Z" fill="#FBBEA3"/>
<path d="M928.156 931.564C927.37 932.119 924.579 931.955 924.579 931.955C924.579 931.955 925.368 929.26 926.154 928.704C926.94 928.149 928.025 928.339 928.578 929.128C929.131 929.918 928.942 931.008 928.156 931.564Z" fill="#FBBEA3"/>
<path d="M930.955 946.454C930.169 947.01 927.378 946.846 927.378 946.846C927.378 946.846 928.167 944.151 928.953 943.595C929.739 943.039 930.823 943.229 931.377 944.018C931.93 944.808 931.741 945.899 930.955 946.454Z" fill="#FBBEA3"/>
<path d="M941.146 951.64C940.36 952.195 937.568 952.031 937.568 952.031C937.568 952.031 938.357 949.336 939.143 948.781C939.929 948.225 941.014 948.415 941.567 949.204C942.12 949.994 941.931 951.085 941.146 951.64Z" fill="#FBBEA3"/>
<path d="M943.216 963.956C942.43 964.512 939.639 964.348 939.639 964.348C939.639 964.348 940.427 961.653 941.213 961.097C941.999 960.541 943.085 960.731 943.638 961.52C944.191 962.31 944.001 963.401 943.216 963.956Z" fill="#FBBEA3"/>
<path d="M952.369 967.661C951.583 968.217 948.791 968.053 948.791 968.053C948.791 968.053 949.58 965.358 950.366 964.802C951.152 964.246 952.237 964.436 952.79 965.226C953.343 966.015 953.154 967.106 952.369 967.661Z" fill="#FBBEA3"/>
<path d="M975.459 909.778C975.459 909.778 991.887 896.588 1008.16 903.305C1008.16 903.305 1006.47 905.286 1005.27 906.14C1004.06 906.995 992.5 900.818 975.925 911.991L975.459 909.778Z" fill="#649B57"/>
<path d="M977.606 909.164C977.606 909.164 972.803 896.346 961.277 893.097C961.277 893.097 968.853 900.541 969.495 902.811C969.495 902.811 966.385 901.469 961.261 904.41C961.261 904.41 969.703 906.205 971.395 911.138C973.088 916.07 971.747 925.189 971.747 925.189C971.747 925.189 978.662 921.918 978.678 918.246C978.678 918.246 985.059 922.977 988.674 932.416C988.674 932.416 987.12 918.031 977.606 909.164Z" fill="#649B57"/>
<path d="M913.92 957.742C913.92 970.895 901.346 981.556 885.836 981.556C870.326 981.556 857.753 970.894 857.753 957.742C857.753 944.589 870.326 933.928 885.836 933.928C901.346 933.927 913.92 944.589 913.92 957.742Z" fill="#2A4E96"/>
<path d="M897.182 955.292C901.193 955.292 904.445 952.534 904.445 949.133C904.445 945.732 901.193 942.975 897.182 942.975C893.171 942.975 889.92 945.732 889.92 949.133C889.92 952.534 893.171 955.292 897.182 955.292Z" fill="#4673BC"/>
<defs>
<filter id="filter0_f_366_1538" x="290.65" y="-29" width="1228.9" height="1034.27" filterUnits="userSpaceOnUse" color-interpolation-filters="sRGB">
<feFlood flood-opacity="0" result="BackgroundImageFix"/>
<feBlend mode="normal" in="SourceGraphic" in2="BackgroundImageFix" result="shape"/>
<feGaussianBlur stdDeviation="9.5" result="effect1_foregroundBlur_366_1538"/>
</filter>
</defs>
</svg>
