<svg width="959" height="969" viewBox="0 0 959 969" fill="none" xmlns="http://www.w3.org/2000/svg">
<g filter="url(#filter0_f_598_529)">
<path d="M12.0009 988.752C12.0009 988.752 12.0013 796.463 12.0011 429.893C12.001 241.089 12 277.141 11.9998 52.8667C5.15997 -109.214 -124.84 -191.707 364 -181.25C827.708 -171.331 766.785 49.5583 768.795 74.3601C775.762 160.473 834.896 223.611 894.795 315.448C904.623 330.516 889.954 347.4 938.142 467.072C938.142 467.072 936.956 622.614 938.142 624.506C950.367 644.02 884.903 702.838 894.795 726.169C879.295 848.166 894.041 788.362 847.795 988.752H12.0009Z" fill="#E9E6DA" fill-opacity="0.7"/>
</g>
<path d="M415.626 728.916C397.869 708.258 368.258 678.552 368.258 678.552V601.314H420.138L415.626 728.916Z" fill="#FFC9AF"/>
<path opacity="0.4" d="M415.626 728.916C397.869 708.258 368.258 678.552 368.258 678.552V601.314H420.138L415.626 728.916Z" fill="#D04C44"/>
<path d="M328.086 487.451C328.086 487.451 358.52 501.633 362.942 503.778C367.364 505.923 371.026 508.563 373.008 514.999C374.99 521.435 377.736 549.987 377.736 549.987C377.736 549.987 398.936 586.295 402.597 598.013C406.257 609.731 406.409 658.745 390.852 703.964C389.936 760.076 390.24 800.675 390.24 800.675C390.24 800.675 397.256 818.17 396.646 821.8C396.037 825.431 388.106 835.333 388.106 835.333C388.106 835.333 300.864 858.932 179.151 835.333C179.151 835.333 169.084 819.16 170.457 815.2C171.83 811.239 182.811 788.464 182.811 788.464C182.811 788.464 147.121 622.602 140.715 583.488C134.309 544.375 137.969 521.352 163.822 510.707C189.675 500.062 225.537 483.706 225.537 483.706L328.086 487.451Z" fill="#FF9EBD"/>
<path d="M272.092 258.698C265.172 236.252 243.955 230.477 223.906 238.315C203.857 246.154 187.081 272.89 186.166 312.499C185.251 352.107 181.894 417.937 166.337 427.437C174.878 427.035 183.115 416.107 183.115 416.107C183.115 416.107 189.826 463.119 175.184 474.784C193.181 476.546 205.995 467.1 209.959 458.124C209.654 469.284 207.518 477.206 207.518 477.206C207.518 477.206 221.893 470.401 225.535 458.124C231.923 458.392 249.369 446.184 249.369 417.63C249.369 389.076 249.369 260.679 249.369 260.679L272.092 258.698Z" fill="#404040"/>
<path d="M241.011 393.88C244.011 415.385 245.505 435.604 245.933 450.394C246.359 465.182 242.514 476.773 225.536 483.705C228.631 491.446 239.56 522.369 286.755 522.369C326.372 522.369 328.085 487.45 328.085 487.45C328.085 487.45 320.746 482.398 315.105 478.007C309.464 473.616 308.929 468.881 308.929 459.751C308.929 450.625 308.929 393.878 308.929 393.878L241.011 393.88Z" fill="#FFC9AF"/>
<path opacity="0.5" d="M245.518 410.307V393.881H308.93C308.93 393.881 308.93 450.626 308.93 459.754C308.93 464.313 309.064 467.777 309.9 470.649C304.605 475.713 297.381 476.008 289.022 472.195C273.48 465.109 254.291 443.006 245.518 410.307Z" fill="#D04C44"/>
<path d="M360.349 379.451C360.349 379.451 357.468 395.7 352.451 413.164C347.436 430.629 333.832 454.915 305.182 457.625C302.193 457.518 259.453 450.986 241.39 400.329C233.027 389.999 212.998 352.22 231.53 303.345C250.058 254.465 328.218 254.501 354.812 292.894C373.091 319.279 365.946 360.144 360.349 379.451Z" fill="#FFC9AF"/>
<path d="M290.706 356.931C300.044 358.664 303.43 367.51 302.145 375.476C302.145 375.476 298.192 380.175 288.673 379.161C279.159 378.145 275.202 371.095 275.67 365.722C275.67 365.722 279.739 356.426 290.706 356.931Z" fill="white"/>
<path d="M290.952 360.586C296.343 361.166 300.276 366.355 299.745 372.189C299.52 374.635 298.539 376.8 297.082 378.452C294.995 379.123 292.224 379.539 288.675 379.161C285.901 378.863 283.615 378.046 281.759 376.915C280.587 374.966 279.994 372.591 280.22 370.102C280.756 364.274 285.56 360.012 290.952 360.586Z" fill="#404040"/>
<path d="M279.877 363.681C279.712 365.523 281.116 367.169 283.009 367.377C284.91 367.575 286.585 366.254 286.742 364.418C286.922 362.578 285.509 360.917 283.622 360.721C281.724 360.529 280.055 361.848 279.877 363.681Z" fill="white"/>
<path d="M303.147 375.249C302.682 367.697 298.699 359.968 290.337 358.942C281.978 357.91 277.132 365.028 276.368 367.454C276.365 370.745 276.734 372.753 276.734 372.753C276.734 372.753 273.123 370.258 272.093 366.271C274.928 360.516 280.36 354.25 290.61 355.349C298.266 356.165 305.453 363.968 303.147 375.249Z" fill="#242424"/>
<path d="M306.756 351.088C303.77 350.499 288.929 344.439 286.172 343.413C283.394 342.399 280.885 341.865 281.344 341.516C281.805 341.169 293.162 339.29 300.988 341.574C308.813 343.859 306.756 351.088 306.756 351.088Z" fill="#242424"/>
<path d="M351.173 360.537C344.411 362.048 341.654 370.778 341.995 378.124C341.995 378.124 344.037 382.544 349.975 382.871C356.461 383.235 360.568 377.034 361.266 371.378C361.266 371.378 359.853 360.409 351.173 360.537Z" fill="white"/>
<path d="M350.908 364.275C355.075 363.865 358.104 369.044 357.478 375.413C357.266 377.611 356.644 379.591 355.76 381.2C354.136 382.33 352.2 382.99 349.976 382.867C347.773 382.744 346.109 382.059 344.882 381.245C344.205 379.671 343.814 377.767 343.841 375.678C343.909 369.931 346.985 364.679 350.908 364.275Z" fill="#404040"/>
<path d="M358.746 368.552C358.528 370.618 357.156 372.279 355.708 372.337C354.269 372.38 353.23 370.855 353.38 368.877C353.51 366.851 354.826 365.051 356.33 364.93C357.868 364.801 358.944 366.445 358.746 368.552Z" fill="white"/>
<path d="M341.424 377.809C342.105 371.012 345.208 363.514 351.196 362.831C357.738 362.09 360.251 370.49 360.371 373.159C359.749 376.538 359.11 378.483 359.11 378.483C359.11 378.483 362.346 376.413 364.028 372.329C362.985 365.578 359.795 357.69 351.463 358.692C345.837 359.365 340.601 367.204 341.424 377.809Z" fill="#242424"/>
<path d="M342.239 353.829C344.681 353.54 355.474 348.947 357.795 348.21C360.129 347.472 362.188 347.186 361.867 346.796C361.547 346.4 354.426 344.024 347.924 345.517C341.427 347.01 342.239 353.829 342.239 353.829Z" fill="#242424"/>
<path d="M325.953 396.444C326.179 401.387 326.876 405.46 326.076 407.132C325.278 408.801 321.671 411.99 321.969 412C322.265 412.012 329.477 410.893 329.438 407.33C329.4 403.765 326.292 395.081 325.953 396.444Z" fill="#D0645D"/>
<path d="M317.381 410.309C317.381 410.309 318.214 407.585 316.274 407.354C314.334 407.124 312.399 409.324 312.399 409.324L317.381 410.309Z" fill="#D0645D"/>
<path d="M204.314 334.118C207.213 306.063 209.045 271.241 250.528 248.959C280.206 233.018 327.552 231.466 359.582 269.094C374.072 273.383 389.781 290.712 388.714 319.264C387.647 347.816 368.748 356.023 361.267 355.219C362.609 351.155 363.583 326.83 358.421 314.058C356.876 321.039 349.618 347.206 326.79 351.777H324.502C324.502 351.777 326.485 344.02 326.485 338.078C319.621 348.476 310.47 351.118 305.436 351.777H303.584C303.584 351.777 307.878 337.75 308.03 321.575C299.398 341.178 285.761 351.06 279.203 351.088C271.882 356.069 255.409 357.075 255.409 357.075C255.409 357.075 250.224 369.359 233.904 371.708L241.39 400.33L243.654 416.106C243.654 416.106 220.786 416.634 207.517 397.161C194.247 377.687 196.839 352.601 204.314 334.118Z" fill="#404040"/>
<path d="M229.776 413.259L227.188 412.212L224.695 411.016C223.068 410.142 221.443 409.247 219.929 408.162C219.153 407.655 218.395 407.122 217.685 406.51C216.973 405.906 216.206 405.383 215.544 404.72L213.518 402.785C212.862 402.121 212.271 401.383 211.647 400.688C211.005 400.004 210.435 399.256 209.901 398.475C209.372 397.717 208.755 396.927 208.298 396.202C207.34 394.519 206.217 392.853 205.486 391.14C205.093 390.278 204.643 389.466 204.295 388.577L203.264 385.894C202.887 385.016 202.666 384.07 202.371 383.159C202.106 382.236 201.773 381.337 201.595 380.386L200.962 377.568C200.775 376.623 200.663 375.661 200.51 374.71C200.343 373.762 200.232 372.801 200.171 371.835C200.1 370.87 199.988 369.91 199.95 368.943C199.911 367.006 199.829 365.075 199.951 363.137C199.975 361.202 200.221 359.275 200.385 357.348C200.689 355.435 200.885 353.508 201.271 351.608C201.582 349.697 202.051 347.822 202.488 345.938C202.97 344.071 203.403 342.178 204.006 340.344C204.513 338.472 205.171 336.66 205.741 334.798L205.742 334.794L205.849 334.495L205.865 334.303L206.476 326.813C206.711 324.33 206.896 321.834 207.172 319.361C207.485 316.897 207.695 314.406 208.089 311.96C208.517 309.524 208.801 307.041 209.35 304.63L210.155 301.01C210.432 299.804 210.657 298.58 211.054 297.416L212.13 293.877C212.511 292.706 212.785 291.486 213.296 290.371L214.682 286.955C215.17 285.834 215.547 284.64 216.131 283.57L219.579 277.09L219.598 277.055C219.689 276.884 219.636 276.669 219.479 276.572C219.327 276.477 219.133 276.53 219.041 276.688L215.286 283.073C214.647 284.133 214.22 285.315 213.677 286.432L212.125 289.835C211.557 290.95 211.232 292.168 210.794 293.342L209.551 296.893C209.097 298.065 208.819 299.293 208.486 300.505L207.512 304.153C206.855 306.587 206.465 309.077 205.929 311.542C205.426 314.014 205.109 316.511 204.69 318.997C204.309 321.488 204.02 323.979 203.68 326.471L202.761 333.931L202.882 333.442L202.88 333.446C202.058 335.278 201.255 337.127 200.596 339.041C199.893 340.936 199.36 342.896 198.782 344.845C198.324 346.83 197.843 348.808 197.519 350.828C197.107 352.826 196.922 354.872 196.688 356.902C196.573 358.95 196.379 360.99 196.415 363.045C196.351 365.095 196.5 367.145 196.602 369.193C196.677 370.215 196.824 371.231 196.933 372.25C197.029 373.272 197.179 374.284 197.384 375.288C197.578 376.295 197.731 377.311 197.958 378.305L198.722 381.273C198.943 382.273 199.324 383.22 199.635 384.191C199.979 385.145 200.239 386.137 200.678 387.052L201.892 389.835C202.303 390.76 202.834 391.643 203.301 392.544C204.22 394.41 205.353 395.921 206.396 397.58C207.015 398.472 207.628 399.173 208.244 399.975C208.841 400.769 209.478 401.525 210.183 402.213C210.871 402.914 211.524 403.654 212.242 404.316L214.456 406.219C215.187 406.861 216.016 407.36 216.786 407.934C217.559 408.514 218.371 409.017 219.204 409.487C220.828 410.503 222.543 411.311 224.261 412.095L226.89 413.149L229.532 414.024C229.728 414.089 229.939 413.97 229.999 413.755C230.061 413.551 229.961 413.335 229.776 413.259Z" fill="#242424"/>
<path d="M235.888 368.629C241.765 369.564 252.329 383.581 246.869 399.801C258.46 391.053 259.529 360.059 235.888 364.252V368.629Z" fill="#404040"/>
<path d="M239.605 373.925C238.257 363.187 235.987 357.44 230.353 357.086C224.72 356.729 215.168 365.669 216.663 375.785C218.804 390.303 226.726 395.441 231.126 398.269C235.529 401.097 241.348 401.667 241.39 400.33C241.428 398.998 239.605 373.925 239.605 373.925Z" fill="#FFC9AF"/>
<path d="M318.707 420.103C325.035 420.331 328.322 421.094 328.472 424.559C328.622 428.025 324.123 434.957 315.658 434.957C303.913 434.957 299.336 427.528 299.718 423.486C300.101 419.444 309.556 419.773 318.707 420.103Z" fill="#7A1C1C"/>
<path d="M299.962 425.73C308.486 421.765 321.061 423.169 326.691 429.403C324.662 432.267 320.932 434.957 315.66 434.957C305.861 434.955 301.066 429.792 299.962 425.73Z" fill="#F65B55"/>
<path d="M327.868 422.616C326.289 423.422 323.153 424.276 316.918 424.188C307.786 424.062 302.577 424.151 299.913 422.751C301.338 419.489 310.155 419.794 318.708 420.103C323.605 420.279 326.658 420.792 327.868 422.616Z" fill="white"/>
<path d="M262.949 356.209C258.68 356.871 255.41 357.073 255.41 357.073C255.41 357.073 266.239 341.376 273.255 318.105C273.255 318.105 271.771 339.991 262.949 356.209Z" fill="#242424"/>
<path d="M322.255 523.088C322.255 523.088 337.47 496.599 339.185 493.876C340.9 491.153 343.074 489.295 345.477 488.553C347.88 487.81 360.348 483.602 363.895 481.869C367.442 480.136 368.74 484.221 366.546 488.553C364.353 492.886 359.891 495.237 357.832 495.979C357.03 502.293 353.369 526.801 322.255 523.088Z" fill="#FFC9AF"/>
<path opacity="0.3" d="M322.255 523.088C322.255 523.088 337.47 496.599 339.185 493.876C340.9 491.153 343.074 489.295 345.477 488.553C347.88 487.81 360.348 483.602 363.895 481.869C367.442 480.136 368.74 484.221 366.546 488.553C364.353 492.886 359.891 495.237 357.832 495.979C357.03 502.293 353.369 526.801 322.255 523.088Z" fill="#D04C44"/>
<path d="M331.807 546.987C331.016 548.478 331.013 549.807 331.651 550.668C332.125 551.314 333.057 552.946 334.578 554.944L381.812 551.698C384.449 551.698 387.707 549.591 389.089 546.985L441.631 454.34C440.613 452.757 439.359 451.066 438.82 450.201C438.36 449.478 437.494 449.04 436.29 449.04H388.566C385.926 449.04 382.67 451.147 381.288 453.751L331.807 546.987Z" fill="#404040"/>
<path opacity="0.6" d="M331.807 546.987C331.016 548.478 331.013 549.807 331.651 550.668C332.125 551.314 333.057 552.946 334.578 554.944L381.812 551.698C384.449 551.698 387.707 549.591 389.089 546.985L441.631 454.34C440.613 452.757 439.359 451.066 438.82 450.201C438.36 449.478 437.494 449.04 436.29 449.04H388.566C385.926 449.04 382.67 451.147 381.288 453.751L331.807 546.987Z" fill="#242424"/>
<path d="M334.653 551.17C333.275 553.772 334.294 555.882 336.933 555.882H384.658C387.295 555.882 390.553 553.774 391.935 551.17L441.413 457.935C442.797 455.333 441.775 453.224 439.136 453.224H391.412C388.774 453.224 385.518 455.331 384.133 457.935L334.653 551.17Z" fill="#404040"/>
<path d="M417.697 470.258C416.423 472.468 417.532 474.261 420.17 474.261H424.553C427.191 474.261 430.361 472.468 431.635 470.258L436.441 461.92C437.711 459.706 436.606 457.918 433.967 457.918H429.585C426.947 457.918 423.776 459.706 422.504 461.92L417.697 470.258Z" fill="#242424"/>
<path d="M427.791 462.53C427.03 463.855 427.691 464.922 429.267 464.922C430.842 464.922 432.737 463.855 433.498 462.53C434.261 461.215 433.601 460.146 432.021 460.146C430.443 460.146 428.551 461.215 427.791 462.53Z" fill="#242424"/>
<path d="M423.658 469.701C422.9 471.022 423.557 472.093 425.137 472.093C426.711 472.093 428.609 471.022 429.366 469.701C430.124 468.384 429.465 467.312 427.891 467.312C426.312 467.312 424.419 468.384 423.658 469.701Z" fill="#242424"/>
<path d="M164.051 756.774C151.086 735.651 135.528 686.47 135.528 630.688H205.994L208.434 678.877C208.434 678.877 198.065 722.445 164.051 756.774Z" fill="#FFC9AF"/>
<path opacity="0.3" d="M165.642 755.122C161.834 746.193 155.411 700.88 192.372 650.238C196.788 644.186 201.37 637.831 206.024 631.319L208.431 678.882C208.431 678.882 198.375 721.065 165.642 755.122Z" fill="#D04C44"/>
<path d="M414.897 528.378C414.897 528.378 414.196 544.625 417.166 557.457C420.137 570.288 453.082 654.787 459.488 675.582C465.894 696.377 467.724 708.919 465.894 723.772C464.063 738.625 459.792 754.467 451.861 753.148C443.93 751.829 414.794 738.956 409.076 714.86C403.359 690.764 379.53 557.249 379.53 557.249V528.38L414.897 528.378Z" fill="#FFC9AF"/>
<path opacity="0.4" d="M410.071 542.156C407.937 559.922 399.531 577.437 384.57 585.286C381.557 568.607 379.529 557.247 379.529 557.247V528.378H410.069V542.156H410.071Z" fill="#D04C44"/>
<path d="M397.751 503.529C401.502 501.216 403.528 499.691 406.76 499.443C409.992 499.195 418.915 499.318 420.974 499.443C423.033 499.568 426.214 502.235 426.511 504.553C426.807 506.87 428.008 515.039 427.065 516.772C426.121 518.505 422.231 520.663 421.774 522.369C421.316 524.074 421.889 528.159 420.401 530.635C418.913 533.11 413.88 536.206 413.422 537.196C412.965 538.186 409.304 547.098 407.587 550.194C405.871 553.289 401.752 556.63 395.462 557.25C389.171 557.87 382.006 556.878 379.526 557.25C377.045 557.622 375.557 554.402 375.902 551.927C376.246 549.451 377.774 546.976 379.526 545.365C380.133 538.309 381.506 534.101 384.022 530.635C384.709 524.321 385.058 519.743 388.031 518.01C389.859 512.441 393.088 506.406 397.751 503.529Z" fill="#FFC9AF"/>
<path opacity="0.5" d="M375.905 551.927C376.249 549.451 377.778 546.975 379.529 545.365C380.137 538.309 381.51 534.101 384.026 530.635C384.713 524.321 385.062 519.742 388.035 518.01C389.861 512.439 393.09 506.406 397.753 503.527C401.416 501.267 403.442 499.772 406.544 499.471C408.918 500.528 410.748 501.398 411.385 501.794C413.77 503.279 413.77 505.632 413.197 507.487C412.635 509.308 410.102 512.769 407.955 513.027C411.391 513.72 415.593 515.275 414.799 515.657C414.182 515.952 410.664 515.518 407.937 515.12C407.73 518.241 406.001 522.232 404.617 523.606C403.488 524.729 402.17 524.949 401.394 524.969C404.767 525.69 408.704 527.167 407.933 527.539C407.344 527.825 404.097 527.436 401.428 527.054C401.727 528.258 401.924 529.771 401.527 531.005C400.726 533.481 399.239 535.833 398.782 536.699C398.456 537.319 397.036 537.929 396.24 538.232C399.618 538.951 403.575 540.436 402.803 540.808C402.161 541.117 398.37 540.632 395.605 540.222C395.489 541.226 395.233 542.458 394.662 543.383C393.518 545.241 391.23 547.591 388.942 548.829C387.253 549.742 380.644 552.477 376.099 554.293C375.885 553.517 375.799 552.689 375.905 551.927Z" fill="#D04C44"/>
<path d="M308.184 535.462C313.446 529.026 345.705 493.501 347.535 492.758C349.365 492.015 377.392 490.53 380.366 490.778C383.341 491.025 402.251 499.072 404.636 500.557C407.021 502.042 407.021 504.395 406.448 506.251C405.875 508.106 403.245 511.697 401.07 511.822C401.872 514.917 399.582 520.664 397.867 522.369C396.151 524.075 393.978 523.704 393.978 523.704C393.978 523.704 395.58 527.295 394.78 529.77C393.98 532.246 392.492 534.599 392.034 535.464C391.577 536.33 388.945 537.197 388.945 537.197C388.945 537.197 389.06 540.292 387.914 542.148C386.769 544.004 384.483 546.357 382.195 547.594C379.907 548.832 368.581 553.413 365.607 554.526C362.633 555.639 338.724 565.543 330.488 568.141C322.136 583.367 256.475 710.98 225.131 734.003C193.788 757.026 167.02 761.234 164.046 756.778C161.072 752.322 156.496 703.306 201.795 654.785C247.095 606.265 308.184 535.462 308.184 535.462Z" fill="#FFC9AF"/>
<path opacity="0.5" d="M400.374 510.975C400.374 510.975 399.784 510.777 398.741 510.476C397.696 510.195 396.214 509.728 394.418 509.284C392.624 508.821 390.523 508.31 388.266 507.823C387.701 507.698 387.128 507.571 386.548 507.444L385.669 507.262L385.226 507.173L385.056 507.145L384.999 507.141L384.886 507.133L384.661 507.118C383.486 506.999 382.168 507.013 380.857 507.072C379.525 507.108 378.361 507.228 377.126 507.302C375.908 507.389 374.722 507.533 373.573 507.644C371.271 507.888 369.133 508.183 367.301 508.46C363.642 509.035 361.217 509.555 361.217 509.555C360.95 509.613 360.776 509.892 360.827 510.181C360.873 510.435 361.08 510.611 361.31 510.615C361.31 510.615 361.925 510.619 363.005 510.625C364.081 510.609 365.619 510.583 367.464 510.558C369.303 510.492 371.45 510.415 373.749 510.332C374.894 510.282 376.079 510.229 377.283 510.175C378.463 510.13 379.747 510.033 380.874 510.027C382.02 510.009 383.156 509.912 384.395 510.033L384.622 510.047L384.736 510.053L384.793 510.056H384.807C384.837 510.06 384.6 510.023 384.707 510.041L384.734 510.045L385.179 510.128L386.059 510.286C386.645 510.385 387.225 510.482 387.792 510.577C390.067 510.967 392.202 511.278 394.036 511.516C395.864 511.777 397.407 511.894 398.478 512.025C399.552 512.136 400.171 512.17 400.171 512.17C400.482 512.191 400.751 511.936 400.773 511.599C400.786 511.316 400.612 511.063 400.374 510.975Z" fill="#D04C44"/>
<path opacity="0.5" d="M393.177 522.971C393.177 522.971 392.741 522.886 391.98 522.791C391.218 522.714 390.131 522.536 388.826 522.443C387.519 522.328 385.996 522.227 384.364 522.175L383.747 522.154L383.434 522.142L383.357 522.138L383.185 522.148L383.167 522.152L383.128 522.157L382.973 522.185C382.559 522.266 382.144 522.348 381.721 522.429C380.873 522.619 380.033 522.718 379.158 522.985C377.418 523.455 375.683 523.952 374.07 524.459C372.483 524.97 371.045 525.481 369.802 525.948C367.327 526.889 365.71 527.641 365.71 527.641C365.457 527.76 365.343 528.077 365.45 528.348C365.538 528.566 365.753 528.691 365.962 528.669C365.962 528.669 366.4 528.624 367.159 528.509C367.911 528.374 369 528.226 370.289 527.982C371.576 527.748 373.082 527.421 374.661 527.071C376.219 526.738 377.864 526.34 379.504 525.912C380.31 525.695 381.199 525.528 382.028 525.336C382.447 525.241 382.865 525.148 383.277 525.055L383.43 525.015L383.469 525.007L383.489 525.001C383.191 525.019 383.412 525.007 383.348 525.011H383.359L383.436 525.007L383.749 524.995L384.366 524.974C385.998 524.924 387.521 524.821 388.828 524.706C390.133 524.613 391.22 524.435 391.981 524.358C392.743 524.263 393.178 524.178 393.178 524.178C393.488 524.118 393.695 523.797 393.64 523.463C393.594 523.211 393.404 523.017 393.177 522.971Z" fill="#D04C44"/>
<path opacity="0.5" d="M388.067 536.47C388.067 536.47 386.791 536.343 384.902 536.452C383.014 536.545 380.517 536.862 378.052 537.423C376.818 537.68 375.594 538.043 374.455 538.389C373.315 538.724 372.264 539.189 371.375 539.556C370.483 539.906 369.762 540.403 369.268 540.677C368.781 540.984 368.503 541.162 368.503 541.162C368.269 541.31 368.19 541.637 368.327 541.891C368.434 542.085 368.631 542.178 368.825 542.148L368.897 542.136C368.897 542.136 369.204 542.087 369.744 542C370.291 541.922 370.994 541.703 371.92 541.576C372.845 541.447 373.871 541.19 375.023 541.011C376.159 540.792 377.371 540.556 378.582 540.318C381.004 539.813 383.425 539.235 385.228 538.694C387.031 538.165 388.224 537.67 388.224 537.67C388.521 537.546 388.669 537.187 388.556 536.866C388.473 536.639 388.277 536.492 388.067 536.47Z" fill="#D04C44"/>
<path d="M143.921 527.294C136.139 540.412 120.581 613.936 116.692 644.633L136.558 655.755L135.91 642.9C135.91 642.9 152.84 637.454 209.35 643.643C209.35 643.643 208.892 591.409 193.792 540.908C193.792 540.908 174.81 524.573 143.921 527.294Z" fill="#FF9EBD"/>
<path d="M135.91 642.899L136.558 655.754L120.912 646.995C124.337 645.603 129.291 644.171 135.91 642.899Z" fill="#DB7093"/>
<path d="M195.386 555.498C195.386 555.498 196.523 560.206 198.227 567.266C198.639 569.024 199.083 570.93 199.554 572.944C200.01 574.96 200.465 577.093 200.985 579.277C201.45 581.479 201.931 583.755 202.418 586.066C202.907 588.375 203.35 590.734 203.795 593.091C204.28 595.44 204.688 597.802 205.048 600.139C205.488 602.46 205.828 604.759 206.148 606.989C206.494 609.217 206.804 611.372 207.047 613.426C207.312 615.48 207.605 617.42 207.757 619.223C207.962 621.027 208.152 622.68 208.321 624.146C208.423 625.615 208.562 626.903 208.658 627.962C208.87 630.085 209.024 631.307 209.024 631.307L209.026 631.327C209.051 631.523 209.218 631.658 209.397 631.632C209.545 631.608 209.659 631.483 209.677 631.331C209.677 631.331 209.842 630.117 210.076 627.978C210.182 626.909 210.334 625.606 210.449 624.108C210.528 622.611 210.6 620.92 210.634 619.07C210.698 617.22 210.709 615.214 210.601 613.099C210.523 610.982 210.488 608.738 210.235 606.445C210.032 604.144 209.836 601.759 209.492 599.361C209.168 596.957 208.797 594.525 208.348 592.106C207.969 589.674 207.382 587.288 206.864 584.929C206.381 582.559 205.694 580.285 205.107 578.067C204.474 575.863 203.842 573.74 203.152 571.757C202.484 569.769 201.833 567.9 201.144 566.206C198.534 559.38 196.074 555.181 196.074 555.181C195.961 554.989 195.727 554.932 195.553 555.052C195.408 555.148 195.348 555.332 195.386 555.498Z" fill="#DB7093"/>
<path d="M220.288 568.728C220.288 568.728 220.228 569.59 220.124 571.097C220.085 571.839 220.034 572.74 219.979 573.774C219.897 574.812 219.831 575.976 219.789 577.242C219.723 578.507 219.653 579.874 219.576 581.324C219.478 582.767 219.436 584.288 219.388 585.859C219.269 587.429 219.146 589.047 219.093 590.693C219.044 592.341 218.936 594.01 218.795 595.674C218.676 597.341 218.555 599.007 218.438 600.649C218.394 602.3 218.209 603.907 218.021 605.459C217.83 607.012 217.743 608.533 217.603 609.971C217.543 610.69 217.477 611.391 217.442 612.076C217.378 612.753 217.263 613.395 217.181 614.019C216.469 618.996 216.297 622.495 216.297 622.495L216.295 622.531C216.286 622.729 216.425 622.897 216.608 622.907C216.743 622.915 216.866 622.832 216.923 622.707C216.923 622.707 218.33 619.615 219.988 614.708C220.437 613.488 220.825 612.143 221.107 610.69C221.416 609.24 221.797 607.719 222.093 606.125C222.408 604.532 222.752 602.887 222.908 601.191C223.078 599.494 223.25 597.771 223.42 596.05C223.647 594.329 223.62 592.592 223.656 590.891C223.702 589.188 223.682 587.511 223.658 585.891C223.599 584.271 223.471 582.706 223.334 581.227C223.219 579.747 223.094 578.351 222.862 577.068C222.503 574.503 222.06 572.382 221.676 570.909C221.507 570.17 221.332 569.601 221.211 569.217C221.092 568.831 221.028 568.625 221.028 568.625C220.962 568.409 220.748 568.292 220.547 568.364C220.396 568.417 220.298 568.568 220.288 568.728Z" fill="#DB7093"/>
<path d="M403.046 484.001C408.276 484.001 410.509 481.585 410.509 475.927C410.509 475.408 410.897 474.988 411.376 474.988C411.856 474.988 412.244 475.408 412.244 475.927C412.244 481.585 414.477 484.001 419.706 484.001C420.185 484.001 420.573 484.421 420.573 484.94C420.573 485.459 420.185 485.879 419.706 485.879C414.477 485.879 412.244 488.295 412.244 493.953C412.244 494.472 411.856 494.892 411.376 494.892C410.897 494.892 410.509 494.472 410.509 493.953C410.509 488.295 408.276 485.879 403.046 485.879C402.567 485.879 402.179 485.459 402.179 484.94C402.179 484.421 402.567 484.001 403.046 484.001Z" fill="white"/>
<path d="M446.288 470.751C449.537 470.751 450.925 469.25 450.925 465.735C450.925 465.414 451.166 465.152 451.463 465.152C451.761 465.152 452.003 465.414 452.003 465.735C452.003 469.25 453.39 470.751 456.639 470.751C456.935 470.751 457.177 471.012 457.177 471.335C457.177 471.656 456.935 471.918 456.639 471.918C453.39 471.918 452.003 473.419 452.003 476.934C452.003 477.257 451.761 477.516 451.463 477.516C451.166 477.516 450.925 477.257 450.925 476.934C450.925 473.419 449.537 471.918 446.288 471.918C445.992 471.918 445.75 471.656 445.75 471.335C445.75 471.012 445.992 470.751 446.288 470.751Z" fill="white"/>
<path d="M405.345 445.344C408.594 445.344 409.981 443.843 409.981 440.327C409.981 440.007 410.223 439.745 410.519 439.745C410.818 439.745 411.059 440.007 411.059 440.327C411.059 443.843 412.447 445.344 415.695 445.344C415.992 445.344 416.233 445.605 416.233 445.928C416.233 446.249 415.992 446.51 415.695 446.51C412.447 446.51 411.059 448.011 411.059 451.527C411.059 451.85 410.818 452.109 410.519 452.109C410.223 452.109 409.981 451.85 409.981 451.527C409.981 448.011 408.594 446.51 405.345 446.51C405.049 446.51 404.807 446.249 404.807 445.928C404.807 445.605 405.049 445.344 405.345 445.344Z" fill="white"/>
<mask id="mask0_598_529" style="mask-type:luminance" maskUnits="userSpaceOnUse" x="104" y="750" width="578" height="168">
<path d="M104 750.127H681.223V917.998H104V750.127Z" fill="white"/>
</mask>
<g mask="url(#mask0_598_529)">
<path d="M420.258 810.977H495.157V918.004H420.258V810.977Z" fill="#949290"/>
<path d="M420.258 810.977H495.157V918.004H420.258V810.977Z" fill="#949290"/>
<path d="M681.222 830.726C681.222 858.045 553.081 880.191 395.013 880.191C236.944 880.191 108.803 858.043 108.803 830.726V805.994H681.222V830.726Z" fill="#949290"/>
<path opacity="0.4" d="M395.013 875.778C553.081 875.778 681.222 854.643 681.222 828.576V832.99C681.222 859.059 553.081 880.191 395.013 880.191C236.944 880.191 108.803 859.057 108.803 832.99V828.576C108.803 854.643 236.944 875.778 395.013 875.778Z" fill="#949290"/>
<path opacity="0.7" d="M681.261 815.173C681.261 837.659 553.15 855.888 395.12 855.888C237.089 855.888 108.978 837.658 108.978 815.173V811.947H681.261V815.173Z" fill="white"/>
<path d="M395.12 847.854C237.088 847.854 108.979 829.625 108.979 807.139C108.979 784.653 237.088 766.424 395.12 766.424C553.151 766.424 681.261 784.653 681.261 807.139C681.261 829.625 553.151 847.854 395.12 847.854Z" fill="#C8C6C4"/>
</g>
<path opacity="0.4" d="M355.684 804.437C355.684 815.373 403.635 824.242 462.788 824.242C521.941 824.242 569.897 815.373 569.897 804.437C569.897 793.501 521.942 784.633 462.788 784.633C403.635 784.633 355.684 793.501 355.684 804.437Z" fill="#949290"/>
<path d="M355.684 767.196C355.684 767.196 374.513 810.516 462.79 810.516C551.066 810.516 569.897 767.196 569.897 767.196H355.684Z" fill="#1C1C1C"/>
<path d="M569.852 767.287C569.683 767.658 568.781 769.529 566.788 772.324C555.306 780.974 513.109 787.393 462.786 787.393C412.464 787.393 370.271 780.974 358.788 772.324C356.794 769.529 355.894 767.658 355.724 767.287C355.725 767.256 355.733 767.228 355.736 767.196H569.842C569.844 767.228 569.85 767.258 569.852 767.287Z" fill="#737373"/>
<path d="M355.684 766.268C355.684 777.206 403.635 786.073 462.788 786.073C521.941 786.073 569.897 777.206 569.897 766.268C569.897 755.332 521.942 746.464 462.788 746.464C403.635 746.464 355.684 755.33 355.684 766.268Z" fill="#4A4A4A"/>
<path opacity="0.4" d="M462.786 786.073C423.433 786.073 389.061 782.145 370.443 776.297C372.876 767.256 413.286 760.063 462.786 760.063C512.288 760.063 552.7 767.256 555.135 776.295C536.519 782.143 502.141 786.073 462.786 786.073Z" fill="#1C1C1C"/>
<path d="M551.845 773.463C560.642 770.782 565.847 759.814 560.272 749.817C554.699 739.814 546.089 738.241 530.286 736.657C508.96 734.516 495.594 737.667 489.771 745.577C483.948 753.487 493.326 766.082 508.958 768.164C524.589 770.247 547.26 774.4 551.845 773.463Z" fill="#FFB380"/>
<path d="M544.412 772.256C554.078 771.183 556.43 767.832 556.058 762.334C555.687 756.838 558.661 754.561 557.42 751.206C556.183 747.855 552.894 745.978 551.067 742.088C549.244 738.2 552.59 734.477 548.129 733.725C543.667 732.97 539.456 732.439 536.729 731.899C534.003 728.011 528.426 727.742 523.596 729.352C518.763 730.962 519.877 726.405 517.027 726.67C514.178 726.94 510.089 728.954 507.735 730.293C505.38 731.633 503.648 728.954 499.682 730.293C495.718 731.633 493.117 731.663 491.504 733.725C489.892 735.788 486.372 736.347 484.445 738.2C482.514 740.054 481.716 741.286 481.716 745.441C481.716 749.598 481.469 754.266 487.046 758.767C492.623 763.273 508.109 764.212 519.136 766.487C530.162 768.771 536.108 771.052 544.412 772.256Z" fill="#6BB451"/>
<path d="M494.254 735.604C498.22 734.261 499.953 736.945 502.307 735.604C504.661 734.261 508.751 732.251 511.599 731.982C514.447 731.717 513.334 736.273 518.164 734.661C522.998 733.055 528.575 733.323 531.299 737.21C534.026 737.749 538.239 738.282 542.699 739.036C547.158 739.789 543.814 743.512 545.637 747.4C547.464 751.289 550.753 753.165 551.99 756.517C553.229 759.87 550.257 762.15 550.626 767.644C550.71 768.875 550.648 769.992 550.405 771.006C548.823 771.567 546.852 771.983 544.411 772.256C536.107 771.052 530.162 768.77 519.135 766.491C508.107 764.215 492.621 763.275 487.044 758.771C481.467 754.27 481.714 749.6 481.714 745.445C481.714 743.756 481.854 742.565 482.139 741.607C483.64 740.896 485.165 740.207 486.074 739.04C487.689 736.975 490.289 736.945 494.254 735.604Z" fill="#3D843C"/>
<path d="M523.31 740.069C529.072 734.241 536.746 736.855 538.761 740.069C540.778 743.29 536.505 745.702 533.53 748.116C530.558 750.53 521.817 754.15 519.961 752.54C518.105 750.93 516.058 744.094 517.733 742.888C519.408 741.684 523.31 740.069 523.31 740.069Z" fill="#D04C44"/>
<path d="M539.42 755.246C545.18 749.414 552.856 752.026 554.871 755.246C556.888 758.462 552.617 760.876 549.642 763.29C546.67 765.703 537.929 769.323 536.073 767.713C534.217 766.105 532.172 759.266 533.847 758.06C535.516 756.854 539.42 755.246 539.42 755.246Z" fill="#D04C44"/>
<path d="M506.599 734.734C512.36 728.901 520.037 731.515 522.052 734.734C524.071 737.95 519.793 740.366 516.821 742.778C513.848 745.19 505.107 748.811 503.251 747.202C501.395 745.596 499.351 738.754 501.025 737.548C502.695 736.34 506.599 734.734 506.599 734.734Z" fill="#D04C44"/>
<path d="M523.344 754.343C522.855 752.826 527.91 751.262 534.635 750.842C541.358 750.42 547.202 751.303 547.688 752.816L546.953 750.537C546.468 749.016 540.624 748.132 533.899 748.556C527.175 748.976 522.119 750.545 522.605 752.056L523.344 754.343Z" fill="#EFEBF7"/>
<path d="M533.62 747.692C541.325 747.213 548.161 748.657 548.888 750.913C549.617 753.172 543.954 755.394 536.254 755.872C528.55 756.357 521.712 754.913 520.985 752.655C520.263 750.404 525.916 748.184 533.62 747.692ZM535.659 754.032C542.383 753.614 547.438 752.043 546.95 750.536C546.465 749.015 540.621 748.132 533.896 748.556C527.172 748.976 522.117 750.544 522.602 752.055C523.09 753.568 528.938 754.454 535.659 754.032Z" fill="#DFD0F7"/>
<path d="M522.001 755.813C522.73 758.072 529.564 759.512 537.271 759.025C544.971 758.548 550.632 756.328 549.904 754.068L548.888 750.911C549.616 753.171 543.953 755.393 536.253 755.87C528.55 756.355 521.712 754.912 520.985 752.654L522.001 755.813Z" fill="#876CB4"/>
<path d="M531.202 751.922C530.783 752.274 532.994 752.554 536.14 752.554C539.288 752.554 542.18 752.272 542.599 751.922C543.015 751.573 540.806 751.288 537.659 751.288C534.509 751.286 531.619 751.573 531.202 751.922Z" fill="#F59F9F"/>
<path d="M539.907 754.169C539.487 754.519 536.596 754.802 533.449 754.802C530.303 754.802 528.09 754.519 528.511 754.169L531.205 751.921C530.786 752.273 532.997 752.553 536.143 752.553C539.292 752.553 542.183 752.271 542.603 751.921L539.907 754.169Z" fill="#E33636"/>
<path d="M494.603 738.151C494.456 738.701 496.389 737.511 498.922 735.485C501.455 733.463 503.626 731.378 503.769 730.825C503.915 730.276 501.979 731.467 499.447 733.491C496.916 735.515 494.745 737.6 494.603 738.151Z" fill="#F59F9F"/>
<path d="M502.836 734.365C502.69 734.916 500.521 737.003 497.988 739.025C495.456 741.047 493.524 742.243 493.668 741.691L494.604 738.152C494.457 738.702 496.39 737.512 498.923 735.486C501.456 733.464 503.627 731.379 503.77 730.826L502.836 734.365Z" fill="#E33636"/>
<path d="M532.54 762.23C532.394 762.78 534.329 761.588 536.86 759.564C539.393 757.542 541.562 755.457 541.71 754.904C541.855 754.355 539.92 755.548 537.387 757.572C534.856 759.592 532.683 761.679 532.54 762.23Z" fill="#F59F9F"/>
<path d="M540.778 758.442C540.629 758.993 538.459 761.078 535.927 763.102C533.394 765.124 531.462 766.319 531.608 765.768L532.543 762.229C532.397 762.779 534.331 761.587 536.863 759.563C539.396 757.541 541.565 755.456 541.713 754.903L540.778 758.442Z" fill="#E33636"/>
<path d="M536.037 739.13C535.508 739.12 537.076 740.829 539.544 742.942C542.013 745.059 544.438 746.782 544.97 746.79C545.497 746.796 543.929 745.091 541.462 742.97C538.996 740.857 536.567 739.136 536.037 739.13Z" fill="#F59F9F"/>
<path d="M541.568 746.74C541.039 746.731 538.612 745.012 536.143 742.896C533.676 740.785 532.104 739.072 532.635 739.08L536.037 739.13C535.508 739.12 537.077 740.829 539.544 742.942C542.013 745.059 544.438 746.782 544.971 746.79L541.568 746.74Z" fill="#E33636"/>
<path d="M529.474 768.779C528.76 767.971 533.288 765.234 539.592 762.664C545.892 760.095 551.582 758.667 552.294 759.475L551.216 758.257C550.5 757.449 544.812 758.877 538.512 761.444C532.21 764.014 527.679 766.753 528.392 767.561L529.474 768.779Z" fill="#EFEBF7"/>
<path d="M538.106 760.985C545.329 758.044 552.048 756.632 553.115 757.838C554.18 759.042 549.187 762.409 541.966 765.348C534.744 768.293 528.023 769.705 526.958 768.497C525.895 767.293 530.884 763.93 538.106 760.985ZM541.099 764.368C547.4 761.801 551.93 759.06 551.217 758.256C550.501 757.448 544.812 758.876 538.513 761.443C532.211 764.013 527.679 766.752 528.393 767.56C529.107 768.364 534.797 766.938 541.099 764.368Z" fill="#DFD0F7"/>
<path d="M528.45 770.184C529.517 771.388 536.236 769.978 543.458 767.033C550.677 764.09 555.67 760.725 554.605 759.519L553.115 757.836C554.18 759.04 549.187 762.407 541.967 765.346C534.744 768.291 528.024 769.703 526.958 768.495L528.45 770.184Z" fill="#876CB4"/>
<path d="M504.464 739.027C504.398 737.425 509.659 737.488 516.213 739.163C522.763 740.837 528.132 743.491 528.201 745.091L528.097 742.673C528.033 741.069 522.665 738.417 516.109 736.743C509.554 735.068 504.294 735.008 504.358 736.607L504.464 739.027Z" fill="#EFEBF7"/>
<path d="M516.069 735.831C523.577 737.754 529.75 741.245 529.847 743.632C529.95 746.02 523.939 746.402 516.433 744.481C508.92 742.564 502.748 739.071 502.649 736.682C502.552 734.296 508.558 733.918 516.069 735.831ZM516.351 742.535C522.905 744.212 528.165 744.271 528.096 742.671C528.032 741.067 522.663 738.415 516.107 736.742C509.553 735.066 504.293 735.007 504.357 736.605C504.427 738.207 509.798 740.861 516.351 742.535Z" fill="#DFD0F7"/>
<path d="M502.79 740.021C502.891 742.409 509.061 745.903 516.572 747.82C524.08 749.741 530.091 749.358 529.99 746.97L529.847 743.631C529.95 746.019 523.939 746.402 516.433 744.481C508.92 742.564 502.748 739.07 502.649 736.682L502.79 740.021Z" fill="#876CB4"/>
<path d="M551.846 773.464C547.512 773.864 542.182 767.944 536.856 758.771C531.528 749.6 522.554 738.426 502.781 736.861C485.811 735.523 477.136 740.884 474.904 747.72C472.673 754.559 472.157 763.453 478.128 764.881C484.096 766.309 541.565 773.096 545.409 773.482C549.245 773.866 550.607 773.866 551.846 773.464Z" fill="#FFD999"/>
<path d="M506.084 777.425C514.882 774.746 520.086 763.778 514.511 753.781C508.938 743.778 500.328 742.205 484.527 740.621C463.199 738.48 449.833 741.631 444.01 749.541C438.186 757.451 447.565 770.046 463.197 772.128C478.828 774.211 501.499 778.362 506.084 777.425Z" fill="#FFB380"/>
<path d="M498.651 776.219C508.317 775.145 510.669 771.795 510.297 766.297C509.926 760.801 512.9 758.522 511.661 755.169C510.424 751.818 507.135 749.94 505.308 746.051C503.483 742.163 506.831 738.44 502.37 737.687C497.906 736.933 493.695 736.402 490.968 735.862C488.242 731.974 482.666 731.705 477.836 733.315C473.002 734.925 474.116 730.368 471.268 730.631C468.417 730.9 464.328 732.915 461.974 734.253C459.621 735.594 457.889 732.915 453.921 734.253C449.957 735.594 447.356 735.624 445.745 737.685C444.133 739.749 440.611 740.308 438.684 742.161C436.753 744.015 435.957 745.245 435.957 749.4C435.957 753.559 435.708 758.227 441.285 762.728C446.862 767.232 462.348 768.172 473.375 770.448C484.403 772.735 490.349 775.013 498.651 776.219Z" fill="#6BB451"/>
<path d="M448.492 739.568C452.46 738.225 454.192 740.909 456.546 739.568C458.899 738.225 462.99 736.215 465.838 735.946C468.688 735.68 467.573 740.237 472.403 738.627C477.237 737.019 482.814 737.288 485.539 741.176C488.264 741.713 492.478 742.247 496.94 743.002C501.398 743.755 498.055 747.478 499.879 751.365C501.704 755.255 504.993 757.13 506.232 760.483C507.471 763.836 504.497 766.116 504.869 771.609C504.951 772.841 504.889 773.958 504.647 774.972C503.064 775.533 501.093 775.949 498.651 776.222C490.349 775.016 484.402 772.736 473.375 770.457C462.348 768.181 446.862 767.241 441.285 762.737C435.708 758.236 435.957 753.566 435.957 749.409C435.957 747.721 436.096 746.531 436.38 745.571C437.88 744.86 439.405 744.171 440.315 743.004C441.927 740.936 444.528 740.907 448.492 739.568Z" fill="#3D843C"/>
<path d="M477.547 744.033C483.307 738.202 490.984 740.817 492.999 744.033C495.017 747.253 490.744 749.665 487.77 752.079C484.795 754.494 476.056 758.114 474.198 756.504C472.342 754.894 470.298 748.057 471.971 746.851C473.645 745.647 477.547 744.033 477.547 744.033Z" fill="#D04C44"/>
<path d="M493.658 759.21C499.419 753.377 507.094 755.99 509.111 759.21C511.128 762.426 506.856 764.84 503.882 767.252C500.907 769.664 492.168 773.285 490.31 771.675C488.456 770.069 486.412 763.226 488.084 762.022C489.754 760.816 493.658 759.21 493.658 759.21Z" fill="#D04C44"/>
<path d="M460.836 738.696C466.597 732.864 474.273 735.478 476.289 738.696C478.306 741.913 474.032 744.327 471.059 746.737C468.085 749.151 459.346 752.771 457.488 751.163C455.634 749.553 453.589 742.715 455.262 741.507C456.932 740.305 460.836 738.696 460.836 738.696Z" fill="#D04C44"/>
<path d="M477.584 758.305C477.097 756.788 482.153 755.224 488.877 754.804C495.6 754.382 501.444 755.265 501.931 756.778L501.195 754.499C500.71 752.978 494.866 752.095 488.141 752.516C481.417 752.938 476.358 754.507 476.845 756.018L477.584 758.305Z" fill="#EFEBF7"/>
<path d="M487.861 751.656C495.565 751.177 502.401 752.619 503.128 754.877C503.854 757.136 498.195 759.358 490.493 759.836C482.79 760.319 475.952 758.877 475.227 756.619C474.502 754.366 480.156 752.148 487.861 751.656ZM489.898 757.996C496.623 757.578 501.68 756.007 501.191 754.5C500.706 752.979 494.862 752.096 488.138 752.518C481.413 752.94 476.354 754.508 476.841 756.019C477.33 757.534 483.178 758.418 489.898 757.996Z" fill="#DFD0F7"/>
<path d="M476.241 759.781C476.97 762.038 483.802 763.48 491.509 762.993C499.211 762.516 504.87 760.293 504.142 758.036L503.126 754.879C503.853 757.139 498.194 759.361 490.492 759.838C482.788 760.321 475.95 758.879 475.225 756.622L476.241 759.781Z" fill="#876CB4"/>
<path d="M485.44 755.883C485.019 756.233 487.231 756.515 490.378 756.515C493.528 756.515 496.418 756.233 496.837 755.883C497.256 755.534 495.045 755.249 491.897 755.249C488.749 755.249 485.859 755.534 485.44 755.883Z" fill="#F59F9F"/>
<path d="M494.145 758.13C493.726 758.48 490.834 758.763 487.686 758.763C484.539 758.763 482.327 758.478 482.748 758.13L485.442 755.882C485.021 756.232 487.234 756.514 490.38 756.514C493.53 756.514 496.42 756.232 496.839 755.882L494.145 758.13Z" fill="#E33636"/>
<path d="M448.84 742.113C448.694 742.664 450.628 741.474 453.16 739.448C455.693 737.426 457.863 735.34 458.008 734.786C458.153 734.237 456.216 735.429 453.685 737.451C451.154 739.477 448.983 741.561 448.84 742.113Z" fill="#F59F9F"/>
<path d="M457.075 738.33C456.931 738.881 454.76 740.968 452.229 742.99C449.696 745.012 447.763 746.208 447.909 745.656L448.843 742.117C448.696 742.667 450.631 741.477 453.162 739.451C455.695 737.429 457.866 735.344 458.011 734.789L457.075 738.33Z" fill="#E33636"/>
<path d="M486.779 766.188C486.632 766.736 488.567 765.546 491.098 763.522C493.631 761.5 495.802 759.415 495.946 758.862C496.091 758.313 494.158 759.506 491.623 761.53C489.094 763.55 486.923 765.637 486.779 766.188Z" fill="#F59F9F"/>
<path d="M495.017 762.4C494.869 762.951 492.7 765.038 490.168 767.06C487.635 769.082 485.702 770.277 485.847 769.726L486.782 766.187C486.636 766.736 488.571 765.545 491.102 763.521C493.635 761.499 495.806 759.414 495.95 758.861L495.017 762.4Z" fill="#E33636"/>
<path d="M490.274 743.092C489.745 743.082 491.315 744.791 493.783 746.904C496.25 749.021 498.677 750.744 499.208 750.75C499.735 750.758 498.166 749.053 495.699 746.932C493.232 744.819 490.803 743.098 490.274 743.092Z" fill="#F59F9F"/>
<path d="M495.806 750.702C495.277 750.692 492.849 748.973 490.38 746.858C487.912 744.747 486.342 743.034 486.873 743.042L490.273 743.092C489.745 743.082 491.315 744.791 493.782 746.904C496.249 749.021 498.676 750.744 499.207 750.75L495.806 750.702Z" fill="#E33636"/>
<path d="M483.713 772.742C482.999 771.934 487.528 769.197 493.831 766.627C500.133 764.058 505.823 762.63 506.533 763.438L505.455 762.22C504.74 761.412 499.051 762.84 492.751 765.407C486.45 767.977 481.918 770.716 482.633 771.524L483.713 772.742Z" fill="#EFEBF7"/>
<path d="M492.345 764.948C499.567 762.007 506.286 760.595 507.353 761.801C508.421 763.005 503.426 766.372 496.205 769.311C488.983 772.256 482.262 773.666 481.197 772.46C480.134 771.258 485.125 767.893 492.345 764.948ZM495.338 768.331C501.639 765.764 506.169 763.023 505.455 762.219C504.74 761.411 499.051 762.839 492.751 765.406C486.45 767.976 481.918 770.715 482.634 771.523C483.346 772.327 489.038 770.901 495.338 768.331Z" fill="#DFD0F7"/>
<path d="M482.689 774.147C483.756 775.351 490.475 773.941 497.698 770.996C504.918 768.053 509.909 764.688 508.844 763.482L507.356 761.799C508.423 763.003 503.428 766.37 496.208 769.309C488.986 772.254 482.265 773.664 481.2 772.458L482.689 774.147Z" fill="#876CB4"/>
<path d="M458.702 742.99C458.637 741.388 463.895 741.452 470.449 743.127C477.002 744.801 482.368 747.454 482.438 749.055L482.333 746.636C482.271 745.032 476.901 742.38 470.347 740.707C463.791 739.032 458.53 738.97 458.594 740.57L458.702 742.99Z" fill="#EFEBF7"/>
<path d="M470.306 739.794C477.816 741.717 483.988 745.208 484.087 747.595C484.187 749.983 478.177 750.365 470.671 748.444C463.157 746.527 456.986 743.032 456.887 740.643C456.792 738.259 462.797 737.881 470.306 739.794ZM470.588 746.5C477.143 748.177 482.405 748.236 482.333 746.636C482.271 745.032 476.901 742.38 470.347 740.707C463.791 739.031 458.53 738.97 458.595 740.57C458.664 742.17 464.036 744.826 470.588 746.5Z" fill="#DFD0F7"/>
<path d="M457.028 743.985C457.128 746.374 463.3 749.867 470.81 751.784C478.317 753.706 484.328 753.323 484.229 750.935L484.087 747.596C484.187 749.984 478.177 750.366 470.671 748.445C463.157 746.528 456.986 743.033 456.887 740.645L457.028 743.985Z" fill="#876CB4"/>
<path d="M506.084 777.427C501.75 777.829 496.422 771.909 491.094 762.736C485.768 753.565 476.794 742.391 457.022 740.826C440.049 739.488 431.374 744.849 429.145 751.685C426.913 758.522 426.396 767.418 432.368 768.846C438.334 770.273 495.805 777.06 499.647 777.447C503.483 777.829 504.845 777.829 506.084 777.427Z" fill="#FFD999"/>
<path d="M460.329 783.368C469.128 780.688 474.331 769.72 468.756 759.723C463.185 749.72 454.573 748.148 438.772 746.563C417.446 744.422 404.078 747.573 398.256 755.483C392.432 763.393 401.812 775.989 417.444 778.07C433.073 780.153 455.746 784.304 460.329 783.368Z" fill="#FFB380"/>
<path d="M452.895 782.161C462.561 781.088 464.913 777.735 464.541 772.239C464.17 766.744 467.144 764.464 465.905 761.111C464.668 757.76 461.379 755.883 459.552 751.993C457.727 748.106 461.075 744.382 456.615 743.63C452.152 742.875 447.941 742.345 445.212 741.804C442.488 737.916 436.912 737.647 432.082 739.255C427.248 740.865 428.361 736.31 425.513 736.574C422.663 736.843 418.572 738.855 416.22 740.196C413.865 741.537 412.133 738.855 408.167 740.196C404.203 741.537 401.602 741.566 399.989 743.628C398.377 745.691 394.857 746.248 392.928 748.104C390.997 749.957 390.201 751.187 390.201 755.342C390.201 759.501 389.954 764.169 395.531 768.67C401.106 773.172 416.594 774.115 427.619 776.39C438.647 778.678 444.593 780.955 452.895 782.161Z" fill="#6BB451"/>
<path d="M402.737 745.508C406.705 744.168 408.438 746.851 410.79 745.508C413.144 744.168 417.234 742.157 420.084 741.888C422.932 741.623 421.817 746.18 426.649 744.568C431.483 742.962 437.058 743.229 439.783 747.117C442.508 747.653 446.724 748.188 451.186 748.942C455.643 749.693 452.299 753.418 454.123 757.306C455.95 761.195 459.239 763.069 460.476 766.424C461.715 769.777 458.741 772.056 459.113 777.55C459.197 778.782 459.133 779.901 458.891 780.913C457.31 781.471 455.337 781.889 452.895 782.162C444.593 780.956 438.647 778.677 427.619 776.397C416.594 774.122 401.106 773.179 395.531 768.678C389.954 764.176 390.201 759.506 390.201 755.349C390.201 753.662 390.34 752.472 390.626 751.511C392.125 750.8 393.649 750.111 394.561 748.944C396.173 746.879 398.774 746.849 402.737 745.508Z" fill="#3D843C"/>
<path d="M431.795 749.972C437.556 744.142 445.231 746.756 447.248 749.972C449.265 753.193 444.991 755.605 442.017 758.019C439.042 760.433 430.303 764.053 428.447 762.443C426.589 760.833 424.545 753.997 426.218 752.79C427.892 751.586 431.795 749.972 431.795 749.972Z" fill="#D04C44"/>
<path d="M447.905 765.152C453.666 759.32 461.341 761.932 463.358 765.152C465.375 768.368 461.103 770.783 458.129 773.195C455.154 775.607 446.415 779.227 444.559 777.617C442.703 776.011 440.659 769.168 442.332 767.964C444.003 766.758 447.905 765.152 447.905 765.152Z" fill="#D04C44"/>
<path d="M415.079 744.637C420.844 738.807 428.519 741.421 430.534 744.637C432.551 747.856 428.275 750.27 425.303 752.68C422.329 755.094 413.589 758.714 411.733 757.106C409.877 755.496 407.833 748.658 409.506 747.45C411.177 746.247 415.079 744.637 415.079 744.637Z" fill="#D04C44"/>
<path d="M431.826 764.246C431.338 762.728 436.393 761.164 443.117 760.744C449.84 760.32 455.684 761.206 456.171 762.719L455.435 760.439C454.95 758.92 449.106 758.035 442.382 758.457C435.657 758.879 430.6 760.447 431.087 761.956L431.826 764.246Z" fill="#EFEBF7"/>
<path d="M442.105 757.597C449.808 757.118 456.645 758.559 457.373 760.817C458.098 763.077 452.439 765.299 444.739 765.776C437.033 766.259 430.195 764.818 429.47 762.56C428.746 760.306 434.401 758.086 442.105 757.597ZM444.142 763.936C450.866 763.518 455.925 761.948 455.435 760.441C454.95 758.922 449.106 758.036 442.381 758.458C435.657 758.88 430.6 760.449 431.087 761.958C431.575 763.475 437.421 764.358 444.142 763.936Z" fill="#DFD0F7"/>
<path d="M430.486 765.721C431.214 767.979 438.047 769.42 445.756 768.933C453.456 768.456 459.115 766.234 458.388 763.976L457.373 760.819C458.097 763.079 452.438 765.301 444.738 765.778C437.033 766.262 430.195 764.82 429.47 762.562L430.486 765.721Z" fill="#876CB4"/>
<path d="M439.686 761.825C439.265 762.176 441.478 762.457 444.626 762.457C447.774 762.457 450.664 762.174 451.083 761.825C451.502 761.475 449.291 761.191 446.145 761.191C442.995 761.191 440.107 761.475 439.686 761.825Z" fill="#F59F9F"/>
<path d="M448.391 764.072C447.972 764.423 445.08 764.706 441.934 764.706C438.785 764.706 436.575 764.421 436.994 764.072L439.688 761.824C439.267 762.175 441.48 762.456 444.628 762.456C447.776 762.456 450.666 762.173 451.085 761.824L448.391 764.072Z" fill="#E33636"/>
<path d="M403.085 748.059C402.94 748.609 404.875 747.419 407.406 745.393C409.939 743.371 412.108 741.286 412.253 740.731C412.399 740.183 410.463 741.375 407.932 743.397C405.402 745.423 403.228 747.506 403.085 748.059Z" fill="#F59F9F"/>
<path d="M411.322 744.273C411.176 744.824 409.005 746.911 406.474 748.931C403.941 750.955 402.008 752.15 402.155 751.597L403.088 748.058C402.943 748.609 404.878 747.418 407.409 745.392C409.942 743.37 412.111 741.285 412.256 740.73L411.322 744.273Z" fill="#E33636"/>
<path d="M441.023 772.133C440.876 772.682 442.811 771.491 445.342 769.467C447.875 767.445 450.046 765.358 450.193 764.805C450.337 764.257 448.403 765.449 445.869 767.471C443.338 769.495 441.167 771.582 441.023 772.133Z" fill="#F59F9F"/>
<path d="M449.26 768.346C449.114 768.896 446.943 770.984 444.412 773.008C441.879 775.03 439.946 776.224 440.092 775.671L441.026 772.134C440.879 772.683 442.814 771.493 445.345 769.469C447.878 767.447 450.049 765.359 450.195 764.807L449.26 768.346Z" fill="#E33636"/>
<path d="M444.519 749.035C443.99 749.025 445.561 750.734 448.028 752.848C450.497 754.965 452.922 756.688 453.453 756.694C453.98 756.701 452.411 754.994 449.946 752.875C447.479 750.762 445.048 749.041 444.519 749.035Z" fill="#F59F9F"/>
<path d="M450.051 756.646C449.523 756.636 447.094 754.917 444.627 752.802C442.159 750.691 440.587 748.977 441.118 748.985L444.519 749.035C443.99 749.025 445.56 750.734 448.027 752.847C450.496 754.964 452.921 756.687 453.452 756.693L450.051 756.646Z" fill="#E33636"/>
<path d="M437.959 778.685C437.245 777.877 441.775 775.14 448.078 772.57C454.378 770.001 460.068 768.573 460.782 769.381L459.704 768.163C458.989 767.353 453.3 768.783 447 771.35C440.697 773.92 436.165 776.659 436.881 777.467L437.959 778.685Z" fill="#EFEBF7"/>
<path d="M446.59 770.89C453.813 767.95 460.533 766.537 461.599 767.744C462.666 768.948 457.673 772.312 450.452 775.253C443.228 778.198 436.507 779.608 435.442 778.402C434.38 777.2 439.368 773.835 446.59 770.89ZM449.581 774.273C455.884 771.706 460.414 768.966 459.701 768.161C458.985 767.351 453.296 768.781 446.997 771.348C440.693 773.919 436.161 776.658 436.877 777.466C437.591 778.27 443.281 776.844 449.581 774.273Z" fill="#DFD0F7"/>
<path d="M436.935 780.089C438 781.293 444.719 779.883 451.943 776.938C459.162 773.995 464.153 770.633 463.09 769.425L461.6 767.741C462.667 768.945 457.674 772.31 450.453 775.251C443.229 778.196 436.509 779.606 435.443 778.4L436.935 780.089Z" fill="#876CB4"/>
<path d="M412.946 748.933C412.88 747.331 418.138 747.394 424.692 749.07C431.245 750.743 436.613 753.397 436.683 754.997L436.576 752.579C436.514 750.975 431.144 748.323 424.59 746.649C418.036 744.974 412.774 744.913 412.838 746.513L412.946 748.933Z" fill="#EFEBF7"/>
<path d="M424.553 745.736C432.061 747.659 438.233 751.151 438.332 753.537C438.434 755.926 432.425 756.308 424.918 754.387C417.404 752.47 411.233 748.974 411.134 746.586C411.035 744.201 417.04 743.823 424.553 745.736ZM424.832 752.442C431.388 754.119 436.648 754.177 436.576 752.579C436.514 750.974 431.144 748.323 424.59 746.649C418.036 744.974 412.774 744.912 412.838 746.513C412.909 748.113 418.279 750.766 424.832 752.442Z" fill="#DFD0F7"/>
<path d="M411.273 749.927C411.373 752.315 417.545 755.809 425.057 757.726C432.564 759.647 438.573 759.265 438.474 756.876L438.332 753.537C438.434 755.926 432.425 756.308 424.918 754.387C417.404 752.47 411.233 748.974 411.134 746.586L411.273 749.927Z" fill="#876CB4"/>
<path d="M460.329 783.368C455.997 783.77 450.667 777.851 445.341 768.677C440.013 759.506 431.039 748.332 411.267 746.768C394.295 745.429 385.619 750.79 383.39 757.626C381.159 764.463 380.641 773.359 386.613 774.787C392.581 776.215 450.05 783.002 453.892 783.388C457.728 783.77 459.09 783.77 460.329 783.368Z" fill="#FFD999"/>
<path opacity="0.4" d="M451.784 838.347C451.784 841.678 466.39 844.379 484.411 844.379C502.43 844.379 517.039 841.678 517.039 838.347C517.039 835.014 502.43 832.312 484.411 832.312C466.39 832.313 451.784 835.014 451.784 838.347Z" fill="#949290"/>
<path d="M451.784 827.005C451.784 827.005 457.518 840.201 484.411 840.201C511.303 840.201 517.039 827.005 517.039 827.005H451.784Z" fill="#1C1C1C"/>
<path d="M517.027 827.032C516.978 827.145 516.7 827.715 516.092 828.565C512.596 831.201 499.739 833.153 484.41 833.153C469.08 833.153 456.227 831.201 452.728 828.565C452.12 827.713 451.846 827.143 451.793 827.032C451.793 827.022 451.798 827.014 451.798 827.004H517.022C517.024 827.014 517.026 827.022 517.027 827.032Z" fill="#737373"/>
<path d="M451.784 826.717C451.784 830.05 466.39 832.749 484.411 832.749C502.43 832.749 517.039 830.05 517.039 826.717C517.039 823.384 502.43 820.685 484.411 820.685C466.39 820.687 451.784 823.386 451.784 826.717Z" fill="#4A4A4A"/>
<path d="M484.412 832.749C472.421 832.749 461.952 831.553 456.28 829.772C457.022 827.018 469.332 824.827 484.412 824.827C499.489 824.827 511.804 827.018 512.543 829.772C506.871 831.555 496.4 832.749 484.412 832.749Z" fill="#F6BF25"/>
<path opacity="0.4" d="M524.775 831.457C524.775 834.79 539.383 837.492 557.402 837.492C575.423 837.492 590.03 834.79 590.03 831.457C590.03 828.124 575.423 825.423 557.402 825.423C539.383 825.425 524.775 828.126 524.775 831.457Z" fill="#949290"/>
<path d="M524.775 820.117C524.775 820.117 530.511 833.313 557.402 833.313C584.294 833.313 590.03 820.117 590.03 820.117H524.775Z" fill="#1C1C1C"/>
<path d="M590.019 820.143C589.969 820.258 589.691 820.828 589.085 821.678C585.587 824.314 572.732 826.266 557.401 826.266C542.071 826.266 529.219 824.314 525.719 821.678C525.111 820.826 524.837 820.256 524.784 820.143C524.784 820.133 524.789 820.127 524.789 820.117H590.013C590.015 820.127 590.017 820.133 590.019 820.143Z" fill="#737373"/>
<path d="M524.775 819.831C524.775 823.164 539.383 825.864 557.402 825.864C575.423 825.864 590.03 823.164 590.03 819.831C590.03 816.498 575.423 813.799 557.402 813.799C539.383 813.799 524.775 816.5 524.775 819.831Z" fill="#4A4A4A"/>
<path d="M557.403 825.862C545.414 825.862 534.943 824.668 529.271 822.886C530.013 820.129 542.325 817.94 557.403 817.94C572.482 817.94 584.795 820.129 585.534 822.884C579.864 824.668 569.393 825.862 557.403 825.862Z" fill="#E33636"/>
<defs>
<filter id="filter0_f_598_529" x="-27.6553" y="-201.135" width="986.325" height="1208.89" filterUnits="userSpaceOnUse" color-interpolation-filters="sRGB">
<feFlood flood-opacity="0" result="BackgroundImageFix"/>
<feBlend mode="normal" in="SourceGraphic" in2="BackgroundImageFix" result="shape"/>
<feGaussianBlur stdDeviation="9.5" result="effect1_foregroundBlur_598_529"/>
</filter>
</defs>
</svg>
